%TF.GenerationSoftware,KiCad,Pcbnew,9.0.2*%
%TF.CreationDate,2026-02-09T05:43:33+00:00*%
%TF.ProjectId,kicad_rgb_module,6b696361-645f-4726-9762-5f6d6f64756c,0.1*%
%TF.SameCoordinates,PX518a060PY47868c0*%
%TF.FileFunction,Paste,Top*%
%TF.FilePolarity,Positive*%
%FSLAX46Y46*%
G04 Gerber Fmt 4.6, Leading zero omitted, Abs format (unit mm)*
G04 Created by KiCad (PCBNEW 9.0.2) date 2026-02-09 05:43:33*
%MOMM*%
%LPD*%
G01*
G04 APERTURE LIST*
G04 Aperture macros list*
%AMRoundRect*
0 Rectangle with rounded corners*
0 $1 Rounding radius*
0 $2 $3 $4 $5 $6 $7 $8 $9 X,Y pos of 4 corners*
0 Add a 4 corners polygon primitive as box body*
4,1,4,$2,$3,$4,$5,$6,$7,$8,$9,$2,$3,0*
0 Add four circle primitives for the rounded corners*
1,1,$1+$1,$2,$3*
1,1,$1+$1,$4,$5*
1,1,$1+$1,$6,$7*
1,1,$1+$1,$8,$9*
0 Add four rect primitives between the rounded corners*
20,1,$1+$1,$2,$3,$4,$5,0*
20,1,$1+$1,$4,$5,$6,$7,0*
20,1,$1+$1,$6,$7,$8,$9,0*
20,1,$1+$1,$8,$9,$2,$3,0*%
G04 Aperture macros list end*
%ADD10RoundRect,0.200000X-0.275000X0.200000X-0.275000X-0.200000X0.275000X-0.200000X0.275000X0.200000X0*%
%ADD11RoundRect,0.225000X-0.225000X-0.250000X0.225000X-0.250000X0.225000X0.250000X-0.225000X0.250000X0*%
%ADD12R,0.700000X1.000000*%
%ADD13R,0.700000X0.800000*%
%ADD14RoundRect,0.225000X-0.250000X0.225000X-0.250000X-0.225000X0.250000X-0.225000X0.250000X0.225000X0*%
%ADD15O,0.360000X1.740000*%
%ADD16R,0.800000X0.800000*%
%ADD17R,0.800000X0.860000*%
%ADD18RoundRect,0.225000X0.225000X0.250000X-0.225000X0.250000X-0.225000X-0.250000X0.225000X-0.250000X0*%
%ADD19R,0.550000X0.350000*%
%ADD20RoundRect,0.200000X-0.200000X-0.275000X0.200000X-0.275000X0.200000X0.275000X-0.200000X0.275000X0*%
%ADD21RoundRect,0.200000X0.200000X0.275000X-0.200000X0.275000X-0.200000X-0.275000X0.200000X-0.275000X0*%
%ADD22RoundRect,0.112500X0.112500X-0.187500X0.112500X0.187500X-0.112500X0.187500X-0.112500X-0.187500X0*%
%ADD23R,1.000000X0.800000*%
%ADD24R,1.360000X1.230000*%
G04 APERTURE END LIST*
D10*
%TO.C,R2*%
X3800000Y-4575000D03*
X3800000Y-6225000D03*
%TD*%
D11*
%TO.C,C1*%
X-5575000Y4200000D03*
X-4025000Y4200000D03*
%TD*%
D12*
%TO.C,U2*%
X-8050000Y-1600000D03*
X-9000000Y-1600000D03*
X-9950000Y-1600000D03*
X-9950000Y-4000000D03*
X-8050000Y-4000000D03*
%TD*%
D13*
%TO.C,D8*%
X-550000Y-850000D03*
X-550000Y850000D03*
X550000Y850000D03*
X550000Y-850000D03*
%TD*%
D14*
%TO.C,C2*%
X7000000Y-4625000D03*
X7000000Y-6175000D03*
%TD*%
D15*
%TO.C,U1*%
X4670000Y-2870000D03*
X5320000Y-2870000D03*
X5970000Y-2870000D03*
X6620000Y-2870000D03*
X7280000Y-2870000D03*
X7930000Y-2870000D03*
X8580000Y-2870000D03*
X9230000Y-2870000D03*
X9880000Y-2870000D03*
X10530000Y-2870000D03*
X10530000Y2870000D03*
X9880000Y2870000D03*
X9230000Y2870000D03*
X8580000Y2870000D03*
X7930000Y2870000D03*
X7280000Y2870000D03*
X6620000Y2870000D03*
X5970000Y2870000D03*
X5320000Y2870000D03*
X4670000Y2870000D03*
%TD*%
D16*
%TO.C,D7*%
X-850000Y5900000D03*
X850000Y5900000D03*
%TD*%
D17*
%TO.C,FB1*%
X-4100000Y6000000D03*
X-5500000Y6000000D03*
%TD*%
D18*
%TO.C,C4*%
X-8225000Y-5600000D03*
X-9775000Y-5600000D03*
%TD*%
D19*
%TO.C,D3*%
X-2200000Y-6320000D03*
X-2200000Y-5680000D03*
%TD*%
D16*
%TO.C,D6*%
X-850000Y-5900000D03*
X850000Y-5900000D03*
%TD*%
D10*
%TO.C,R6*%
X7200000Y6225000D03*
X7200000Y4575000D03*
%TD*%
D19*
%TO.C,D4*%
X-2200000Y6320000D03*
X-2200000Y5680000D03*
%TD*%
D20*
%TO.C,R4*%
X8775000Y-5200000D03*
X10425000Y-5200000D03*
%TD*%
D19*
%TO.C,D5*%
X2200000Y6320000D03*
X2200000Y5680000D03*
%TD*%
D21*
%TO.C,R5*%
X10425000Y5200000D03*
X8775000Y5200000D03*
%TD*%
D22*
%TO.C,D9*%
X-2750000Y-1050000D03*
X-2750000Y1050000D03*
%TD*%
D23*
%TO.C,D1*%
X3450000Y6950000D03*
X3450000Y5050000D03*
X5750000Y6000000D03*
%TD*%
D20*
%TO.C,R1*%
X-5625000Y2400000D03*
X-3975000Y2400000D03*
%TD*%
D24*
%TO.C,SW1*%
X-5600000Y-3580000D03*
X-5600000Y780000D03*
%TD*%
D19*
%TO.C,D2*%
X2200000Y-6320000D03*
X2200000Y-5680000D03*
%TD*%
D18*
%TO.C,C3*%
X-8225000Y0D03*
X-9775000Y0D03*
%TD*%
D10*
%TO.C,R3*%
X5400000Y-4575000D03*
X5400000Y-6225000D03*
%TD*%
M02*
