%TF.GenerationSoftware,KiCad,Pcbnew,9.0.2*%
%TF.CreationDate,2026-02-09T05:43:33+00:00*%
%TF.ProjectId,kicad_rgb_module,6b696361-645f-4726-9762-5f6d6f64756c,0.1*%
%TF.SameCoordinates,PX518a060PY47868c0*%
%TF.FileFunction,Copper,L1,Top*%
%TF.FilePolarity,Positive*%
%FSLAX46Y46*%
G04 Gerber Fmt 4.6, Leading zero omitted, Abs format (unit mm)*
G04 Created by KiCad (PCBNEW 9.0.2) date 2026-02-09 05:43:33*
%MOMM*%
%LPD*%
G01*
G04 APERTURE LIST*
G04 Aperture macros list*
%AMRoundRect*
0 Rectangle with rounded corners*
0 $1 Rounding radius*
0 $2 $3 $4 $5 $6 $7 $8 $9 X,Y pos of 4 corners*
0 Add a 4 corners polygon primitive as box body*
4,1,4,$2,$3,$4,$5,$6,$7,$8,$9,$2,$3,0*
0 Add four circle primitives for the rounded corners*
1,1,$1+$1,$2,$3*
1,1,$1+$1,$4,$5*
1,1,$1+$1,$6,$7*
1,1,$1+$1,$8,$9*
0 Add four rect primitives between the rounded corners*
20,1,$1+$1,$2,$3,$4,$5,0*
20,1,$1+$1,$4,$5,$6,$7,0*
20,1,$1+$1,$6,$7,$8,$9,0*
20,1,$1+$1,$8,$9,$2,$3,0*%
%AMFreePoly0*
4,1,31,1.555635,1.555635,1.655822,1.452117,1.831196,1.223566,1.975237,0.974078,2.085481,0.707925,2.160042,0.429659,2.197645,0.144041,2.197645,-0.144041,2.160042,-0.429659,2.085481,-0.707925,1.975237,-0.974078,1.831196,-1.223566,1.655822,-1.452117,1.555635,-1.555635,0.000000,-3.111270,-1.555635,-1.555635,-1.655822,-1.452117,-1.831196,-1.223566,-1.975237,-0.974078,-2.085481,-0.707925,
-2.160042,-0.429659,-2.197645,-0.144041,-2.197645,0.144041,-2.160042,0.429659,-2.085481,0.707925,-1.975237,0.974078,-1.831196,1.223566,-1.655822,1.452117,-1.555635,1.555635,0.000000,3.111270,1.555635,1.555635,1.555635,1.555635,$1*%
G04 Aperture macros list end*
%TA.AperFunction,FiducialPad,Local*%
%ADD10FreePoly0,225.000000*%
%TD*%
%TA.AperFunction,FiducialPad,Local*%
%ADD11C,4.400000*%
%TD*%
%TA.AperFunction,SMDPad,CuDef*%
%ADD12RoundRect,0.200000X-0.275000X0.200000X-0.275000X-0.200000X0.275000X-0.200000X0.275000X0.200000X0*%
%TD*%
%TA.AperFunction,SMDPad,CuDef*%
%ADD13RoundRect,0.225000X-0.225000X-0.250000X0.225000X-0.250000X0.225000X0.250000X-0.225000X0.250000X0*%
%TD*%
%TA.AperFunction,SMDPad,CuDef*%
%ADD14R,0.700000X1.000000*%
%TD*%
%TA.AperFunction,SMDPad,CuDef*%
%ADD15C,0.125000*%
%TD*%
%TA.AperFunction,ComponentPad*%
%ADD16RoundRect,0.172720X0.259080X-0.259080X0.259080X0.259080X-0.259080X0.259080X-0.259080X-0.259080X0*%
%TD*%
%TA.AperFunction,ComponentPad*%
%ADD17C,0.863600*%
%TD*%
%TA.AperFunction,SMDPad,CuDef*%
%ADD18R,0.700000X0.800000*%
%TD*%
%TA.AperFunction,SMDPad,CuDef*%
%ADD19RoundRect,0.225000X-0.250000X0.225000X-0.250000X-0.225000X0.250000X-0.225000X0.250000X0.225000X0*%
%TD*%
%TA.AperFunction,SMDPad,CuDef*%
%ADD20O,0.360000X1.740000*%
%TD*%
%TA.AperFunction,SMDPad,CuDef*%
%ADD21R,0.800000X0.800000*%
%TD*%
%TA.AperFunction,SMDPad,CuDef*%
%ADD22R,0.800000X0.860000*%
%TD*%
%TA.AperFunction,SMDPad,CuDef*%
%ADD23RoundRect,0.225000X0.225000X0.250000X-0.225000X0.250000X-0.225000X-0.250000X0.225000X-0.250000X0*%
%TD*%
%TA.AperFunction,SMDPad,CuDef*%
%ADD24R,0.550000X0.350000*%
%TD*%
%TA.AperFunction,ComponentPad*%
%ADD25C,4.400000*%
%TD*%
%TA.AperFunction,SMDPad,CuDef*%
%ADD26RoundRect,0.350100X-0.099900X-1.924900X0.099900X-1.924900X0.099900X1.924900X-0.099900X1.924900X0*%
%TD*%
%TA.AperFunction,ComponentPad*%
%ADD27C,1.100000*%
%TD*%
%TA.AperFunction,ComponentPad*%
%ADD28C,0.600000*%
%TD*%
%TA.AperFunction,SMDPad,CuDef*%
%ADD29RoundRect,0.350100X-0.099900X-2.174900X0.099900X-2.174900X0.099900X2.174900X-0.099900X2.174900X0*%
%TD*%
%TA.AperFunction,SMDPad,CuDef*%
%ADD30RoundRect,0.200000X-0.200000X-0.275000X0.200000X-0.275000X0.200000X0.275000X-0.200000X0.275000X0*%
%TD*%
%TA.AperFunction,SMDPad,CuDef*%
%ADD31RoundRect,0.200000X0.200000X0.275000X-0.200000X0.275000X-0.200000X-0.275000X0.200000X-0.275000X0*%
%TD*%
%TA.AperFunction,SMDPad,CuDef*%
%ADD32RoundRect,0.112500X0.112500X-0.187500X0.112500X0.187500X-0.112500X0.187500X-0.112500X-0.187500X0*%
%TD*%
%TA.AperFunction,SMDPad,CuDef*%
%ADD33R,1.000000X0.800000*%
%TD*%
%TA.AperFunction,SMDPad,CuDef*%
%ADD34C,1.000000*%
%TD*%
%TA.AperFunction,SMDPad,CuDef*%
%ADD35R,1.360000X1.230000*%
%TD*%
%TA.AperFunction,SMDPad,CuDef*%
%ADD36RoundRect,0.350100X0.099900X1.924900X-0.099900X1.924900X-0.099900X-1.924900X0.099900X-1.924900X0*%
%TD*%
%TA.AperFunction,SMDPad,CuDef*%
%ADD37RoundRect,0.350100X0.099900X2.174900X-0.099900X2.174900X-0.099900X-2.174900X0.099900X-2.174900X0*%
%TD*%
%TA.AperFunction,ViaPad*%
%ADD38C,0.600000*%
%TD*%
%TA.AperFunction,Conductor*%
%ADD39C,0.200000*%
%TD*%
G04 APERTURE END LIST*
D10*
%TO.P,MH1,MH1,MH1*%
%TO.N,/JD_DATA*%
X-10000000Y-10000000D03*
D11*
X-10000000Y-10000000D03*
%TD*%
D12*
%TO.P,R2,1*%
%TO.N,/JD_STATUS*%
X3800000Y-4575000D03*
%TO.P,R2,2*%
%TO.N,Net-(D6-Pad1)*%
X3800000Y-6225000D03*
%TD*%
D13*
%TO.P,C1,1*%
%TO.N,Net-(C1-Pad1)*%
X-5575000Y4200000D03*
%TO.P,C1,2*%
%TO.N,GND*%
X-4025000Y4200000D03*
%TD*%
D14*
%TO.P,U2,1,IN*%
%TO.N,JD_PWR*%
X-8050000Y-1600000D03*
%TO.P,U2,2,GND*%
%TO.N,GND*%
X-9000000Y-1600000D03*
%TO.P,U2,3,EN*%
%TO.N,JD_PWR*%
X-9950000Y-1600000D03*
%TO.P,U2,4,N/C*%
%TO.N,GND*%
X-9950000Y-4000000D03*
%TO.P,U2,5,OUT*%
%TO.N,+3V3*%
X-8050000Y-4000000D03*
%TD*%
D15*
%TO.P,GS4,1,RESET*%
%TO.N,/nRESET-SAFE*%
X-12500000Y1250000D03*
%TD*%
%TO.P,GS1,1,GND*%
%TO.N,GND*%
X-12500000Y0D03*
%TD*%
D16*
%TO.P,J1,1*%
%TO.N,+3V3*%
X-9523900Y4870000D03*
D17*
%TO.P,J1,2*%
%TO.N,/SWDIO*%
X-7949100Y4870000D03*
%TO.P,J1,3*%
%TO.N,GND*%
X-9523900Y3600000D03*
%TO.P,J1,4*%
%TO.N,/SWCLK*%
X-7949100Y3600000D03*
%TO.P,J1,5*%
%TO.N,/nRESET-SAFE*%
X-9523900Y2330000D03*
%TD*%
D18*
%TO.P,D8,1,R*%
%TO.N,Net-(D8-R)*%
X-550000Y-850000D03*
%TO.P,D8,2,B*%
%TO.N,Net-(D8-B)*%
X-550000Y850000D03*
%TO.P,D8,3*%
%TO.N,+3V3*%
X550000Y850000D03*
%TO.P,D8,4,G*%
%TO.N,Net-(D8-G)*%
X550000Y-850000D03*
%TD*%
D19*
%TO.P,C2,1*%
%TO.N,+3V3*%
X7000000Y-4625000D03*
%TO.P,C2,2*%
%TO.N,GND*%
X7000000Y-6175000D03*
%TD*%
D20*
%TO.P,U1,1,PB7/PB8*%
%TO.N,/JD_STATUS*%
X4670000Y-2870000D03*
%TO.P,U1,2,PB9/PC14-OSC32_IN*%
%TO.N,/nFLASH*%
X5320000Y-2870000D03*
%TO.P,U1,3,PC15-OSC32_OUT*%
%TO.N,unconnected-(U1-PC15-OSC32_OUT-Pad3)*%
X5970000Y-2870000D03*
%TO.P,U1,4,VDD/VDDA*%
%TO.N,+3V3*%
X6620000Y-2870000D03*
%TO.P,U1,5,VSS/VSSA*%
%TO.N,GND*%
X7280000Y-2870000D03*
%TO.P,U1,6,NRST*%
%TO.N,/nRESET*%
X7930000Y-2870000D03*
%TO.P,U1,7,PA0*%
%TO.N,/SERIAL*%
X8580000Y-2870000D03*
%TO.P,U1,8,PA1*%
%TO.N,unconnected-(U1-PA1-Pad8)*%
X9230000Y-2870000D03*
%TO.P,U1,9,PA2*%
%TO.N,unconnected-(U1-PA2-Pad9)*%
X9880000Y-2870000D03*
%TO.P,U1,10,PA3*%
%TO.N,unconnected-(U1-PA3-Pad10)*%
X10530000Y-2870000D03*
%TO.P,U1,11,PA4*%
%TO.N,unconnected-(U1-PA4-Pad11)*%
X10530000Y2870000D03*
%TO.P,U1,12,PA5*%
%TO.N,unconnected-(U1-PA5-Pad12)*%
X9880000Y2870000D03*
%TO.P,U1,13,PA6*%
%TO.N,/RGB_R*%
X9230000Y2870000D03*
%TO.P,U1,14,PA7*%
%TO.N,/RGB_B*%
X8580000Y2870000D03*
%TO.P,U1,15,PB0/PB1/PB2/PA8*%
%TO.N,/RGB_G*%
X7930000Y2870000D03*
%TO.P,U1,16,PA11[PA9]*%
%TO.N,unconnected-(U1-PA11[PA9]-Pad16)*%
X7280000Y2870000D03*
%TO.P,U1,17,PA12[PA10]*%
%TO.N,unconnected-(U1-PA12[PA10]-Pad17)*%
X6620000Y2870000D03*
%TO.P,U1,18,PA13*%
%TO.N,/SWDIO*%
X5970000Y2870000D03*
%TO.P,U1,19,PA15/PA14-BOOT0*%
%TO.N,/SWCLK*%
X5320000Y2870000D03*
%TO.P,U1,20,PB3/PB4/PB5/PB6*%
%TO.N,/JD_DATA_MCU*%
X4670000Y2870000D03*
%TD*%
D21*
%TO.P,D7,1*%
%TO.N,Net-(D7-Pad1)*%
X-850000Y5900000D03*
%TO.P,D7,2*%
%TO.N,GND*%
X850000Y5900000D03*
%TD*%
D22*
%TO.P,FB1,1*%
%TO.N,/JD_DATA*%
X-4100000Y6000000D03*
%TO.P,FB1,2*%
%TO.N,Net-(C1-Pad1)*%
X-5500000Y6000000D03*
%TD*%
D23*
%TO.P,C4,1*%
%TO.N,+3V3*%
X-8225000Y-5600000D03*
%TO.P,C4,2*%
%TO.N,GND*%
X-9775000Y-5600000D03*
%TD*%
D15*
%TO.P,GS5,1,SWCLK*%
%TO.N,/SWCLK*%
X-12500000Y2500000D03*
%TD*%
D24*
%TO.P,D3,1,1*%
%TO.N,/JD_DATA*%
X-2200000Y-6320000D03*
%TO.P,D3,2,2*%
%TO.N,GND*%
X-2200000Y-5680000D03*
%TD*%
D15*
%TO.P,GS3,1,JD_PWR*%
%TO.N,JD_PWR*%
X-12500000Y-1250000D03*
%TD*%
D25*
%TO.P,MH3,MH3,MH3*%
%TO.N,JD_PWR*%
X10000000Y-10000000D03*
%TD*%
D21*
%TO.P,D6,1*%
%TO.N,Net-(D6-Pad1)*%
X-850000Y-5900000D03*
%TO.P,D6,2*%
%TO.N,GND*%
X850000Y-5900000D03*
%TD*%
D26*
%TO.P,EC2,1,JD_DATA*%
%TO.N,/JD_DATA*%
X1270000Y10475000D03*
D27*
X1270000Y8650000D03*
D28*
%TO.P,EC2,2,GND*%
%TO.N,GND*%
X0Y11525000D03*
D29*
X0Y10725000D03*
D27*
X0Y8650000D03*
D29*
%TO.P,EC2,3,JD_PWR*%
%TO.N,JD_PWR*%
X-1270000Y10725000D03*
D27*
X-1270000Y8650000D03*
%TD*%
D12*
%TO.P,R6,1*%
%TO.N,Net-(D8-G)*%
X7200000Y6225000D03*
%TO.P,R6,2*%
%TO.N,/RGB_G*%
X7200000Y4575000D03*
%TD*%
D24*
%TO.P,D4,1,1*%
%TO.N,JD_PWR*%
X-2200000Y6320000D03*
%TO.P,D4,2,2*%
%TO.N,GND*%
X-2200000Y5680000D03*
%TD*%
D30*
%TO.P,R4,1*%
%TO.N,Net-(D8-R)*%
X8775000Y-5200000D03*
%TO.P,R4,2*%
%TO.N,/RGB_R*%
X10425000Y-5200000D03*
%TD*%
D24*
%TO.P,D5,1,1*%
%TO.N,/JD_DATA*%
X2200000Y6320000D03*
%TO.P,D5,2,2*%
%TO.N,GND*%
X2200000Y5680000D03*
%TD*%
D31*
%TO.P,R5,1*%
%TO.N,Net-(D8-B)*%
X10425000Y5200000D03*
%TO.P,R5,2*%
%TO.N,/RGB_B*%
X8775000Y5200000D03*
%TD*%
D32*
%TO.P,D9,1,K*%
%TO.N,/nRESET-SAFE*%
X-2750000Y-1050000D03*
%TO.P,D9,2,A*%
%TO.N,/nRESET*%
X-2750000Y1050000D03*
%TD*%
D15*
%TO.P,GS2,1,JD_DATA*%
%TO.N,/JD_DATA*%
X-12500000Y-2500000D03*
%TD*%
D33*
%TO.P,D1,1,A*%
%TO.N,GND*%
X3450000Y6950000D03*
%TO.P,D1,2,C*%
%TO.N,+3V3*%
X3450000Y5050000D03*
%TO.P,D1,3,A/C*%
%TO.N,/JD_DATA_MCU*%
X5750000Y6000000D03*
%TD*%
D30*
%TO.P,R1,1*%
%TO.N,Net-(C1-Pad1)*%
X-5625000Y2400000D03*
%TO.P,R1,2*%
%TO.N,/JD_DATA_MCU*%
X-3975000Y2400000D03*
%TD*%
D15*
%TO.P,GS8,1,SERIAL*%
%TO.N,/SERIAL*%
X12500000Y1250000D03*
%TD*%
%TO.P,GS7,1,3V3*%
%TO.N,+3V3*%
X12500000Y0D03*
%TD*%
D34*
%TO.P,TP2,1,1*%
%TO.N,/SERIAL*%
X11600000Y6650000D03*
%TD*%
%TO.P,TP1,1,1*%
%TO.N,+3V3*%
X-2750000Y-2650000D03*
%TD*%
D25*
%TO.P,MH4,MH4,MH4*%
%TO.N,GND*%
X10000000Y10000000D03*
%TD*%
%TO.P,MH2,MH2,MH2*%
%TO.N,GND*%
X-10000000Y10000000D03*
%TD*%
D35*
%TO.P,SW1,1,1*%
%TO.N,/nFLASH*%
X-5600000Y-3580000D03*
%TO.P,SW1,2,2*%
%TO.N,GND*%
X-5600000Y780000D03*
%TD*%
D36*
%TO.P,EC1,1,JD_DATA*%
%TO.N,/JD_DATA*%
X-1270000Y-10475000D03*
D27*
X-1270000Y-8650000D03*
D28*
%TO.P,EC1,2,GND*%
%TO.N,GND*%
X0Y-11525000D03*
D37*
X0Y-10725000D03*
D27*
X0Y-8650000D03*
D37*
%TO.P,EC1,3,JD_PWR*%
%TO.N,JD_PWR*%
X1270000Y-10725000D03*
D27*
X1270000Y-8650000D03*
%TD*%
D24*
%TO.P,D2,1,1*%
%TO.N,JD_PWR*%
X2200000Y-6320000D03*
%TO.P,D2,2,2*%
%TO.N,GND*%
X2200000Y-5680000D03*
%TD*%
D23*
%TO.P,C3,1*%
%TO.N,JD_PWR*%
X-8225000Y0D03*
%TO.P,C3,2*%
%TO.N,GND*%
X-9775000Y0D03*
%TD*%
D12*
%TO.P,R3,1*%
%TO.N,/JD_STATUS*%
X5400000Y-4575000D03*
%TO.P,R3,2*%
%TO.N,Net-(D7-Pad1)*%
X5400000Y-6225000D03*
%TD*%
D15*
%TO.P,GS6,1,SWDIO~^*%
%TO.N,/SWDIO*%
X12500000Y-1250000D03*
%TD*%
D38*
%TO.N,+3V3*%
X10100000Y650000D03*
%TO.N,/SERIAL*%
X9300000Y4250000D03*
%TO.N,GND*%
X1600000Y7400000D03*
X-10750000Y0D03*
X-8791100Y1500000D03*
X-7250000Y1500000D03*
X2800000Y8000000D03*
X-7000000Y-6376000D03*
X-7000000Y-1750000D03*
%TO.N,+3V3*%
X-10800000Y-2600000D03*
X6100000Y-5400000D03*
X-10896950Y3496950D03*
%TO.N,/SWDIO*%
X11000000Y-250000D03*
X8629269Y1201000D03*
X6000000Y1200000D03*
%TO.N,/SWCLK*%
X-10875000Y5375000D03*
X-7250000Y6500000D03*
X5200000Y400000D03*
%TO.N,/nRESET*%
X-2000000Y1610451D03*
X7400000Y-1200000D03*
%TO.N,/SERIAL*%
X8813804Y-4225000D03*
%TO.N,JD_PWR*%
X-10800000Y-1000000D03*
X-7000000Y0D03*
X2460000Y-7460000D03*
%TO.N,/JD_DATA*%
X-10797802Y-5000000D03*
X-7200000Y-7200000D03*
X-3200000Y6800000D03*
%TO.N,/JD_DATA_MCU*%
X2400000Y4600000D03*
X4224265Y2624265D03*
%TO.N,Net-(D7-Pad1)*%
X4600000Y-5400000D03*
X-800000Y7000000D03*
%TO.N,/nRESET-SAFE*%
X-11500000Y1500000D03*
X-3852825Y1135875D03*
%TD*%
D39*
%TO.N,/JD_DATA_MCU*%
X4470000Y2870000D02*
X4670000Y2870000D01*
X4224265Y2624265D02*
X4470000Y2870000D01*
%TO.N,/SERIAL*%
X8580000Y-3980000D02*
X8580000Y-2870000D01*
X8813804Y-4213804D02*
X8580000Y-3980000D01*
X8813804Y-4225000D02*
X8813804Y-4213804D01*
%TO.N,+3V3*%
X6975000Y-4625000D02*
X6200000Y-5400000D01*
X6200000Y-5400000D02*
X6100000Y-5400000D01*
%TO.N,Net-(D7-Pad1)*%
X5400000Y-6200000D02*
X5400000Y-6225000D01*
X4600000Y-5400000D02*
X5400000Y-6200000D01*
%TO.N,+3V3*%
X11700000Y0D02*
X12500000Y0D01*
X11000000Y700000D02*
X11700000Y0D01*
X10250000Y700000D02*
X11000000Y700000D01*
X10250000Y500000D02*
X10250000Y700000D01*
X10100000Y650000D02*
X10250000Y500000D01*
%TO.N,/SWDIO*%
X6000000Y1200000D02*
X8628269Y1200000D01*
X8628269Y1200000D02*
X8629269Y1201000D01*
%TO.N,/SERIAL*%
X11700000Y1250000D02*
X11600000Y1350000D01*
X11600000Y1350000D02*
X11600000Y6650000D01*
X12500000Y1250000D02*
X11700000Y1250000D01*
X9300000Y4250000D02*
X10700000Y4250000D01*
X10700000Y4250000D02*
X11600000Y3350000D01*
%TO.N,GND*%
X-4676000Y1704000D02*
X-4676000Y3549000D01*
X-7250000Y1500000D02*
X-6320000Y1500000D01*
X-8791100Y4332800D02*
X-9523900Y3600000D01*
X-7000000Y-6376000D02*
X-8999000Y-6376000D01*
X2200000Y5680000D02*
X2612000Y5680000D01*
X2612000Y5680000D02*
X3450000Y6518000D01*
X3450000Y6950000D02*
X2800000Y7600000D01*
X6249000Y-6926000D02*
X3311936Y-6926000D01*
X-1551000Y-6049000D02*
X-1551000Y-7099000D01*
X-9000000Y-775000D02*
X-9775000Y0D01*
X1070000Y-5680000D02*
X2200000Y-5680000D01*
X2480000Y-5680000D02*
X2200000Y-5680000D01*
X-10000000Y10000000D02*
X-8000000Y8000000D01*
X-10200000Y-4000000D02*
X-9950000Y-4000000D01*
X400000Y7200000D02*
X1400000Y7200000D01*
X-3371000Y-6376000D02*
X-7000000Y-6376000D01*
X-5600000Y-350000D02*
X-7000000Y-1750000D01*
X1095000Y4200000D02*
X2200000Y5305000D01*
X-8000000Y8000000D02*
X-8000000Y7591100D01*
X2200000Y5305000D02*
X2200000Y5680000D01*
X-10000000Y10000000D02*
X-11002000Y8998000D01*
X-9775000Y-4175000D02*
X-9950000Y-4000000D01*
X850000Y-7800000D02*
X850000Y-5900000D01*
X-5600000Y780000D02*
X-5600000Y-350000D01*
X850000Y-5900000D02*
X1070000Y-5680000D01*
X-8000000Y7591100D02*
X-8791100Y6800000D01*
X3311936Y-6926000D02*
X2776000Y-6390064D01*
X-8791100Y2867200D02*
X-9523900Y3600000D01*
X-1049943Y7600000D02*
X0Y7600000D01*
X7280000Y-3679890D02*
X7776000Y-4175890D01*
X-4676000Y3549000D02*
X-4025000Y4200000D01*
X2776000Y-5976000D02*
X2480000Y-5680000D01*
X-1551000Y5917000D02*
X-1551000Y7098943D01*
X7280000Y-2870000D02*
X7280000Y-3679890D01*
X-5600000Y780000D02*
X-4676000Y1704000D01*
X-8791100Y6800000D02*
X-8791100Y6000000D01*
X-8791100Y6000000D02*
X-8791100Y4332800D01*
X0Y8650000D02*
X0Y7600000D01*
X400000Y7200000D02*
X850000Y6750000D01*
X-9000000Y-1600000D02*
X-9000000Y-775000D01*
X-9775000Y0D02*
X-8791100Y983900D01*
X-8791100Y1500000D02*
X-8791100Y2867200D01*
X-2200000Y-5680000D02*
X-2675000Y-5680000D01*
X2776000Y-6390064D02*
X2776000Y-5976000D01*
X-1920000Y-5680000D02*
X-1551000Y-6049000D01*
X0Y7600000D02*
X400000Y7200000D01*
X-2200000Y-5680000D02*
X-1920000Y-5680000D01*
X-10750000Y0D02*
X-12500000Y0D01*
X-4025000Y4200000D02*
X1095000Y4200000D01*
X-2675000Y-5680000D02*
X-3371000Y-6376000D01*
X-1551000Y-7099000D02*
X0Y-8650000D01*
X7776000Y-4175890D02*
X7776000Y-5399000D01*
X-8791100Y983900D02*
X-8791100Y1500000D01*
X7776000Y-5399000D02*
X7000000Y-6175000D01*
X-1551000Y7098943D02*
X-1049943Y7600000D01*
X-9775000Y0D02*
X-10750000Y0D01*
X-9775000Y-5600000D02*
X-9775000Y-4175000D01*
X1400000Y7200000D02*
X1600000Y7400000D01*
X7000000Y-6175000D02*
X6249000Y-6926000D01*
X-8999000Y-6376000D02*
X-9775000Y-5600000D01*
X850000Y6750000D02*
X850000Y5900000D01*
X0Y-8650000D02*
X850000Y-7800000D01*
X-4100000Y4275000D02*
X-4025000Y4200000D01*
X-1788000Y5680000D02*
X-1551000Y5917000D01*
X2800000Y7600000D02*
X2800000Y8000000D01*
X-6320000Y1500000D02*
X-5600000Y780000D01*
X-2200000Y5680000D02*
X-1788000Y5680000D01*
X3450000Y6518000D02*
X3450000Y6750000D01*
%TO.N,+3V3*%
X-1400000Y-1352000D02*
X-1400000Y-400000D01*
X6620000Y-2870000D02*
X6620000Y-4045000D01*
X-2750000Y-2650000D02*
X-2750000Y-1826000D01*
X6620000Y-4045000D02*
X7200000Y-4625000D01*
X-1149000Y-149000D02*
X51000Y-149000D01*
X-8850000Y-3200000D02*
X-8050000Y-4000000D01*
X-5826000Y-1776000D02*
X-8050000Y-4000000D01*
X3502000Y-1298000D02*
X1800000Y-3000000D01*
X3450000Y4850000D02*
X3450000Y4250000D01*
X-976000Y-1776000D02*
X-1400000Y-1352000D01*
X-10200000Y-3200000D02*
X-8850000Y-3200000D01*
X3200000Y4000000D02*
X3000000Y4000000D01*
X-976000Y-1776000D02*
X-2700000Y-1776000D01*
X-2800000Y-1776000D02*
X-5826000Y-1776000D01*
X3000000Y4000000D02*
X1000000Y2000000D01*
X1000000Y2000000D02*
X-1000000Y2000000D01*
X-8225000Y-5600000D02*
X-8225000Y-4175000D01*
X-1400000Y1600000D02*
X-1400000Y-400000D01*
X-10800000Y-2600000D02*
X-10200000Y-3200000D01*
X-2750000Y-1826000D02*
X-2800000Y-1776000D01*
X5768237Y-1298000D02*
X3502000Y-1298000D01*
X3450000Y4250000D02*
X3200000Y4000000D01*
X6620000Y-2149763D02*
X5768237Y-1298000D01*
X550000Y350000D02*
X550000Y850000D01*
X6620000Y-2870000D02*
X6620000Y-2149763D01*
X1800000Y-3000000D02*
X248000Y-3000000D01*
X51000Y-149000D02*
X550000Y350000D01*
X-9523900Y4870000D02*
X-10896950Y3496950D01*
X248000Y-3000000D02*
X-976000Y-1776000D01*
X-2700000Y-1776000D02*
X-2800000Y-1776000D01*
X-8225000Y-4175000D02*
X-8050000Y-4000000D01*
X-1000000Y2000000D02*
X-1400000Y1600000D01*
X-1400000Y-400000D02*
X-1149000Y-149000D01*
%TO.N,Net-(C1-Pad1)*%
X-5500000Y4275000D02*
X-5575000Y4200000D01*
X-5575000Y2450000D02*
X-5625000Y2400000D01*
X-5500000Y6000000D02*
X-5500000Y4275000D01*
X-5575000Y4200000D02*
X-5575000Y2450000D01*
%TO.N,/SWDIO*%
X6000000Y2840000D02*
X5970000Y2870000D01*
X11000000Y-250000D02*
X11400000Y-650000D01*
X6000000Y1200000D02*
X6000000Y2840000D01*
X11750000Y-1250000D02*
X12500000Y-1250000D01*
X11400000Y-900000D02*
X11750000Y-1250000D01*
X11400000Y-650000D02*
X11400000Y-900000D01*
%TO.N,/SWCLK*%
X-7000000Y6250000D02*
X-7250000Y6500000D01*
X5200000Y400000D02*
X5320000Y520000D01*
X-7400000Y3600000D02*
X-7000000Y4000000D01*
X5320000Y520000D02*
X5320000Y2870000D01*
X-7949100Y3600000D02*
X-7400000Y3600000D01*
X-11500000Y4750000D02*
X-11500000Y2500000D01*
X-10875000Y5375000D02*
X-11500000Y4750000D01*
X-7000000Y4000000D02*
X-7000000Y6250000D01*
X-11500000Y2500000D02*
X-12500000Y2500000D01*
%TO.N,/nRESET*%
X-2000000Y1610451D02*
X-2019618Y1610451D01*
X7930000Y-2870000D02*
X7930000Y-1730000D01*
X-2019618Y1610451D02*
X-2130069Y1500000D01*
X-2130069Y1500000D02*
X-2300000Y1500000D01*
X7930000Y-1730000D02*
X7400000Y-1200000D01*
X-2300000Y1500000D02*
X-2750000Y1050000D01*
%TO.N,/JD_STATUS*%
X4670000Y-2870000D02*
X4670000Y-3905000D01*
X4000000Y-4575000D02*
X5600000Y-4575000D01*
X4670000Y-3905000D02*
X4000000Y-4575000D01*
%TO.N,/nFLASH*%
X2220000Y-3780000D02*
X-5200000Y-3780000D01*
X4869237Y-1699000D02*
X4301000Y-1699000D01*
X4301000Y-1699000D02*
X2220000Y-3780000D01*
X5320000Y-2870000D02*
X5320000Y-2149763D01*
X5320000Y-2149763D02*
X4869237Y-1699000D01*
%TO.N,JD_PWR*%
X-6500000Y3500000D02*
X-8000000Y2000000D01*
X-8050000Y-2300000D02*
X-8050000Y-1600000D01*
X2200000Y-7720000D02*
X2200000Y-6320000D01*
X-2200000Y7720000D02*
X-3480000Y7720000D01*
X2520000Y-7400000D02*
X7000000Y-7400000D01*
X-10200000Y-1600000D02*
X-9950000Y-1600000D01*
X-10800000Y-1000000D02*
X-11000000Y-1000000D01*
X-10800000Y-1000000D02*
X-10200000Y-1600000D01*
X-7000000Y0D02*
X-8225000Y0D01*
X-2200000Y7720000D02*
X-1270000Y8650000D01*
X-8225000Y775000D02*
X-8225000Y0D01*
X-5732000Y7200000D02*
X-6500000Y6432000D01*
X2200000Y-7720000D02*
X2460000Y-7460000D01*
X-9650000Y-2600000D02*
X-8350000Y-2600000D01*
X7400000Y-7400000D02*
X10000000Y-10000000D01*
X-8000000Y2000000D02*
X-8000000Y1000000D01*
X-11000000Y-1000000D02*
X-11250000Y-1250000D01*
X-6500000Y6432000D02*
X-6500000Y3500000D01*
X-2200000Y6320000D02*
X-2200000Y7720000D01*
X-8000000Y1000000D02*
X-8225000Y775000D01*
X2460000Y-7460000D02*
X2520000Y-7400000D01*
X-8050000Y-175000D02*
X-8225000Y0D01*
X-3480000Y7720000D02*
X-4000000Y7200000D01*
X-11250000Y-1250000D02*
X-12500000Y-1250000D01*
X-8050000Y-1600000D02*
X-8050000Y-175000D01*
X-9950000Y-1600000D02*
X-9950000Y-2300000D01*
X-9950000Y-2300000D02*
X-9650000Y-2600000D01*
X1270000Y-8650000D02*
X2200000Y-7720000D01*
X7000000Y-7400000D02*
X7400000Y-7400000D01*
X-8350000Y-2600000D02*
X-8050000Y-2300000D01*
X-4000000Y7200000D02*
X-5732000Y7200000D01*
%TO.N,/JD_DATA*%
X-4000000Y6000000D02*
X-4100000Y6000000D01*
X-7200000Y-7200000D02*
X-10000000Y-10000000D01*
X-2200000Y-7720000D02*
X-2200000Y-7200000D01*
X1624000Y6024000D02*
X1920000Y6320000D01*
X-12500000Y-2500000D02*
X-11900000Y-2500000D01*
X-3299000Y5199000D02*
X1423000Y5199000D01*
X-11352430Y-4445372D02*
X-11352430Y-2897570D01*
X-11750000Y-2500000D02*
X-11899000Y-2500000D01*
X-1270000Y-8650000D02*
X-2200000Y-7720000D01*
X-4100000Y6000000D02*
X-3299000Y5199000D01*
X2200000Y7720000D02*
X2200000Y6320000D01*
X-2200000Y-7200000D02*
X-2200000Y-6320000D01*
X-10797802Y-5000000D02*
X-11352430Y-4445372D01*
X1423000Y5199000D02*
X1624000Y5400000D01*
X1920000Y6320000D02*
X2200000Y6320000D01*
X1270000Y8650000D02*
X2200000Y7720000D01*
X-11352430Y-2897570D02*
X-11750000Y-2500000D01*
X1624000Y5400000D02*
X1624000Y6024000D01*
X-3200000Y6800000D02*
X-4000000Y6000000D01*
X-2200000Y-7200000D02*
X-7200000Y-7200000D01*
%TO.N,/JD_DATA_MCU*%
X2400000Y4600000D02*
X200000Y2400000D01*
X200000Y2400000D02*
X-3975000Y2400000D01*
X4670000Y3670000D02*
X5750000Y4750000D01*
X4670000Y2870000D02*
X4670000Y3670000D01*
X5750000Y4750000D02*
X5750000Y5800000D01*
X-4025000Y2450000D02*
X-3975000Y2400000D01*
%TO.N,Net-(D6-Pad1)*%
X2600000Y-5000000D02*
X0Y-5000000D01*
X-850000Y-5900000D02*
X-850000Y-5850000D01*
X-850000Y-5850000D02*
X0Y-5000000D01*
X3825000Y-6225000D02*
X2600000Y-5000000D01*
X4000000Y-6225000D02*
X3825000Y-6225000D01*
X-850000Y-5950000D02*
X-850000Y-5900000D01*
%TO.N,Net-(D7-Pad1)*%
X-800000Y7000000D02*
X-800000Y5950000D01*
X-800000Y5950000D02*
X-850000Y5900000D01*
%TO.N,Net-(D8-B)*%
X4880900Y7200000D02*
X4400000Y6719100D01*
X-449000Y1551000D02*
X-550000Y1450000D01*
X4400000Y4537336D02*
X1413664Y1551000D01*
X10425000Y5200000D02*
X8425000Y7200000D01*
X8425000Y7200000D02*
X4880900Y7200000D01*
X4400000Y6719100D02*
X4400000Y4537336D01*
X-550000Y1450000D02*
X-550000Y850000D01*
X1413664Y1551000D02*
X-449000Y1551000D01*
%TO.N,Net-(D8-G)*%
X5048000Y6800000D02*
X4949000Y6701000D01*
X4470763Y4041000D02*
X4189000Y3759237D01*
X4949000Y4516100D02*
X4473900Y4041000D01*
X7025000Y6800000D02*
X5048000Y6800000D01*
X7200000Y6225000D02*
X6924000Y6501000D01*
X4189000Y3589000D02*
X1201000Y601000D01*
X1201000Y-199000D02*
X550000Y-850000D01*
X7200000Y6225000D02*
X7200000Y6625000D01*
X7200000Y6625000D02*
X7025000Y6800000D01*
X1201000Y601000D02*
X1201000Y-199000D01*
X4949000Y6701000D02*
X4949000Y4516100D01*
X4189000Y3759237D02*
X4189000Y3589000D01*
X4473900Y4041000D02*
X4470763Y4041000D01*
%TO.N,/RGB_R*%
X9230000Y270000D02*
X9230000Y2870000D01*
X9596336Y1000D02*
X9499000Y1000D01*
X10425000Y-5200000D02*
X11412000Y-4213000D01*
X9499000Y1000D02*
X9230000Y270000D01*
X11412000Y-1814664D02*
X9596336Y1000D01*
X11412000Y-4213000D02*
X11412000Y-1814664D01*
%TO.N,/RGB_B*%
X8580000Y5005000D02*
X8580000Y2870000D01*
X8775000Y5200000D02*
X8580000Y5005000D01*
%TO.N,/RGB_G*%
X7200000Y4575000D02*
X7930000Y3845000D01*
X7930000Y3845000D02*
X7930000Y2870000D01*
%TO.N,/nRESET-SAFE*%
X-10670000Y2330000D02*
X-11750000Y1250000D01*
X-9523900Y2330000D02*
X-10670000Y2330000D01*
X-3750000Y-50000D02*
X-2750000Y-1050000D01*
X-11750000Y1250000D02*
X-12500000Y1250000D01*
X-3852825Y1135875D02*
X-3750000Y1033050D01*
X-3750000Y1033050D02*
X-3750000Y-50000D01*
%TO.N,Net-(D8-R)*%
X548000Y-2200000D02*
X-550000Y-1102000D01*
X3100000Y-500000D02*
X1400000Y-2200000D01*
X11011000Y-3759237D02*
X11011000Y-1980762D01*
X1400000Y-2200000D02*
X548000Y-2200000D01*
X-550000Y-1102000D02*
X-550000Y-850000D01*
X10729237Y-4041000D02*
X11011000Y-3759237D01*
X9934000Y-4041000D02*
X10729237Y-4041000D01*
X11011000Y-1980762D02*
X9530238Y-500000D01*
X8775000Y-5200000D02*
X9934000Y-4041000D01*
X9530238Y-500000D02*
X3100000Y-500000D01*
%TD*%
M02*
