%TF.GenerationSoftware,KiCad,Pcbnew,9.0.2*%
%TF.CreationDate,2026-02-09T05:43:33+00:00*%
%TF.ProjectId,kicad_rgb_module,6b696361-645f-4726-9762-5f6d6f64756c,0.1*%
%TF.SameCoordinates,PX518a060PY47868c0*%
%TF.FileFunction,Legend,Top*%
%TF.FilePolarity,Positive*%
%FSLAX46Y46*%
G04 Gerber Fmt 4.6, Leading zero omitted, Abs format (unit mm)*
G04 Created by KiCad (PCBNEW 9.0.2) date 2026-02-09 05:43:33*
%MOMM*%
%LPD*%
G01*
G04 APERTURE LIST*
%ADD10C,0.150000*%
%ADD11C,0.010000*%
%ADD12C,0.120000*%
%ADD13C,0.075000*%
%ADD14C,0.000000*%
%ADD15C,0.250000*%
G04 APERTURE END LIST*
D10*
X12069819Y-2428571D02*
X11593628Y-2761904D01*
X12069819Y-2999999D02*
X11069819Y-2999999D01*
X11069819Y-2999999D02*
X11069819Y-2619047D01*
X11069819Y-2619047D02*
X11117438Y-2523809D01*
X11117438Y-2523809D02*
X11165057Y-2476190D01*
X11165057Y-2476190D02*
X11260295Y-2428571D01*
X11260295Y-2428571D02*
X11403152Y-2428571D01*
X11403152Y-2428571D02*
X11498390Y-2476190D01*
X11498390Y-2476190D02*
X11546009Y-2523809D01*
X11546009Y-2523809D02*
X11593628Y-2619047D01*
X11593628Y-2619047D02*
X11593628Y-2999999D01*
X11117438Y-1476190D02*
X11069819Y-1571428D01*
X11069819Y-1571428D02*
X11069819Y-1714285D01*
X11069819Y-1714285D02*
X11117438Y-1857142D01*
X11117438Y-1857142D02*
X11212676Y-1952380D01*
X11212676Y-1952380D02*
X11307914Y-1999999D01*
X11307914Y-1999999D02*
X11498390Y-2047618D01*
X11498390Y-2047618D02*
X11641247Y-2047618D01*
X11641247Y-2047618D02*
X11831723Y-1999999D01*
X11831723Y-1999999D02*
X11926961Y-1952380D01*
X11926961Y-1952380D02*
X12022200Y-1857142D01*
X12022200Y-1857142D02*
X12069819Y-1714285D01*
X12069819Y-1714285D02*
X12069819Y-1619047D01*
X12069819Y-1619047D02*
X12022200Y-1476190D01*
X12022200Y-1476190D02*
X11974580Y-1428571D01*
X11974580Y-1428571D02*
X11641247Y-1428571D01*
X11641247Y-1428571D02*
X11641247Y-1619047D01*
X11546009Y-666666D02*
X11593628Y-523809D01*
X11593628Y-523809D02*
X11641247Y-476190D01*
X11641247Y-476190D02*
X11736485Y-428571D01*
X11736485Y-428571D02*
X11879342Y-428571D01*
X11879342Y-428571D02*
X11974580Y-476190D01*
X11974580Y-476190D02*
X12022200Y-523809D01*
X12022200Y-523809D02*
X12069819Y-619047D01*
X12069819Y-619047D02*
X12069819Y-999999D01*
X12069819Y-999999D02*
X11069819Y-999999D01*
X11069819Y-999999D02*
X11069819Y-666666D01*
X11069819Y-666666D02*
X11117438Y-571428D01*
X11117438Y-571428D02*
X11165057Y-523809D01*
X11165057Y-523809D02*
X11260295Y-476190D01*
X11260295Y-476190D02*
X11355533Y-476190D01*
X11355533Y-476190D02*
X11450771Y-523809D01*
X11450771Y-523809D02*
X11498390Y-571428D01*
X11498390Y-571428D02*
X11546009Y-666666D01*
X11546009Y-666666D02*
X11546009Y-999999D01*
X12069819Y1238096D02*
X12069819Y761906D01*
X12069819Y761906D02*
X11069819Y761906D01*
X11546009Y1571430D02*
X11546009Y1904763D01*
X12069819Y2047620D02*
X12069819Y1571430D01*
X12069819Y1571430D02*
X11069819Y1571430D01*
X11069819Y1571430D02*
X11069819Y2047620D01*
X12069819Y2476192D02*
X11069819Y2476192D01*
X11069819Y2476192D02*
X11069819Y2714287D01*
X11069819Y2714287D02*
X11117438Y2857144D01*
X11117438Y2857144D02*
X11212676Y2952382D01*
X11212676Y2952382D02*
X11307914Y3000001D01*
X11307914Y3000001D02*
X11498390Y3047620D01*
X11498390Y3047620D02*
X11641247Y3047620D01*
X11641247Y3047620D02*
X11831723Y3000001D01*
X11831723Y3000001D02*
X11926961Y2952382D01*
X11926961Y2952382D02*
X12022200Y2857144D01*
X12022200Y2857144D02*
X12069819Y2714287D01*
X12069819Y2714287D02*
X12069819Y2476192D01*
X-5588753Y-7342857D02*
X-5588753Y-7609523D01*
X-5169705Y-7609523D02*
X-5969705Y-7609523D01*
X-5969705Y-7609523D02*
X-5969705Y-7228571D01*
X-5169705Y-6809524D02*
X-5207800Y-6885714D01*
X-5207800Y-6885714D02*
X-5283991Y-6923809D01*
X-5283991Y-6923809D02*
X-5969705Y-6923809D01*
X-5169705Y-6161904D02*
X-5588753Y-6161904D01*
X-5588753Y-6161904D02*
X-5664943Y-6199999D01*
X-5664943Y-6199999D02*
X-5703039Y-6276190D01*
X-5703039Y-6276190D02*
X-5703039Y-6428571D01*
X-5703039Y-6428571D02*
X-5664943Y-6504761D01*
X-5207800Y-6161904D02*
X-5169705Y-6238095D01*
X-5169705Y-6238095D02*
X-5169705Y-6428571D01*
X-5169705Y-6428571D02*
X-5207800Y-6504761D01*
X-5207800Y-6504761D02*
X-5283991Y-6542857D01*
X-5283991Y-6542857D02*
X-5360181Y-6542857D01*
X-5360181Y-6542857D02*
X-5436372Y-6504761D01*
X-5436372Y-6504761D02*
X-5474467Y-6428571D01*
X-5474467Y-6428571D02*
X-5474467Y-6238095D01*
X-5474467Y-6238095D02*
X-5512562Y-6161904D01*
X-5207800Y-5819047D02*
X-5169705Y-5742856D01*
X-5169705Y-5742856D02*
X-5169705Y-5590475D01*
X-5169705Y-5590475D02*
X-5207800Y-5514285D01*
X-5207800Y-5514285D02*
X-5283991Y-5476189D01*
X-5283991Y-5476189D02*
X-5322086Y-5476189D01*
X-5322086Y-5476189D02*
X-5398277Y-5514285D01*
X-5398277Y-5514285D02*
X-5436372Y-5590475D01*
X-5436372Y-5590475D02*
X-5436372Y-5704761D01*
X-5436372Y-5704761D02*
X-5474467Y-5780951D01*
X-5474467Y-5780951D02*
X-5550658Y-5819047D01*
X-5550658Y-5819047D02*
X-5588753Y-5819047D01*
X-5588753Y-5819047D02*
X-5664943Y-5780951D01*
X-5664943Y-5780951D02*
X-5703039Y-5704761D01*
X-5703039Y-5704761D02*
X-5703039Y-5590475D01*
X-5703039Y-5590475D02*
X-5664943Y-5514285D01*
X-5169705Y-5133332D02*
X-5969705Y-5133332D01*
X-5169705Y-4790475D02*
X-5588753Y-4790475D01*
X-5588753Y-4790475D02*
X-5664943Y-4828570D01*
X-5664943Y-4828570D02*
X-5703039Y-4904761D01*
X-5703039Y-4904761D02*
X-5703039Y-5019047D01*
X-5703039Y-5019047D02*
X-5664943Y-5095237D01*
X-5664943Y-5095237D02*
X-5626848Y-5133332D01*
D11*
%TO.C,MH1*%
X-6927224Y-8363673D02*
X-6910490Y-8370006D01*
X-6894865Y-8381443D01*
X-6879640Y-8398642D01*
X-6864105Y-8422264D01*
X-6847554Y-8452967D01*
X-6847397Y-8453278D01*
X-6790000Y-8574867D01*
X-6736573Y-8702515D01*
X-6687454Y-8835225D01*
X-6642980Y-8972001D01*
X-6603489Y-9111845D01*
X-6569317Y-9253759D01*
X-6556904Y-9312399D01*
X-6546097Y-9371876D01*
X-6539184Y-9425010D01*
X-6536127Y-9472352D01*
X-6536888Y-9514455D01*
X-6540758Y-9548042D01*
X-6555251Y-9611477D01*
X-6576627Y-9671259D01*
X-6604648Y-9727037D01*
X-6639073Y-9778463D01*
X-6679664Y-9825185D01*
X-6726181Y-9866853D01*
X-6778386Y-9903118D01*
X-6786696Y-9908072D01*
X-6839411Y-9934367D01*
X-6895643Y-9954077D01*
X-6954325Y-9967096D01*
X-7014388Y-9973317D01*
X-7074762Y-9972633D01*
X-7134380Y-9964938D01*
X-7192174Y-9950126D01*
X-7195991Y-9948864D01*
X-7252049Y-9925950D01*
X-7304999Y-9896150D01*
X-7354154Y-9860135D01*
X-7398828Y-9818572D01*
X-7438335Y-9772129D01*
X-7471988Y-9721476D01*
X-7499101Y-9667280D01*
X-7507775Y-9645271D01*
X-7512325Y-9630982D01*
X-7517856Y-9610760D01*
X-7523903Y-9586476D01*
X-7530000Y-9560000D01*
X-7535681Y-9533206D01*
X-7535769Y-9532767D01*
X-7557396Y-9433038D01*
X-7580987Y-9339270D01*
X-7607103Y-9249615D01*
X-7636304Y-9162220D01*
X-7669150Y-9075237D01*
X-7688702Y-9027540D01*
X-7702382Y-8993032D01*
X-7711758Y-8964200D01*
X-7716883Y-8940083D01*
X-7717811Y-8919725D01*
X-7714596Y-8902166D01*
X-7707291Y-8886446D01*
X-7697340Y-8873166D01*
X-7688390Y-8863901D01*
X-7678680Y-8856235D01*
X-7666824Y-8849499D01*
X-7651432Y-8843023D01*
X-7631119Y-8836136D01*
X-7604496Y-8828169D01*
X-7603610Y-8827913D01*
X-7546819Y-8810229D01*
X-7495088Y-8791184D01*
X-7445545Y-8769657D01*
X-7412484Y-8753463D01*
X-7337350Y-8710725D01*
X-7265772Y-8661201D01*
X-7198476Y-8605521D01*
X-7136191Y-8544317D01*
X-7079644Y-8478220D01*
X-7051882Y-8440899D01*
X-7029949Y-8412101D01*
X-7009615Y-8390350D01*
X-6990154Y-8375105D01*
X-6970837Y-8365825D01*
X-6950940Y-8361966D01*
X-6945775Y-8361785D01*
X-6927224Y-8363673D01*
G36*
X-6927224Y-8363673D02*
G01*
X-6910490Y-8370006D01*
X-6894865Y-8381443D01*
X-6879640Y-8398642D01*
X-6864105Y-8422264D01*
X-6847554Y-8452967D01*
X-6847397Y-8453278D01*
X-6790000Y-8574867D01*
X-6736573Y-8702515D01*
X-6687454Y-8835225D01*
X-6642980Y-8972001D01*
X-6603489Y-9111845D01*
X-6569317Y-9253759D01*
X-6556904Y-9312399D01*
X-6546097Y-9371876D01*
X-6539184Y-9425010D01*
X-6536127Y-9472352D01*
X-6536888Y-9514455D01*
X-6540758Y-9548042D01*
X-6555251Y-9611477D01*
X-6576627Y-9671259D01*
X-6604648Y-9727037D01*
X-6639073Y-9778463D01*
X-6679664Y-9825185D01*
X-6726181Y-9866853D01*
X-6778386Y-9903118D01*
X-6786696Y-9908072D01*
X-6839411Y-9934367D01*
X-6895643Y-9954077D01*
X-6954325Y-9967096D01*
X-7014388Y-9973317D01*
X-7074762Y-9972633D01*
X-7134380Y-9964938D01*
X-7192174Y-9950126D01*
X-7195991Y-9948864D01*
X-7252049Y-9925950D01*
X-7304999Y-9896150D01*
X-7354154Y-9860135D01*
X-7398828Y-9818572D01*
X-7438335Y-9772129D01*
X-7471988Y-9721476D01*
X-7499101Y-9667280D01*
X-7507775Y-9645271D01*
X-7512325Y-9630982D01*
X-7517856Y-9610760D01*
X-7523903Y-9586476D01*
X-7530000Y-9560000D01*
X-7535681Y-9533206D01*
X-7535769Y-9532767D01*
X-7557396Y-9433038D01*
X-7580987Y-9339270D01*
X-7607103Y-9249615D01*
X-7636304Y-9162220D01*
X-7669150Y-9075237D01*
X-7688702Y-9027540D01*
X-7702382Y-8993032D01*
X-7711758Y-8964200D01*
X-7716883Y-8940083D01*
X-7717811Y-8919725D01*
X-7714596Y-8902166D01*
X-7707291Y-8886446D01*
X-7697340Y-8873166D01*
X-7688390Y-8863901D01*
X-7678680Y-8856235D01*
X-7666824Y-8849499D01*
X-7651432Y-8843023D01*
X-7631119Y-8836136D01*
X-7604496Y-8828169D01*
X-7603610Y-8827913D01*
X-7546819Y-8810229D01*
X-7495088Y-8791184D01*
X-7445545Y-8769657D01*
X-7412484Y-8753463D01*
X-7337350Y-8710725D01*
X-7265772Y-8661201D01*
X-7198476Y-8605521D01*
X-7136191Y-8544317D01*
X-7079644Y-8478220D01*
X-7051882Y-8440899D01*
X-7029949Y-8412101D01*
X-7009615Y-8390350D01*
X-6990154Y-8375105D01*
X-6970837Y-8365825D01*
X-6950940Y-8361966D01*
X-6945775Y-8361785D01*
X-6927224Y-8363673D01*
G37*
X-9468100Y-6540072D02*
X-9446415Y-6540449D01*
X-9425452Y-6541453D01*
X-9404209Y-6543246D01*
X-9381681Y-6545989D01*
X-9356864Y-6549844D01*
X-9328754Y-6554973D01*
X-9296347Y-6561536D01*
X-9258640Y-6569696D01*
X-9214627Y-6579615D01*
X-9196241Y-6583833D01*
X-9082828Y-6612346D01*
X-8966649Y-6646141D01*
X-8849561Y-6684552D01*
X-8733420Y-6726912D01*
X-8620083Y-6772554D01*
X-8511407Y-6820813D01*
X-8440238Y-6855223D01*
X-8412711Y-6869708D01*
X-8391680Y-6882502D01*
X-8376108Y-6894416D01*
X-8364956Y-6906258D01*
X-8357187Y-6918838D01*
X-8356314Y-6920695D01*
X-8350339Y-6938729D01*
X-8350391Y-6955553D01*
X-8354346Y-6969794D01*
X-8365200Y-6989506D01*
X-8383521Y-7009753D01*
X-8408901Y-7030098D01*
X-8413687Y-7033399D01*
X-8486919Y-7087473D01*
X-8554387Y-7146677D01*
X-8615849Y-7210718D01*
X-8671065Y-7279304D01*
X-8719791Y-7352140D01*
X-8761786Y-7428936D01*
X-8787294Y-7485486D01*
X-8799639Y-7516677D01*
X-8810859Y-7548070D01*
X-8821609Y-7581691D01*
X-8832546Y-7619568D01*
X-8841402Y-7652506D01*
X-8846714Y-7670749D01*
X-8852129Y-7683797D01*
X-8858968Y-7694298D01*
X-8866421Y-7702719D01*
X-8881984Y-7716158D01*
X-8898371Y-7724237D01*
X-8916682Y-7727000D01*
X-8938014Y-7724492D01*
X-8963466Y-7716757D01*
X-8985897Y-7707562D01*
X-9106416Y-7658118D01*
X-9230705Y-7614836D01*
X-9359347Y-7577536D01*
X-9492924Y-7546036D01*
X-9523605Y-7539752D01*
X-9558288Y-7532651D01*
X-9586669Y-7526339D01*
X-9610288Y-7520367D01*
X-9630682Y-7514290D01*
X-9649391Y-7507661D01*
X-9667953Y-7500031D01*
X-9681791Y-7493807D01*
X-9734772Y-7465068D01*
X-9783839Y-7429923D01*
X-9828423Y-7389101D01*
X-9867951Y-7343330D01*
X-9901852Y-7293338D01*
X-9929555Y-7239854D01*
X-9950489Y-7183607D01*
X-9962136Y-7136287D01*
X-9970260Y-7073528D01*
X-9970797Y-7011899D01*
X-9964073Y-6951884D01*
X-9950414Y-6893968D01*
X-9930144Y-6838639D01*
X-9903589Y-6786380D01*
X-9871073Y-6737677D01*
X-9832923Y-6693016D01*
X-9789463Y-6652881D01*
X-9741018Y-6617760D01*
X-9687914Y-6588136D01*
X-9630476Y-6564495D01*
X-9569029Y-6547323D01*
X-9567319Y-6546954D01*
X-9549637Y-6543772D01*
X-9530395Y-6541648D01*
X-9507696Y-6540451D01*
X-9479648Y-6540049D01*
X-9468100Y-6540072D01*
G36*
X-9468100Y-6540072D02*
G01*
X-9446415Y-6540449D01*
X-9425452Y-6541453D01*
X-9404209Y-6543246D01*
X-9381681Y-6545989D01*
X-9356864Y-6549844D01*
X-9328754Y-6554973D01*
X-9296347Y-6561536D01*
X-9258640Y-6569696D01*
X-9214627Y-6579615D01*
X-9196241Y-6583833D01*
X-9082828Y-6612346D01*
X-8966649Y-6646141D01*
X-8849561Y-6684552D01*
X-8733420Y-6726912D01*
X-8620083Y-6772554D01*
X-8511407Y-6820813D01*
X-8440238Y-6855223D01*
X-8412711Y-6869708D01*
X-8391680Y-6882502D01*
X-8376108Y-6894416D01*
X-8364956Y-6906258D01*
X-8357187Y-6918838D01*
X-8356314Y-6920695D01*
X-8350339Y-6938729D01*
X-8350391Y-6955553D01*
X-8354346Y-6969794D01*
X-8365200Y-6989506D01*
X-8383521Y-7009753D01*
X-8408901Y-7030098D01*
X-8413687Y-7033399D01*
X-8486919Y-7087473D01*
X-8554387Y-7146677D01*
X-8615849Y-7210718D01*
X-8671065Y-7279304D01*
X-8719791Y-7352140D01*
X-8761786Y-7428936D01*
X-8787294Y-7485486D01*
X-8799639Y-7516677D01*
X-8810859Y-7548070D01*
X-8821609Y-7581691D01*
X-8832546Y-7619568D01*
X-8841402Y-7652506D01*
X-8846714Y-7670749D01*
X-8852129Y-7683797D01*
X-8858968Y-7694298D01*
X-8866421Y-7702719D01*
X-8881984Y-7716158D01*
X-8898371Y-7724237D01*
X-8916682Y-7727000D01*
X-8938014Y-7724492D01*
X-8963466Y-7716757D01*
X-8985897Y-7707562D01*
X-9106416Y-7658118D01*
X-9230705Y-7614836D01*
X-9359347Y-7577536D01*
X-9492924Y-7546036D01*
X-9523605Y-7539752D01*
X-9558288Y-7532651D01*
X-9586669Y-7526339D01*
X-9610288Y-7520367D01*
X-9630682Y-7514290D01*
X-9649391Y-7507661D01*
X-9667953Y-7500031D01*
X-9681791Y-7493807D01*
X-9734772Y-7465068D01*
X-9783839Y-7429923D01*
X-9828423Y-7389101D01*
X-9867951Y-7343330D01*
X-9901852Y-7293338D01*
X-9929555Y-7239854D01*
X-9950489Y-7183607D01*
X-9962136Y-7136287D01*
X-9970260Y-7073528D01*
X-9970797Y-7011899D01*
X-9964073Y-6951884D01*
X-9950414Y-6893968D01*
X-9930144Y-6838639D01*
X-9903589Y-6786380D01*
X-9871073Y-6737677D01*
X-9832923Y-6693016D01*
X-9789463Y-6652881D01*
X-9741018Y-6617760D01*
X-9687914Y-6588136D01*
X-9630476Y-6564495D01*
X-9569029Y-6547323D01*
X-9567319Y-6546954D01*
X-9549637Y-6543772D01*
X-9530395Y-6541648D01*
X-9507696Y-6540451D01*
X-9479648Y-6540049D01*
X-9468100Y-6540072D01*
G37*
X-7964282Y-7304831D02*
X-7956004Y-7306451D01*
X-7948531Y-7308923D01*
X-7946717Y-7309658D01*
X-7926651Y-7321473D01*
X-7908399Y-7338391D01*
X-7895341Y-7356916D01*
X-7889021Y-7375281D01*
X-7886342Y-7397524D01*
X-7887305Y-7420490D01*
X-7891913Y-7441025D01*
X-7895287Y-7448844D01*
X-7906301Y-7464927D01*
X-7921061Y-7480302D01*
X-7936929Y-7492456D01*
X-7946113Y-7497250D01*
X-7953555Y-7499582D01*
X-7967356Y-7503279D01*
X-7986129Y-7507993D01*
X-8008482Y-7513377D01*
X-8033026Y-7519082D01*
X-8037082Y-7520005D01*
X-8060965Y-7525466D01*
X-8082059Y-7530363D01*
X-8099196Y-7534417D01*
X-8111207Y-7537353D01*
X-8116927Y-7538893D01*
X-8117234Y-7539025D01*
X-8114666Y-7541714D01*
X-8106885Y-7548445D01*
X-8094921Y-7558357D01*
X-8079805Y-7570592D01*
X-8069893Y-7578499D01*
X-7950758Y-7678104D01*
X-7836829Y-7783700D01*
X-7728115Y-7895278D01*
X-7624622Y-8012832D01*
X-7575743Y-8072709D01*
X-7561845Y-8089815D01*
X-7549589Y-8104241D01*
X-7539827Y-8115039D01*
X-7533407Y-8121261D01*
X-7531257Y-8122318D01*
X-7529568Y-8117732D01*
X-7526289Y-8106603D01*
X-7521739Y-8090097D01*
X-7516236Y-8069375D01*
X-7510098Y-8045601D01*
X-7507650Y-8035948D01*
X-7499793Y-8004998D01*
X-7493445Y-7980698D01*
X-7488219Y-7961991D01*
X-7483727Y-7947820D01*
X-7479583Y-7937128D01*
X-7475400Y-7928856D01*
X-7470791Y-7921947D01*
X-7465369Y-7915344D01*
X-7462249Y-7911845D01*
X-7441788Y-7894613D01*
X-7418455Y-7883937D01*
X-7393563Y-7879633D01*
X-7368428Y-7881513D01*
X-7344365Y-7889393D01*
X-7322688Y-7903085D01*
X-7304712Y-7922404D01*
X-7296945Y-7935233D01*
X-7291914Y-7946367D01*
X-7288606Y-7957519D01*
X-7287107Y-7969792D01*
X-7287506Y-7984288D01*
X-7289888Y-8002110D01*
X-7294342Y-8024360D01*
X-7300954Y-8052141D01*
X-7308509Y-8081588D01*
X-7315878Y-8109832D01*
X-7324678Y-8143674D01*
X-7334366Y-8181024D01*
X-7344401Y-8219791D01*
X-7354240Y-8257884D01*
X-7362945Y-8291666D01*
X-7372521Y-8328545D01*
X-7380605Y-8358575D01*
X-7387567Y-8382622D01*
X-7393775Y-8401553D01*
X-7399600Y-8416236D01*
X-7405409Y-8427538D01*
X-7411573Y-8436324D01*
X-7418460Y-8443463D01*
X-7426440Y-8449821D01*
X-7431906Y-8453622D01*
X-7437984Y-8457585D01*
X-7443925Y-8460894D01*
X-7450423Y-8463569D01*
X-7458168Y-8465630D01*
X-7467853Y-8467096D01*
X-7480170Y-8467988D01*
X-7495810Y-8468325D01*
X-7515466Y-8468128D01*
X-7539830Y-8467416D01*
X-7569593Y-8466209D01*
X-7605448Y-8464528D01*
X-7648087Y-8462392D01*
X-7679845Y-8460764D01*
X-7719694Y-8458655D01*
X-7757522Y-8456536D01*
X-7792512Y-8454462D01*
X-7823849Y-8452486D01*
X-7850718Y-8450661D01*
X-7872303Y-8449042D01*
X-7887788Y-8447682D01*
X-7896358Y-8446635D01*
X-7897300Y-8446435D01*
X-7920588Y-8436478D01*
X-7939627Y-8420904D01*
X-7954050Y-8401024D01*
X-7963486Y-8378146D01*
X-7967568Y-8353579D01*
X-7965926Y-8328632D01*
X-7958191Y-8304615D01*
X-7943994Y-8282836D01*
X-7943551Y-8282329D01*
X-7927507Y-8267945D01*
X-7908797Y-8256783D01*
X-7907539Y-8256227D01*
X-7899685Y-8253014D01*
X-7892427Y-8250730D01*
X-7884347Y-8249280D01*
X-7874027Y-8248564D01*
X-7860048Y-8248486D01*
X-7840991Y-8248948D01*
X-7815438Y-8249852D01*
X-7815116Y-8249864D01*
X-7789965Y-8250888D01*
X-7765599Y-8252033D01*
X-7743931Y-8253198D01*
X-7726877Y-8254283D01*
X-7718415Y-8254967D01*
X-7708477Y-8255936D01*
X-7701486Y-8256149D01*
X-7697714Y-8254836D01*
X-7697431Y-8251232D01*
X-7700910Y-8244569D01*
X-7708422Y-8234080D01*
X-7720237Y-8218997D01*
X-7736627Y-8198552D01*
X-7739720Y-8194698D01*
X-7809142Y-8111622D01*
X-7883173Y-8029536D01*
X-7960586Y-7949640D01*
X-8040154Y-7873134D01*
X-8120650Y-7801218D01*
X-8200846Y-7735090D01*
X-8243237Y-7702480D01*
X-8258607Y-7690964D01*
X-8256073Y-7726534D01*
X-8255110Y-7743577D01*
X-8254201Y-7766028D01*
X-8253431Y-7791357D01*
X-8252884Y-7817034D01*
X-8252761Y-7825604D01*
X-8252590Y-7850786D01*
X-8252860Y-7869488D01*
X-8253686Y-7883160D01*
X-8255180Y-7893252D01*
X-8257455Y-7901216D01*
X-8258977Y-7904979D01*
X-8273147Y-7927779D01*
X-8292882Y-7946228D01*
X-8316564Y-7959267D01*
X-8342573Y-7965837D01*
X-8352881Y-7966417D01*
X-8378604Y-7962783D01*
X-8402888Y-7952630D01*
X-8424002Y-7937081D01*
X-8440217Y-7917260D01*
X-8446009Y-7905947D01*
X-8447904Y-7901109D01*
X-8449545Y-7895913D01*
X-8450976Y-7889691D01*
X-8452243Y-7881775D01*
X-8453389Y-7871499D01*
X-8454459Y-7858194D01*
X-8455497Y-7841193D01*
X-8456548Y-7819827D01*
X-8457655Y-7793431D01*
X-8458863Y-7761335D01*
X-8460216Y-7722873D01*
X-8461759Y-7677377D01*
X-8462347Y-7659816D01*
X-8463863Y-7613978D01*
X-8465055Y-7575345D01*
X-8465865Y-7543191D01*
X-8466239Y-7516787D01*
X-8466120Y-7495406D01*
X-8465453Y-7478322D01*
X-8464182Y-7464805D01*
X-8462252Y-7454130D01*
X-8459607Y-7445567D01*
X-8456190Y-7438392D01*
X-8451948Y-7431874D01*
X-8446822Y-7425288D01*
X-8444138Y-7422016D01*
X-8432628Y-7411144D01*
X-8417438Y-7400826D01*
X-8401219Y-7392524D01*
X-8386619Y-7387704D01*
X-8380875Y-7387057D01*
X-8375033Y-7386188D01*
X-8362270Y-7383701D01*
X-8343400Y-7379771D01*
X-8319234Y-7374575D01*
X-8290584Y-7368290D01*
X-8258263Y-7361091D01*
X-8223082Y-7353155D01*
X-8189019Y-7345385D01*
X-8142404Y-7334755D01*
X-8102812Y-7325894D01*
X-8069552Y-7318700D01*
X-8041933Y-7313071D01*
X-8019265Y-7308904D01*
X-8000857Y-7306099D01*
X-7986018Y-7304553D01*
X-7974056Y-7304164D01*
X-7964282Y-7304831D01*
G36*
X-7964282Y-7304831D02*
G01*
X-7956004Y-7306451D01*
X-7948531Y-7308923D01*
X-7946717Y-7309658D01*
X-7926651Y-7321473D01*
X-7908399Y-7338391D01*
X-7895341Y-7356916D01*
X-7889021Y-7375281D01*
X-7886342Y-7397524D01*
X-7887305Y-7420490D01*
X-7891913Y-7441025D01*
X-7895287Y-7448844D01*
X-7906301Y-7464927D01*
X-7921061Y-7480302D01*
X-7936929Y-7492456D01*
X-7946113Y-7497250D01*
X-7953555Y-7499582D01*
X-7967356Y-7503279D01*
X-7986129Y-7507993D01*
X-8008482Y-7513377D01*
X-8033026Y-7519082D01*
X-8037082Y-7520005D01*
X-8060965Y-7525466D01*
X-8082059Y-7530363D01*
X-8099196Y-7534417D01*
X-8111207Y-7537353D01*
X-8116927Y-7538893D01*
X-8117234Y-7539025D01*
X-8114666Y-7541714D01*
X-8106885Y-7548445D01*
X-8094921Y-7558357D01*
X-8079805Y-7570592D01*
X-8069893Y-7578499D01*
X-7950758Y-7678104D01*
X-7836829Y-7783700D01*
X-7728115Y-7895278D01*
X-7624622Y-8012832D01*
X-7575743Y-8072709D01*
X-7561845Y-8089815D01*
X-7549589Y-8104241D01*
X-7539827Y-8115039D01*
X-7533407Y-8121261D01*
X-7531257Y-8122318D01*
X-7529568Y-8117732D01*
X-7526289Y-8106603D01*
X-7521739Y-8090097D01*
X-7516236Y-8069375D01*
X-7510098Y-8045601D01*
X-7507650Y-8035948D01*
X-7499793Y-8004998D01*
X-7493445Y-7980698D01*
X-7488219Y-7961991D01*
X-7483727Y-7947820D01*
X-7479583Y-7937128D01*
X-7475400Y-7928856D01*
X-7470791Y-7921947D01*
X-7465369Y-7915344D01*
X-7462249Y-7911845D01*
X-7441788Y-7894613D01*
X-7418455Y-7883937D01*
X-7393563Y-7879633D01*
X-7368428Y-7881513D01*
X-7344365Y-7889393D01*
X-7322688Y-7903085D01*
X-7304712Y-7922404D01*
X-7296945Y-7935233D01*
X-7291914Y-7946367D01*
X-7288606Y-7957519D01*
X-7287107Y-7969792D01*
X-7287506Y-7984288D01*
X-7289888Y-8002110D01*
X-7294342Y-8024360D01*
X-7300954Y-8052141D01*
X-7308509Y-8081588D01*
X-7315878Y-8109832D01*
X-7324678Y-8143674D01*
X-7334366Y-8181024D01*
X-7344401Y-8219791D01*
X-7354240Y-8257884D01*
X-7362945Y-8291666D01*
X-7372521Y-8328545D01*
X-7380605Y-8358575D01*
X-7387567Y-8382622D01*
X-7393775Y-8401553D01*
X-7399600Y-8416236D01*
X-7405409Y-8427538D01*
X-7411573Y-8436324D01*
X-7418460Y-8443463D01*
X-7426440Y-8449821D01*
X-7431906Y-8453622D01*
X-7437984Y-8457585D01*
X-7443925Y-8460894D01*
X-7450423Y-8463569D01*
X-7458168Y-8465630D01*
X-7467853Y-8467096D01*
X-7480170Y-8467988D01*
X-7495810Y-8468325D01*
X-7515466Y-8468128D01*
X-7539830Y-8467416D01*
X-7569593Y-8466209D01*
X-7605448Y-8464528D01*
X-7648087Y-8462392D01*
X-7679845Y-8460764D01*
X-7719694Y-8458655D01*
X-7757522Y-8456536D01*
X-7792512Y-8454462D01*
X-7823849Y-8452486D01*
X-7850718Y-8450661D01*
X-7872303Y-8449042D01*
X-7887788Y-8447682D01*
X-7896358Y-8446635D01*
X-7897300Y-8446435D01*
X-7920588Y-8436478D01*
X-7939627Y-8420904D01*
X-7954050Y-8401024D01*
X-7963486Y-8378146D01*
X-7967568Y-8353579D01*
X-7965926Y-8328632D01*
X-7958191Y-8304615D01*
X-7943994Y-8282836D01*
X-7943551Y-8282329D01*
X-7927507Y-8267945D01*
X-7908797Y-8256783D01*
X-7907539Y-8256227D01*
X-7899685Y-8253014D01*
X-7892427Y-8250730D01*
X-7884347Y-8249280D01*
X-7874027Y-8248564D01*
X-7860048Y-8248486D01*
X-7840991Y-8248948D01*
X-7815438Y-8249852D01*
X-7815116Y-8249864D01*
X-7789965Y-8250888D01*
X-7765599Y-8252033D01*
X-7743931Y-8253198D01*
X-7726877Y-8254283D01*
X-7718415Y-8254967D01*
X-7708477Y-8255936D01*
X-7701486Y-8256149D01*
X-7697714Y-8254836D01*
X-7697431Y-8251232D01*
X-7700910Y-8244569D01*
X-7708422Y-8234080D01*
X-7720237Y-8218997D01*
X-7736627Y-8198552D01*
X-7739720Y-8194698D01*
X-7809142Y-8111622D01*
X-7883173Y-8029536D01*
X-7960586Y-7949640D01*
X-8040154Y-7873134D01*
X-8120650Y-7801218D01*
X-8200846Y-7735090D01*
X-8243237Y-7702480D01*
X-8258607Y-7690964D01*
X-8256073Y-7726534D01*
X-8255110Y-7743577D01*
X-8254201Y-7766028D01*
X-8253431Y-7791357D01*
X-8252884Y-7817034D01*
X-8252761Y-7825604D01*
X-8252590Y-7850786D01*
X-8252860Y-7869488D01*
X-8253686Y-7883160D01*
X-8255180Y-7893252D01*
X-8257455Y-7901216D01*
X-8258977Y-7904979D01*
X-8273147Y-7927779D01*
X-8292882Y-7946228D01*
X-8316564Y-7959267D01*
X-8342573Y-7965837D01*
X-8352881Y-7966417D01*
X-8378604Y-7962783D01*
X-8402888Y-7952630D01*
X-8424002Y-7937081D01*
X-8440217Y-7917260D01*
X-8446009Y-7905947D01*
X-8447904Y-7901109D01*
X-8449545Y-7895913D01*
X-8450976Y-7889691D01*
X-8452243Y-7881775D01*
X-8453389Y-7871499D01*
X-8454459Y-7858194D01*
X-8455497Y-7841193D01*
X-8456548Y-7819827D01*
X-8457655Y-7793431D01*
X-8458863Y-7761335D01*
X-8460216Y-7722873D01*
X-8461759Y-7677377D01*
X-8462347Y-7659816D01*
X-8463863Y-7613978D01*
X-8465055Y-7575345D01*
X-8465865Y-7543191D01*
X-8466239Y-7516787D01*
X-8466120Y-7495406D01*
X-8465453Y-7478322D01*
X-8464182Y-7464805D01*
X-8462252Y-7454130D01*
X-8459607Y-7445567D01*
X-8456190Y-7438392D01*
X-8451948Y-7431874D01*
X-8446822Y-7425288D01*
X-8444138Y-7422016D01*
X-8432628Y-7411144D01*
X-8417438Y-7400826D01*
X-8401219Y-7392524D01*
X-8386619Y-7387704D01*
X-8380875Y-7387057D01*
X-8375033Y-7386188D01*
X-8362270Y-7383701D01*
X-8343400Y-7379771D01*
X-8319234Y-7374575D01*
X-8290584Y-7368290D01*
X-8258263Y-7361091D01*
X-8223082Y-7353155D01*
X-8189019Y-7345385D01*
X-8142404Y-7334755D01*
X-8102812Y-7325894D01*
X-8069552Y-7318700D01*
X-8041933Y-7313071D01*
X-8019265Y-7308904D01*
X-8000857Y-7306099D01*
X-7986018Y-7304553D01*
X-7974056Y-7304164D01*
X-7964282Y-7304831D01*
G37*
D12*
%TO.C,R2*%
X3277500Y-5162742D02*
X3277500Y-5637258D01*
X4322500Y-5162742D02*
X4322500Y-5637258D01*
%TO.C,C1*%
X-4940580Y4710000D02*
X-4659420Y4710000D01*
X-4940580Y3690000D02*
X-4659420Y3690000D01*
%TO.C,U2*%
D10*
X-7775000Y-3375000D02*
X-10225000Y-3375000D01*
X-10225000Y-2225000D01*
X-7775000Y-2225000D01*
X-7775000Y-3375000D01*
D13*
X-7937500Y-2425000D02*
G75*
G02*
X-8012500Y-2425000I-37500J0D01*
G01*
X-8012500Y-2425000D02*
G75*
G02*
X-7937500Y-2425000I37500J0D01*
G01*
X-7737500Y-975000D02*
G75*
G02*
X-7812500Y-975000I-37500J0D01*
G01*
X-7812500Y-975000D02*
G75*
G02*
X-7737500Y-975000I37500J0D01*
G01*
D12*
%TO.C,J1*%
X-9117500Y1187000D02*
X-8355500Y1187000D01*
X-8990500Y4235000D02*
X-8736500Y4235000D01*
X-8736500Y6013000D02*
X-8482500Y6013000D01*
X-8736500Y5759000D02*
X-8736500Y6013000D01*
X-8736500Y4235000D02*
X-8736500Y4489000D01*
X-7720500Y6013000D02*
X-6831500Y6013000D01*
X-6831500Y6013000D02*
X-6831500Y1187000D01*
X-6831500Y1187000D02*
X-7593500Y1187000D01*
D10*
%TO.C,D8*%
X375000Y1575000D02*
X750000Y1575000D01*
X562500Y1387500D02*
X562500Y1762500D01*
D13*
X-987500Y-1175000D02*
G75*
G02*
X-1062500Y-1175000I-37500J0D01*
G01*
X-1062500Y-1175000D02*
G75*
G02*
X-987500Y-1175000I37500J0D01*
G01*
D12*
%TO.C,C2*%
X6490000Y-5259420D02*
X6490000Y-5540580D01*
X7510000Y-5259420D02*
X7510000Y-5540580D01*
%TO.C,U1*%
D10*
X4575000Y1875000D02*
X10625000Y1875000D01*
X10625000Y-1875000D01*
X4575000Y-1875000D01*
X4575000Y1875000D01*
D13*
X4387500Y-2875000D02*
G75*
G02*
X4312500Y-2875000I-37500J0D01*
G01*
X4312500Y-2875000D02*
G75*
G02*
X4387500Y-2875000I37500J0D01*
G01*
D10*
X4950000Y-1575000D02*
G75*
G02*
X4800000Y-1575000I-75000J0D01*
G01*
X4800000Y-1575000D02*
G75*
G02*
X4950000Y-1575000I75000J0D01*
G01*
%TO.C,D7*%
X-300000Y6225000D02*
X-300000Y5575000D01*
X250000Y5900000D02*
X-300000Y6225000D01*
X250000Y5900000D02*
X-300000Y5575000D01*
X300000Y6225000D02*
X300000Y5575000D01*
D13*
X1212500Y5375000D02*
G75*
G02*
X1137500Y5375000I-37500J0D01*
G01*
X1137500Y5375000D02*
G75*
G02*
X1212500Y5375000I37500J0D01*
G01*
D10*
%TO.C,FB1*%
X-6220000Y6520000D02*
X-6070000Y6650000D01*
X-6220000Y5500000D02*
X-6220000Y6520000D01*
X-6070000Y6650000D02*
X-5310000Y6650000D01*
X-6070000Y5350000D02*
X-6220000Y5500000D01*
X-6070000Y5350000D02*
X-5310000Y5350000D01*
X-3530000Y6650000D02*
X-3370000Y6500000D01*
X-3520000Y6650000D02*
X-4290000Y6650000D01*
X-3520000Y5350000D02*
X-4290000Y5350000D01*
X-3370000Y6500000D02*
X-3370000Y5490000D01*
X-3370000Y5490000D02*
X-3530000Y5350000D01*
D12*
%TO.C,C4*%
X-8859420Y-5090000D02*
X-9140580Y-5090000D01*
X-8859420Y-6110000D02*
X-9140580Y-6110000D01*
D14*
%TO.C,G\u002A\u002A\u002A*%
G36*
X-11361884Y3770334D02*
G01*
X-11353170Y3770274D01*
X-11345044Y3770209D01*
X-11338244Y3770147D01*
X-11332628Y3770080D01*
X-11328054Y3770001D01*
X-11324380Y3769904D01*
X-11321461Y3769782D01*
X-11319157Y3769628D01*
X-11317325Y3769436D01*
X-11315821Y3769199D01*
X-11314503Y3768910D01*
X-11313230Y3768562D01*
X-11312524Y3768352D01*
X-11302439Y3764565D01*
X-11293147Y3759562D01*
X-11284706Y3753377D01*
X-11277170Y3746047D01*
X-11275924Y3744621D01*
X-11271441Y3738841D01*
X-11267765Y3732868D01*
X-11264687Y3726305D01*
X-11261997Y3718752D01*
X-11261517Y3717187D01*
X-11259974Y3712044D01*
X-11259881Y3485757D01*
X-11259875Y3467593D01*
X-11259870Y3449798D01*
X-11259868Y3432429D01*
X-11259868Y3415544D01*
X-11259869Y3399199D01*
X-11259873Y3383451D01*
X-11259878Y3368356D01*
X-11259885Y3353972D01*
X-11259894Y3340354D01*
X-11259904Y3327561D01*
X-11259916Y3315648D01*
X-11259930Y3304673D01*
X-11259945Y3294692D01*
X-11259961Y3285762D01*
X-11259979Y3277939D01*
X-11259999Y3271281D01*
X-11260019Y3265845D01*
X-11260041Y3261687D01*
X-11260064Y3258863D01*
X-11260088Y3257431D01*
X-11260097Y3257266D01*
X-11262150Y3247790D01*
X-11265537Y3238762D01*
X-11270163Y3230290D01*
X-11275932Y3222482D01*
X-11282747Y3215447D01*
X-11290515Y3209292D01*
X-11299138Y3204126D01*
X-11308522Y3200057D01*
X-11311528Y3199049D01*
X-11317985Y3197026D01*
X-11355454Y3197024D01*
X-11363844Y3197024D01*
X-11370903Y3197032D01*
X-11376767Y3197051D01*
X-11381577Y3197088D01*
X-11385468Y3197147D01*
X-11388580Y3197234D01*
X-11391050Y3197355D01*
X-11393016Y3197514D01*
X-11394616Y3197717D01*
X-11395988Y3197969D01*
X-11397270Y3198276D01*
X-11398600Y3198643D01*
X-11398802Y3198701D01*
X-11407973Y3202055D01*
X-11416603Y3206654D01*
X-11424558Y3212363D01*
X-11431704Y3219046D01*
X-11437904Y3226567D01*
X-11443025Y3234791D01*
X-11446932Y3243581D01*
X-11448570Y3248817D01*
X-11450231Y3255062D01*
X-11450231Y3483553D01*
X-11450231Y3712044D01*
X-11448532Y3717922D01*
X-11446451Y3723884D01*
X-11443641Y3730181D01*
X-11440387Y3736231D01*
X-11436978Y3741457D01*
X-11436649Y3741899D01*
X-11430840Y3748699D01*
X-11424232Y3754850D01*
X-11417106Y3760135D01*
X-11409746Y3764337D01*
X-11404703Y3766482D01*
X-11402171Y3767377D01*
X-11399816Y3768130D01*
X-11397488Y3768752D01*
X-11395039Y3769254D01*
X-11392317Y3769647D01*
X-11389174Y3769942D01*
X-11385459Y3770150D01*
X-11381023Y3770282D01*
X-11375714Y3770350D01*
X-11369385Y3770363D01*
X-11361884Y3770334D01*
G37*
G36*
X-11763597Y362846D02*
G01*
X-11755725Y362720D01*
X-11748973Y362482D01*
X-11743166Y362106D01*
X-11738130Y361568D01*
X-11733692Y360844D01*
X-11729677Y359911D01*
X-11725912Y358743D01*
X-11722221Y357317D01*
X-11718430Y355609D01*
X-11717661Y355239D01*
X-11708888Y350218D01*
X-11700983Y344140D01*
X-11694040Y337132D01*
X-11688153Y329320D01*
X-11683417Y320832D01*
X-11679927Y311792D01*
X-11677775Y302328D01*
X-11677671Y301610D01*
X-11677503Y299617D01*
X-11677358Y296354D01*
X-11677237Y292009D01*
X-11677139Y286773D01*
X-11677064Y280836D01*
X-11677013Y274386D01*
X-11676985Y267614D01*
X-11676980Y260709D01*
X-11676999Y253862D01*
X-11677041Y247262D01*
X-11677106Y241099D01*
X-11677195Y235562D01*
X-11677307Y230842D01*
X-11677442Y227127D01*
X-11677600Y224608D01*
X-11677677Y223926D01*
X-11679630Y214901D01*
X-11682742Y206115D01*
X-11686855Y197963D01*
X-11689634Y193688D01*
X-11692461Y190158D01*
X-11696125Y186197D01*
X-11700240Y182183D01*
X-11704415Y178490D01*
X-11708262Y175497D01*
X-11708901Y175053D01*
X-11717668Y169953D01*
X-11726859Y166257D01*
X-11736500Y163956D01*
X-11737439Y163810D01*
X-11740053Y163570D01*
X-11743921Y163418D01*
X-11748830Y163347D01*
X-11754568Y163350D01*
X-11760920Y163421D01*
X-11767676Y163555D01*
X-11774622Y163743D01*
X-11781546Y163981D01*
X-11788234Y164262D01*
X-11794474Y164579D01*
X-11800054Y164926D01*
X-11804760Y165297D01*
X-11808381Y165685D01*
X-11810233Y165979D01*
X-11820074Y168691D01*
X-11829249Y172685D01*
X-11837668Y177894D01*
X-11845247Y184250D01*
X-11851897Y191686D01*
X-11857532Y200135D01*
X-11859832Y204492D01*
X-11861280Y207494D01*
X-11862512Y210185D01*
X-11863545Y212711D01*
X-11864398Y215217D01*
X-11865088Y217850D01*
X-11865631Y220755D01*
X-11866046Y224078D01*
X-11866349Y227964D01*
X-11866559Y232561D01*
X-11866691Y238013D01*
X-11866765Y244466D01*
X-11866797Y252067D01*
X-11866805Y260961D01*
X-11866805Y263002D01*
X-11866800Y271637D01*
X-11866783Y278938D01*
X-11866749Y285041D01*
X-11866695Y290082D01*
X-11866617Y294197D01*
X-11866511Y297521D01*
X-11866372Y300190D01*
X-11866198Y302339D01*
X-11865984Y304106D01*
X-11865725Y305624D01*
X-11865543Y306493D01*
X-11862620Y316313D01*
X-11858395Y325488D01*
X-11852917Y333932D01*
X-11846233Y341559D01*
X-11845343Y342425D01*
X-11841134Y346288D01*
X-11837375Y349326D01*
X-11833599Y351859D01*
X-11829339Y354212D01*
X-11825792Y355937D01*
X-11822170Y357552D01*
X-11818685Y358902D01*
X-11815164Y360009D01*
X-11811431Y360897D01*
X-11807313Y361587D01*
X-11802636Y362103D01*
X-11797225Y362467D01*
X-11790906Y362703D01*
X-11783506Y362833D01*
X-11774850Y362880D01*
X-11772763Y362882D01*
X-11763597Y362846D01*
G37*
G36*
X-11369493Y-4055396D02*
G01*
X-11357812Y-4057018D01*
X-11351534Y-4058449D01*
X-11344359Y-4060440D01*
X-11336688Y-4062863D01*
X-11328922Y-4065592D01*
X-11321462Y-4068498D01*
X-11320485Y-4068903D01*
X-11318602Y-4069745D01*
X-11315522Y-4071193D01*
X-11311327Y-4073205D01*
X-11306100Y-4075740D01*
X-11299925Y-4078755D01*
X-11292883Y-4082211D01*
X-11285059Y-4086065D01*
X-11276535Y-4090275D01*
X-11267393Y-4094801D01*
X-11257718Y-4099601D01*
X-11247590Y-4104633D01*
X-11237095Y-4109856D01*
X-11226313Y-4115229D01*
X-11215329Y-4120709D01*
X-11204226Y-4126256D01*
X-11193085Y-4131828D01*
X-11181990Y-4137384D01*
X-11171024Y-4142882D01*
X-11160270Y-4148280D01*
X-11149810Y-4153538D01*
X-11139728Y-4158614D01*
X-11130106Y-4163465D01*
X-11121028Y-4168052D01*
X-11112576Y-4172331D01*
X-11104833Y-4176263D01*
X-11097882Y-4179805D01*
X-11091806Y-4182916D01*
X-11086688Y-4185554D01*
X-11082610Y-4187679D01*
X-11079656Y-4189248D01*
X-11077908Y-4190219D01*
X-11077610Y-4190402D01*
X-11070437Y-4195756D01*
X-11064607Y-4201645D01*
X-11060065Y-4208163D01*
X-11056752Y-4215402D01*
X-11054613Y-4223454D01*
X-11053845Y-4228946D01*
X-11053631Y-4231803D01*
X-11053455Y-4235456D01*
X-11053317Y-4239658D01*
X-11053220Y-4244161D01*
X-11053165Y-4248719D01*
X-11053154Y-4253083D01*
X-11053189Y-4257007D01*
X-11053271Y-4260244D01*
X-11053401Y-4262547D01*
X-11053582Y-4263668D01*
X-11053616Y-4263721D01*
X-11054376Y-4263754D01*
X-11056558Y-4263786D01*
X-11060116Y-4263818D01*
X-11065003Y-4263849D01*
X-11071171Y-4263879D01*
X-11078574Y-4263909D01*
X-11087165Y-4263937D01*
X-11096896Y-4263964D01*
X-11107722Y-4263991D01*
X-11119594Y-4264016D01*
X-11132466Y-4264040D01*
X-11146292Y-4264063D01*
X-11161023Y-4264084D01*
X-11176614Y-4264104D01*
X-11193017Y-4264123D01*
X-11210186Y-4264140D01*
X-11228072Y-4264155D01*
X-11246631Y-4264169D01*
X-11265813Y-4264181D01*
X-11285574Y-4264191D01*
X-11305865Y-4264199D01*
X-11326639Y-4264205D01*
X-11347851Y-4264209D01*
X-11369452Y-4264211D01*
X-11378045Y-4264211D01*
X-11701984Y-4264211D01*
X-11701723Y-4243456D01*
X-11701462Y-4222701D01*
X-11699063Y-4215776D01*
X-11695732Y-4208051D01*
X-11691329Y-4201173D01*
X-11685681Y-4194877D01*
X-11684756Y-4194003D01*
X-11684099Y-4193402D01*
X-11683427Y-4192816D01*
X-11682682Y-4192216D01*
X-11681807Y-4191571D01*
X-11680745Y-4190853D01*
X-11679436Y-4190030D01*
X-11677825Y-4189074D01*
X-11675852Y-4187955D01*
X-11673460Y-4186642D01*
X-11670593Y-4185105D01*
X-11667191Y-4183316D01*
X-11663197Y-4181244D01*
X-11658554Y-4178859D01*
X-11653203Y-4176131D01*
X-11647088Y-4173031D01*
X-11640150Y-4169528D01*
X-11632332Y-4165594D01*
X-11623577Y-4161197D01*
X-11613825Y-4156309D01*
X-11603020Y-4150898D01*
X-11591105Y-4144937D01*
X-11578020Y-4138394D01*
X-11563709Y-4131239D01*
X-11555660Y-4127216D01*
X-11540432Y-4119605D01*
X-11526458Y-4112626D01*
X-11513681Y-4106249D01*
X-11502041Y-4100446D01*
X-11491481Y-4095188D01*
X-11481943Y-4090449D01*
X-11473367Y-4086197D01*
X-11465696Y-4082407D01*
X-11458870Y-4079048D01*
X-11452833Y-4076093D01*
X-11447524Y-4073513D01*
X-11442887Y-4071279D01*
X-11438862Y-4069364D01*
X-11435391Y-4067738D01*
X-11432416Y-4066374D01*
X-11429878Y-4065243D01*
X-11427720Y-4064316D01*
X-11425881Y-4063566D01*
X-11424306Y-4062963D01*
X-11422933Y-4062479D01*
X-11422312Y-4062275D01*
X-11408492Y-4058472D01*
X-11395104Y-4056060D01*
X-11382116Y-4055036D01*
X-11369493Y-4055396D01*
G37*
G36*
X-11503045Y-220304D02*
G01*
X-11496027Y-220330D01*
X-11488300Y-220377D01*
X-11479993Y-220445D01*
X-11471232Y-220532D01*
X-11462143Y-220640D01*
X-11461618Y-220646D01*
X-11405414Y-221366D01*
X-11191249Y-315002D01*
X-11174307Y-322411D01*
X-11157691Y-329680D01*
X-11141454Y-336787D01*
X-11125647Y-343708D01*
X-11110323Y-350421D01*
X-11095533Y-356904D01*
X-11081328Y-363132D01*
X-11067762Y-369084D01*
X-11054885Y-374737D01*
X-11042749Y-380068D01*
X-11031407Y-385054D01*
X-11020909Y-389672D01*
X-11011309Y-393900D01*
X-11002657Y-397715D01*
X-10995006Y-401094D01*
X-10988407Y-404015D01*
X-10982912Y-406454D01*
X-10978573Y-408388D01*
X-10975442Y-409796D01*
X-10973570Y-410654D01*
X-10973044Y-410911D01*
X-10963187Y-417093D01*
X-10954708Y-423774D01*
X-10947601Y-430960D01*
X-10941861Y-438656D01*
X-10938189Y-445313D01*
X-10937165Y-447480D01*
X-10936287Y-449399D01*
X-10935543Y-451198D01*
X-10934923Y-453006D01*
X-10934413Y-454950D01*
X-10934003Y-457158D01*
X-10933681Y-459760D01*
X-10933435Y-462883D01*
X-10933253Y-466655D01*
X-10933125Y-471205D01*
X-10933038Y-476661D01*
X-10932980Y-483151D01*
X-10932941Y-490803D01*
X-10932908Y-499746D01*
X-10932894Y-503656D01*
X-10932866Y-513407D01*
X-10932858Y-521798D01*
X-10932872Y-528941D01*
X-10932911Y-534947D01*
X-10932975Y-539924D01*
X-10933067Y-543985D01*
X-10933189Y-547240D01*
X-10933343Y-549798D01*
X-10933530Y-551770D01*
X-10933747Y-553237D01*
X-10936296Y-563245D01*
X-10940131Y-572546D01*
X-10945240Y-581127D01*
X-10951614Y-588976D01*
X-10959242Y-596080D01*
X-10968115Y-602426D01*
X-10977085Y-607444D01*
X-10978220Y-607966D01*
X-10980652Y-609048D01*
X-10984327Y-610669D01*
X-10989192Y-612804D01*
X-10995197Y-615432D01*
X-11002287Y-618529D01*
X-11010410Y-622072D01*
X-11019514Y-626039D01*
X-11029546Y-630407D01*
X-11040454Y-635153D01*
X-11052186Y-640254D01*
X-11064687Y-645687D01*
X-11077907Y-651429D01*
X-11091792Y-657458D01*
X-11106290Y-663751D01*
X-11121349Y-670284D01*
X-11136915Y-677036D01*
X-11152937Y-683982D01*
X-11169362Y-691101D01*
X-11186136Y-698369D01*
X-11196972Y-703063D01*
X-11410982Y-795757D01*
X-11468811Y-795513D01*
X-11479394Y-795468D01*
X-11488615Y-795425D01*
X-11496578Y-795381D01*
X-11503389Y-795334D01*
X-11509155Y-795280D01*
X-11513981Y-795215D01*
X-11517974Y-795138D01*
X-11521239Y-795045D01*
X-11523882Y-794933D01*
X-11526010Y-794798D01*
X-11527728Y-794638D01*
X-11529141Y-794449D01*
X-11530357Y-794229D01*
X-11531481Y-793974D01*
X-11532619Y-793681D01*
X-11532750Y-793647D01*
X-11542330Y-790392D01*
X-11551158Y-785899D01*
X-11559313Y-780119D01*
X-11565670Y-774270D01*
X-11572352Y-766548D01*
X-11577652Y-758472D01*
X-11581638Y-749915D01*
X-11584379Y-740749D01*
X-11584710Y-739200D01*
X-11585366Y-734523D01*
X-11585689Y-728948D01*
X-11585694Y-722916D01*
X-11585395Y-716872D01*
X-11584806Y-711256D01*
X-11583941Y-706513D01*
X-11583631Y-705331D01*
X-11580869Y-697720D01*
X-11577033Y-690089D01*
X-11572366Y-682815D01*
X-11567108Y-676279D01*
X-11561998Y-671280D01*
X-11554421Y-665630D01*
X-11546120Y-660927D01*
X-11537419Y-657325D01*
X-11528643Y-654977D01*
X-11527007Y-654687D01*
X-11525167Y-654514D01*
X-11521943Y-654361D01*
X-11517421Y-654227D01*
X-11511685Y-654114D01*
X-11504821Y-654024D01*
X-11496914Y-653959D01*
X-11488048Y-653919D01*
X-11479251Y-653906D01*
X-11436271Y-653898D01*
X-11271193Y-580921D01*
X-11106115Y-507943D01*
X-11271928Y-435475D01*
X-11437741Y-363007D01*
X-11482925Y-362779D01*
X-11492227Y-362730D01*
X-11500181Y-362683D01*
X-11506908Y-362631D01*
X-11512529Y-362573D01*
X-11517165Y-362502D01*
X-11520936Y-362415D01*
X-11523965Y-362309D01*
X-11526372Y-362177D01*
X-11528278Y-362018D01*
X-11529805Y-361825D01*
X-11531073Y-361595D01*
X-11532203Y-361324D01*
X-11533252Y-361027D01*
X-11541798Y-358047D01*
X-11549340Y-354393D01*
X-11556276Y-349833D01*
X-11563004Y-344133D01*
X-11564354Y-342842D01*
X-11571134Y-335368D01*
X-11576597Y-327383D01*
X-11580859Y-318697D01*
X-11583294Y-311750D01*
X-11584370Y-307056D01*
X-11585160Y-301378D01*
X-11585640Y-295178D01*
X-11585783Y-288917D01*
X-11585566Y-283059D01*
X-11585080Y-278741D01*
X-11582829Y-269271D01*
X-11579282Y-260322D01*
X-11574549Y-252001D01*
X-11568742Y-244412D01*
X-11561973Y-237659D01*
X-11554354Y-231849D01*
X-11545995Y-227085D01*
X-11537009Y-223473D01*
X-11527508Y-221117D01*
X-11523077Y-220493D01*
X-11521501Y-220411D01*
X-11518583Y-220352D01*
X-11514450Y-220314D01*
X-11509228Y-220299D01*
X-11503045Y-220304D01*
G37*
G36*
X-10999914Y524091D02*
G01*
X-10995536Y523855D01*
X-10991854Y523410D01*
X-10988920Y522828D01*
X-10979412Y519906D01*
X-10970624Y515744D01*
X-10962456Y510284D01*
X-10955343Y504010D01*
X-10948384Y496222D01*
X-10942821Y488047D01*
X-10938611Y479408D01*
X-10935713Y470230D01*
X-10934877Y466195D01*
X-10934781Y464991D01*
X-10934692Y462498D01*
X-10934610Y458704D01*
X-10934535Y453598D01*
X-10934467Y447166D01*
X-10934407Y439397D01*
X-10934353Y430278D01*
X-10934306Y419797D01*
X-10934266Y407942D01*
X-10934233Y394701D01*
X-10934207Y380061D01*
X-10934188Y364011D01*
X-10934175Y346538D01*
X-10934168Y327630D01*
X-10934169Y307275D01*
X-10934174Y289500D01*
X-10934183Y270137D01*
X-10934194Y252192D01*
X-10934208Y235614D01*
X-10934224Y220351D01*
X-10934244Y206353D01*
X-10934267Y193567D01*
X-10934293Y181942D01*
X-10934324Y171427D01*
X-10934359Y161971D01*
X-10934398Y153522D01*
X-10934443Y146030D01*
X-10934492Y139441D01*
X-10934548Y133706D01*
X-10934609Y128773D01*
X-10934676Y124591D01*
X-10934749Y121108D01*
X-10934829Y118273D01*
X-10934917Y116034D01*
X-10935011Y114340D01*
X-10935114Y113141D01*
X-10935223Y112389D01*
X-10937934Y102785D01*
X-10941997Y93713D01*
X-10947361Y85259D01*
X-10953977Y77512D01*
X-10956070Y75459D01*
X-10963895Y68965D01*
X-10972167Y63846D01*
X-10980975Y60052D01*
X-10986444Y58418D01*
X-10996558Y56568D01*
X-11006577Y56118D01*
X-11016384Y57015D01*
X-11025861Y59205D01*
X-11034891Y62635D01*
X-11043357Y67252D01*
X-11051142Y73003D01*
X-11058128Y79835D01*
X-11064198Y87693D01*
X-11068909Y95858D01*
X-11070292Y98703D01*
X-11071499Y101345D01*
X-11072543Y103905D01*
X-11073434Y106499D01*
X-11074186Y109247D01*
X-11074810Y112268D01*
X-11075317Y115678D01*
X-11075720Y119598D01*
X-11076031Y124145D01*
X-11076262Y129438D01*
X-11076425Y135596D01*
X-11076531Y142737D01*
X-11076592Y150979D01*
X-11076621Y160442D01*
X-11076630Y171243D01*
X-11076630Y172450D01*
X-11076636Y218920D01*
X-11259898Y218920D01*
X-11443159Y218920D01*
X-11443449Y168777D01*
X-11443510Y158807D01*
X-11443571Y150194D01*
X-11443635Y142823D01*
X-11443706Y136582D01*
X-11443787Y131357D01*
X-11443881Y127034D01*
X-11443990Y123500D01*
X-11444120Y120643D01*
X-11444271Y118348D01*
X-11444449Y116502D01*
X-11444656Y114992D01*
X-11444895Y113705D01*
X-11445024Y113123D01*
X-11448032Y103309D01*
X-11452320Y94216D01*
X-11457901Y85815D01*
X-11462395Y80536D01*
X-11470061Y73332D01*
X-11478353Y67437D01*
X-11487214Y62875D01*
X-11496585Y59671D01*
X-11506409Y57847D01*
X-11516627Y57428D01*
X-11518870Y57524D01*
X-11529108Y58746D01*
X-11538657Y61225D01*
X-11547616Y65007D01*
X-11556089Y70136D01*
X-11564176Y76657D01*
X-11565819Y78193D01*
X-11572725Y85741D01*
X-11578333Y93952D01*
X-11582695Y102916D01*
X-11585507Y111349D01*
X-11585708Y112140D01*
X-11585888Y113006D01*
X-11586049Y114027D01*
X-11586192Y115281D01*
X-11586317Y116847D01*
X-11586427Y118805D01*
X-11586521Y121234D01*
X-11586602Y124212D01*
X-11586669Y127819D01*
X-11586725Y132134D01*
X-11586771Y137235D01*
X-11586807Y143203D01*
X-11586834Y150115D01*
X-11586854Y158051D01*
X-11586868Y167090D01*
X-11586877Y177312D01*
X-11586882Y188795D01*
X-11586884Y201617D01*
X-11586885Y210471D01*
X-11586885Y304512D01*
X-11584857Y310975D01*
X-11581400Y320109D01*
X-11577002Y328279D01*
X-11571488Y335776D01*
X-11566725Y340924D01*
X-11559010Y347697D01*
X-11550738Y353193D01*
X-11541744Y357503D01*
X-11531862Y360718D01*
X-11529578Y361282D01*
X-11528995Y361398D01*
X-11528240Y361507D01*
X-11527263Y361608D01*
X-11526016Y361703D01*
X-11524450Y361791D01*
X-11522515Y361873D01*
X-11520163Y361950D01*
X-11517343Y362020D01*
X-11514008Y362085D01*
X-11510107Y362146D01*
X-11505593Y362201D01*
X-11500415Y362252D01*
X-11494525Y362300D01*
X-11487874Y362343D01*
X-11480412Y362383D01*
X-11472090Y362420D01*
X-11462860Y362454D01*
X-11452671Y362485D01*
X-11441476Y362515D01*
X-11429225Y362542D01*
X-11415868Y362568D01*
X-11401357Y362592D01*
X-11385643Y362616D01*
X-11368677Y362638D01*
X-11350408Y362661D01*
X-11330789Y362683D01*
X-11309770Y362706D01*
X-11300582Y362715D01*
X-11076729Y362946D01*
X-11076438Y412709D01*
X-11076378Y422933D01*
X-11076318Y431808D01*
X-11076249Y439454D01*
X-11076162Y445993D01*
X-11076046Y451545D01*
X-11075893Y456230D01*
X-11075692Y460169D01*
X-11075434Y463482D01*
X-11075109Y466291D01*
X-11074708Y468715D01*
X-11074221Y470875D01*
X-11073638Y472892D01*
X-11072950Y474887D01*
X-11072148Y476979D01*
X-11071221Y479289D01*
X-11071101Y479586D01*
X-11067196Y487576D01*
X-11062147Y495220D01*
X-11056159Y502310D01*
X-11049439Y508638D01*
X-11042193Y513996D01*
X-11034628Y518173D01*
X-11031645Y519435D01*
X-11026527Y521288D01*
X-11022023Y522598D01*
X-11017651Y523451D01*
X-11012931Y523933D01*
X-11007385Y524130D01*
X-11005371Y524147D01*
X-10999914Y524091D01*
G37*
G36*
X-10996101Y4514732D02*
G01*
X-10985887Y4512740D01*
X-10976264Y4509442D01*
X-10967324Y4504915D01*
X-10959157Y4499236D01*
X-10951856Y4492481D01*
X-10945510Y4484727D01*
X-10940211Y4476050D01*
X-10936050Y4466525D01*
X-10935027Y4463481D01*
X-10933003Y4457029D01*
X-10932865Y4284375D01*
X-10932851Y4265544D01*
X-10932838Y4248125D01*
X-10932829Y4232062D01*
X-10932822Y4217295D01*
X-10932818Y4203770D01*
X-10932818Y4191427D01*
X-10932823Y4180211D01*
X-10932831Y4170063D01*
X-10932845Y4160926D01*
X-10932864Y4152744D01*
X-10932888Y4145458D01*
X-10932919Y4139012D01*
X-10932955Y4133348D01*
X-10932999Y4128410D01*
X-10933050Y4124139D01*
X-10933108Y4120479D01*
X-10933174Y4117373D01*
X-10933248Y4114762D01*
X-10933331Y4112591D01*
X-10933423Y4110801D01*
X-10933525Y4109335D01*
X-10933636Y4108137D01*
X-10933757Y4107148D01*
X-10933889Y4106312D01*
X-10934032Y4105572D01*
X-10934052Y4105475D01*
X-10936761Y4096171D01*
X-10940779Y4087373D01*
X-10946000Y4079195D01*
X-10952315Y4071749D01*
X-10959619Y4065148D01*
X-10967806Y4059506D01*
X-10976767Y4054935D01*
X-10984477Y4052109D01*
X-10986964Y4051378D01*
X-10989137Y4050847D01*
X-10991313Y4050484D01*
X-10993807Y4050255D01*
X-10996936Y4050127D01*
X-11001017Y4050068D01*
X-11004269Y4050052D01*
X-11009473Y4050063D01*
X-11013505Y4050154D01*
X-11016661Y4050344D01*
X-11019237Y4050657D01*
X-11021530Y4051114D01*
X-11022636Y4051396D01*
X-11031895Y4054604D01*
X-11040645Y4059027D01*
X-11048742Y4064530D01*
X-11056037Y4070980D01*
X-11062385Y4078245D01*
X-11067639Y4086192D01*
X-11071652Y4094687D01*
X-11072304Y4096473D01*
X-11073030Y4098574D01*
X-11073659Y4100476D01*
X-11074196Y4102299D01*
X-11074651Y4104164D01*
X-11075031Y4106192D01*
X-11075344Y4108504D01*
X-11075598Y4111220D01*
X-11075801Y4114461D01*
X-11075960Y4118348D01*
X-11076083Y4123002D01*
X-11076179Y4128543D01*
X-11076255Y4135092D01*
X-11076318Y4142771D01*
X-11076377Y4151699D01*
X-11076428Y4160027D01*
X-11076729Y4209803D01*
X-11376774Y4209803D01*
X-11676819Y4209803D01*
X-11677080Y4158925D01*
X-11677132Y4148708D01*
X-11677183Y4139842D01*
X-11677241Y4132207D01*
X-11677315Y4125685D01*
X-11677413Y4120155D01*
X-11677545Y4115499D01*
X-11677720Y4111597D01*
X-11677945Y4108332D01*
X-11678230Y4105583D01*
X-11678583Y4103231D01*
X-11679013Y4101157D01*
X-11679530Y4099243D01*
X-11680140Y4097369D01*
X-11680855Y4095416D01*
X-11681681Y4093265D01*
X-11681944Y4092582D01*
X-11685682Y4084764D01*
X-11690669Y4077222D01*
X-11696689Y4070176D01*
X-11703522Y4063846D01*
X-11710951Y4058453D01*
X-11718756Y4054217D01*
X-11720803Y4053339D01*
X-11725526Y4051552D01*
X-11729817Y4050255D01*
X-11734074Y4049379D01*
X-11738694Y4048859D01*
X-11744075Y4048628D01*
X-11748886Y4048603D01*
X-11755257Y4048742D01*
X-11760555Y4049133D01*
X-11765167Y4049852D01*
X-11769479Y4050974D01*
X-11773876Y4052577D01*
X-11777826Y4054307D01*
X-11786165Y4058904D01*
X-11794064Y4064715D01*
X-11801214Y4071488D01*
X-11805957Y4077126D01*
X-11809149Y4081945D01*
X-11812230Y4087680D01*
X-11814940Y4093786D01*
X-11817016Y4099715D01*
X-11817395Y4101067D01*
X-11819049Y4107312D01*
X-11819049Y4200619D01*
X-11819049Y4214276D01*
X-11819046Y4226543D01*
X-11819039Y4237499D01*
X-11819028Y4247224D01*
X-11819012Y4255797D01*
X-11818989Y4263298D01*
X-11818958Y4269806D01*
X-11818918Y4275401D01*
X-11818869Y4280161D01*
X-11818808Y4284167D01*
X-11818735Y4287497D01*
X-11818648Y4290231D01*
X-11818547Y4292449D01*
X-11818431Y4294230D01*
X-11818297Y4295653D01*
X-11818146Y4296797D01*
X-11817976Y4297743D01*
X-11817786Y4298569D01*
X-11817672Y4299006D01*
X-11814353Y4308574D01*
X-11809813Y4317513D01*
X-11804167Y4325712D01*
X-11797528Y4333058D01*
X-11790011Y4339441D01*
X-11781732Y4344748D01*
X-11772806Y4348868D01*
X-11763580Y4351638D01*
X-11763064Y4351747D01*
X-11762498Y4351851D01*
X-11761840Y4351949D01*
X-11761051Y4352042D01*
X-11760090Y4352129D01*
X-11758918Y4352211D01*
X-11757493Y4352288D01*
X-11755777Y4352360D01*
X-11753728Y4352427D01*
X-11751307Y4352490D01*
X-11748473Y4352548D01*
X-11745187Y4352602D01*
X-11741409Y4352652D01*
X-11737098Y4352698D01*
X-11732213Y4352740D01*
X-11726716Y4352779D01*
X-11720565Y4352814D01*
X-11713721Y4352846D01*
X-11706144Y4352875D01*
X-11697793Y4352901D01*
X-11688629Y4352924D01*
X-11678611Y4352945D01*
X-11667698Y4352963D01*
X-11655852Y4352979D01*
X-11643031Y4352993D01*
X-11629197Y4353005D01*
X-11614307Y4353015D01*
X-11598323Y4353023D01*
X-11581205Y4353030D01*
X-11562911Y4353036D01*
X-11543403Y4353041D01*
X-11522639Y4353044D01*
X-11500581Y4353047D01*
X-11477187Y4353049D01*
X-11452417Y4353051D01*
X-11426232Y4353053D01*
X-11416985Y4353053D01*
X-11076636Y4353069D01*
X-11076636Y4399016D01*
X-11076623Y4408882D01*
X-11076583Y4418014D01*
X-11076519Y4426310D01*
X-11076432Y4433669D01*
X-11076323Y4439988D01*
X-11076194Y4445166D01*
X-11076047Y4449100D01*
X-11075883Y4451689D01*
X-11075846Y4452054D01*
X-11074063Y4461939D01*
X-11070976Y4471188D01*
X-11066560Y4479853D01*
X-11060786Y4487990D01*
X-11055165Y4494162D01*
X-11047252Y4501058D01*
X-11038765Y4506625D01*
X-11029769Y4510841D01*
X-11020331Y4513682D01*
X-11010517Y4515125D01*
X-11000393Y4515147D01*
X-10996101Y4514732D01*
G37*
G36*
X-11507372Y1378346D02*
G01*
X-11501203Y1377695D01*
X-11495559Y1376493D01*
X-11489987Y1374638D01*
X-11484036Y1372027D01*
X-11482557Y1371304D01*
X-11473756Y1366148D01*
X-11465960Y1359934D01*
X-11459209Y1352713D01*
X-11453540Y1344534D01*
X-11448992Y1335447D01*
X-11445604Y1325501D01*
X-11445001Y1323131D01*
X-11444834Y1322363D01*
X-11444681Y1321476D01*
X-11444541Y1320402D01*
X-11444413Y1319074D01*
X-11444297Y1317423D01*
X-11444192Y1315381D01*
X-11444097Y1312882D01*
X-11444010Y1309857D01*
X-11443931Y1306239D01*
X-11443860Y1301959D01*
X-11443794Y1296950D01*
X-11443734Y1291144D01*
X-11443678Y1284474D01*
X-11443626Y1276871D01*
X-11443577Y1268268D01*
X-11443529Y1258597D01*
X-11443482Y1247790D01*
X-11443435Y1235780D01*
X-11443387Y1222498D01*
X-11443337Y1207878D01*
X-11443288Y1193130D01*
X-11442884Y1068599D01*
X-11440842Y1063823D01*
X-11439342Y1060647D01*
X-11437565Y1057350D01*
X-11436277Y1055242D01*
X-11435374Y1054044D01*
X-11433601Y1051840D01*
X-11431048Y1048735D01*
X-11427804Y1044834D01*
X-11423959Y1040244D01*
X-11419604Y1035069D01*
X-11414829Y1029416D01*
X-11409723Y1023389D01*
X-11404377Y1017094D01*
X-11398880Y1010638D01*
X-11393323Y1004125D01*
X-11387796Y997660D01*
X-11382388Y991350D01*
X-11377190Y985300D01*
X-11372291Y979616D01*
X-11367783Y974402D01*
X-11363754Y969765D01*
X-11360294Y965810D01*
X-11357495Y962643D01*
X-11355445Y960369D01*
X-11354463Y959322D01*
X-11348449Y954183D01*
X-11341657Y950287D01*
X-11335159Y947933D01*
X-11334308Y947720D01*
X-11333330Y947532D01*
X-11332133Y947367D01*
X-11330629Y947223D01*
X-11328726Y947100D01*
X-11326335Y946995D01*
X-11323367Y946907D01*
X-11319730Y946834D01*
X-11315335Y946776D01*
X-11310093Y946731D01*
X-11303912Y946696D01*
X-11296704Y946671D01*
X-11288377Y946655D01*
X-11278843Y946645D01*
X-11268011Y946640D01*
X-11257005Y946639D01*
X-11183535Y946639D01*
X-11179158Y948688D01*
X-11176376Y950112D01*
X-11173728Y951663D01*
X-11172235Y952680D01*
X-11171374Y953529D01*
X-11169648Y955401D01*
X-11167141Y958197D01*
X-11163936Y961820D01*
X-11160118Y966172D01*
X-11155772Y971154D01*
X-11150981Y976668D01*
X-11145830Y982616D01*
X-11140403Y988900D01*
X-11134784Y995421D01*
X-11129058Y1002082D01*
X-11123309Y1008785D01*
X-11117620Y1015430D01*
X-11112077Y1021921D01*
X-11106764Y1028159D01*
X-11101764Y1034045D01*
X-11097162Y1039482D01*
X-11093042Y1044372D01*
X-11089489Y1048616D01*
X-11086587Y1052116D01*
X-11084420Y1054774D01*
X-11083072Y1056491D01*
X-11082755Y1056931D01*
X-11080337Y1061303D01*
X-11078216Y1066616D01*
X-11076585Y1072345D01*
X-11075949Y1075578D01*
X-11075829Y1077085D01*
X-11075718Y1080050D01*
X-11075618Y1084475D01*
X-11075528Y1090359D01*
X-11075448Y1097704D01*
X-11075378Y1106512D01*
X-11075319Y1116783D01*
X-11075269Y1128517D01*
X-11075230Y1141717D01*
X-11075201Y1156383D01*
X-11075182Y1172516D01*
X-11075173Y1190117D01*
X-11075172Y1195465D01*
X-11075167Y1213136D01*
X-11075152Y1229353D01*
X-11075128Y1244134D01*
X-11075094Y1257493D01*
X-11075051Y1269448D01*
X-11074998Y1280014D01*
X-11074935Y1289208D01*
X-11074863Y1297045D01*
X-11074780Y1303542D01*
X-11074687Y1308714D01*
X-11074584Y1312579D01*
X-11074470Y1315152D01*
X-11074372Y1316292D01*
X-11072421Y1325783D01*
X-11069267Y1334610D01*
X-11064839Y1342916D01*
X-11059065Y1350842D01*
X-11054651Y1355761D01*
X-11046945Y1362782D01*
X-11038645Y1368465D01*
X-11029712Y1372834D01*
X-11021901Y1375448D01*
X-11017150Y1376389D01*
X-11011411Y1376979D01*
X-11005125Y1377218D01*
X-10998733Y1377103D01*
X-10992673Y1376635D01*
X-10987386Y1375813D01*
X-10986047Y1375505D01*
X-10976573Y1372368D01*
X-10967657Y1367893D01*
X-10959398Y1362140D01*
X-10952316Y1355610D01*
X-10945747Y1347814D01*
X-10940515Y1339569D01*
X-10936514Y1330689D01*
X-10934668Y1325009D01*
X-10933003Y1319131D01*
X-10932923Y1191293D01*
X-10932916Y1177668D01*
X-10932912Y1164422D01*
X-10932911Y1151630D01*
X-10932914Y1139370D01*
X-10932918Y1127717D01*
X-10932926Y1116748D01*
X-10932936Y1106539D01*
X-10932949Y1097167D01*
X-10932964Y1088707D01*
X-10932981Y1081236D01*
X-10933001Y1074830D01*
X-10933022Y1069567D01*
X-10933046Y1065520D01*
X-10933071Y1062768D01*
X-10933098Y1061387D01*
X-10933106Y1061252D01*
X-10933305Y1059549D01*
X-10933616Y1056850D01*
X-10933985Y1053619D01*
X-10934161Y1052068D01*
X-10936359Y1038510D01*
X-10939838Y1024844D01*
X-10944492Y1011320D01*
X-10950218Y998188D01*
X-10956911Y985699D01*
X-10964467Y974102D01*
X-10969449Y967581D01*
X-10971360Y965278D01*
X-10974099Y962052D01*
X-10977583Y957993D01*
X-10981730Y953196D01*
X-10986457Y947754D01*
X-10991683Y941759D01*
X-10997326Y935305D01*
X-11003302Y928485D01*
X-11009532Y921391D01*
X-11015931Y914117D01*
X-11022418Y906756D01*
X-11028912Y899400D01*
X-11035329Y892144D01*
X-11041587Y885079D01*
X-11047605Y878299D01*
X-11053301Y871897D01*
X-11058592Y865966D01*
X-11063396Y860599D01*
X-11067631Y855890D01*
X-11071215Y851930D01*
X-11074066Y848813D01*
X-11076102Y846633D01*
X-11077119Y845595D01*
X-11088263Y835911D01*
X-11100212Y827446D01*
X-11112915Y820229D01*
X-11126320Y814285D01*
X-11140376Y809643D01*
X-11151208Y807053D01*
X-11153823Y806525D01*
X-11156217Y806051D01*
X-11158482Y805630D01*
X-11160710Y805257D01*
X-11162991Y804929D01*
X-11165418Y804643D01*
X-11168083Y804396D01*
X-11171076Y804183D01*
X-11174490Y804003D01*
X-11178416Y803851D01*
X-11182945Y803725D01*
X-11188170Y803621D01*
X-11194182Y803536D01*
X-11201072Y803466D01*
X-11208933Y803408D01*
X-11217855Y803359D01*
X-11227931Y803316D01*
X-11239252Y803275D01*
X-11251909Y803233D01*
X-11258062Y803213D01*
X-11271977Y803169D01*
X-11284511Y803134D01*
X-11295753Y803112D01*
X-11305790Y803105D01*
X-11314711Y803117D01*
X-11322604Y803152D01*
X-11329557Y803211D01*
X-11335659Y803299D01*
X-11340998Y803418D01*
X-11345663Y803573D01*
X-11349741Y803765D01*
X-11353320Y803999D01*
X-11356491Y804277D01*
X-11359339Y804603D01*
X-11361954Y804979D01*
X-11364425Y805410D01*
X-11366839Y805897D01*
X-11369284Y806445D01*
X-11371850Y807057D01*
X-11373167Y807378D01*
X-11381600Y809637D01*
X-11389238Y812140D01*
X-11396720Y815118D01*
X-11404685Y818804D01*
X-11404772Y818846D01*
X-11416287Y825068D01*
X-11427315Y832259D01*
X-11438076Y840577D01*
X-11448791Y850179D01*
X-11449761Y851112D01*
X-11451381Y852772D01*
X-11453870Y855447D01*
X-11457140Y859038D01*
X-11461105Y863444D01*
X-11465675Y868564D01*
X-11470766Y874300D01*
X-11476288Y880549D01*
X-11482154Y887213D01*
X-11488278Y894191D01*
X-11494572Y901383D01*
X-11500948Y908688D01*
X-11507319Y916006D01*
X-11513597Y923237D01*
X-11519697Y930282D01*
X-11525529Y937038D01*
X-11531006Y943408D01*
X-11536042Y949289D01*
X-11540549Y954582D01*
X-11544439Y959187D01*
X-11547625Y963004D01*
X-11550020Y965932D01*
X-11551502Y967824D01*
X-11560612Y981150D01*
X-11568364Y994879D01*
X-11574727Y1008951D01*
X-11579675Y1023309D01*
X-11581024Y1028227D01*
X-11581598Y1030439D01*
X-11582124Y1032464D01*
X-11582605Y1034369D01*
X-11583042Y1036223D01*
X-11583437Y1038095D01*
X-11583792Y1040053D01*
X-11584110Y1042166D01*
X-11584392Y1044503D01*
X-11584640Y1047131D01*
X-11584856Y1050120D01*
X-11585043Y1053537D01*
X-11585201Y1057452D01*
X-11585334Y1061933D01*
X-11585442Y1067048D01*
X-11585529Y1072867D01*
X-11585595Y1079457D01*
X-11585643Y1086887D01*
X-11585676Y1095226D01*
X-11585694Y1104542D01*
X-11585700Y1114903D01*
X-11585695Y1126379D01*
X-11585683Y1139038D01*
X-11585664Y1152948D01*
X-11585641Y1168177D01*
X-11585616Y1184796D01*
X-11585611Y1187987D01*
X-11585588Y1204544D01*
X-11585568Y1219698D01*
X-11585549Y1233515D01*
X-11585530Y1246062D01*
X-11585508Y1257405D01*
X-11585482Y1267611D01*
X-11585449Y1276745D01*
X-11585407Y1284874D01*
X-11585355Y1292065D01*
X-11585290Y1298384D01*
X-11585210Y1303897D01*
X-11585115Y1308671D01*
X-11585000Y1312771D01*
X-11584865Y1316265D01*
X-11584708Y1319219D01*
X-11584526Y1321699D01*
X-11584318Y1323771D01*
X-11584082Y1325502D01*
X-11583815Y1326958D01*
X-11583515Y1328205D01*
X-11583182Y1329311D01*
X-11582812Y1330341D01*
X-11582403Y1331361D01*
X-11581955Y1332438D01*
X-11581464Y1333639D01*
X-11581246Y1334192D01*
X-11577567Y1341857D01*
X-11572650Y1349314D01*
X-11566729Y1356326D01*
X-11560034Y1362653D01*
X-11552798Y1368059D01*
X-11545253Y1372304D01*
X-11543233Y1373204D01*
X-11536934Y1375557D01*
X-11530818Y1377169D01*
X-11524413Y1378130D01*
X-11517245Y1378527D01*
X-11514517Y1378549D01*
X-11507372Y1378346D01*
G37*
G36*
X-10990047Y-1019618D02*
G01*
X-10980933Y-1022030D01*
X-10972434Y-1025653D01*
X-10972345Y-1025700D01*
X-10963439Y-1031171D01*
X-10955433Y-1037762D01*
X-10948412Y-1045371D01*
X-10942460Y-1053895D01*
X-10937662Y-1063233D01*
X-10934699Y-1071260D01*
X-10933010Y-1076721D01*
X-10932912Y-1230273D01*
X-10932906Y-1245267D01*
X-10932905Y-1259914D01*
X-10932910Y-1274142D01*
X-10932921Y-1287880D01*
X-10932937Y-1301057D01*
X-10932958Y-1313601D01*
X-10932984Y-1325441D01*
X-10933014Y-1336505D01*
X-10933049Y-1346723D01*
X-10933088Y-1356023D01*
X-10933131Y-1364334D01*
X-10933178Y-1371584D01*
X-10933228Y-1377702D01*
X-10933281Y-1382617D01*
X-10933337Y-1386257D01*
X-10933395Y-1388551D01*
X-10933440Y-1389335D01*
X-10935016Y-1399744D01*
X-10937395Y-1410660D01*
X-10940486Y-1421855D01*
X-10944197Y-1433098D01*
X-10948436Y-1444161D01*
X-10953111Y-1454814D01*
X-10958131Y-1464828D01*
X-10963403Y-1473972D01*
X-10968836Y-1482017D01*
X-10972214Y-1486316D01*
X-10973410Y-1487711D01*
X-10975456Y-1490065D01*
X-10978224Y-1493233D01*
X-10981591Y-1497075D01*
X-10985430Y-1501447D01*
X-10989617Y-1506207D01*
X-10994025Y-1511214D01*
X-10998530Y-1516324D01*
X-11003005Y-1521395D01*
X-11007327Y-1526285D01*
X-11011368Y-1530852D01*
X-11015004Y-1534953D01*
X-11018109Y-1538446D01*
X-11020558Y-1541188D01*
X-11020867Y-1541532D01*
X-11028762Y-1549435D01*
X-11037904Y-1557026D01*
X-11048084Y-1564198D01*
X-11059095Y-1570843D01*
X-11070729Y-1576854D01*
X-11082776Y-1582125D01*
X-11095030Y-1586548D01*
X-11107281Y-1590015D01*
X-11119323Y-1592420D01*
X-11119850Y-1592501D01*
X-11121588Y-1592650D01*
X-11124697Y-1592789D01*
X-11129084Y-1592919D01*
X-11134658Y-1593039D01*
X-11141326Y-1593149D01*
X-11148997Y-1593249D01*
X-11157579Y-1593340D01*
X-11166981Y-1593420D01*
X-11177110Y-1593491D01*
X-11187874Y-1593552D01*
X-11199183Y-1593604D01*
X-11210943Y-1593646D01*
X-11223064Y-1593678D01*
X-11235453Y-1593700D01*
X-11248018Y-1593713D01*
X-11260669Y-1593716D01*
X-11273312Y-1593709D01*
X-11285856Y-1593693D01*
X-11298210Y-1593667D01*
X-11308801Y-1593635D01*
X-11310282Y-1593631D01*
X-11321979Y-1593586D01*
X-11333210Y-1593531D01*
X-11343883Y-1593467D01*
X-11353906Y-1593393D01*
X-11363188Y-1593309D01*
X-11371636Y-1593216D01*
X-11379160Y-1593113D01*
X-11385666Y-1593001D01*
X-11391064Y-1592879D01*
X-11395260Y-1592748D01*
X-11398165Y-1592607D01*
X-11399624Y-1592468D01*
X-11409035Y-1590461D01*
X-11419223Y-1587568D01*
X-11429893Y-1583912D01*
X-11440752Y-1579613D01*
X-11451507Y-1574793D01*
X-11461863Y-1569573D01*
X-11471527Y-1564074D01*
X-11477414Y-1560331D01*
X-11481759Y-1557365D01*
X-11485763Y-1554467D01*
X-11489542Y-1551520D01*
X-11493207Y-1548407D01*
X-11496873Y-1545013D01*
X-11500651Y-1541219D01*
X-11504657Y-1536911D01*
X-11509002Y-1531970D01*
X-11513800Y-1526281D01*
X-11519164Y-1519726D01*
X-11525207Y-1512189D01*
X-11529993Y-1506152D01*
X-11536265Y-1498190D01*
X-11541696Y-1491235D01*
X-11546375Y-1485160D01*
X-11550393Y-1479837D01*
X-11553841Y-1475137D01*
X-11556807Y-1470932D01*
X-11559382Y-1467093D01*
X-11561656Y-1463493D01*
X-11563719Y-1460003D01*
X-11565661Y-1456494D01*
X-11567572Y-1452839D01*
X-11568028Y-1451941D01*
X-11572136Y-1443379D01*
X-11575484Y-1435345D01*
X-11578288Y-1427271D01*
X-11580762Y-1418587D01*
X-11580983Y-1417727D01*
X-11581744Y-1414735D01*
X-11582425Y-1411988D01*
X-11583029Y-1409389D01*
X-11583563Y-1406843D01*
X-11584031Y-1404253D01*
X-11584437Y-1401524D01*
X-11584787Y-1398559D01*
X-11585086Y-1395264D01*
X-11585337Y-1391542D01*
X-11585547Y-1387297D01*
X-11585720Y-1382433D01*
X-11585860Y-1376856D01*
X-11585973Y-1370468D01*
X-11586063Y-1363174D01*
X-11586136Y-1354878D01*
X-11586195Y-1345484D01*
X-11586247Y-1334897D01*
X-11586290Y-1324235D01*
X-11442411Y-1324235D01*
X-11442403Y-1334999D01*
X-11442375Y-1344582D01*
X-11442329Y-1352942D01*
X-11442263Y-1360037D01*
X-11442178Y-1365826D01*
X-11442076Y-1370265D01*
X-11441955Y-1373313D01*
X-11441837Y-1374786D01*
X-11440070Y-1383235D01*
X-11437077Y-1390966D01*
X-11435185Y-1394478D01*
X-11434013Y-1396215D01*
X-11432023Y-1398889D01*
X-11429357Y-1402328D01*
X-11426160Y-1406357D01*
X-11422573Y-1410804D01*
X-11418741Y-1415496D01*
X-11414805Y-1420257D01*
X-11410910Y-1424917D01*
X-11407198Y-1429299D01*
X-11403812Y-1433233D01*
X-11400896Y-1436543D01*
X-11398592Y-1439056D01*
X-11397467Y-1440203D01*
X-11392659Y-1443956D01*
X-11387017Y-1446855D01*
X-11381047Y-1448648D01*
X-11380067Y-1448820D01*
X-11378263Y-1448986D01*
X-11375149Y-1449138D01*
X-11370884Y-1449272D01*
X-11365628Y-1449385D01*
X-11359538Y-1449475D01*
X-11352776Y-1449538D01*
X-11345499Y-1449571D01*
X-11342046Y-1449575D01*
X-11308801Y-1449581D01*
X-11308801Y-1304110D01*
X-11308801Y-1158640D01*
X-11338005Y-1158646D01*
X-11346854Y-1158665D01*
X-11354382Y-1158725D01*
X-11360737Y-1158835D01*
X-11366066Y-1159005D01*
X-11370517Y-1159245D01*
X-11374239Y-1159563D01*
X-11377380Y-1159969D01*
X-11380086Y-1160473D01*
X-11382507Y-1161083D01*
X-11384159Y-1161596D01*
X-11386921Y-1162646D01*
X-11389537Y-1163964D01*
X-11392169Y-1165687D01*
X-11394979Y-1167951D01*
X-11398128Y-1170891D01*
X-11401779Y-1174644D01*
X-11406093Y-1179347D01*
X-11408610Y-1182165D01*
X-11414672Y-1189027D01*
X-11419826Y-1194942D01*
X-11424165Y-1200035D01*
X-11427784Y-1204434D01*
X-11430777Y-1208263D01*
X-11433238Y-1211651D01*
X-11435261Y-1214722D01*
X-11436941Y-1217604D01*
X-11438371Y-1220422D01*
X-11439647Y-1223304D01*
X-11440096Y-1224405D01*
X-11442149Y-1229538D01*
X-11442367Y-1299335D01*
X-11442399Y-1312333D01*
X-11442411Y-1324235D01*
X-11586290Y-1324235D01*
X-11586295Y-1323020D01*
X-11586338Y-1311457D01*
X-11586386Y-1297203D01*
X-11586418Y-1284330D01*
X-11586431Y-1272751D01*
X-11586422Y-1262378D01*
X-11586389Y-1253125D01*
X-11586331Y-1244902D01*
X-11586243Y-1237622D01*
X-11586125Y-1231199D01*
X-11585974Y-1225544D01*
X-11585786Y-1220569D01*
X-11585561Y-1216187D01*
X-11585294Y-1212310D01*
X-11584985Y-1208850D01*
X-11584630Y-1205721D01*
X-11584228Y-1202833D01*
X-11583775Y-1200101D01*
X-11583270Y-1197435D01*
X-11583200Y-1197089D01*
X-11579526Y-1182607D01*
X-11574421Y-1168316D01*
X-11567916Y-1154279D01*
X-11560043Y-1140556D01*
X-11550836Y-1127207D01*
X-11540325Y-1114295D01*
X-11538597Y-1112354D01*
X-11535702Y-1109181D01*
X-11532128Y-1105331D01*
X-11528004Y-1100938D01*
X-11523464Y-1096139D01*
X-11518637Y-1091071D01*
X-11513656Y-1085868D01*
X-11508652Y-1080669D01*
X-11503756Y-1075608D01*
X-11499099Y-1070822D01*
X-11494813Y-1066446D01*
X-11491028Y-1062618D01*
X-11487877Y-1059473D01*
X-11485490Y-1057147D01*
X-11484168Y-1055922D01*
X-11474116Y-1048016D01*
X-11462942Y-1040912D01*
X-11450799Y-1034680D01*
X-11437840Y-1029390D01*
X-11424216Y-1025112D01*
X-11410924Y-1022075D01*
X-11408186Y-1021564D01*
X-11405642Y-1021106D01*
X-11403199Y-1020700D01*
X-11400763Y-1020341D01*
X-11398238Y-1020028D01*
X-11395532Y-1019757D01*
X-11392550Y-1019525D01*
X-11389197Y-1019329D01*
X-11385381Y-1019166D01*
X-11381006Y-1019032D01*
X-11375978Y-1018926D01*
X-11370205Y-1018844D01*
X-11363590Y-1018782D01*
X-11356041Y-1018738D01*
X-11347462Y-1018709D01*
X-11337761Y-1018692D01*
X-11326843Y-1018683D01*
X-11314613Y-1018680D01*
X-11305495Y-1018680D01*
X-11223209Y-1018680D01*
X-11216654Y-1020734D01*
X-11206711Y-1024584D01*
X-11197626Y-1029607D01*
X-11189458Y-1035743D01*
X-11182266Y-1042933D01*
X-11176108Y-1051117D01*
X-11171044Y-1060234D01*
X-11167132Y-1070225D01*
X-11166713Y-1071578D01*
X-11165168Y-1076721D01*
X-11164975Y-1263518D01*
X-11164783Y-1450315D01*
X-11154660Y-1450315D01*
X-11149483Y-1450241D01*
X-11144939Y-1449957D01*
X-11140882Y-1449372D01*
X-11137166Y-1448395D01*
X-11133647Y-1446933D01*
X-11130179Y-1444896D01*
X-11126616Y-1442192D01*
X-11122812Y-1438729D01*
X-11118623Y-1434415D01*
X-11113902Y-1429160D01*
X-11108504Y-1422872D01*
X-11105670Y-1419508D01*
X-11101714Y-1414768D01*
X-11097938Y-1410198D01*
X-11094479Y-1405967D01*
X-11091475Y-1402245D01*
X-11089062Y-1399201D01*
X-11087377Y-1397004D01*
X-11086760Y-1396143D01*
X-11084102Y-1391879D01*
X-11081452Y-1387054D01*
X-11079081Y-1382197D01*
X-11077258Y-1377840D01*
X-11076903Y-1376840D01*
X-11076742Y-1376321D01*
X-11076594Y-1375714D01*
X-11076458Y-1374955D01*
X-11076334Y-1373984D01*
X-11076220Y-1372740D01*
X-11076116Y-1371160D01*
X-11076021Y-1369183D01*
X-11075934Y-1366749D01*
X-11075856Y-1363795D01*
X-11075784Y-1360259D01*
X-11075719Y-1356081D01*
X-11075659Y-1351199D01*
X-11075604Y-1345552D01*
X-11075554Y-1339077D01*
X-11075507Y-1331714D01*
X-11075463Y-1323401D01*
X-11075420Y-1314076D01*
X-11075379Y-1303679D01*
X-11075339Y-1292147D01*
X-11075299Y-1279419D01*
X-11075258Y-1265434D01*
X-11075215Y-1250130D01*
X-11075170Y-1233445D01*
X-11075149Y-1225498D01*
X-11074761Y-1078191D01*
X-11073106Y-1071946D01*
X-11069900Y-1062612D01*
X-11065433Y-1053804D01*
X-11059833Y-1045664D01*
X-11053231Y-1038335D01*
X-11045755Y-1031959D01*
X-11037534Y-1026677D01*
X-11028700Y-1022632D01*
X-11027956Y-1022361D01*
X-11018731Y-1019789D01*
X-11009181Y-1018483D01*
X-10999542Y-1018431D01*
X-10990047Y-1019618D01*
G37*
G36*
X-11219535Y2172647D02*
G01*
X-11209948Y2169479D01*
X-11200950Y2165030D01*
X-11192658Y2159410D01*
X-11185185Y2152726D01*
X-11178645Y2145088D01*
X-11173153Y2136605D01*
X-11168823Y2127386D01*
X-11167195Y2122742D01*
X-11165168Y2116279D01*
X-11164974Y1929114D01*
X-11164781Y1741950D01*
X-11156109Y1741950D01*
X-11150075Y1742078D01*
X-11145124Y1742505D01*
X-11140887Y1743297D01*
X-11136997Y1744522D01*
X-11133575Y1746006D01*
X-11131199Y1747233D01*
X-11128956Y1748602D01*
X-11126713Y1750245D01*
X-11124333Y1752290D01*
X-11121681Y1754869D01*
X-11118622Y1758111D01*
X-11115019Y1762146D01*
X-11110738Y1767104D01*
X-11107034Y1771467D01*
X-11101318Y1778268D01*
X-11096484Y1784114D01*
X-11092435Y1789147D01*
X-11089071Y1793507D01*
X-11086296Y1797335D01*
X-11084010Y1800773D01*
X-11082116Y1803960D01*
X-11080517Y1807037D01*
X-11079114Y1810146D01*
X-11077808Y1813427D01*
X-11077785Y1813489D01*
X-11075534Y1819461D01*
X-11075162Y1967135D01*
X-11074790Y2114810D01*
X-11073191Y2120427D01*
X-11070127Y2129447D01*
X-11066284Y2137464D01*
X-11061458Y2144826D01*
X-11055446Y2151884D01*
X-11053905Y2153469D01*
X-11046644Y2159992D01*
X-11039061Y2165189D01*
X-11030907Y2169204D01*
X-11021930Y2172177D01*
X-11020266Y2172599D01*
X-11014660Y2173600D01*
X-11008263Y2174156D01*
X-11001603Y2174259D01*
X-10995208Y2173905D01*
X-10989604Y2173088D01*
X-10988920Y2172938D01*
X-10979424Y2170020D01*
X-10970475Y2165832D01*
X-10962189Y2160493D01*
X-10954680Y2154126D01*
X-10948064Y2146850D01*
X-10942458Y2138787D01*
X-10937977Y2130058D01*
X-10934735Y2120784D01*
X-10933408Y2114858D01*
X-10933305Y2113606D01*
X-10933211Y2111052D01*
X-10933125Y2107182D01*
X-10933048Y2101986D01*
X-10932980Y2095451D01*
X-10932919Y2087564D01*
X-10932868Y2078315D01*
X-10932824Y2067689D01*
X-10932789Y2055676D01*
X-10932763Y2042264D01*
X-10932744Y2027439D01*
X-10932733Y2011190D01*
X-10932731Y1993504D01*
X-10932737Y1974370D01*
X-10932745Y1959837D01*
X-10932758Y1945036D01*
X-10932772Y1930612D01*
X-10932788Y1916634D01*
X-10932806Y1903172D01*
X-10932826Y1890296D01*
X-10932847Y1878076D01*
X-10932869Y1866582D01*
X-10932893Y1855885D01*
X-10932917Y1846054D01*
X-10932943Y1837159D01*
X-10932969Y1829271D01*
X-10932995Y1822459D01*
X-10933022Y1816794D01*
X-10933048Y1812345D01*
X-10933075Y1809183D01*
X-10933102Y1807377D01*
X-10933118Y1806971D01*
X-10933340Y1805181D01*
X-10933686Y1802473D01*
X-10934088Y1799384D01*
X-10934153Y1798889D01*
X-10935880Y1788701D01*
X-10938397Y1778029D01*
X-10941610Y1767099D01*
X-10945425Y1756138D01*
X-10949746Y1745371D01*
X-10954480Y1735024D01*
X-10959531Y1725324D01*
X-10964805Y1716495D01*
X-10970207Y1708765D01*
X-10973704Y1704480D01*
X-10980714Y1696492D01*
X-10987550Y1688737D01*
X-10994131Y1681303D01*
X-11000378Y1674279D01*
X-11006211Y1667753D01*
X-11011550Y1661815D01*
X-11016316Y1656553D01*
X-11020429Y1652055D01*
X-11023810Y1648411D01*
X-11026378Y1645708D01*
X-11027921Y1644162D01*
X-11036676Y1636598D01*
X-11046632Y1629380D01*
X-11057539Y1622636D01*
X-11069146Y1616493D01*
X-11081200Y1611077D01*
X-11093452Y1606516D01*
X-11105649Y1602937D01*
X-11112637Y1601353D01*
X-11114334Y1601019D01*
X-11115999Y1600714D01*
X-11117699Y1600436D01*
X-11119503Y1600184D01*
X-11121479Y1599957D01*
X-11123695Y1599753D01*
X-11126219Y1599573D01*
X-11129120Y1599414D01*
X-11132465Y1599275D01*
X-11136322Y1599156D01*
X-11140761Y1599054D01*
X-11145849Y1598970D01*
X-11151654Y1598902D01*
X-11158244Y1598849D01*
X-11165688Y1598810D01*
X-11174054Y1598783D01*
X-11183409Y1598767D01*
X-11193823Y1598762D01*
X-11205363Y1598766D01*
X-11218098Y1598779D01*
X-11232095Y1598798D01*
X-11247423Y1598823D01*
X-11264150Y1598853D01*
X-11264719Y1598854D01*
X-11308801Y1598935D01*
X-11396598Y1599097D01*
X-11403945Y1600778D01*
X-11413630Y1603330D01*
X-11424047Y1606673D01*
X-11434807Y1610651D01*
X-11445520Y1615105D01*
X-11455797Y1619878D01*
X-11465248Y1624811D01*
X-11469890Y1627498D01*
X-11475432Y1630942D01*
X-11480566Y1634376D01*
X-11485415Y1637919D01*
X-11490101Y1641690D01*
X-11494743Y1645810D01*
X-11499465Y1650395D01*
X-11504387Y1655567D01*
X-11509632Y1661444D01*
X-11515320Y1668145D01*
X-11521573Y1675789D01*
X-11528512Y1684495D01*
X-11530199Y1686636D01*
X-11534606Y1692252D01*
X-11538886Y1697729D01*
X-11542921Y1702914D01*
X-11546590Y1707652D01*
X-11549775Y1711789D01*
X-11552357Y1715170D01*
X-11554216Y1717643D01*
X-11554913Y1718596D01*
X-11562227Y1729826D01*
X-11568783Y1741978D01*
X-11574424Y1754701D01*
X-11578996Y1767644D01*
X-11582344Y1780454D01*
X-11582413Y1780784D01*
X-11582960Y1783404D01*
X-11583451Y1785836D01*
X-11583888Y1788169D01*
X-11584276Y1790495D01*
X-11584616Y1792902D01*
X-11584913Y1795482D01*
X-11585168Y1798323D01*
X-11585386Y1801515D01*
X-11585569Y1805150D01*
X-11585720Y1809317D01*
X-11585842Y1814105D01*
X-11585939Y1819605D01*
X-11586013Y1825907D01*
X-11586067Y1833100D01*
X-11586105Y1841276D01*
X-11586129Y1850523D01*
X-11586142Y1860932D01*
X-11586148Y1872592D01*
X-11586150Y1885595D01*
X-11586150Y1891461D01*
X-11586149Y1904677D01*
X-11586144Y1916509D01*
X-11586139Y1922640D01*
X-11442449Y1922640D01*
X-11442434Y1913432D01*
X-11442405Y1902971D01*
X-11442368Y1891164D01*
X-11442354Y1886807D01*
X-11442131Y1815053D01*
X-11440402Y1809910D01*
X-11439454Y1807146D01*
X-11438541Y1804700D01*
X-11437569Y1802432D01*
X-11436443Y1800206D01*
X-11435068Y1797885D01*
X-11433350Y1795330D01*
X-11431194Y1792404D01*
X-11428505Y1788971D01*
X-11425190Y1784892D01*
X-11421153Y1780030D01*
X-11416300Y1774248D01*
X-11413861Y1771353D01*
X-11409113Y1765736D01*
X-11405179Y1761135D01*
X-11401943Y1757428D01*
X-11399286Y1754496D01*
X-11397093Y1752216D01*
X-11395245Y1750470D01*
X-11393625Y1749135D01*
X-11392115Y1748092D01*
X-11390599Y1747220D01*
X-11390149Y1746985D01*
X-11388570Y1746203D01*
X-11387057Y1745546D01*
X-11385471Y1745001D01*
X-11383675Y1744559D01*
X-11381529Y1744209D01*
X-11378894Y1743940D01*
X-11375634Y1743741D01*
X-11371609Y1743602D01*
X-11366681Y1743512D01*
X-11360711Y1743460D01*
X-11353561Y1743436D01*
X-11345093Y1743428D01*
X-11344250Y1743428D01*
X-11308801Y1743419D01*
X-11308801Y1888522D01*
X-11308801Y2033625D01*
X-11340791Y2033625D01*
X-11349408Y2033614D01*
X-11356705Y2033572D01*
X-11362829Y2033486D01*
X-11367931Y2033344D01*
X-11372159Y2033134D01*
X-11375662Y2032841D01*
X-11378589Y2032455D01*
X-11381088Y2031961D01*
X-11383308Y2031348D01*
X-11385399Y2030603D01*
X-11387509Y2029712D01*
X-11387684Y2029634D01*
X-11389572Y2028720D01*
X-11391376Y2027669D01*
X-11393222Y2026359D01*
X-11395239Y2024669D01*
X-11397554Y2022476D01*
X-11400296Y2019659D01*
X-11403593Y2016097D01*
X-11407572Y2011668D01*
X-11412360Y2006249D01*
X-11412837Y2005707D01*
X-11418236Y1999529D01*
X-11422743Y1994278D01*
X-11426472Y1989807D01*
X-11429537Y1985969D01*
X-11432048Y1982618D01*
X-11434120Y1979606D01*
X-11435865Y1976788D01*
X-11437396Y1974016D01*
X-11437820Y1973191D01*
X-11438582Y1971697D01*
X-11439258Y1970334D01*
X-11439854Y1969012D01*
X-11440373Y1967637D01*
X-11440821Y1966118D01*
X-11441203Y1964361D01*
X-11441523Y1962275D01*
X-11441786Y1959767D01*
X-11441998Y1956744D01*
X-11442162Y1953115D01*
X-11442285Y1948788D01*
X-11442370Y1943669D01*
X-11442422Y1937666D01*
X-11442447Y1930687D01*
X-11442449Y1922640D01*
X-11586139Y1922640D01*
X-11586135Y1927044D01*
X-11586120Y1936367D01*
X-11586099Y1944563D01*
X-11586069Y1951720D01*
X-11586030Y1957922D01*
X-11585981Y1963255D01*
X-11585920Y1967806D01*
X-11585846Y1971659D01*
X-11585758Y1974902D01*
X-11585655Y1977619D01*
X-11585535Y1979896D01*
X-11585398Y1981820D01*
X-11585242Y1983477D01*
X-11585066Y1984951D01*
X-11584868Y1986329D01*
X-11584825Y1986605D01*
X-11581866Y2001410D01*
X-11577695Y2015647D01*
X-11572264Y2029426D01*
X-11565522Y2042857D01*
X-11557420Y2056047D01*
X-11547907Y2069108D01*
X-11546059Y2071430D01*
X-11543724Y2074213D01*
X-11540560Y2077810D01*
X-11536693Y2082089D01*
X-11532249Y2086920D01*
X-11527354Y2092173D01*
X-11522132Y2097716D01*
X-11516710Y2103419D01*
X-11511213Y2109151D01*
X-11505766Y2114782D01*
X-11500497Y2120180D01*
X-11495529Y2125215D01*
X-11490990Y2129757D01*
X-11487003Y2133674D01*
X-11483696Y2136836D01*
X-11481193Y2139112D01*
X-11480277Y2139881D01*
X-11468767Y2148161D01*
X-11456320Y2155322D01*
X-11442967Y2161350D01*
X-11428741Y2166234D01*
X-11413671Y2169957D01*
X-11408353Y2170958D01*
X-11405347Y2171474D01*
X-11402532Y2171935D01*
X-11399810Y2172343D01*
X-11397083Y2172701D01*
X-11394254Y2173014D01*
X-11391223Y2173283D01*
X-11387893Y2173513D01*
X-11384166Y2173706D01*
X-11379943Y2173866D01*
X-11375127Y2173995D01*
X-11369620Y2174097D01*
X-11363323Y2174175D01*
X-11356139Y2174233D01*
X-11347969Y2174273D01*
X-11338716Y2174298D01*
X-11328280Y2174313D01*
X-11316565Y2174319D01*
X-11304393Y2174320D01*
X-11226147Y2174320D01*
X-11219535Y2172647D01*
G37*
G36*
X-11456733Y2973077D02*
G01*
X-11450724Y2972047D01*
X-11450377Y2971963D01*
X-11441068Y2968936D01*
X-11432366Y2964616D01*
X-11424364Y2959085D01*
X-11417156Y2952427D01*
X-11410836Y2944724D01*
X-11405497Y2936062D01*
X-11402291Y2929223D01*
X-11400151Y2923271D01*
X-11398738Y2917381D01*
X-11397985Y2911121D01*
X-11397822Y2904057D01*
X-11397888Y2901415D01*
X-11398537Y2893130D01*
X-11399940Y2885449D01*
X-11402186Y2878186D01*
X-11405369Y2871151D01*
X-11409578Y2864155D01*
X-11414905Y2857012D01*
X-11421441Y2849532D01*
X-11424610Y2846202D01*
X-11429427Y2841146D01*
X-11433263Y2836866D01*
X-11436254Y2833179D01*
X-11438535Y2829903D01*
X-11440240Y2826858D01*
X-11441505Y2823862D01*
X-11441755Y2823140D01*
X-11441944Y2822556D01*
X-11442118Y2821955D01*
X-11442275Y2821268D01*
X-11442417Y2820430D01*
X-11442544Y2819375D01*
X-11442657Y2818035D01*
X-11442757Y2816345D01*
X-11442844Y2814239D01*
X-11442919Y2811650D01*
X-11442983Y2808512D01*
X-11443036Y2804758D01*
X-11443078Y2800322D01*
X-11443112Y2795138D01*
X-11443137Y2789140D01*
X-11443153Y2782261D01*
X-11443163Y2774435D01*
X-11443165Y2765595D01*
X-11443161Y2755676D01*
X-11443152Y2744610D01*
X-11443138Y2732332D01*
X-11443120Y2718776D01*
X-11443099Y2703874D01*
X-11443077Y2689677D01*
X-11442884Y2560772D01*
X-11441257Y2557730D01*
X-11439548Y2555374D01*
X-11437266Y2553907D01*
X-11434113Y2553189D01*
X-11431251Y2553057D01*
X-11426602Y2553743D01*
X-11422513Y2555779D01*
X-11419044Y2559134D01*
X-11418663Y2559636D01*
X-11418062Y2560721D01*
X-11416883Y2563117D01*
X-11415142Y2566790D01*
X-11412854Y2571705D01*
X-11410034Y2577829D01*
X-11406698Y2585128D01*
X-11402862Y2593568D01*
X-11398540Y2603115D01*
X-11393747Y2613735D01*
X-11388500Y2625394D01*
X-11382813Y2638058D01*
X-11376702Y2651694D01*
X-11370183Y2666267D01*
X-11363270Y2681744D01*
X-11355978Y2698090D01*
X-11351158Y2708908D01*
X-11344934Y2722877D01*
X-11338848Y2736532D01*
X-11332928Y2749809D01*
X-11327202Y2762643D01*
X-11321699Y2774970D01*
X-11316448Y2786727D01*
X-11311477Y2797849D01*
X-11306816Y2808273D01*
X-11302492Y2817934D01*
X-11298535Y2826768D01*
X-11294973Y2834711D01*
X-11291835Y2841699D01*
X-11289150Y2847668D01*
X-11286945Y2852554D01*
X-11285251Y2856293D01*
X-11284095Y2858820D01*
X-11283506Y2860073D01*
X-11283492Y2860100D01*
X-11279563Y2867288D01*
X-11274791Y2875029D01*
X-11269435Y2882909D01*
X-11267117Y2886103D01*
X-11263827Y2890232D01*
X-11259641Y2894996D01*
X-11254825Y2900133D01*
X-11249643Y2905376D01*
X-11244360Y2910460D01*
X-11239242Y2915121D01*
X-11234553Y2919093D01*
X-11232589Y2920634D01*
X-11218472Y2930491D01*
X-11203875Y2938958D01*
X-11188802Y2946037D01*
X-11173253Y2951726D01*
X-11157232Y2956023D01*
X-11140741Y2958929D01*
X-11136882Y2959400D01*
X-11131382Y2959855D01*
X-11124840Y2960136D01*
X-11117670Y2960246D01*
X-11110287Y2960188D01*
X-11103108Y2959966D01*
X-11096548Y2959583D01*
X-11091021Y2959042D01*
X-11090974Y2959036D01*
X-11074855Y2956265D01*
X-11059320Y2952146D01*
X-11044383Y2946687D01*
X-11030061Y2939897D01*
X-11016372Y2931783D01*
X-11003330Y2922354D01*
X-10990954Y2911618D01*
X-10987039Y2907809D01*
X-10975360Y2895231D01*
X-10965095Y2882264D01*
X-10956240Y2868899D01*
X-10948787Y2855123D01*
X-10942733Y2840926D01*
X-10938070Y2826295D01*
X-10934794Y2811221D01*
X-10933410Y2801231D01*
X-10933343Y2799879D01*
X-10933278Y2797155D01*
X-10933216Y2793156D01*
X-10933157Y2787976D01*
X-10933101Y2781712D01*
X-10933049Y2774457D01*
X-10932999Y2766308D01*
X-10932953Y2757360D01*
X-10932911Y2747709D01*
X-10932873Y2737449D01*
X-10932838Y2726677D01*
X-10932807Y2715486D01*
X-10932781Y2703974D01*
X-10932758Y2692235D01*
X-10932740Y2680365D01*
X-10932726Y2668458D01*
X-10932716Y2656611D01*
X-10932712Y2644919D01*
X-10932711Y2633477D01*
X-10932716Y2622380D01*
X-10932726Y2611724D01*
X-10932741Y2601604D01*
X-10932761Y2592116D01*
X-10932786Y2583355D01*
X-10932817Y2575416D01*
X-10932853Y2568395D01*
X-10932895Y2562387D01*
X-10932943Y2557487D01*
X-10932996Y2553791D01*
X-10933056Y2551395D01*
X-10933107Y2550486D01*
X-10935251Y2535219D01*
X-10938110Y2521047D01*
X-10941752Y2507743D01*
X-10946249Y2495083D01*
X-10951671Y2482838D01*
X-10957793Y2471298D01*
X-10965478Y2458712D01*
X-10973527Y2447114D01*
X-10981876Y2436569D01*
X-10990458Y2427142D01*
X-10999210Y2418896D01*
X-11008066Y2411895D01*
X-11016961Y2406204D01*
X-11025831Y2401887D01*
X-11029500Y2400511D01*
X-11038724Y2398119D01*
X-11048179Y2397113D01*
X-11057697Y2397465D01*
X-11067112Y2399144D01*
X-11076259Y2402123D01*
X-11084970Y2406372D01*
X-11092611Y2411497D01*
X-11100496Y2418428D01*
X-11107093Y2426050D01*
X-11112418Y2434393D01*
X-11116489Y2443489D01*
X-11119323Y2453368D01*
X-11120749Y2462198D01*
X-11121189Y2470329D01*
X-11120633Y2478165D01*
X-11119028Y2485835D01*
X-11116321Y2493468D01*
X-11112459Y2501191D01*
X-11107390Y2509135D01*
X-11101062Y2517426D01*
X-11095379Y2524037D01*
X-11091956Y2527916D01*
X-11089340Y2531062D01*
X-11087309Y2533786D01*
X-11085637Y2536400D01*
X-11084101Y2539217D01*
X-11083248Y2540935D01*
X-11079907Y2549009D01*
X-11077490Y2557655D01*
X-11075924Y2566997D01*
X-11075808Y2568720D01*
X-11075701Y2571887D01*
X-11075603Y2576471D01*
X-11075515Y2582449D01*
X-11075436Y2589794D01*
X-11075367Y2598480D01*
X-11075308Y2608482D01*
X-11075258Y2619775D01*
X-11075220Y2632333D01*
X-11075191Y2646130D01*
X-11075174Y2661141D01*
X-11075167Y2677340D01*
X-11075167Y2679435D01*
X-11075166Y2694327D01*
X-11075166Y2707823D01*
X-11075168Y2719997D01*
X-11075175Y2730921D01*
X-11075191Y2740669D01*
X-11075217Y2749314D01*
X-11075256Y2756930D01*
X-11075311Y2763591D01*
X-11075385Y2769369D01*
X-11075479Y2774338D01*
X-11075597Y2778572D01*
X-11075742Y2782143D01*
X-11075915Y2785125D01*
X-11076119Y2787592D01*
X-11076358Y2789616D01*
X-11076633Y2791272D01*
X-11076947Y2792632D01*
X-11077304Y2793770D01*
X-11077705Y2794759D01*
X-11078152Y2795673D01*
X-11078650Y2796586D01*
X-11079200Y2797569D01*
X-11079372Y2797884D01*
X-11080839Y2800074D01*
X-11083019Y2802741D01*
X-11085511Y2805402D01*
X-11086268Y2806135D01*
X-11092764Y2811400D01*
X-11099620Y2815250D01*
X-11106909Y2817714D01*
X-11114703Y2818817D01*
X-11120342Y2818803D01*
X-11123980Y2818489D01*
X-11127519Y2817995D01*
X-11130405Y2817405D01*
X-11131371Y2817121D01*
X-11137261Y2814349D01*
X-11142765Y2810334D01*
X-11147631Y2805298D01*
X-11151480Y2799679D01*
X-11151984Y2798654D01*
X-11153065Y2796353D01*
X-11154694Y2792838D01*
X-11156842Y2788171D01*
X-11159481Y2782416D01*
X-11162582Y2775633D01*
X-11166117Y2767887D01*
X-11170058Y2759240D01*
X-11174376Y2749753D01*
X-11179042Y2739490D01*
X-11184029Y2728514D01*
X-11189307Y2716886D01*
X-11194849Y2704669D01*
X-11200625Y2691926D01*
X-11206607Y2678720D01*
X-11212768Y2665112D01*
X-11219077Y2651166D01*
X-11220252Y2648568D01*
X-11226608Y2634519D01*
X-11232833Y2620771D01*
X-11238896Y2607389D01*
X-11244770Y2594437D01*
X-11250424Y2581980D01*
X-11255829Y2570081D01*
X-11260956Y2558805D01*
X-11265776Y2548216D01*
X-11270259Y2538378D01*
X-11274377Y2529357D01*
X-11278099Y2521215D01*
X-11281396Y2514018D01*
X-11284240Y2507829D01*
X-11286600Y2502714D01*
X-11288448Y2498735D01*
X-11289754Y2495958D01*
X-11290490Y2494447D01*
X-11290546Y2494339D01*
X-11298383Y2481129D01*
X-11307367Y2468815D01*
X-11317436Y2457455D01*
X-11328529Y2447109D01*
X-11340583Y2437835D01*
X-11353537Y2429695D01*
X-11362912Y2424796D01*
X-11376363Y2419010D01*
X-11389798Y2414655D01*
X-11403352Y2411698D01*
X-11417162Y2410108D01*
X-11426946Y2409791D01*
X-11442586Y2410483D01*
X-11457725Y2412555D01*
X-11472356Y2416006D01*
X-11486472Y2420832D01*
X-11500065Y2427030D01*
X-11513129Y2434597D01*
X-11525655Y2443531D01*
X-11537637Y2453828D01*
X-11539528Y2455625D01*
X-11548961Y2465392D01*
X-11557101Y2475305D01*
X-11564123Y2485600D01*
X-11570198Y2496512D01*
X-11571090Y2498322D01*
X-11574966Y2506872D01*
X-11578125Y2515147D01*
X-11580705Y2523593D01*
X-11582843Y2532654D01*
X-11584499Y2541669D01*
X-11584697Y2542900D01*
X-11584879Y2544108D01*
X-11585043Y2545361D01*
X-11585193Y2546732D01*
X-11585328Y2548288D01*
X-11585449Y2550101D01*
X-11585558Y2552240D01*
X-11585655Y2554774D01*
X-11585742Y2557775D01*
X-11585819Y2561311D01*
X-11585887Y2565453D01*
X-11585947Y2570271D01*
X-11586000Y2575833D01*
X-11586048Y2582211D01*
X-11586090Y2589475D01*
X-11586128Y2597693D01*
X-11586164Y2606936D01*
X-11586197Y2617275D01*
X-11586229Y2628778D01*
X-11586261Y2641515D01*
X-11586294Y2655557D01*
X-11586328Y2670974D01*
X-11586341Y2676854D01*
X-11586377Y2695695D01*
X-11586400Y2713282D01*
X-11586410Y2729597D01*
X-11586406Y2744622D01*
X-11586390Y2758338D01*
X-11586360Y2770726D01*
X-11586318Y2781768D01*
X-11586262Y2791445D01*
X-11586194Y2799738D01*
X-11586113Y2806630D01*
X-11586020Y2812101D01*
X-11585914Y2816133D01*
X-11585841Y2817916D01*
X-11585240Y2827527D01*
X-11584437Y2836025D01*
X-11583377Y2843761D01*
X-11582006Y2851085D01*
X-11580270Y2858345D01*
X-11578733Y2863835D01*
X-11573520Y2878904D01*
X-11566940Y2893445D01*
X-11559002Y2907441D01*
X-11549716Y2920877D01*
X-11539092Y2933736D01*
X-11531809Y2941440D01*
X-11523623Y2949251D01*
X-11515792Y2955803D01*
X-11508140Y2961206D01*
X-11500489Y2965571D01*
X-11492665Y2969008D01*
X-11484489Y2971628D01*
X-11482925Y2972032D01*
X-11477113Y2973070D01*
X-11470458Y2973589D01*
X-11463488Y2973591D01*
X-11456733Y2973077D01*
G37*
G36*
X-10985534Y-1819731D02*
G01*
X-10976051Y-1823054D01*
X-10967208Y-1827640D01*
X-10959110Y-1833384D01*
X-10951859Y-1840179D01*
X-10945560Y-1847921D01*
X-10940316Y-1856504D01*
X-10936231Y-1865823D01*
X-10934395Y-1871665D01*
X-10933613Y-1875755D01*
X-10933120Y-1880878D01*
X-10932912Y-1886628D01*
X-10932986Y-1892598D01*
X-10933338Y-1898380D01*
X-10933964Y-1903569D01*
X-10934732Y-1907298D01*
X-10937957Y-1916585D01*
X-10942455Y-1925286D01*
X-10948102Y-1933277D01*
X-10954776Y-1940431D01*
X-10962352Y-1946622D01*
X-10970708Y-1951726D01*
X-10979720Y-1955616D01*
X-10983183Y-1956719D01*
X-10988950Y-1958384D01*
X-10982056Y-1967188D01*
X-10970999Y-1982156D01*
X-10961308Y-1997068D01*
X-10952996Y-2011894D01*
X-10946077Y-2026604D01*
X-10940564Y-2041171D01*
X-10936471Y-2055563D01*
X-10933811Y-2069753D01*
X-10933404Y-2072978D01*
X-10933241Y-2075201D01*
X-10933099Y-2078728D01*
X-10932977Y-2083414D01*
X-10932877Y-2089113D01*
X-10932796Y-2095679D01*
X-10932735Y-2102965D01*
X-10932694Y-2110827D01*
X-10932671Y-2119118D01*
X-10932668Y-2127692D01*
X-10932682Y-2136403D01*
X-10932714Y-2145106D01*
X-10932764Y-2153655D01*
X-10932831Y-2161903D01*
X-10932914Y-2169706D01*
X-10933013Y-2176916D01*
X-10933129Y-2183388D01*
X-10933260Y-2188976D01*
X-10933405Y-2193534D01*
X-10933566Y-2196917D01*
X-10933741Y-2198979D01*
X-10933743Y-2198996D01*
X-10936453Y-2213490D01*
X-10940617Y-2227984D01*
X-10946219Y-2242447D01*
X-10953245Y-2256844D01*
X-10961679Y-2271143D01*
X-10971507Y-2285311D01*
X-10976141Y-2291335D01*
X-10977564Y-2293089D01*
X-10979819Y-2295819D01*
X-10982785Y-2299378D01*
X-10986342Y-2303624D01*
X-10990368Y-2308412D01*
X-10994743Y-2313598D01*
X-10999346Y-2319038D01*
X-11002829Y-2323144D01*
X-11008626Y-2329950D01*
X-11013611Y-2335741D01*
X-11017909Y-2340637D01*
X-11021642Y-2344759D01*
X-11024933Y-2348227D01*
X-11027905Y-2351161D01*
X-11030682Y-2353680D01*
X-11033386Y-2355905D01*
X-11036141Y-2357955D01*
X-11039069Y-2359950D01*
X-11042295Y-2362011D01*
X-11043434Y-2362720D01*
X-11052167Y-2367703D01*
X-11062017Y-2372597D01*
X-11072632Y-2377266D01*
X-11083659Y-2381573D01*
X-11094747Y-2385384D01*
X-11105544Y-2388562D01*
X-11115697Y-2390972D01*
X-11117779Y-2391380D01*
X-11119861Y-2391767D01*
X-11121838Y-2392121D01*
X-11123783Y-2392443D01*
X-11125767Y-2392733D01*
X-11127862Y-2392994D01*
X-11130141Y-2393227D01*
X-11132675Y-2393433D01*
X-11135536Y-2393613D01*
X-11138797Y-2393770D01*
X-11142529Y-2393904D01*
X-11146805Y-2394017D01*
X-11151696Y-2394110D01*
X-11157274Y-2394185D01*
X-11163611Y-2394242D01*
X-11170780Y-2394284D01*
X-11178853Y-2394312D01*
X-11187900Y-2394328D01*
X-11197995Y-2394331D01*
X-11209210Y-2394325D01*
X-11221615Y-2394311D01*
X-11235284Y-2394289D01*
X-11250289Y-2394261D01*
X-11264352Y-2394234D01*
X-11280274Y-2394202D01*
X-11294796Y-2394170D01*
X-11305403Y-2394145D01*
X-11307986Y-2394139D01*
X-11319915Y-2394107D01*
X-11330650Y-2394073D01*
X-11340262Y-2394036D01*
X-11348819Y-2393996D01*
X-11356390Y-2393952D01*
X-11363044Y-2393903D01*
X-11368852Y-2393848D01*
X-11373880Y-2393787D01*
X-11378200Y-2393718D01*
X-11381879Y-2393641D01*
X-11384987Y-2393555D01*
X-11387593Y-2393459D01*
X-11389767Y-2393352D01*
X-11391576Y-2393234D01*
X-11393091Y-2393104D01*
X-11394380Y-2392961D01*
X-11395513Y-2392804D01*
X-11396230Y-2392689D01*
X-11412001Y-2389411D01*
X-11427428Y-2384986D01*
X-11442355Y-2379486D01*
X-11456626Y-2372982D01*
X-11470087Y-2365544D01*
X-11482582Y-2357245D01*
X-11493955Y-2348154D01*
X-11494279Y-2347868D01*
X-11495712Y-2346461D01*
X-11497975Y-2344063D01*
X-11500951Y-2340808D01*
X-11504524Y-2336829D01*
X-11508579Y-2332261D01*
X-11513000Y-2327237D01*
X-11517670Y-2321891D01*
X-11522474Y-2316358D01*
X-11527296Y-2310771D01*
X-11532020Y-2305264D01*
X-11536530Y-2299970D01*
X-11540710Y-2295025D01*
X-11544444Y-2290561D01*
X-11547616Y-2286712D01*
X-11550111Y-2283613D01*
X-11551700Y-2281550D01*
X-11560809Y-2268022D01*
X-11568600Y-2253867D01*
X-11575051Y-2239128D01*
X-11580141Y-2223851D01*
X-11581365Y-2219305D01*
X-11582319Y-2215551D01*
X-11583156Y-2212164D01*
X-11583884Y-2209025D01*
X-11584511Y-2206014D01*
X-11585043Y-2203011D01*
X-11585490Y-2199896D01*
X-11585857Y-2196549D01*
X-11586154Y-2192850D01*
X-11586387Y-2188679D01*
X-11586564Y-2183916D01*
X-11586694Y-2178441D01*
X-11586782Y-2172134D01*
X-11586838Y-2164876D01*
X-11586869Y-2156546D01*
X-11586882Y-2147024D01*
X-11586884Y-2136191D01*
X-11586885Y-2132483D01*
X-11586884Y-2121871D01*
X-11586879Y-2112617D01*
X-11586869Y-2104610D01*
X-11586849Y-2097737D01*
X-11586818Y-2091889D01*
X-11586772Y-2086952D01*
X-11586738Y-2084728D01*
X-11442884Y-2084728D01*
X-11442884Y-2133585D01*
X-11442884Y-2182443D01*
X-11441223Y-2186547D01*
X-11439911Y-2189433D01*
X-11438203Y-2192729D01*
X-11436815Y-2195143D01*
X-11435649Y-2196799D01*
X-11433640Y-2199377D01*
X-11430932Y-2202711D01*
X-11427669Y-2206635D01*
X-11423995Y-2210982D01*
X-11420053Y-2215587D01*
X-11415988Y-2220282D01*
X-11411942Y-2224902D01*
X-11408061Y-2229280D01*
X-11404487Y-2233249D01*
X-11401365Y-2236644D01*
X-11398839Y-2239298D01*
X-11397415Y-2240708D01*
X-11391964Y-2244908D01*
X-11385909Y-2247812D01*
X-11381904Y-2248929D01*
X-11380628Y-2249043D01*
X-11377952Y-2249144D01*
X-11373868Y-2249234D01*
X-11368371Y-2249312D01*
X-11361457Y-2249379D01*
X-11353117Y-2249433D01*
X-11343348Y-2249476D01*
X-11332143Y-2249508D01*
X-11319497Y-2249527D01*
X-11305403Y-2249535D01*
X-11289857Y-2249532D01*
X-11272851Y-2249517D01*
X-11257372Y-2249495D01*
X-11136514Y-2249300D01*
X-11132473Y-2247391D01*
X-11129568Y-2245809D01*
X-11126436Y-2243792D01*
X-11124659Y-2242481D01*
X-11123259Y-2241182D01*
X-11121057Y-2238910D01*
X-11118190Y-2235820D01*
X-11114794Y-2232070D01*
X-11111006Y-2227817D01*
X-11106961Y-2223218D01*
X-11102795Y-2218431D01*
X-11098646Y-2213612D01*
X-11094649Y-2208919D01*
X-11090940Y-2204509D01*
X-11087656Y-2200538D01*
X-11084932Y-2197164D01*
X-11082905Y-2194545D01*
X-11081973Y-2193241D01*
X-11080973Y-2191761D01*
X-11080108Y-2190439D01*
X-11079369Y-2189161D01*
X-11078747Y-2187814D01*
X-11078231Y-2186283D01*
X-11077813Y-2184456D01*
X-11077483Y-2182218D01*
X-11077231Y-2179458D01*
X-11077047Y-2176060D01*
X-11076923Y-2171911D01*
X-11076848Y-2166898D01*
X-11076813Y-2160907D01*
X-11076809Y-2153826D01*
X-11076825Y-2145539D01*
X-11076853Y-2135934D01*
X-11076863Y-2132444D01*
X-11077004Y-2083181D01*
X-11079833Y-2077457D01*
X-11081624Y-2074184D01*
X-11083941Y-2070429D01*
X-11086375Y-2066845D01*
X-11087188Y-2065741D01*
X-11088936Y-2063490D01*
X-11091451Y-2060340D01*
X-11094645Y-2056398D01*
X-11098431Y-2051766D01*
X-11102721Y-2046552D01*
X-11107428Y-2040858D01*
X-11112462Y-2034789D01*
X-11117737Y-2028451D01*
X-11123164Y-2021949D01*
X-11128656Y-2015386D01*
X-11134125Y-2008868D01*
X-11139483Y-2002500D01*
X-11144643Y-1996386D01*
X-11149515Y-1990630D01*
X-11154014Y-1985339D01*
X-11158050Y-1980616D01*
X-11161536Y-1976566D01*
X-11164385Y-1973294D01*
X-11166507Y-1970905D01*
X-11167817Y-1969504D01*
X-11168088Y-1969247D01*
X-11173117Y-1965687D01*
X-11179235Y-1962577D01*
X-11183050Y-1961088D01*
X-11183774Y-1960876D01*
X-11184724Y-1960688D01*
X-11185992Y-1960523D01*
X-11187675Y-1960379D01*
X-11189865Y-1960254D01*
X-11192657Y-1960146D01*
X-11196145Y-1960052D01*
X-11200424Y-1959971D01*
X-11205587Y-1959901D01*
X-11211730Y-1959839D01*
X-11218946Y-1959783D01*
X-11227329Y-1959733D01*
X-11236974Y-1959684D01*
X-11247974Y-1959636D01*
X-11250393Y-1959626D01*
X-11262606Y-1959580D01*
X-11273448Y-1959549D01*
X-11283019Y-1959538D01*
X-11291416Y-1959551D01*
X-11298739Y-1959591D01*
X-11305086Y-1959663D01*
X-11310556Y-1959771D01*
X-11315248Y-1959918D01*
X-11319260Y-1960110D01*
X-11322691Y-1960349D01*
X-11325640Y-1960641D01*
X-11328206Y-1960988D01*
X-11330487Y-1961396D01*
X-11332581Y-1961868D01*
X-11334589Y-1962408D01*
X-11336607Y-1963020D01*
X-11337123Y-1963184D01*
X-11339190Y-1963856D01*
X-11341073Y-1964520D01*
X-11342845Y-1965247D01*
X-11344577Y-1966110D01*
X-11346343Y-1967179D01*
X-11348214Y-1968527D01*
X-11350265Y-1970225D01*
X-11352567Y-1972344D01*
X-11355194Y-1974956D01*
X-11358217Y-1978132D01*
X-11361710Y-1981945D01*
X-11365745Y-1986465D01*
X-11370395Y-1991764D01*
X-11375733Y-1997914D01*
X-11381830Y-2004986D01*
X-11388761Y-2013051D01*
X-11394158Y-2019339D01*
X-11400307Y-2026516D01*
X-11406224Y-2033440D01*
X-11411832Y-2040021D01*
X-11417054Y-2046168D01*
X-11421814Y-2051791D01*
X-11426036Y-2056799D01*
X-11429642Y-2061102D01*
X-11432557Y-2064608D01*
X-11434705Y-2067229D01*
X-11436008Y-2068871D01*
X-11436319Y-2069299D01*
X-11437772Y-2071838D01*
X-11439335Y-2075121D01*
X-11440693Y-2078485D01*
X-11440823Y-2078850D01*
X-11442884Y-2084728D01*
X-11586738Y-2084728D01*
X-11586709Y-2082816D01*
X-11586626Y-2079369D01*
X-11586520Y-2076500D01*
X-11586389Y-2074097D01*
X-11586230Y-2072049D01*
X-11586039Y-2070244D01*
X-11585815Y-2068572D01*
X-11585554Y-2066919D01*
X-11585253Y-2065176D01*
X-11585216Y-2064962D01*
X-11582571Y-2052004D01*
X-11579326Y-2039985D01*
X-11575343Y-2028451D01*
X-11571072Y-2018237D01*
X-11566639Y-2009036D01*
X-11561776Y-2000212D01*
X-11556308Y-1991498D01*
X-11550063Y-1982624D01*
X-11542867Y-1973323D01*
X-11538861Y-1968433D01*
X-11531417Y-1959493D01*
X-11646213Y-1959291D01*
X-11761008Y-1959090D01*
X-11766886Y-1957435D01*
X-11774676Y-1954691D01*
X-11782432Y-1950936D01*
X-11789800Y-1946389D01*
X-11796420Y-1941271D01*
X-11801938Y-1935803D01*
X-11801989Y-1935744D01*
X-11807998Y-1928021D01*
X-11812632Y-1920217D01*
X-11815979Y-1912118D01*
X-11818127Y-1903505D01*
X-11819164Y-1894161D01*
X-11819203Y-1893339D01*
X-11819301Y-1886359D01*
X-11818886Y-1880230D01*
X-11817884Y-1874400D01*
X-11816219Y-1868318D01*
X-11815443Y-1865962D01*
X-11811821Y-1857320D01*
X-11807023Y-1849290D01*
X-11800920Y-1841659D01*
X-11799613Y-1840249D01*
X-11792953Y-1833849D01*
X-11786165Y-1828681D01*
X-11778899Y-1824526D01*
X-11770805Y-1821163D01*
X-11767562Y-1820086D01*
X-11761008Y-1818032D01*
X-11376393Y-1818032D01*
X-10991779Y-1818032D01*
X-10985534Y-1819731D01*
G37*
G36*
X-10999126Y5366719D02*
G01*
X-10989399Y5365544D01*
X-10980074Y5363018D01*
X-10971257Y5359228D01*
X-10963053Y5354262D01*
X-10955569Y5348209D01*
X-10948910Y5341157D01*
X-10943182Y5333192D01*
X-10938491Y5324404D01*
X-10934943Y5314881D01*
X-10934395Y5312953D01*
X-10933602Y5308813D01*
X-10933102Y5303646D01*
X-10932893Y5297861D01*
X-10932970Y5291868D01*
X-10933330Y5286079D01*
X-10933968Y5280904D01*
X-10934721Y5277320D01*
X-10937929Y5268065D01*
X-10942345Y5259303D01*
X-10947835Y5251202D01*
X-10954262Y5243930D01*
X-10961489Y5237657D01*
X-10969382Y5232552D01*
X-10971775Y5231315D01*
X-10974332Y5229885D01*
X-10975560Y5228759D01*
X-10975637Y5228253D01*
X-10975218Y5227449D01*
X-10974147Y5225477D01*
X-10972485Y5222453D01*
X-10970297Y5218493D01*
X-10967646Y5213711D01*
X-10964597Y5208222D01*
X-10961214Y5202143D01*
X-10957559Y5195586D01*
X-10953946Y5189114D01*
X-10932635Y5150963D01*
X-10932753Y5053059D01*
X-10932769Y5041139D01*
X-10932788Y5029597D01*
X-10932810Y5018521D01*
X-10932835Y5007999D01*
X-10932861Y4998120D01*
X-10932890Y4988972D01*
X-10932919Y4980642D01*
X-10932950Y4973220D01*
X-10932982Y4966793D01*
X-10933014Y4961450D01*
X-10933047Y4957278D01*
X-10933079Y4954366D01*
X-10933111Y4952803D01*
X-10933122Y4952583D01*
X-10935408Y4936130D01*
X-10938978Y4920386D01*
X-10943843Y4905333D01*
X-10950012Y4890951D01*
X-10957494Y4877218D01*
X-10966299Y4864116D01*
X-10976437Y4851624D01*
X-10986728Y4840868D01*
X-10999075Y4829834D01*
X-11011990Y4820147D01*
X-11025462Y4811812D01*
X-11039481Y4804836D01*
X-11054036Y4799225D01*
X-11069115Y4794983D01*
X-11073824Y4793962D01*
X-11077031Y4793320D01*
X-11079942Y4792765D01*
X-11082689Y4792290D01*
X-11085404Y4791890D01*
X-11088218Y4791558D01*
X-11091261Y4791287D01*
X-11094666Y4791072D01*
X-11098564Y4790905D01*
X-11103087Y4790781D01*
X-11108365Y4790694D01*
X-11114530Y4790637D01*
X-11121714Y4790603D01*
X-11130048Y4790587D01*
X-11139664Y4790582D01*
X-11144229Y4790582D01*
X-11146386Y4790583D01*
X-11154728Y4790585D01*
X-11163890Y4790598D01*
X-11171846Y4790631D01*
X-11178728Y4790692D01*
X-11184668Y4790789D01*
X-11189797Y4790930D01*
X-11194247Y4791125D01*
X-11198151Y4791381D01*
X-11201638Y4791706D01*
X-11204843Y4792110D01*
X-11207895Y4792600D01*
X-11210928Y4793185D01*
X-11214072Y4793873D01*
X-11217460Y4794673D01*
X-11220637Y4795449D01*
X-11235193Y4799773D01*
X-11249385Y4805461D01*
X-11263112Y4812429D01*
X-11276272Y4820595D01*
X-11288765Y4829877D01*
X-11300488Y4840191D01*
X-11311341Y4851455D01*
X-11321221Y4863588D01*
X-11330028Y4876505D01*
X-11337660Y4890125D01*
X-11338214Y4891236D01*
X-11342800Y4901323D01*
X-11346666Y4911637D01*
X-11349917Y4922511D01*
X-11352658Y4934278D01*
X-11354119Y4942009D01*
X-11354286Y4943051D01*
X-11354438Y4944226D01*
X-11354576Y4945607D01*
X-11354701Y4947262D01*
X-11354815Y4949263D01*
X-11354917Y4951680D01*
X-11355008Y4954583D01*
X-11355090Y4958042D01*
X-11355164Y4962129D01*
X-11355229Y4966913D01*
X-11355288Y4972466D01*
X-11355340Y4978857D01*
X-11355387Y4986156D01*
X-11355430Y4994435D01*
X-11355469Y5003764D01*
X-11355505Y5014213D01*
X-11355540Y5025853D01*
X-11355558Y5032745D01*
X-11210972Y5032745D01*
X-11210960Y5019793D01*
X-11210935Y5008159D01*
X-11210897Y4997861D01*
X-11210846Y4988918D01*
X-11210782Y4981348D01*
X-11210706Y4975171D01*
X-11210617Y4970406D01*
X-11210516Y4967070D01*
X-11210403Y4965183D01*
X-11210390Y4965073D01*
X-11208944Y4958195D01*
X-11206304Y4952104D01*
X-11202378Y4946612D01*
X-11199915Y4944044D01*
X-11197316Y4941706D01*
X-11194625Y4939526D01*
X-11192348Y4937910D01*
X-11191984Y4937689D01*
X-11190360Y4936774D01*
X-11188796Y4936001D01*
X-11187155Y4935360D01*
X-11185300Y4934838D01*
X-11183096Y4934422D01*
X-11180405Y4934101D01*
X-11177090Y4933862D01*
X-11173016Y4933694D01*
X-11168045Y4933584D01*
X-11162041Y4933520D01*
X-11154867Y4933489D01*
X-11146386Y4933481D01*
X-11144596Y4933481D01*
X-11135900Y4933486D01*
X-11128534Y4933509D01*
X-11122360Y4933562D01*
X-11117237Y4933659D01*
X-11113028Y4933811D01*
X-11109592Y4934030D01*
X-11106791Y4934330D01*
X-11104485Y4934722D01*
X-11102535Y4935219D01*
X-11100803Y4935834D01*
X-11099149Y4936578D01*
X-11097434Y4937464D01*
X-11096943Y4937729D01*
X-11092351Y4940865D01*
X-11088012Y4945023D01*
X-11084165Y4949871D01*
X-11081050Y4955079D01*
X-11078905Y4960317D01*
X-11078127Y4963703D01*
X-11078046Y4964981D01*
X-11077967Y4967624D01*
X-11077890Y4971526D01*
X-11077816Y4976582D01*
X-11077747Y4982686D01*
X-11077683Y4989734D01*
X-11077625Y4997621D01*
X-11077574Y5006241D01*
X-11077531Y5015488D01*
X-11077497Y5025259D01*
X-11077472Y5035447D01*
X-11077463Y5041550D01*
X-11077371Y5115455D01*
X-11107551Y5166816D01*
X-11112231Y5174776D01*
X-11116700Y5182370D01*
X-11120903Y5189505D01*
X-11124783Y5196083D01*
X-11128284Y5202010D01*
X-11131349Y5207190D01*
X-11133921Y5211528D01*
X-11135944Y5214927D01*
X-11137362Y5217293D01*
X-11138118Y5218530D01*
X-11138227Y5218693D01*
X-11139075Y5218790D01*
X-11141166Y5218773D01*
X-11144280Y5218658D01*
X-11148198Y5218460D01*
X-11152698Y5218194D01*
X-11157561Y5217877D01*
X-11162567Y5217522D01*
X-11167495Y5217147D01*
X-11172125Y5216765D01*
X-11176238Y5216392D01*
X-11179612Y5216044D01*
X-11182028Y5215736D01*
X-11182942Y5215573D01*
X-11189439Y5213393D01*
X-11195437Y5209972D01*
X-11200725Y5205498D01*
X-11205093Y5200158D01*
X-11208330Y5194141D01*
X-11209058Y5192208D01*
X-11210719Y5187319D01*
X-11210930Y5079318D01*
X-11210957Y5062526D01*
X-11210971Y5046996D01*
X-11210972Y5032745D01*
X-11355558Y5032745D01*
X-11355573Y5038754D01*
X-11355607Y5052986D01*
X-11355639Y5067931D01*
X-11355671Y5083589D01*
X-11355697Y5097850D01*
X-11355717Y5110785D01*
X-11355731Y5122464D01*
X-11355737Y5132959D01*
X-11355735Y5142343D01*
X-11355725Y5150685D01*
X-11355706Y5158059D01*
X-11355678Y5164534D01*
X-11355639Y5170183D01*
X-11355591Y5175076D01*
X-11355531Y5179286D01*
X-11355460Y5182884D01*
X-11355377Y5185941D01*
X-11355282Y5188529D01*
X-11355173Y5190719D01*
X-11355051Y5192583D01*
X-11354915Y5194191D01*
X-11354764Y5195616D01*
X-11354702Y5196135D01*
X-11354199Y5200007D01*
X-11353695Y5203608D01*
X-11353246Y5206548D01*
X-11352908Y5208441D01*
X-11352892Y5208516D01*
X-11352271Y5211346D01*
X-11381414Y5210838D01*
X-11390593Y5210653D01*
X-11398335Y5210443D01*
X-11404671Y5210206D01*
X-11409634Y5209942D01*
X-11413256Y5209648D01*
X-11415535Y5209329D01*
X-11421918Y5207319D01*
X-11427814Y5204039D01*
X-11433039Y5199656D01*
X-11437407Y5194338D01*
X-11440731Y5188253D01*
X-11441725Y5185650D01*
X-11441935Y5185010D01*
X-11442125Y5184350D01*
X-11442296Y5183597D01*
X-11442448Y5182676D01*
X-11442583Y5181513D01*
X-11442703Y5180036D01*
X-11442807Y5178169D01*
X-11442897Y5175839D01*
X-11442974Y5172973D01*
X-11443039Y5169497D01*
X-11443093Y5165336D01*
X-11443137Y5160417D01*
X-11443173Y5154666D01*
X-11443200Y5148010D01*
X-11443221Y5140374D01*
X-11443235Y5131685D01*
X-11443245Y5121868D01*
X-11443251Y5110851D01*
X-11443255Y5098559D01*
X-11443256Y5084918D01*
X-11443257Y5075484D01*
X-11443263Y5060882D01*
X-11443279Y5047065D01*
X-11443304Y5034092D01*
X-11443339Y5022020D01*
X-11443382Y5010907D01*
X-11443434Y5000811D01*
X-11443493Y4991790D01*
X-11443561Y4983902D01*
X-11443635Y4977204D01*
X-11443717Y4971754D01*
X-11443805Y4967610D01*
X-11443899Y4964830D01*
X-11443981Y4963603D01*
X-11445819Y4953448D01*
X-11448927Y4944019D01*
X-11453333Y4935260D01*
X-11459063Y4927115D01*
X-11464097Y4921523D01*
X-11471992Y4914497D01*
X-11480423Y4908832D01*
X-11489423Y4904509D01*
X-11498076Y4901738D01*
X-11502766Y4900865D01*
X-11508339Y4900302D01*
X-11514343Y4900057D01*
X-11520325Y4900133D01*
X-11525833Y4900536D01*
X-11530415Y4901271D01*
X-11530854Y4901376D01*
X-11540646Y4904464D01*
X-11549604Y4908720D01*
X-11557887Y4914230D01*
X-11564728Y4920174D01*
X-11571558Y4927763D01*
X-11577115Y4936057D01*
X-11581437Y4945121D01*
X-11584504Y4954787D01*
X-11584720Y4955678D01*
X-11584916Y4956571D01*
X-11585092Y4957544D01*
X-11585249Y4958671D01*
X-11585390Y4960030D01*
X-11585515Y4961697D01*
X-11585625Y4963747D01*
X-11585722Y4966256D01*
X-11585807Y4969301D01*
X-11585881Y4972958D01*
X-11585946Y4977303D01*
X-11586003Y4982412D01*
X-11586053Y4988362D01*
X-11586097Y4995227D01*
X-11586137Y5003085D01*
X-11586174Y5012011D01*
X-11586209Y5022082D01*
X-11586244Y5033374D01*
X-11586279Y5045963D01*
X-11586317Y5059925D01*
X-11586327Y5063890D01*
X-11586367Y5080005D01*
X-11586394Y5094727D01*
X-11586408Y5108129D01*
X-11586408Y5120288D01*
X-11586392Y5131279D01*
X-11586358Y5141176D01*
X-11586306Y5150055D01*
X-11586233Y5157992D01*
X-11586138Y5165061D01*
X-11586021Y5171338D01*
X-11585878Y5176898D01*
X-11585710Y5181816D01*
X-11585513Y5186168D01*
X-11585288Y5190028D01*
X-11585033Y5193473D01*
X-11584745Y5196576D01*
X-11584424Y5199414D01*
X-11584069Y5202062D01*
X-11583677Y5204595D01*
X-11583618Y5204952D01*
X-11580333Y5220479D01*
X-11575757Y5235343D01*
X-11569872Y5249574D01*
X-11562662Y5263206D01*
X-11554111Y5276269D01*
X-11544201Y5288796D01*
X-11534013Y5299733D01*
X-11521682Y5311089D01*
X-11508811Y5321080D01*
X-11495377Y5329717D01*
X-11481358Y5337009D01*
X-11466734Y5342966D01*
X-11451484Y5347597D01*
X-11435585Y5350913D01*
X-11419018Y5352924D01*
X-11418271Y5352983D01*
X-11416379Y5353096D01*
X-11413119Y5353251D01*
X-11408563Y5353446D01*
X-11402785Y5353679D01*
X-11395859Y5353946D01*
X-11387857Y5354246D01*
X-11378853Y5354576D01*
X-11368920Y5354934D01*
X-11358132Y5355318D01*
X-11346561Y5355724D01*
X-11334281Y5356152D01*
X-11321365Y5356597D01*
X-11307886Y5357058D01*
X-11293918Y5357532D01*
X-11279534Y5358018D01*
X-11264808Y5358512D01*
X-11249811Y5359012D01*
X-11234619Y5359517D01*
X-11219303Y5360022D01*
X-11203938Y5360527D01*
X-11188596Y5361028D01*
X-11173351Y5361523D01*
X-11158276Y5362010D01*
X-11143444Y5362487D01*
X-11128929Y5362950D01*
X-11114803Y5363398D01*
X-11101141Y5363828D01*
X-11088015Y5364238D01*
X-11075498Y5364626D01*
X-11063664Y5364988D01*
X-11052587Y5365323D01*
X-11042339Y5365629D01*
X-11032993Y5365902D01*
X-11024624Y5366140D01*
X-11017303Y5366341D01*
X-11011105Y5366503D01*
X-11006103Y5366623D01*
X-11002369Y5366699D01*
X-10999978Y5366729D01*
X-10999126Y5366719D01*
G37*
G36*
X-11243461Y6168874D02*
G01*
X-11228387Y6168868D01*
X-11214660Y6168856D01*
X-11202221Y6168838D01*
X-11191007Y6168815D01*
X-11180958Y6168785D01*
X-11172013Y6168749D01*
X-11164111Y6168705D01*
X-11157191Y6168653D01*
X-11151193Y6168593D01*
X-11146056Y6168525D01*
X-11141718Y6168447D01*
X-11138119Y6168359D01*
X-11135197Y6168262D01*
X-11132893Y6168154D01*
X-11131144Y6168035D01*
X-11129902Y6167906D01*
X-11117050Y6165704D01*
X-11103678Y6162474D01*
X-11090177Y6158346D01*
X-11076932Y6153448D01*
X-11064334Y6147908D01*
X-11054800Y6143001D01*
X-11051192Y6140956D01*
X-11047869Y6138953D01*
X-11044714Y6136888D01*
X-11041608Y6134658D01*
X-11038435Y6132158D01*
X-11035076Y6129284D01*
X-11031412Y6125933D01*
X-11027327Y6122000D01*
X-11022701Y6117381D01*
X-11017418Y6111973D01*
X-11011358Y6105672D01*
X-11005644Y6099677D01*
X-11000413Y6094163D01*
X-10995371Y6088826D01*
X-10990634Y6083789D01*
X-10986313Y6079175D01*
X-10982525Y6075104D01*
X-10979382Y6071700D01*
X-10976999Y6069085D01*
X-10975489Y6067381D01*
X-10975269Y6067121D01*
X-10969438Y6059408D01*
X-10963673Y6050479D01*
X-10958083Y6040587D01*
X-10952776Y6029983D01*
X-10947861Y6018922D01*
X-10943445Y6007655D01*
X-10939638Y5996435D01*
X-10936547Y5985515D01*
X-10934281Y5975147D01*
X-10933376Y5969406D01*
X-10933204Y5967428D01*
X-10933061Y5964301D01*
X-10932946Y5959984D01*
X-10932858Y5954440D01*
X-10932799Y5947628D01*
X-10932766Y5939509D01*
X-10932761Y5930046D01*
X-10932782Y5919197D01*
X-10932830Y5906926D01*
X-10932840Y5904752D01*
X-10932893Y5893891D01*
X-10932942Y5884383D01*
X-10932995Y5876111D01*
X-10933058Y5868958D01*
X-10933138Y5862809D01*
X-10933242Y5857546D01*
X-10933377Y5853053D01*
X-10933549Y5849214D01*
X-10933765Y5845911D01*
X-10934033Y5843029D01*
X-10934359Y5840450D01*
X-10934749Y5838058D01*
X-10935212Y5835737D01*
X-10935752Y5833370D01*
X-10936378Y5830840D01*
X-10937097Y5828031D01*
X-10937405Y5826827D01*
X-10941811Y5812325D01*
X-10947668Y5797603D01*
X-10954972Y5782666D01*
X-10963723Y5767517D01*
X-10973918Y5752161D01*
X-10980555Y5743076D01*
X-10987521Y5733850D01*
X-10980243Y5731386D01*
X-10971304Y5727606D01*
X-10963001Y5722597D01*
X-10955453Y5716501D01*
X-10948778Y5709455D01*
X-10943093Y5701599D01*
X-10938518Y5693072D01*
X-10935170Y5684013D01*
X-10933420Y5676261D01*
X-10932934Y5671725D01*
X-10932738Y5666306D01*
X-10932823Y5660562D01*
X-10933181Y5655049D01*
X-10933799Y5650351D01*
X-10936172Y5641260D01*
X-10939869Y5632551D01*
X-10944764Y5624367D01*
X-10950729Y5616855D01*
X-10957638Y5610158D01*
X-10965366Y5604421D01*
X-10973784Y5599790D01*
X-10980198Y5597222D01*
X-10984129Y5596030D01*
X-10988430Y5594955D01*
X-10992370Y5594171D01*
X-10993615Y5593987D01*
X-10994645Y5593922D01*
X-10996696Y5593861D01*
X-10999788Y5593803D01*
X-11003938Y5593749D01*
X-11009166Y5593698D01*
X-11015490Y5593652D01*
X-11022927Y5593608D01*
X-11031497Y5593568D01*
X-11041217Y5593532D01*
X-11052106Y5593499D01*
X-11064183Y5593469D01*
X-11077465Y5593443D01*
X-11091972Y5593420D01*
X-11107721Y5593401D01*
X-11124730Y5593384D01*
X-11143019Y5593371D01*
X-11162605Y5593362D01*
X-11183508Y5593355D01*
X-11205744Y5593352D01*
X-11229333Y5593352D01*
X-11252703Y5593355D01*
X-11254293Y5593355D01*
X-11280642Y5593361D01*
X-11308399Y5593370D01*
X-11337582Y5593383D01*
X-11368209Y5593398D01*
X-11379700Y5593404D01*
X-11759539Y5593618D01*
X-11765705Y5595280D01*
X-11775397Y5598631D01*
X-11784410Y5603227D01*
X-11792639Y5608968D01*
X-11799982Y5615753D01*
X-11806334Y5623482D01*
X-11811594Y5632052D01*
X-11815656Y5641363D01*
X-11816900Y5645197D01*
X-11818601Y5653098D01*
X-11819340Y5661682D01*
X-11819123Y5670525D01*
X-11817956Y5679203D01*
X-11816321Y5685812D01*
X-11812970Y5694356D01*
X-11808315Y5702577D01*
X-11802513Y5710268D01*
X-11795727Y5717217D01*
X-11788114Y5723215D01*
X-11787449Y5723664D01*
X-11783467Y5726197D01*
X-11779788Y5728213D01*
X-11775934Y5729935D01*
X-11771425Y5731586D01*
X-11767988Y5732704D01*
X-11761743Y5734670D01*
X-11646598Y5735037D01*
X-11531453Y5735404D01*
X-11542892Y5749731D01*
X-11546489Y5754300D01*
X-11550165Y5759082D01*
X-11553690Y5763771D01*
X-11556836Y5768062D01*
X-11559376Y5771650D01*
X-11560207Y5772874D01*
X-11566162Y5782563D01*
X-11571608Y5792913D01*
X-11576392Y5803576D01*
X-11580365Y5814203D01*
X-11583374Y5824445D01*
X-11584303Y5828492D01*
X-11584824Y5831053D01*
X-11585282Y5833499D01*
X-11585680Y5835938D01*
X-11586022Y5838478D01*
X-11586312Y5841226D01*
X-11586553Y5844291D01*
X-11586748Y5847780D01*
X-11586902Y5851802D01*
X-11587018Y5856464D01*
X-11587099Y5861874D01*
X-11587149Y5868140D01*
X-11587172Y5875370D01*
X-11587171Y5883672D01*
X-11587152Y5892244D01*
X-11443158Y5892244D01*
X-11443157Y5884827D01*
X-11443124Y5878522D01*
X-11443052Y5873210D01*
X-11442935Y5868771D01*
X-11442765Y5865087D01*
X-11442535Y5862039D01*
X-11442239Y5859507D01*
X-11441870Y5857372D01*
X-11441421Y5855514D01*
X-11440884Y5853816D01*
X-11440254Y5852158D01*
X-11439597Y5850594D01*
X-11438812Y5849335D01*
X-11437138Y5847074D01*
X-11434659Y5843911D01*
X-11431460Y5839943D01*
X-11427627Y5835270D01*
X-11423243Y5829989D01*
X-11418394Y5824200D01*
X-11413165Y5818002D01*
X-11407640Y5811491D01*
X-11401905Y5804769D01*
X-11396043Y5797932D01*
X-11390141Y5791079D01*
X-11384282Y5784310D01*
X-11378551Y5777722D01*
X-11373035Y5771414D01*
X-11367816Y5765485D01*
X-11362980Y5760034D01*
X-11358613Y5755159D01*
X-11354798Y5750958D01*
X-11351620Y5747530D01*
X-11349165Y5744974D01*
X-11347517Y5743389D01*
X-11347005Y5742979D01*
X-11341567Y5740056D01*
X-11335018Y5737781D01*
X-11327603Y5736230D01*
X-11324309Y5735815D01*
X-11322281Y5735685D01*
X-11318947Y5735566D01*
X-11314444Y5735461D01*
X-11308908Y5735367D01*
X-11302476Y5735286D01*
X-11295284Y5735217D01*
X-11287468Y5735161D01*
X-11279166Y5735117D01*
X-11270513Y5735086D01*
X-11261647Y5735067D01*
X-11252703Y5735061D01*
X-11243818Y5735068D01*
X-11235129Y5735088D01*
X-11226772Y5735121D01*
X-11218884Y5735166D01*
X-11211601Y5735225D01*
X-11205059Y5735297D01*
X-11199396Y5735381D01*
X-11194748Y5735479D01*
X-11191250Y5735590D01*
X-11189041Y5735715D01*
X-11188617Y5735759D01*
X-11185178Y5736366D01*
X-11181586Y5737249D01*
X-11179195Y5738013D01*
X-11177407Y5738727D01*
X-11175701Y5739535D01*
X-11173992Y5740521D01*
X-11172200Y5741769D01*
X-11170240Y5743361D01*
X-11168031Y5745381D01*
X-11165489Y5747912D01*
X-11162534Y5751038D01*
X-11159081Y5754842D01*
X-11155049Y5759407D01*
X-11150355Y5764817D01*
X-11144916Y5771155D01*
X-11138649Y5778504D01*
X-11135934Y5781697D01*
X-11130292Y5788335D01*
X-11124631Y5794994D01*
X-11119074Y5801529D01*
X-11113745Y5807795D01*
X-11108769Y5813646D01*
X-11104268Y5818937D01*
X-11100366Y5823523D01*
X-11097187Y5827257D01*
X-11095158Y5829639D01*
X-11090294Y5835442D01*
X-11086367Y5840352D01*
X-11083278Y5844515D01*
X-11080924Y5848076D01*
X-11079205Y5851182D01*
X-11078020Y5853978D01*
X-11077749Y5854793D01*
X-11077543Y5855675D01*
X-11077367Y5856970D01*
X-11077219Y5858779D01*
X-11077098Y5861201D01*
X-11077001Y5864338D01*
X-11076927Y5868289D01*
X-11076875Y5873156D01*
X-11076842Y5879039D01*
X-11076828Y5886039D01*
X-11076830Y5894256D01*
X-11076847Y5903790D01*
X-11076861Y5909177D01*
X-11077004Y5960255D01*
X-11079375Y5965014D01*
X-11080296Y5966628D01*
X-11081667Y5968633D01*
X-11083575Y5971134D01*
X-11086107Y5974236D01*
X-11089349Y5978043D01*
X-11093387Y5982660D01*
X-11098308Y5988193D01*
X-11100897Y5991079D01*
X-11106798Y5997644D01*
X-11111806Y6003206D01*
X-11116008Y6007855D01*
X-11119494Y6011679D01*
X-11122354Y6014769D01*
X-11124675Y6017214D01*
X-11126549Y6019103D01*
X-11128063Y6020525D01*
X-11129306Y6021569D01*
X-11130368Y6022326D01*
X-11131338Y6022884D01*
X-11132305Y6023333D01*
X-11133358Y6023762D01*
X-11133575Y6023849D01*
X-11137984Y6025610D01*
X-11258474Y6025610D01*
X-11274403Y6025611D01*
X-11288930Y6025612D01*
X-11302125Y6025610D01*
X-11314055Y6025604D01*
X-11324790Y6025591D01*
X-11334398Y6025570D01*
X-11342947Y6025537D01*
X-11350505Y6025490D01*
X-11357141Y6025428D01*
X-11362924Y6025349D01*
X-11367922Y6025249D01*
X-11372202Y6025126D01*
X-11375835Y6024980D01*
X-11378887Y6024806D01*
X-11381428Y6024603D01*
X-11383526Y6024369D01*
X-11385249Y6024102D01*
X-11386666Y6023799D01*
X-11387845Y6023458D01*
X-11388855Y6023076D01*
X-11389764Y6022653D01*
X-11390640Y6022184D01*
X-11391552Y6021669D01*
X-11392310Y6021245D01*
X-11393510Y6020526D01*
X-11394754Y6019626D01*
X-11396149Y6018429D01*
X-11397804Y6016821D01*
X-11399825Y6014687D01*
X-11402322Y6011912D01*
X-11405401Y6008382D01*
X-11409171Y6003981D01*
X-11413740Y5998594D01*
X-11415168Y5996904D01*
X-11420583Y5990470D01*
X-11425124Y5985016D01*
X-11428886Y5980414D01*
X-11431961Y5976537D01*
X-11434443Y5973259D01*
X-11436425Y5970452D01*
X-11438002Y5967989D01*
X-11439267Y5965744D01*
X-11440313Y5963589D01*
X-11441117Y5961691D01*
X-11442884Y5957283D01*
X-11443093Y5910891D01*
X-11443135Y5900892D01*
X-11443158Y5892244D01*
X-11587152Y5892244D01*
X-11587150Y5893153D01*
X-11587112Y5903922D01*
X-11587078Y5912099D01*
X-11587031Y5923461D01*
X-11586986Y5933464D01*
X-11586937Y5942222D01*
X-11586878Y5949847D01*
X-11586802Y5956449D01*
X-11586702Y5962141D01*
X-11586573Y5967035D01*
X-11586407Y5971242D01*
X-11586198Y5974875D01*
X-11585940Y5978045D01*
X-11585625Y5980864D01*
X-11585247Y5983444D01*
X-11584800Y5985896D01*
X-11584276Y5988333D01*
X-11583671Y5990867D01*
X-11582976Y5993609D01*
X-11582185Y5996671D01*
X-11582090Y5997040D01*
X-11578004Y6010172D01*
X-11572573Y6023205D01*
X-11565918Y6035907D01*
X-11558157Y6048049D01*
X-11550631Y6057937D01*
X-11547822Y6061303D01*
X-11544377Y6065369D01*
X-11540408Y6070005D01*
X-11536031Y6075083D01*
X-11531359Y6080471D01*
X-11526506Y6086040D01*
X-11521586Y6091661D01*
X-11516714Y6097203D01*
X-11512003Y6102538D01*
X-11507569Y6107534D01*
X-11503524Y6112062D01*
X-11499982Y6115993D01*
X-11497059Y6119196D01*
X-11494868Y6121542D01*
X-11493540Y6122885D01*
X-11484274Y6130688D01*
X-11473760Y6137983D01*
X-11462155Y6144703D01*
X-11449614Y6150779D01*
X-11436292Y6156143D01*
X-11422343Y6160728D01*
X-11407924Y6164466D01*
X-11393189Y6167288D01*
X-11391455Y6167555D01*
X-11390250Y6167725D01*
X-11388964Y6167880D01*
X-11387528Y6168021D01*
X-11385871Y6168148D01*
X-11383922Y6168261D01*
X-11381612Y6168363D01*
X-11378869Y6168452D01*
X-11375624Y6168531D01*
X-11371806Y6168599D01*
X-11367345Y6168658D01*
X-11362170Y6168708D01*
X-11356212Y6168750D01*
X-11349399Y6168784D01*
X-11341662Y6168812D01*
X-11332930Y6168833D01*
X-11323133Y6168850D01*
X-11312200Y6168861D01*
X-11300062Y6168869D01*
X-11286647Y6168874D01*
X-11271886Y6168876D01*
X-11259944Y6168876D01*
X-11243461Y6168874D01*
G37*
G36*
X-11232686Y6614102D02*
G01*
X-11209422Y6614100D01*
X-11187380Y6614096D01*
X-11166523Y6614090D01*
X-11146817Y6614083D01*
X-11128225Y6614074D01*
X-11110714Y6614062D01*
X-11094247Y6614048D01*
X-11078788Y6614032D01*
X-11064303Y6614012D01*
X-11050756Y6613989D01*
X-11038111Y6613962D01*
X-11026333Y6613932D01*
X-11015387Y6613898D01*
X-11005237Y6613860D01*
X-10995847Y6613817D01*
X-10987184Y6613770D01*
X-10979209Y6613717D01*
X-10971890Y6613660D01*
X-10965189Y6613597D01*
X-10959072Y6613528D01*
X-10953503Y6613453D01*
X-10948447Y6613373D01*
X-10943868Y6613286D01*
X-10939731Y6613192D01*
X-10936001Y6613091D01*
X-10932641Y6612984D01*
X-10929617Y6612868D01*
X-10926893Y6612746D01*
X-10924434Y6612615D01*
X-10922204Y6612477D01*
X-10920168Y6612330D01*
X-10918290Y6612175D01*
X-10916535Y6612010D01*
X-10914868Y6611837D01*
X-10913253Y6611654D01*
X-10911654Y6611462D01*
X-10910037Y6611261D01*
X-10908366Y6611049D01*
X-10906604Y6610827D01*
X-10905819Y6610729D01*
X-10880989Y6606924D01*
X-10856535Y6601707D01*
X-10832503Y6595101D01*
X-10808942Y6587126D01*
X-10785899Y6577803D01*
X-10763422Y6567155D01*
X-10741559Y6555201D01*
X-10720357Y6541964D01*
X-10699864Y6527465D01*
X-10680127Y6511724D01*
X-10676226Y6508386D01*
X-10671972Y6504584D01*
X-10666983Y6499928D01*
X-10661502Y6494659D01*
X-10655769Y6489020D01*
X-10650029Y6483253D01*
X-10644522Y6477601D01*
X-10639492Y6472305D01*
X-10635181Y6467609D01*
X-10633167Y6465327D01*
X-10617089Y6445658D01*
X-10602305Y6425292D01*
X-10588812Y6404225D01*
X-10576609Y6382455D01*
X-10565693Y6359977D01*
X-10556064Y6336790D01*
X-10550490Y6321326D01*
X-10545526Y6305889D01*
X-10541256Y6290770D01*
X-10537613Y6275659D01*
X-10534533Y6260240D01*
X-10531951Y6244201D01*
X-10529801Y6227229D01*
X-10528708Y6216632D01*
X-10528684Y6216308D01*
X-10528660Y6215841D01*
X-10528636Y6215220D01*
X-10528613Y6214435D01*
X-10528590Y6213477D01*
X-10528568Y6212336D01*
X-10528545Y6211001D01*
X-10528523Y6209464D01*
X-10528502Y6207714D01*
X-10528480Y6205741D01*
X-10528459Y6203535D01*
X-10528439Y6201087D01*
X-10528418Y6198387D01*
X-10528398Y6195424D01*
X-10528378Y6192190D01*
X-10528359Y6188673D01*
X-10528340Y6184865D01*
X-10528321Y6180755D01*
X-10528302Y6176334D01*
X-10528284Y6171591D01*
X-10528265Y6166517D01*
X-10528248Y6161102D01*
X-10528230Y6155336D01*
X-10528213Y6149209D01*
X-10528196Y6142711D01*
X-10528179Y6135833D01*
X-10528163Y6128564D01*
X-10528146Y6120895D01*
X-10528130Y6112816D01*
X-10528115Y6104317D01*
X-10528099Y6095388D01*
X-10528084Y6086019D01*
X-10528069Y6076201D01*
X-10528055Y6065923D01*
X-10528040Y6055176D01*
X-10528026Y6043949D01*
X-10528012Y6032234D01*
X-10527998Y6020019D01*
X-10527985Y6007296D01*
X-10527972Y5994054D01*
X-10527959Y5980283D01*
X-10527946Y5965974D01*
X-10527933Y5951117D01*
X-10527921Y5935702D01*
X-10527909Y5919719D01*
X-10527897Y5903157D01*
X-10527886Y5886008D01*
X-10527874Y5868262D01*
X-10527863Y5849908D01*
X-10527852Y5830936D01*
X-10527841Y5811338D01*
X-10527831Y5791102D01*
X-10527820Y5770220D01*
X-10527810Y5748680D01*
X-10527800Y5726474D01*
X-10527791Y5703592D01*
X-10527781Y5680023D01*
X-10527772Y5655758D01*
X-10527763Y5630786D01*
X-10527754Y5605099D01*
X-10527745Y5578686D01*
X-10527736Y5551537D01*
X-10527728Y5523643D01*
X-10527720Y5494993D01*
X-10527712Y5465578D01*
X-10527704Y5435388D01*
X-10527696Y5404412D01*
X-10527688Y5372642D01*
X-10527681Y5340067D01*
X-10527674Y5306677D01*
X-10527667Y5272463D01*
X-10527660Y5237415D01*
X-10527653Y5201522D01*
X-10527647Y5164775D01*
X-10527640Y5127164D01*
X-10527634Y5088679D01*
X-10527628Y5049311D01*
X-10527622Y5009049D01*
X-10527616Y4967884D01*
X-10527611Y4925805D01*
X-10527605Y4882803D01*
X-10527600Y4838869D01*
X-10527595Y4793991D01*
X-10527590Y4748161D01*
X-10527585Y4701368D01*
X-10527580Y4653602D01*
X-10527575Y4604854D01*
X-10527571Y4555114D01*
X-10527566Y4504372D01*
X-10527562Y4452618D01*
X-10527558Y4399842D01*
X-10527554Y4346035D01*
X-10527550Y4291186D01*
X-10527546Y4235285D01*
X-10527542Y4178323D01*
X-10527538Y4120291D01*
X-10527535Y4061177D01*
X-10527531Y4000972D01*
X-10527528Y3939667D01*
X-10527525Y3877251D01*
X-10527522Y3813714D01*
X-10527519Y3749047D01*
X-10527516Y3683240D01*
X-10527513Y3616283D01*
X-10527510Y3548166D01*
X-10527507Y3478880D01*
X-10527505Y3408413D01*
X-10527502Y3336757D01*
X-10527500Y3263902D01*
X-10527497Y3189837D01*
X-10527495Y3114554D01*
X-10527493Y3038041D01*
X-10527491Y2960290D01*
X-10527489Y2881290D01*
X-10527487Y2801031D01*
X-10527485Y2719504D01*
X-10527483Y2636698D01*
X-10527481Y2552605D01*
X-10527479Y2467213D01*
X-10527477Y2380514D01*
X-10527476Y2292496D01*
X-10527474Y2203152D01*
X-10527472Y2112469D01*
X-10527471Y2020439D01*
X-10527469Y1927052D01*
X-10527468Y1832298D01*
X-10527466Y1736167D01*
X-10527465Y1638650D01*
X-10527463Y1539735D01*
X-10527462Y1439414D01*
X-10527461Y1337677D01*
X-10527459Y1234513D01*
X-10527458Y1129913D01*
X-10527457Y1023867D01*
X-10527456Y916365D01*
X-10527455Y876108D01*
X-10527454Y787407D01*
X-10527453Y699041D01*
X-10527452Y611024D01*
X-10527452Y523365D01*
X-10527451Y436077D01*
X-10527450Y349171D01*
X-10527449Y262659D01*
X-10527449Y176552D01*
X-10527448Y90862D01*
X-10527448Y5601D01*
X-10527447Y-79221D01*
X-10527447Y-163590D01*
X-10527446Y-247497D01*
X-10527446Y-330928D01*
X-10527446Y-413874D01*
X-10527446Y-496321D01*
X-10527445Y-578259D01*
X-10527445Y-659676D01*
X-10527445Y-740560D01*
X-10527445Y-820900D01*
X-10527445Y-900684D01*
X-10527445Y-979900D01*
X-10527445Y-1058538D01*
X-10527446Y-1136585D01*
X-10527446Y-1214030D01*
X-10527446Y-1290862D01*
X-10527446Y-1367068D01*
X-10527447Y-1442637D01*
X-10527447Y-1517558D01*
X-10527448Y-1591819D01*
X-10527448Y-1665408D01*
X-10527449Y-1738314D01*
X-10527449Y-1810525D01*
X-10527450Y-1882031D01*
X-10527450Y-1952818D01*
X-10527451Y-2022876D01*
X-10527452Y-2092193D01*
X-10527453Y-2160757D01*
X-10527454Y-2228557D01*
X-10527454Y-2295581D01*
X-10527455Y-2361818D01*
X-10527456Y-2427256D01*
X-10527457Y-2491884D01*
X-10527458Y-2555690D01*
X-10527460Y-2618662D01*
X-10527461Y-2680789D01*
X-10527462Y-2742059D01*
X-10527463Y-2802460D01*
X-10527464Y-2861982D01*
X-10527466Y-2920613D01*
X-10527467Y-2978340D01*
X-10527468Y-3035152D01*
X-10527470Y-3091039D01*
X-10527471Y-3145988D01*
X-10527473Y-3199987D01*
X-10527474Y-3253025D01*
X-10527476Y-3305091D01*
X-10527478Y-3356173D01*
X-10527479Y-3406259D01*
X-10527481Y-3455338D01*
X-10527483Y-3503398D01*
X-10527484Y-3550428D01*
X-10527486Y-3596415D01*
X-10527488Y-3641349D01*
X-10527490Y-3685218D01*
X-10527492Y-3728011D01*
X-10527494Y-3769715D01*
X-10527496Y-3810319D01*
X-10527498Y-3849812D01*
X-10527500Y-3888182D01*
X-10527502Y-3925417D01*
X-10527504Y-3961507D01*
X-10527506Y-3996438D01*
X-10527509Y-4030200D01*
X-10527511Y-4062782D01*
X-10527513Y-4094171D01*
X-10527515Y-4124355D01*
X-10527518Y-4153325D01*
X-10527520Y-4181067D01*
X-10527523Y-4207570D01*
X-10527525Y-4232824D01*
X-10527527Y-4256815D01*
X-10527530Y-4279533D01*
X-10527533Y-4300965D01*
X-10527535Y-4321101D01*
X-10527538Y-4339929D01*
X-10527540Y-4357438D01*
X-10527543Y-4373615D01*
X-10527546Y-4388449D01*
X-10527548Y-4401928D01*
X-10527551Y-4414041D01*
X-10527554Y-4424777D01*
X-10527557Y-4434124D01*
X-10527560Y-4442070D01*
X-10527562Y-4448603D01*
X-10527565Y-4453713D01*
X-10527568Y-4457387D01*
X-10527571Y-4459614D01*
X-10527574Y-4460376D01*
X-10528832Y-4485630D01*
X-10531510Y-4510589D01*
X-10535585Y-4535204D01*
X-10541035Y-4559424D01*
X-10547836Y-4583199D01*
X-10555966Y-4606482D01*
X-10565402Y-4629221D01*
X-10576119Y-4651367D01*
X-10588097Y-4672871D01*
X-10601312Y-4693684D01*
X-10615740Y-4713755D01*
X-10631359Y-4733034D01*
X-10648145Y-4751474D01*
X-10666077Y-4769023D01*
X-10673654Y-4775861D01*
X-10693205Y-4792137D01*
X-10713461Y-4807128D01*
X-10734396Y-4820822D01*
X-10755983Y-4833209D01*
X-10778194Y-4844276D01*
X-10801002Y-4854012D01*
X-10824381Y-4862405D01*
X-10848302Y-4869444D01*
X-10872739Y-4875117D01*
X-10897664Y-4879413D01*
X-10923051Y-4882320D01*
X-10924904Y-4882476D01*
X-10926623Y-4882556D01*
X-10929763Y-4882634D01*
X-10934275Y-4882709D01*
X-10940109Y-4882781D01*
X-10947218Y-4882850D01*
X-10955553Y-4882917D01*
X-10965065Y-4882981D01*
X-10975705Y-4883042D01*
X-10987424Y-4883101D01*
X-10988105Y-4883104D01*
X-11000174Y-4883157D01*
X-11013906Y-4883210D01*
X-11028572Y-4883260D01*
X-11044121Y-4883308D01*
X-11060507Y-4883353D01*
X-11077679Y-4883395D01*
X-11095590Y-4883435D01*
X-11114190Y-4883472D01*
X-11133430Y-4883506D01*
X-11153263Y-4883538D01*
X-11173639Y-4883567D01*
X-11194510Y-4883593D01*
X-11215826Y-4883616D01*
X-11237539Y-4883637D01*
X-11259601Y-4883655D01*
X-11281962Y-4883670D01*
X-11304574Y-4883683D01*
X-11327388Y-4883692D01*
X-11350355Y-4883700D01*
X-11373427Y-4883704D01*
X-11396554Y-4883706D01*
X-11419689Y-4883705D01*
X-11442782Y-4883701D01*
X-11465784Y-4883695D01*
X-11488648Y-4883686D01*
X-11511323Y-4883674D01*
X-11533762Y-4883659D01*
X-11555915Y-4883642D01*
X-11577734Y-4883622D01*
X-11599170Y-4883600D01*
X-11620175Y-4883574D01*
X-11640699Y-4883546D01*
X-11660694Y-4883516D01*
X-11680112Y-4883482D01*
X-11698902Y-4883446D01*
X-11717017Y-4883407D01*
X-11734408Y-4883366D01*
X-11751027Y-4883321D01*
X-11766823Y-4883274D01*
X-11781749Y-4883225D01*
X-11795757Y-4883172D01*
X-11808796Y-4883117D01*
X-11820819Y-4883060D01*
X-11831776Y-4882999D01*
X-11841620Y-4882936D01*
X-11850300Y-4882870D01*
X-11857769Y-4882801D01*
X-11863978Y-4882730D01*
X-11868877Y-4882656D01*
X-11872419Y-4882579D01*
X-11874554Y-4882500D01*
X-11874903Y-4882476D01*
X-11900338Y-4879670D01*
X-11925303Y-4875475D01*
X-11949788Y-4869894D01*
X-11973783Y-4862929D01*
X-11997277Y-4854586D01*
X-12020260Y-4844867D01*
X-12042721Y-4833776D01*
X-12064650Y-4821315D01*
X-12070684Y-4817588D01*
X-12090709Y-4804151D01*
X-12110068Y-4789474D01*
X-12128666Y-4773652D01*
X-12146409Y-4756785D01*
X-12163203Y-4738969D01*
X-12178954Y-4720302D01*
X-12193567Y-4700882D01*
X-12206950Y-4680806D01*
X-12214460Y-4668295D01*
X-12226479Y-4645977D01*
X-12237101Y-4623205D01*
X-12246329Y-4599975D01*
X-12254163Y-4576279D01*
X-12260606Y-4552114D01*
X-12265659Y-4527472D01*
X-12269324Y-4502349D01*
X-12270905Y-4486474D01*
X-12270927Y-4486089D01*
X-12270949Y-4485468D01*
X-12270971Y-4484601D01*
X-12270992Y-4483480D01*
X-12271013Y-4482095D01*
X-12271034Y-4480435D01*
X-12271054Y-4478491D01*
X-12271074Y-4476254D01*
X-12271094Y-4473714D01*
X-12271113Y-4470861D01*
X-12271133Y-4467685D01*
X-12271151Y-4464178D01*
X-12271170Y-4460329D01*
X-12271189Y-4456128D01*
X-12271207Y-4451567D01*
X-12271225Y-4446634D01*
X-12271242Y-4441322D01*
X-12271260Y-4435619D01*
X-12271277Y-4429517D01*
X-12271293Y-4423006D01*
X-12271310Y-4416075D01*
X-12271326Y-4408717D01*
X-12271342Y-4400919D01*
X-12271358Y-4392674D01*
X-12271374Y-4383972D01*
X-12271389Y-4374802D01*
X-12271404Y-4365156D01*
X-12271419Y-4355023D01*
X-12271433Y-4344394D01*
X-12271448Y-4333259D01*
X-12271462Y-4321609D01*
X-12271475Y-4309433D01*
X-12271485Y-4300536D01*
X-11833744Y-4300536D01*
X-11833744Y-4315239D01*
X-11833743Y-4330701D01*
X-11833743Y-4455600D01*
X-11832006Y-4461110D01*
X-11828767Y-4469554D01*
X-11824588Y-4477121D01*
X-11819275Y-4484120D01*
X-11814538Y-4489079D01*
X-11810201Y-4493072D01*
X-11806301Y-4496204D01*
X-11802392Y-4498791D01*
X-11798030Y-4501149D01*
X-11796453Y-4501913D01*
X-11787825Y-4505205D01*
X-11778722Y-4507203D01*
X-11769356Y-4507908D01*
X-11759938Y-4507325D01*
X-11750681Y-4505457D01*
X-11741796Y-4502308D01*
X-11738967Y-4500980D01*
X-11730672Y-4496052D01*
X-11723139Y-4490003D01*
X-11716537Y-4483006D01*
X-11711038Y-4475234D01*
X-11708083Y-4469739D01*
X-11706756Y-4466874D01*
X-11705652Y-4464272D01*
X-11704748Y-4461760D01*
X-11704023Y-4459166D01*
X-11703453Y-4456321D01*
X-11703017Y-4453051D01*
X-11702692Y-4449187D01*
X-11702456Y-4444556D01*
X-11702286Y-4438987D01*
X-11702161Y-4432309D01*
X-11702057Y-4424351D01*
X-11702047Y-4423456D01*
X-11701713Y-4394251D01*
X-11378338Y-4394436D01*
X-11054963Y-4394620D01*
X-11054561Y-4425477D01*
X-11054454Y-4433487D01*
X-11054345Y-4440193D01*
X-11054212Y-4445761D01*
X-11054033Y-4450357D01*
X-11053786Y-4454146D01*
X-11053450Y-4457295D01*
X-11053002Y-4459968D01*
X-11052421Y-4462332D01*
X-11051684Y-4464552D01*
X-11050770Y-4466794D01*
X-11049657Y-4469224D01*
X-11048439Y-4471763D01*
X-11044216Y-4479355D01*
X-11039285Y-4485922D01*
X-11033353Y-4491848D01*
X-11032610Y-4492492D01*
X-11024774Y-4498449D01*
X-11016769Y-4503009D01*
X-11008403Y-4506242D01*
X-10999484Y-4508219D01*
X-10989819Y-4509013D01*
X-10988105Y-4509035D01*
X-10978298Y-4508366D01*
X-10968908Y-4506323D01*
X-10960044Y-4502969D01*
X-10951814Y-4498369D01*
X-10944327Y-4492585D01*
X-10937692Y-4485680D01*
X-10932016Y-4477717D01*
X-10930822Y-4475679D01*
X-10928529Y-4471336D01*
X-10926732Y-4467210D01*
X-10925301Y-4462900D01*
X-10924107Y-4458003D01*
X-10923018Y-4452118D01*
X-10922808Y-4450824D01*
X-10922776Y-4449897D01*
X-10922748Y-4447579D01*
X-10922722Y-4443950D01*
X-10922699Y-4439090D01*
X-10922679Y-4433077D01*
X-10922662Y-4425991D01*
X-10922649Y-4417912D01*
X-10922639Y-4408918D01*
X-10922632Y-4399088D01*
X-10922629Y-4388503D01*
X-10922630Y-4377240D01*
X-10922634Y-4365380D01*
X-10922642Y-4353002D01*
X-10922655Y-4340185D01*
X-10922665Y-4331069D01*
X-10922687Y-4315459D01*
X-10922709Y-4301249D01*
X-10922733Y-4288367D01*
X-10922759Y-4276744D01*
X-10922789Y-4266310D01*
X-10922823Y-4256994D01*
X-10922862Y-4248725D01*
X-10922906Y-4241434D01*
X-10922957Y-4235051D01*
X-10923014Y-4229504D01*
X-10923079Y-4224724D01*
X-10923153Y-4220641D01*
X-10923237Y-4217185D01*
X-10923330Y-4214284D01*
X-10923434Y-4211869D01*
X-10923550Y-4209870D01*
X-10923678Y-4208216D01*
X-10923818Y-4206837D01*
X-10923973Y-4205663D01*
X-10924008Y-4205435D01*
X-10925348Y-4197453D01*
X-10926780Y-4190400D01*
X-10928421Y-4183736D01*
X-10929440Y-4180088D01*
X-10934449Y-4165437D01*
X-10940806Y-4151269D01*
X-10948441Y-4137675D01*
X-10957285Y-4124744D01*
X-10967270Y-4112568D01*
X-10978327Y-4101237D01*
X-10990388Y-4090841D01*
X-11003383Y-4081470D01*
X-11005540Y-4080075D01*
X-11006918Y-4079287D01*
X-11009532Y-4077885D01*
X-11013300Y-4075909D01*
X-11018142Y-4073401D01*
X-11023978Y-4070399D01*
X-11030727Y-4066946D01*
X-11038309Y-4063080D01*
X-11046642Y-4058843D01*
X-11055648Y-4054275D01*
X-11065244Y-4049417D01*
X-11075351Y-4044308D01*
X-11085888Y-4038990D01*
X-11096775Y-4033502D01*
X-11107931Y-4027885D01*
X-11119275Y-4022180D01*
X-11130728Y-4016427D01*
X-11142208Y-4010666D01*
X-11153635Y-4004938D01*
X-11164929Y-3999283D01*
X-11176008Y-3993742D01*
X-11186794Y-3988355D01*
X-11197204Y-3983162D01*
X-11207159Y-3978205D01*
X-11216578Y-3973522D01*
X-11225381Y-3969156D01*
X-11233486Y-3965145D01*
X-11240814Y-3961531D01*
X-11247284Y-3958354D01*
X-11252816Y-3955655D01*
X-11257329Y-3953473D01*
X-11260742Y-3951850D01*
X-11262757Y-3950922D01*
X-11280119Y-3943693D01*
X-11297135Y-3937693D01*
X-11314110Y-3932835D01*
X-11331347Y-3929029D01*
X-11347005Y-3926477D01*
X-11351202Y-3926035D01*
X-11356573Y-3925681D01*
X-11362825Y-3925415D01*
X-11366031Y-3925333D01*
X-11369665Y-3925239D01*
X-11376799Y-3925156D01*
X-11383935Y-3925166D01*
X-11390780Y-3925272D01*
X-11397040Y-3925475D01*
X-11402423Y-3925777D01*
X-11406149Y-3926120D01*
X-11425761Y-3929016D01*
X-11444500Y-3932978D01*
X-11462554Y-3938054D01*
X-11480109Y-3944292D01*
X-11485491Y-3946475D01*
X-11487195Y-3947235D01*
X-11490127Y-3948600D01*
X-11494204Y-3950530D01*
X-11499344Y-3952985D01*
X-11505467Y-3955925D01*
X-11512490Y-3959311D01*
X-11520332Y-3963101D01*
X-11528910Y-3967257D01*
X-11538143Y-3971738D01*
X-11547949Y-3976504D01*
X-11558246Y-3981515D01*
X-11568953Y-3986731D01*
X-11579988Y-3992112D01*
X-11591268Y-3997619D01*
X-11602713Y-4003210D01*
X-11614241Y-4008847D01*
X-11625769Y-4014488D01*
X-11637216Y-4020095D01*
X-11648500Y-4025626D01*
X-11659539Y-4031043D01*
X-11670252Y-4036305D01*
X-11680557Y-4041372D01*
X-11690372Y-4046203D01*
X-11699615Y-4050760D01*
X-11708204Y-4055002D01*
X-11716058Y-4058889D01*
X-11723095Y-4062381D01*
X-11729233Y-4065438D01*
X-11734390Y-4068020D01*
X-11738485Y-4070086D01*
X-11741436Y-4071598D01*
X-11743160Y-4072515D01*
X-11743327Y-4072609D01*
X-11756160Y-4080857D01*
X-11768387Y-4090386D01*
X-11779924Y-4101103D01*
X-11790685Y-4112916D01*
X-11800587Y-4125733D01*
X-11809546Y-4139461D01*
X-11817476Y-4154006D01*
X-11821160Y-4161761D01*
X-11824148Y-4168815D01*
X-11826619Y-4175651D01*
X-11828753Y-4182746D01*
X-11829976Y-4187451D01*
X-11830449Y-4189340D01*
X-11830880Y-4191065D01*
X-11831272Y-4192696D01*
X-11831626Y-4194304D01*
X-11831945Y-4195961D01*
X-11832230Y-4197737D01*
X-11832484Y-4199705D01*
X-11832707Y-4201935D01*
X-11832903Y-4204498D01*
X-11833072Y-4207465D01*
X-11833217Y-4210909D01*
X-11833340Y-4214899D01*
X-11833442Y-4219507D01*
X-11833526Y-4224805D01*
X-11833592Y-4230862D01*
X-11833644Y-4237752D01*
X-11833682Y-4245544D01*
X-11833710Y-4254310D01*
X-11833728Y-4264121D01*
X-11833738Y-4275048D01*
X-11833743Y-4287163D01*
X-11833744Y-4300536D01*
X-12271485Y-4300536D01*
X-12271489Y-4296723D01*
X-12271502Y-4283469D01*
X-12271516Y-4269660D01*
X-12271528Y-4255288D01*
X-12271541Y-4240343D01*
X-12271554Y-4224814D01*
X-12271566Y-4208693D01*
X-12271578Y-4191970D01*
X-12271589Y-4174635D01*
X-12271601Y-4156678D01*
X-12271612Y-4138090D01*
X-12271623Y-4118861D01*
X-12271634Y-4098981D01*
X-12271645Y-4078442D01*
X-12271656Y-4057232D01*
X-12271666Y-4035343D01*
X-12271676Y-4012765D01*
X-12271686Y-3989489D01*
X-12271695Y-3965503D01*
X-12271705Y-3940800D01*
X-12271714Y-3915369D01*
X-12271723Y-3889201D01*
X-12271732Y-3862285D01*
X-12271741Y-3834613D01*
X-12271749Y-3806175D01*
X-12271758Y-3776960D01*
X-12271766Y-3746960D01*
X-12271774Y-3716165D01*
X-12271782Y-3684565D01*
X-12271789Y-3652150D01*
X-12271797Y-3618911D01*
X-12271800Y-3605186D01*
X-11833713Y-3605186D01*
X-11833653Y-3611094D01*
X-11833397Y-3615898D01*
X-11832876Y-3619957D01*
X-11832022Y-3623632D01*
X-11830769Y-3627283D01*
X-11829047Y-3631268D01*
X-11828637Y-3632143D01*
X-11823929Y-3640518D01*
X-11818143Y-3648110D01*
X-11811430Y-3654798D01*
X-11803938Y-3660463D01*
X-11795815Y-3664985D01*
X-11787210Y-3668243D01*
X-11782529Y-3669411D01*
X-11782036Y-3669493D01*
X-11781356Y-3669572D01*
X-11780454Y-3669647D01*
X-11779296Y-3669718D01*
X-11777845Y-3669785D01*
X-11776066Y-3669849D01*
X-11773924Y-3669909D01*
X-11771384Y-3669966D01*
X-11768411Y-3670020D01*
X-11764969Y-3670070D01*
X-11761023Y-3670117D01*
X-11756538Y-3670162D01*
X-11751479Y-3670203D01*
X-11745809Y-3670242D01*
X-11739495Y-3670277D01*
X-11732501Y-3670311D01*
X-11724791Y-3670341D01*
X-11716330Y-3670370D01*
X-11707083Y-3670396D01*
X-11697015Y-3670419D01*
X-11686090Y-3670441D01*
X-11674274Y-3670461D01*
X-11661530Y-3670478D01*
X-11647824Y-3670494D01*
X-11633121Y-3670508D01*
X-11617384Y-3670520D01*
X-11600580Y-3670531D01*
X-11582672Y-3670541D01*
X-11563626Y-3670549D01*
X-11543405Y-3670555D01*
X-11521976Y-3670561D01*
X-11499302Y-3670565D01*
X-11475348Y-3670569D01*
X-11450079Y-3670571D01*
X-11423461Y-3670573D01*
X-11395456Y-3670574D01*
X-11366031Y-3670575D01*
X-11354461Y-3670575D01*
X-10932055Y-3670575D01*
X-10931615Y-3659370D01*
X-10931567Y-3657752D01*
X-10931496Y-3654723D01*
X-10931402Y-3650342D01*
X-10931286Y-3644667D01*
X-10931149Y-3637757D01*
X-10930993Y-3629669D01*
X-10930818Y-3620464D01*
X-10930626Y-3610199D01*
X-10930417Y-3598932D01*
X-10930193Y-3586722D01*
X-10929954Y-3573628D01*
X-10929703Y-3559707D01*
X-10929439Y-3545019D01*
X-10929164Y-3529623D01*
X-10928879Y-3513575D01*
X-10928585Y-3496935D01*
X-10928283Y-3479762D01*
X-10927974Y-3462114D01*
X-10927660Y-3444048D01*
X-10927340Y-3425625D01*
X-10927117Y-3412695D01*
X-10926797Y-3394100D01*
X-10926481Y-3375842D01*
X-10926171Y-3357979D01*
X-10925869Y-3340569D01*
X-10925575Y-3323668D01*
X-10925290Y-3307335D01*
X-10925015Y-3291626D01*
X-10924751Y-3276599D01*
X-10924500Y-3262311D01*
X-10924261Y-3248820D01*
X-10924037Y-3236183D01*
X-10923828Y-3224457D01*
X-10923636Y-3213700D01*
X-10923461Y-3203969D01*
X-10923304Y-3195321D01*
X-10923166Y-3187814D01*
X-10923049Y-3181505D01*
X-10922953Y-3176452D01*
X-10922879Y-3172711D01*
X-10922829Y-3170340D01*
X-10922808Y-3169510D01*
X-10922675Y-3162869D01*
X-10922705Y-3156397D01*
X-10922885Y-3150360D01*
X-10923205Y-3145024D01*
X-10923654Y-3140653D01*
X-10924146Y-3137820D01*
X-10927010Y-3128649D01*
X-10931141Y-3120037D01*
X-10936417Y-3112112D01*
X-10942719Y-3105002D01*
X-10949923Y-3098836D01*
X-10957911Y-3093743D01*
X-10966559Y-3089850D01*
X-10970626Y-3088527D01*
X-10974605Y-3087695D01*
X-10979588Y-3087126D01*
X-10985159Y-3086822D01*
X-10990904Y-3086787D01*
X-10996404Y-3087026D01*
X-11001246Y-3087540D01*
X-11004636Y-3088227D01*
X-11013526Y-3091433D01*
X-11021871Y-3095922D01*
X-11029538Y-3101566D01*
X-11036393Y-3108236D01*
X-11042302Y-3115806D01*
X-11047132Y-3124146D01*
X-11050389Y-3132040D01*
X-11052759Y-3139020D01*
X-11052951Y-3339777D01*
X-11053144Y-3540533D01*
X-11399537Y-3540533D01*
X-11412238Y-3540533D01*
X-11443627Y-3540534D01*
X-11473553Y-3540539D01*
X-11502025Y-3540546D01*
X-11529050Y-3540556D01*
X-11554635Y-3540568D01*
X-11578788Y-3540584D01*
X-11601517Y-3540603D01*
X-11622828Y-3540624D01*
X-11642730Y-3540649D01*
X-11661229Y-3540676D01*
X-11678334Y-3540707D01*
X-11694051Y-3540740D01*
X-11708389Y-3540777D01*
X-11721353Y-3540816D01*
X-11732953Y-3540859D01*
X-11743195Y-3540904D01*
X-11752088Y-3540953D01*
X-11759637Y-3541005D01*
X-11765852Y-3541060D01*
X-11770738Y-3541117D01*
X-11774305Y-3541179D01*
X-11776559Y-3541243D01*
X-11777427Y-3541297D01*
X-11786566Y-3543125D01*
X-11795158Y-3546266D01*
X-11803272Y-3550756D01*
X-11810978Y-3556629D01*
X-11814989Y-3560384D01*
X-11820941Y-3566975D01*
X-11825657Y-3573702D01*
X-11829354Y-3580907D01*
X-11831435Y-3586369D01*
X-11832276Y-3588950D01*
X-11832877Y-3591115D01*
X-11833279Y-3593200D01*
X-11833524Y-3595544D01*
X-11833651Y-3598485D01*
X-11833702Y-3602361D01*
X-11833713Y-3605186D01*
X-12271800Y-3605186D01*
X-12271804Y-3584838D01*
X-12271811Y-3549921D01*
X-12271818Y-3514152D01*
X-12271824Y-3477519D01*
X-12271831Y-3440015D01*
X-12271837Y-3401628D01*
X-12271844Y-3362349D01*
X-12271850Y-3322168D01*
X-12271856Y-3281077D01*
X-12271861Y-3239065D01*
X-12271867Y-3196123D01*
X-12271872Y-3152240D01*
X-12271878Y-3107408D01*
X-12271883Y-3061617D01*
X-12271888Y-3014856D01*
X-12271892Y-2967117D01*
X-12271897Y-2918390D01*
X-12271902Y-2868665D01*
X-12271906Y-2817932D01*
X-12271909Y-2780855D01*
X-12143420Y-2780855D01*
X-11399537Y-2780855D01*
X-10655654Y-2780855D01*
X-10655667Y1697684D01*
X-10655667Y1806825D01*
X-10655668Y1914690D01*
X-10655669Y2021274D01*
X-10655670Y2126578D01*
X-10655671Y2230597D01*
X-10655673Y2333329D01*
X-10655674Y2434772D01*
X-10655676Y2534924D01*
X-10655679Y2633782D01*
X-10655681Y2731343D01*
X-10655684Y2827606D01*
X-10655687Y2922567D01*
X-10655690Y3016225D01*
X-10655694Y3108576D01*
X-10655697Y3199619D01*
X-10655701Y3289350D01*
X-10655705Y3377768D01*
X-10655710Y3464870D01*
X-10655714Y3550654D01*
X-10655719Y3635117D01*
X-10655724Y3718256D01*
X-10655729Y3800070D01*
X-10655735Y3880556D01*
X-10655740Y3959710D01*
X-10655746Y4037532D01*
X-10655752Y4114018D01*
X-10655759Y4189167D01*
X-10655765Y4262974D01*
X-10655772Y4335439D01*
X-10655779Y4406559D01*
X-10655786Y4476331D01*
X-10655794Y4544752D01*
X-10655802Y4611821D01*
X-10655810Y4677535D01*
X-10655818Y4741891D01*
X-10655826Y4804888D01*
X-10655835Y4866521D01*
X-10655843Y4926790D01*
X-10655852Y4985692D01*
X-10655862Y5043223D01*
X-10655871Y5099383D01*
X-10655881Y5154168D01*
X-10655891Y5207575D01*
X-10655901Y5259603D01*
X-10655911Y5310250D01*
X-10655922Y5359511D01*
X-10655932Y5407386D01*
X-10655943Y5453871D01*
X-10655954Y5498965D01*
X-10655966Y5542664D01*
X-10655977Y5584966D01*
X-10655989Y5625870D01*
X-10656001Y5665372D01*
X-10656014Y5703469D01*
X-10656026Y5740161D01*
X-10656039Y5775443D01*
X-10656052Y5809314D01*
X-10656065Y5841771D01*
X-10656078Y5872812D01*
X-10656091Y5902434D01*
X-10656105Y5930635D01*
X-10656119Y5957413D01*
X-10656133Y5982764D01*
X-10656148Y6006687D01*
X-10656162Y6029179D01*
X-10656177Y6050237D01*
X-10656192Y6069860D01*
X-10656207Y6088044D01*
X-10656222Y6104788D01*
X-10656238Y6120088D01*
X-10656254Y6133943D01*
X-10656270Y6146350D01*
X-10656286Y6157306D01*
X-10656302Y6166809D01*
X-10656319Y6174857D01*
X-10656336Y6181447D01*
X-10656353Y6186577D01*
X-10656370Y6190244D01*
X-10656388Y6192446D01*
X-10656400Y6193121D01*
X-10657840Y6213549D01*
X-10660403Y6233147D01*
X-10664131Y6252081D01*
X-10669066Y6270517D01*
X-10675247Y6288618D01*
X-10682717Y6306550D01*
X-10687052Y6315716D01*
X-10690938Y6323452D01*
X-10694556Y6330261D01*
X-10698163Y6336590D01*
X-10702017Y6342883D01*
X-10706374Y6349588D01*
X-10707995Y6352009D01*
X-10720234Y6368873D01*
X-10733594Y6384818D01*
X-10748009Y6399792D01*
X-10763413Y6413742D01*
X-10779739Y6426615D01*
X-10796922Y6438359D01*
X-10814895Y6448921D01*
X-10833593Y6458249D01*
X-10850349Y6465301D01*
X-10867374Y6471318D01*
X-10884409Y6476202D01*
X-10901710Y6480006D01*
X-10919530Y6482781D01*
X-10938123Y6484577D01*
X-10948431Y6485153D01*
X-10950343Y6485202D01*
X-10953674Y6485250D01*
X-10958372Y6485297D01*
X-10964390Y6485341D01*
X-10971674Y6485384D01*
X-10980176Y6485425D01*
X-10989846Y6485464D01*
X-11000631Y6485502D01*
X-11012484Y6485538D01*
X-11025352Y6485572D01*
X-11039186Y6485604D01*
X-11053935Y6485635D01*
X-11069549Y6485663D01*
X-11085977Y6485690D01*
X-11103170Y6485716D01*
X-11121076Y6485739D01*
X-11139646Y6485761D01*
X-11158829Y6485782D01*
X-11178575Y6485800D01*
X-11198834Y6485817D01*
X-11219554Y6485832D01*
X-11240686Y6485845D01*
X-11262180Y6485856D01*
X-11283985Y6485866D01*
X-11306050Y6485874D01*
X-11328325Y6485880D01*
X-11350761Y6485885D01*
X-11373306Y6485888D01*
X-11395910Y6485889D01*
X-11418523Y6485888D01*
X-11441095Y6485886D01*
X-11463575Y6485881D01*
X-11485912Y6485876D01*
X-11508058Y6485868D01*
X-11529960Y6485859D01*
X-11551569Y6485848D01*
X-11572834Y6485835D01*
X-11593706Y6485820D01*
X-11614133Y6485804D01*
X-11634066Y6485786D01*
X-11653453Y6485766D01*
X-11672245Y6485745D01*
X-11690392Y6485722D01*
X-11707842Y6485697D01*
X-11724546Y6485670D01*
X-11740453Y6485642D01*
X-11755513Y6485612D01*
X-11769676Y6485580D01*
X-11782890Y6485546D01*
X-11795107Y6485511D01*
X-11806275Y6485474D01*
X-11816344Y6485435D01*
X-11825264Y6485395D01*
X-11832984Y6485352D01*
X-11839454Y6485309D01*
X-11844624Y6485263D01*
X-11848443Y6485215D01*
X-11850861Y6485166D01*
X-11851376Y6485148D01*
X-11864754Y6484379D01*
X-11877085Y6483239D01*
X-11888755Y6481675D01*
X-11900152Y6479634D01*
X-11911662Y6477062D01*
X-11914193Y6476433D01*
X-11934520Y6470557D01*
X-11954220Y6463375D01*
X-11973241Y6454930D01*
X-11991535Y6445266D01*
X-12009052Y6434426D01*
X-12025744Y6422454D01*
X-12041559Y6409394D01*
X-12056450Y6395288D01*
X-12070365Y6380180D01*
X-12083258Y6364114D01*
X-12095076Y6347133D01*
X-12105772Y6329280D01*
X-12115296Y6310599D01*
X-12122854Y6293040D01*
X-12127255Y6281204D01*
X-12131067Y6269442D01*
X-12134373Y6257426D01*
X-12137257Y6244831D01*
X-12139806Y6231329D01*
X-12141398Y6221407D01*
X-12143001Y6210754D01*
X-12143211Y1714950D01*
X-12143420Y-2780855D01*
X-12271909Y-2780855D01*
X-12271910Y-2766182D01*
X-12271915Y-2713405D01*
X-12271919Y-2659591D01*
X-12271922Y-2604732D01*
X-12271926Y-2548816D01*
X-12271930Y-2491835D01*
X-12271933Y-2433779D01*
X-12271937Y-2374638D01*
X-12271940Y-2314403D01*
X-12271943Y-2253064D01*
X-12271946Y-2190610D01*
X-12271949Y-2127034D01*
X-12271952Y-2062324D01*
X-12271954Y-1996472D01*
X-12271957Y-1929468D01*
X-12271959Y-1861301D01*
X-12271961Y-1791963D01*
X-12271964Y-1721444D01*
X-12271966Y-1649733D01*
X-12271968Y-1576822D01*
X-12271970Y-1502701D01*
X-12271972Y-1427360D01*
X-12271973Y-1350790D01*
X-12271975Y-1272980D01*
X-12271976Y-1193921D01*
X-12271978Y-1113604D01*
X-12271979Y-1032019D01*
X-12271980Y-949156D01*
X-12271982Y-865005D01*
X-12271983Y-779558D01*
X-12271984Y-692804D01*
X-12271985Y-604733D01*
X-12271986Y-515336D01*
X-12271986Y-424604D01*
X-12271987Y-332526D01*
X-12271988Y-239094D01*
X-12271988Y-144296D01*
X-12271989Y-48125D01*
X-12271989Y49431D01*
X-12271990Y148380D01*
X-12271990Y248732D01*
X-12271990Y350497D01*
X-12271991Y453685D01*
X-12271991Y558305D01*
X-12271991Y664367D01*
X-12271991Y771880D01*
X-12271991Y865087D01*
X-12271991Y973851D01*
X-12271991Y1081155D01*
X-12271991Y1187008D01*
X-12271991Y1291422D01*
X-12271990Y1394404D01*
X-12271990Y1495966D01*
X-12271990Y1596115D01*
X-12271989Y1694864D01*
X-12271989Y1792219D01*
X-12271988Y1888193D01*
X-12271988Y1982793D01*
X-12271987Y2076030D01*
X-12271986Y2167914D01*
X-12271985Y2258453D01*
X-12271985Y2347659D01*
X-12271984Y2435539D01*
X-12271983Y2522105D01*
X-12271981Y2607365D01*
X-12271980Y2691330D01*
X-12271979Y2774008D01*
X-12271978Y2855411D01*
X-12271976Y2935546D01*
X-12271975Y3014424D01*
X-12271973Y3092055D01*
X-12271971Y3168448D01*
X-12271969Y3243613D01*
X-12271968Y3317560D01*
X-12271965Y3390297D01*
X-12271963Y3461836D01*
X-12271961Y3532185D01*
X-12271959Y3601354D01*
X-12271956Y3669353D01*
X-12271954Y3736191D01*
X-12271951Y3801878D01*
X-12271948Y3866424D01*
X-12271945Y3929838D01*
X-12271942Y3992130D01*
X-12271939Y4053310D01*
X-12271936Y4113388D01*
X-12271933Y4172372D01*
X-12271929Y4230273D01*
X-12271926Y4287100D01*
X-12271922Y4342863D01*
X-12271918Y4397571D01*
X-12271914Y4451235D01*
X-12271910Y4503864D01*
X-12271906Y4555467D01*
X-12271901Y4606054D01*
X-12271897Y4655635D01*
X-12271892Y4704220D01*
X-12271887Y4751818D01*
X-12271882Y4798438D01*
X-12271877Y4844091D01*
X-12271872Y4888786D01*
X-12271866Y4932532D01*
X-12271860Y4975340D01*
X-12271855Y5017219D01*
X-12271849Y5058179D01*
X-12271843Y5098229D01*
X-12271836Y5137379D01*
X-12271830Y5175638D01*
X-12271823Y5213017D01*
X-12271817Y5249525D01*
X-12271810Y5285171D01*
X-12271803Y5319966D01*
X-12271795Y5353918D01*
X-12271788Y5387038D01*
X-12271780Y5419335D01*
X-12271773Y5450819D01*
X-12271765Y5481499D01*
X-12271756Y5511386D01*
X-12271748Y5540488D01*
X-12271740Y5568815D01*
X-12271731Y5596378D01*
X-12271722Y5623185D01*
X-12271713Y5649247D01*
X-12271704Y5674573D01*
X-12271694Y5699172D01*
X-12271684Y5723055D01*
X-12271674Y5746231D01*
X-12271664Y5768709D01*
X-12271654Y5790499D01*
X-12271644Y5811612D01*
X-12271633Y5832056D01*
X-12271622Y5851841D01*
X-12271611Y5870977D01*
X-12271599Y5889474D01*
X-12271588Y5907341D01*
X-12271576Y5924588D01*
X-12271564Y5941224D01*
X-12271552Y5957259D01*
X-12271539Y5972703D01*
X-12271527Y5987565D01*
X-12271514Y6001856D01*
X-12271501Y6015584D01*
X-12271487Y6028759D01*
X-12271474Y6041392D01*
X-12271460Y6053491D01*
X-12271446Y6065067D01*
X-12271431Y6076128D01*
X-12271417Y6086685D01*
X-12271402Y6096748D01*
X-12271387Y6106325D01*
X-12271371Y6115427D01*
X-12271356Y6124063D01*
X-12271340Y6132243D01*
X-12271324Y6139976D01*
X-12271308Y6147273D01*
X-12271291Y6154143D01*
X-12271274Y6160595D01*
X-12271257Y6166639D01*
X-12271240Y6172284D01*
X-12271222Y6177542D01*
X-12271204Y6182420D01*
X-12271186Y6186929D01*
X-12271168Y6191078D01*
X-12271149Y6194878D01*
X-12271130Y6198337D01*
X-12271111Y6201465D01*
X-12271091Y6204273D01*
X-12271071Y6206769D01*
X-12271051Y6208963D01*
X-12271031Y6210865D01*
X-12271010Y6212485D01*
X-12270989Y6213832D01*
X-12270968Y6214916D01*
X-12270946Y6215746D01*
X-12270924Y6216333D01*
X-12270905Y6216649D01*
X-12268099Y6242071D01*
X-12263900Y6267033D01*
X-12258311Y6291522D01*
X-12251336Y6315529D01*
X-12242978Y6339043D01*
X-12233242Y6362054D01*
X-12222131Y6384550D01*
X-12209648Y6406521D01*
X-12203527Y6416322D01*
X-12190199Y6435772D01*
X-12175603Y6454656D01*
X-12159862Y6472848D01*
X-12143103Y6490225D01*
X-12125450Y6506663D01*
X-12107026Y6522038D01*
X-12087958Y6536226D01*
X-12072888Y6546281D01*
X-12050969Y6559337D01*
X-12028556Y6571013D01*
X-12005666Y6581304D01*
X-11982312Y6590205D01*
X-11958511Y6597709D01*
X-11934277Y6603812D01*
X-11909625Y6608508D01*
X-11893989Y6610729D01*
X-11892178Y6610955D01*
X-11890473Y6611172D01*
X-11888837Y6611378D01*
X-11887235Y6611574D01*
X-11885631Y6611760D01*
X-11883990Y6611938D01*
X-11882277Y6612106D01*
X-11880456Y6612265D01*
X-11878492Y6612415D01*
X-11876349Y6612557D01*
X-11873991Y6612691D01*
X-11871384Y6612817D01*
X-11868492Y6612935D01*
X-11865280Y6613046D01*
X-11861712Y6613150D01*
X-11857752Y6613246D01*
X-11853366Y6613336D01*
X-11848517Y6613420D01*
X-11843171Y6613497D01*
X-11837291Y6613568D01*
X-11830843Y6613633D01*
X-11823792Y6613693D01*
X-11816100Y6613748D01*
X-11807734Y6613797D01*
X-11798658Y6613842D01*
X-11788836Y6613882D01*
X-11778233Y6613918D01*
X-11766814Y6613950D01*
X-11754543Y6613978D01*
X-11741384Y6614003D01*
X-11727302Y6614024D01*
X-11712262Y6614042D01*
X-11696229Y6614057D01*
X-11679166Y6614069D01*
X-11661039Y6614079D01*
X-11641811Y6614087D01*
X-11621449Y6614094D01*
X-11599915Y6614098D01*
X-11577175Y6614101D01*
X-11553194Y6614103D01*
X-11527935Y6614104D01*
X-11501364Y6614104D01*
X-11473444Y6614104D01*
X-11444142Y6614104D01*
X-11413420Y6614104D01*
X-11399904Y6614104D01*
X-11368567Y6614104D01*
X-11338665Y6614104D01*
X-11310161Y6614104D01*
X-11283020Y6614104D01*
X-11257207Y6614104D01*
X-11232686Y6614102D01*
G37*
D10*
%TO.C,D3*%
X-2720000Y-5370000D02*
X-2620000Y-5270000D01*
X-2720000Y-5400000D02*
X-2720000Y-5370000D01*
X-2720000Y-5880000D02*
X-2720000Y-5400000D01*
X-2700000Y-6660000D02*
X-2700000Y-6130000D01*
X-2630000Y-6730000D02*
X-2700000Y-6660000D01*
X-2620000Y-5270000D02*
X-1880000Y-5270000D01*
X-2610000Y-5090000D02*
X-1850000Y-5090000D01*
X-2520000Y-6730000D02*
X-2630000Y-6730000D01*
X-1880000Y-5270000D02*
X-1770000Y-5270000D01*
X-1790000Y-6910000D02*
X-2550000Y-6910000D01*
X-1780000Y-6730000D02*
X-2520000Y-6730000D01*
X-1770000Y-5270000D02*
X-1700000Y-5340000D01*
X-1700000Y-5340000D02*
X-1700000Y-5870000D01*
X-1680000Y-6120000D02*
X-1680000Y-6600000D01*
X-1680000Y-6600000D02*
X-1680000Y-6630000D01*
X-1680000Y-6630000D02*
X-1780000Y-6730000D01*
D11*
%TO.C,MH3*%
X9513920Y-6538170D02*
X9547507Y-6542040D01*
X9610942Y-6556533D01*
X9670724Y-6577909D01*
X9726502Y-6605930D01*
X9777928Y-6640355D01*
X9824650Y-6680946D01*
X9866318Y-6727463D01*
X9902583Y-6779668D01*
X9907537Y-6787978D01*
X9933832Y-6840693D01*
X9953542Y-6896925D01*
X9966561Y-6955607D01*
X9972782Y-7015670D01*
X9972098Y-7076044D01*
X9964403Y-7135662D01*
X9949591Y-7193456D01*
X9948329Y-7197273D01*
X9925415Y-7253331D01*
X9895615Y-7306281D01*
X9859600Y-7355436D01*
X9818037Y-7400110D01*
X9771594Y-7439617D01*
X9720941Y-7473270D01*
X9666745Y-7500383D01*
X9644736Y-7509057D01*
X9630447Y-7513607D01*
X9610225Y-7519138D01*
X9585941Y-7525185D01*
X9559465Y-7531282D01*
X9532671Y-7536963D01*
X9532232Y-7537051D01*
X9432503Y-7558678D01*
X9338735Y-7582269D01*
X9249080Y-7608385D01*
X9161685Y-7637586D01*
X9074702Y-7670432D01*
X9027005Y-7689984D01*
X8992497Y-7703664D01*
X8963665Y-7713040D01*
X8939548Y-7718165D01*
X8919190Y-7719093D01*
X8901631Y-7715878D01*
X8885911Y-7708573D01*
X8872631Y-7698622D01*
X8863366Y-7689672D01*
X8855700Y-7679962D01*
X8848964Y-7668106D01*
X8842488Y-7652714D01*
X8835601Y-7632401D01*
X8827634Y-7605778D01*
X8827378Y-7604892D01*
X8809694Y-7548101D01*
X8790649Y-7496370D01*
X8769122Y-7446827D01*
X8752928Y-7413766D01*
X8710190Y-7338632D01*
X8660666Y-7267054D01*
X8604986Y-7199758D01*
X8543782Y-7137473D01*
X8477685Y-7080926D01*
X8440364Y-7053164D01*
X8411566Y-7031231D01*
X8389815Y-7010897D01*
X8374570Y-6991436D01*
X8365290Y-6972119D01*
X8361431Y-6952222D01*
X8361250Y-6947057D01*
X8363138Y-6928506D01*
X8369471Y-6911772D01*
X8380908Y-6896147D01*
X8398107Y-6880922D01*
X8421729Y-6865387D01*
X8452432Y-6848836D01*
X8452743Y-6848679D01*
X8574332Y-6791282D01*
X8701980Y-6737855D01*
X8834690Y-6688736D01*
X8971466Y-6644262D01*
X9111310Y-6604771D01*
X9253224Y-6570599D01*
X9311864Y-6558186D01*
X9371341Y-6547379D01*
X9424475Y-6540466D01*
X9471817Y-6537409D01*
X9513920Y-6538170D01*
G36*
X9513920Y-6538170D02*
G01*
X9547507Y-6542040D01*
X9610942Y-6556533D01*
X9670724Y-6577909D01*
X9726502Y-6605930D01*
X9777928Y-6640355D01*
X9824650Y-6680946D01*
X9866318Y-6727463D01*
X9902583Y-6779668D01*
X9907537Y-6787978D01*
X9933832Y-6840693D01*
X9953542Y-6896925D01*
X9966561Y-6955607D01*
X9972782Y-7015670D01*
X9972098Y-7076044D01*
X9964403Y-7135662D01*
X9949591Y-7193456D01*
X9948329Y-7197273D01*
X9925415Y-7253331D01*
X9895615Y-7306281D01*
X9859600Y-7355436D01*
X9818037Y-7400110D01*
X9771594Y-7439617D01*
X9720941Y-7473270D01*
X9666745Y-7500383D01*
X9644736Y-7509057D01*
X9630447Y-7513607D01*
X9610225Y-7519138D01*
X9585941Y-7525185D01*
X9559465Y-7531282D01*
X9532671Y-7536963D01*
X9532232Y-7537051D01*
X9432503Y-7558678D01*
X9338735Y-7582269D01*
X9249080Y-7608385D01*
X9161685Y-7637586D01*
X9074702Y-7670432D01*
X9027005Y-7689984D01*
X8992497Y-7703664D01*
X8963665Y-7713040D01*
X8939548Y-7718165D01*
X8919190Y-7719093D01*
X8901631Y-7715878D01*
X8885911Y-7708573D01*
X8872631Y-7698622D01*
X8863366Y-7689672D01*
X8855700Y-7679962D01*
X8848964Y-7668106D01*
X8842488Y-7652714D01*
X8835601Y-7632401D01*
X8827634Y-7605778D01*
X8827378Y-7604892D01*
X8809694Y-7548101D01*
X8790649Y-7496370D01*
X8769122Y-7446827D01*
X8752928Y-7413766D01*
X8710190Y-7338632D01*
X8660666Y-7267054D01*
X8604986Y-7199758D01*
X8543782Y-7137473D01*
X8477685Y-7080926D01*
X8440364Y-7053164D01*
X8411566Y-7031231D01*
X8389815Y-7010897D01*
X8374570Y-6991436D01*
X8365290Y-6972119D01*
X8361431Y-6952222D01*
X8361250Y-6947057D01*
X8363138Y-6928506D01*
X8369471Y-6911772D01*
X8380908Y-6896147D01*
X8398107Y-6880922D01*
X8421729Y-6865387D01*
X8452432Y-6848836D01*
X8452743Y-6848679D01*
X8574332Y-6791282D01*
X8701980Y-6737855D01*
X8834690Y-6688736D01*
X8971466Y-6644262D01*
X9111310Y-6604771D01*
X9253224Y-6570599D01*
X9311864Y-6558186D01*
X9371341Y-6547379D01*
X9424475Y-6540466D01*
X9471817Y-6537409D01*
X9513920Y-6538170D01*
G37*
X6955018Y-8351673D02*
X6969259Y-8355628D01*
X6988971Y-8366482D01*
X7009218Y-8384803D01*
X7029563Y-8410183D01*
X7032864Y-8414969D01*
X7086938Y-8488201D01*
X7146142Y-8555669D01*
X7210183Y-8617131D01*
X7278769Y-8672347D01*
X7351605Y-8721073D01*
X7428401Y-8763068D01*
X7484951Y-8788576D01*
X7516142Y-8800921D01*
X7547535Y-8812141D01*
X7581156Y-8822891D01*
X7619033Y-8833828D01*
X7651971Y-8842684D01*
X7670214Y-8847996D01*
X7683262Y-8853411D01*
X7693763Y-8860250D01*
X7702184Y-8867703D01*
X7715623Y-8883266D01*
X7723702Y-8899653D01*
X7726465Y-8917964D01*
X7723957Y-8939296D01*
X7716222Y-8964748D01*
X7707027Y-8987179D01*
X7657583Y-9107698D01*
X7614301Y-9231987D01*
X7577001Y-9360629D01*
X7545501Y-9494206D01*
X7539217Y-9524887D01*
X7532116Y-9559570D01*
X7525804Y-9587951D01*
X7519832Y-9611570D01*
X7513755Y-9631964D01*
X7507126Y-9650673D01*
X7499496Y-9669235D01*
X7493272Y-9683073D01*
X7464533Y-9736054D01*
X7429388Y-9785121D01*
X7388566Y-9829705D01*
X7342795Y-9869233D01*
X7292803Y-9903134D01*
X7239319Y-9930837D01*
X7183072Y-9951771D01*
X7135752Y-9963418D01*
X7072993Y-9971542D01*
X7011364Y-9972079D01*
X6951349Y-9965355D01*
X6893433Y-9951696D01*
X6838104Y-9931426D01*
X6785845Y-9904871D01*
X6737142Y-9872355D01*
X6692481Y-9834205D01*
X6652346Y-9790745D01*
X6617225Y-9742300D01*
X6587601Y-9689196D01*
X6563960Y-9631758D01*
X6546788Y-9570311D01*
X6546419Y-9568601D01*
X6543237Y-9550919D01*
X6541113Y-9531677D01*
X6539916Y-9508978D01*
X6539514Y-9480930D01*
X6539537Y-9469382D01*
X6539914Y-9447697D01*
X6540918Y-9426734D01*
X6542711Y-9405491D01*
X6545454Y-9382963D01*
X6549309Y-9358146D01*
X6554438Y-9330036D01*
X6561001Y-9297629D01*
X6569161Y-9259922D01*
X6579080Y-9215909D01*
X6583298Y-9197523D01*
X6611811Y-9084110D01*
X6645606Y-8967931D01*
X6684017Y-8850843D01*
X6726377Y-8734702D01*
X6772019Y-8621365D01*
X6820278Y-8512689D01*
X6854688Y-8441520D01*
X6869173Y-8413993D01*
X6881967Y-8392962D01*
X6893881Y-8377390D01*
X6905723Y-8366238D01*
X6918303Y-8358469D01*
X6920160Y-8357596D01*
X6938194Y-8351621D01*
X6955018Y-8351673D01*
G36*
X6955018Y-8351673D02*
G01*
X6969259Y-8355628D01*
X6988971Y-8366482D01*
X7009218Y-8384803D01*
X7029563Y-8410183D01*
X7032864Y-8414969D01*
X7086938Y-8488201D01*
X7146142Y-8555669D01*
X7210183Y-8617131D01*
X7278769Y-8672347D01*
X7351605Y-8721073D01*
X7428401Y-8763068D01*
X7484951Y-8788576D01*
X7516142Y-8800921D01*
X7547535Y-8812141D01*
X7581156Y-8822891D01*
X7619033Y-8833828D01*
X7651971Y-8842684D01*
X7670214Y-8847996D01*
X7683262Y-8853411D01*
X7693763Y-8860250D01*
X7702184Y-8867703D01*
X7715623Y-8883266D01*
X7723702Y-8899653D01*
X7726465Y-8917964D01*
X7723957Y-8939296D01*
X7716222Y-8964748D01*
X7707027Y-8987179D01*
X7657583Y-9107698D01*
X7614301Y-9231987D01*
X7577001Y-9360629D01*
X7545501Y-9494206D01*
X7539217Y-9524887D01*
X7532116Y-9559570D01*
X7525804Y-9587951D01*
X7519832Y-9611570D01*
X7513755Y-9631964D01*
X7507126Y-9650673D01*
X7499496Y-9669235D01*
X7493272Y-9683073D01*
X7464533Y-9736054D01*
X7429388Y-9785121D01*
X7388566Y-9829705D01*
X7342795Y-9869233D01*
X7292803Y-9903134D01*
X7239319Y-9930837D01*
X7183072Y-9951771D01*
X7135752Y-9963418D01*
X7072993Y-9971542D01*
X7011364Y-9972079D01*
X6951349Y-9965355D01*
X6893433Y-9951696D01*
X6838104Y-9931426D01*
X6785845Y-9904871D01*
X6737142Y-9872355D01*
X6692481Y-9834205D01*
X6652346Y-9790745D01*
X6617225Y-9742300D01*
X6587601Y-9689196D01*
X6563960Y-9631758D01*
X6546788Y-9570311D01*
X6546419Y-9568601D01*
X6543237Y-9550919D01*
X6541113Y-9531677D01*
X6539916Y-9508978D01*
X6539514Y-9480930D01*
X6539537Y-9469382D01*
X6539914Y-9447697D01*
X6540918Y-9426734D01*
X6542711Y-9405491D01*
X6545454Y-9382963D01*
X6549309Y-9358146D01*
X6554438Y-9330036D01*
X6561001Y-9297629D01*
X6569161Y-9259922D01*
X6579080Y-9215909D01*
X6583298Y-9197523D01*
X6611811Y-9084110D01*
X6645606Y-8967931D01*
X6684017Y-8850843D01*
X6726377Y-8734702D01*
X6772019Y-8621365D01*
X6820278Y-8512689D01*
X6854688Y-8441520D01*
X6869173Y-8413993D01*
X6881967Y-8392962D01*
X6893881Y-8377390D01*
X6905723Y-8366238D01*
X6918303Y-8358469D01*
X6920160Y-8357596D01*
X6938194Y-8351621D01*
X6955018Y-8351673D01*
G37*
X8173913Y-7497820D02*
X8187437Y-7503224D01*
X8210652Y-7518879D01*
X8227874Y-7539503D01*
X8237933Y-7562126D01*
X8242314Y-7579823D01*
X8243348Y-7594838D01*
X8241009Y-7610844D01*
X8237471Y-7624185D01*
X8235599Y-7629927D01*
X8233123Y-7635561D01*
X8229495Y-7641713D01*
X8224164Y-7649007D01*
X8216580Y-7658067D01*
X8206195Y-7669517D01*
X8192456Y-7683982D01*
X8174816Y-7702086D01*
X8152724Y-7724453D01*
X8125630Y-7751707D01*
X8121480Y-7755874D01*
X8011789Y-7866007D01*
X8121480Y-7976140D01*
X8149305Y-8004116D01*
X8172053Y-8027118D01*
X8190273Y-8045771D01*
X8204516Y-8060700D01*
X8215330Y-8072528D01*
X8223266Y-8081879D01*
X8228875Y-8089379D01*
X8232705Y-8095651D01*
X8235306Y-8101320D01*
X8237229Y-8107010D01*
X8237471Y-8107829D01*
X8242124Y-8126610D01*
X8243383Y-8141901D01*
X8241278Y-8157373D01*
X8237933Y-8169888D01*
X8226692Y-8194545D01*
X8209602Y-8214425D01*
X8187607Y-8228856D01*
X8161652Y-8237166D01*
X8140798Y-8238982D01*
X8129644Y-8238748D01*
X8119682Y-8237797D01*
X8110230Y-8235633D01*
X8100607Y-8231761D01*
X8090132Y-8225687D01*
X8078124Y-8216914D01*
X8063903Y-8204948D01*
X8046786Y-8189294D01*
X8026095Y-8169456D01*
X8001146Y-8144940D01*
X7972974Y-8116956D01*
X7866673Y-8011127D01*
X7758559Y-8118789D01*
X7725807Y-8151189D01*
X7698278Y-8177947D01*
X7675790Y-8199233D01*
X7658158Y-8215216D01*
X7645200Y-8226067D01*
X7636730Y-8231953D01*
X7635077Y-8232760D01*
X7611156Y-8238627D01*
X7585114Y-8238409D01*
X7559340Y-8232552D01*
X7536224Y-8221501D01*
X7524073Y-8212046D01*
X7508280Y-8191856D01*
X7498230Y-8167562D01*
X7494320Y-8140924D01*
X7496944Y-8113706D01*
X7499701Y-8103689D01*
X7501893Y-8097802D01*
X7504868Y-8091812D01*
X7509183Y-8085087D01*
X7515397Y-8076996D01*
X7524068Y-8066906D01*
X7535754Y-8054186D01*
X7551014Y-8038203D01*
X7570404Y-8018325D01*
X7594483Y-7993921D01*
X7614080Y-7974157D01*
X7721433Y-7866011D01*
X7616232Y-7759845D01*
X7588145Y-7731277D01*
X7563269Y-7705522D01*
X7542058Y-7683075D01*
X7524971Y-7664428D01*
X7512464Y-7650076D01*
X7504993Y-7640513D01*
X7503347Y-7637804D01*
X7497707Y-7619653D01*
X7495447Y-7597647D01*
X7496528Y-7574938D01*
X7500911Y-7554679D01*
X7504489Y-7546147D01*
X7518143Y-7526917D01*
X7536514Y-7510139D01*
X7555827Y-7498889D01*
X7571697Y-7494821D01*
X7591689Y-7493195D01*
X7612373Y-7494004D01*
X7630321Y-7497238D01*
X7635689Y-7499093D01*
X7643205Y-7504005D01*
X7656014Y-7514648D01*
X7674015Y-7530930D01*
X7697108Y-7552756D01*
X7725192Y-7580035D01*
X7758167Y-7612673D01*
X7758559Y-7613064D01*
X7866673Y-7720887D01*
X7972974Y-7615058D01*
X8004238Y-7584116D01*
X8030431Y-7558609D01*
X8051925Y-7538195D01*
X8069093Y-7522533D01*
X8082307Y-7511280D01*
X8091939Y-7504096D01*
X8097031Y-7501173D01*
X8121344Y-7494104D01*
X8147931Y-7493008D01*
X8173913Y-7497820D01*
G36*
X8173913Y-7497820D02*
G01*
X8187437Y-7503224D01*
X8210652Y-7518879D01*
X8227874Y-7539503D01*
X8237933Y-7562126D01*
X8242314Y-7579823D01*
X8243348Y-7594838D01*
X8241009Y-7610844D01*
X8237471Y-7624185D01*
X8235599Y-7629927D01*
X8233123Y-7635561D01*
X8229495Y-7641713D01*
X8224164Y-7649007D01*
X8216580Y-7658067D01*
X8206195Y-7669517D01*
X8192456Y-7683982D01*
X8174816Y-7702086D01*
X8152724Y-7724453D01*
X8125630Y-7751707D01*
X8121480Y-7755874D01*
X8011789Y-7866007D01*
X8121480Y-7976140D01*
X8149305Y-8004116D01*
X8172053Y-8027118D01*
X8190273Y-8045771D01*
X8204516Y-8060700D01*
X8215330Y-8072528D01*
X8223266Y-8081879D01*
X8228875Y-8089379D01*
X8232705Y-8095651D01*
X8235306Y-8101320D01*
X8237229Y-8107010D01*
X8237471Y-8107829D01*
X8242124Y-8126610D01*
X8243383Y-8141901D01*
X8241278Y-8157373D01*
X8237933Y-8169888D01*
X8226692Y-8194545D01*
X8209602Y-8214425D01*
X8187607Y-8228856D01*
X8161652Y-8237166D01*
X8140798Y-8238982D01*
X8129644Y-8238748D01*
X8119682Y-8237797D01*
X8110230Y-8235633D01*
X8100607Y-8231761D01*
X8090132Y-8225687D01*
X8078124Y-8216914D01*
X8063903Y-8204948D01*
X8046786Y-8189294D01*
X8026095Y-8169456D01*
X8001146Y-8144940D01*
X7972974Y-8116956D01*
X7866673Y-8011127D01*
X7758559Y-8118789D01*
X7725807Y-8151189D01*
X7698278Y-8177947D01*
X7675790Y-8199233D01*
X7658158Y-8215216D01*
X7645200Y-8226067D01*
X7636730Y-8231953D01*
X7635077Y-8232760D01*
X7611156Y-8238627D01*
X7585114Y-8238409D01*
X7559340Y-8232552D01*
X7536224Y-8221501D01*
X7524073Y-8212046D01*
X7508280Y-8191856D01*
X7498230Y-8167562D01*
X7494320Y-8140924D01*
X7496944Y-8113706D01*
X7499701Y-8103689D01*
X7501893Y-8097802D01*
X7504868Y-8091812D01*
X7509183Y-8085087D01*
X7515397Y-8076996D01*
X7524068Y-8066906D01*
X7535754Y-8054186D01*
X7551014Y-8038203D01*
X7570404Y-8018325D01*
X7594483Y-7993921D01*
X7614080Y-7974157D01*
X7721433Y-7866011D01*
X7616232Y-7759845D01*
X7588145Y-7731277D01*
X7563269Y-7705522D01*
X7542058Y-7683075D01*
X7524971Y-7664428D01*
X7512464Y-7650076D01*
X7504993Y-7640513D01*
X7503347Y-7637804D01*
X7497707Y-7619653D01*
X7495447Y-7597647D01*
X7496528Y-7574938D01*
X7500911Y-7554679D01*
X7504489Y-7546147D01*
X7518143Y-7526917D01*
X7536514Y-7510139D01*
X7555827Y-7498889D01*
X7571697Y-7494821D01*
X7591689Y-7493195D01*
X7612373Y-7494004D01*
X7630321Y-7497238D01*
X7635689Y-7499093D01*
X7643205Y-7504005D01*
X7656014Y-7514648D01*
X7674015Y-7530930D01*
X7697108Y-7552756D01*
X7725192Y-7580035D01*
X7758167Y-7612673D01*
X7758559Y-7613064D01*
X7866673Y-7720887D01*
X7972974Y-7615058D01*
X8004238Y-7584116D01*
X8030431Y-7558609D01*
X8051925Y-7538195D01*
X8069093Y-7522533D01*
X8082307Y-7511280D01*
X8091939Y-7504096D01*
X8097031Y-7501173D01*
X8121344Y-7494104D01*
X8147931Y-7493008D01*
X8173913Y-7497820D01*
G37*
D10*
%TO.C,D6*%
X-300000Y-5575000D02*
X-300000Y-6225000D01*
X250000Y-5900000D02*
X-300000Y-5575000D01*
X250000Y-5900000D02*
X-300000Y-6225000D01*
X300000Y-5575000D02*
X300000Y-6225000D01*
D13*
X1212500Y-6425000D02*
G75*
G02*
X1137500Y-6425000I-37500J0D01*
G01*
X1137500Y-6425000D02*
G75*
G02*
X1212500Y-6425000I37500J0D01*
G01*
D12*
%TO.C,R6*%
X6677500Y5637258D02*
X6677500Y5162742D01*
X7722500Y5637258D02*
X7722500Y5162742D01*
D10*
%TO.C,D4*%
X-2720000Y6630000D02*
X-2620000Y6730000D01*
X-2720000Y6600000D02*
X-2720000Y6630000D01*
X-2720000Y6120000D02*
X-2720000Y6600000D01*
X-2700000Y5340000D02*
X-2700000Y5870000D01*
X-2630000Y5270000D02*
X-2700000Y5340000D01*
X-2620000Y6730000D02*
X-1880000Y6730000D01*
X-2610000Y6910000D02*
X-1850000Y6910000D01*
X-2520000Y5270000D02*
X-2630000Y5270000D01*
X-1880000Y6730000D02*
X-1770000Y6730000D01*
X-1790000Y5090000D02*
X-2550000Y5090000D01*
X-1780000Y5270000D02*
X-2520000Y5270000D01*
X-1770000Y6730000D02*
X-1700000Y6660000D01*
X-1700000Y6660000D02*
X-1700000Y6130000D01*
X-1680000Y5880000D02*
X-1680000Y5400000D01*
X-1680000Y5400000D02*
X-1680000Y5370000D01*
X-1680000Y5370000D02*
X-1780000Y5270000D01*
D12*
%TO.C,R4*%
X9362742Y-4677500D02*
X9837258Y-4677500D01*
X9362742Y-5722500D02*
X9837258Y-5722500D01*
D10*
%TO.C,D5*%
X1680000Y6630000D02*
X1780000Y6730000D01*
X1680000Y6600000D02*
X1680000Y6630000D01*
X1680000Y6120000D02*
X1680000Y6600000D01*
X1700000Y5340000D02*
X1700000Y5870000D01*
X1770000Y5270000D02*
X1700000Y5340000D01*
X1780000Y6730000D02*
X2520000Y6730000D01*
X1790000Y6910000D02*
X2550000Y6910000D01*
X1880000Y5270000D02*
X1770000Y5270000D01*
X2520000Y6730000D02*
X2630000Y6730000D01*
X2610000Y5090000D02*
X1850000Y5090000D01*
X2620000Y5270000D02*
X1880000Y5270000D01*
X2630000Y6730000D02*
X2700000Y6660000D01*
X2700000Y6660000D02*
X2700000Y6130000D01*
X2720000Y5880000D02*
X2720000Y5400000D01*
X2720000Y5400000D02*
X2720000Y5370000D01*
X2720000Y5370000D02*
X2620000Y5270000D01*
D12*
%TO.C,R5*%
X9837258Y5722500D02*
X9362742Y5722500D01*
X9837258Y4677500D02*
X9362742Y4677500D01*
%TO.C,D9*%
X-3600000Y-1610000D02*
X-3600000Y1050000D01*
X-3600000Y-1610000D02*
X-1900000Y-1610000D01*
X-1900000Y-1610000D02*
X-1900000Y1050000D01*
D15*
%TO.C,D1*%
X3900000Y6310000D02*
X3900000Y5680000D01*
X5300000Y7500000D02*
X4300000Y7500000D01*
X5300000Y7500000D02*
X5300000Y6630000D01*
X5300000Y5360000D02*
X5300000Y4500000D01*
X5300000Y4500000D02*
X4300000Y4500000D01*
D12*
%TO.C,R1*%
X-5037258Y2922500D02*
X-4562742Y2922500D01*
X-5037258Y1877500D02*
X-4562742Y1877500D01*
D11*
%TO.C,MH4*%
X7073360Y9970127D02*
X7132978Y9962432D01*
X7190772Y9947620D01*
X7194589Y9946358D01*
X7250647Y9923444D01*
X7303597Y9893644D01*
X7352752Y9857629D01*
X7397426Y9816066D01*
X7436933Y9769623D01*
X7470586Y9718970D01*
X7497699Y9664774D01*
X7506373Y9642765D01*
X7510923Y9628476D01*
X7516454Y9608254D01*
X7522501Y9583970D01*
X7528598Y9557494D01*
X7534279Y9530700D01*
X7534367Y9530261D01*
X7555994Y9430532D01*
X7579585Y9336764D01*
X7605701Y9247109D01*
X7634902Y9159714D01*
X7667748Y9072731D01*
X7687300Y9025034D01*
X7700980Y8990526D01*
X7710356Y8961694D01*
X7715481Y8937577D01*
X7716409Y8917219D01*
X7713194Y8899660D01*
X7705889Y8883940D01*
X7695938Y8870660D01*
X7686988Y8861395D01*
X7677278Y8853729D01*
X7665422Y8846993D01*
X7650030Y8840517D01*
X7629717Y8833630D01*
X7603094Y8825663D01*
X7602208Y8825407D01*
X7545417Y8807723D01*
X7493686Y8788678D01*
X7444143Y8767151D01*
X7411082Y8750957D01*
X7335948Y8708219D01*
X7264370Y8658695D01*
X7197074Y8603015D01*
X7134789Y8541811D01*
X7078242Y8475714D01*
X7050480Y8438393D01*
X7028547Y8409595D01*
X7008213Y8387844D01*
X6988752Y8372599D01*
X6969435Y8363319D01*
X6949538Y8359460D01*
X6944373Y8359279D01*
X6925822Y8361167D01*
X6909088Y8367500D01*
X6893463Y8378937D01*
X6878238Y8396136D01*
X6862703Y8419758D01*
X6846152Y8450461D01*
X6845995Y8450772D01*
X6788598Y8572361D01*
X6735171Y8700009D01*
X6686052Y8832719D01*
X6641578Y8969495D01*
X6602087Y9109339D01*
X6567915Y9251253D01*
X6555502Y9309893D01*
X6544695Y9369370D01*
X6537782Y9422504D01*
X6534725Y9469846D01*
X6535486Y9511949D01*
X6539356Y9545536D01*
X6553849Y9608971D01*
X6575225Y9668753D01*
X6603246Y9724531D01*
X6637671Y9775957D01*
X6678262Y9822679D01*
X6724779Y9864347D01*
X6776984Y9900612D01*
X6785294Y9905566D01*
X6838009Y9931861D01*
X6894241Y9951571D01*
X6952923Y9964590D01*
X7012986Y9970811D01*
X7073360Y9970127D01*
G36*
X7073360Y9970127D02*
G01*
X7132978Y9962432D01*
X7190772Y9947620D01*
X7194589Y9946358D01*
X7250647Y9923444D01*
X7303597Y9893644D01*
X7352752Y9857629D01*
X7397426Y9816066D01*
X7436933Y9769623D01*
X7470586Y9718970D01*
X7497699Y9664774D01*
X7506373Y9642765D01*
X7510923Y9628476D01*
X7516454Y9608254D01*
X7522501Y9583970D01*
X7528598Y9557494D01*
X7534279Y9530700D01*
X7534367Y9530261D01*
X7555994Y9430532D01*
X7579585Y9336764D01*
X7605701Y9247109D01*
X7634902Y9159714D01*
X7667748Y9072731D01*
X7687300Y9025034D01*
X7700980Y8990526D01*
X7710356Y8961694D01*
X7715481Y8937577D01*
X7716409Y8917219D01*
X7713194Y8899660D01*
X7705889Y8883940D01*
X7695938Y8870660D01*
X7686988Y8861395D01*
X7677278Y8853729D01*
X7665422Y8846993D01*
X7650030Y8840517D01*
X7629717Y8833630D01*
X7603094Y8825663D01*
X7602208Y8825407D01*
X7545417Y8807723D01*
X7493686Y8788678D01*
X7444143Y8767151D01*
X7411082Y8750957D01*
X7335948Y8708219D01*
X7264370Y8658695D01*
X7197074Y8603015D01*
X7134789Y8541811D01*
X7078242Y8475714D01*
X7050480Y8438393D01*
X7028547Y8409595D01*
X7008213Y8387844D01*
X6988752Y8372599D01*
X6969435Y8363319D01*
X6949538Y8359460D01*
X6944373Y8359279D01*
X6925822Y8361167D01*
X6909088Y8367500D01*
X6893463Y8378937D01*
X6878238Y8396136D01*
X6862703Y8419758D01*
X6846152Y8450461D01*
X6845995Y8450772D01*
X6788598Y8572361D01*
X6735171Y8700009D01*
X6686052Y8832719D01*
X6641578Y8969495D01*
X6602087Y9109339D01*
X6567915Y9251253D01*
X6555502Y9309893D01*
X6544695Y9369370D01*
X6537782Y9422504D01*
X6534725Y9469846D01*
X6535486Y9511949D01*
X6539356Y9545536D01*
X6553849Y9608971D01*
X6575225Y9668753D01*
X6603246Y9724531D01*
X6637671Y9775957D01*
X6678262Y9822679D01*
X6724779Y9864347D01*
X6776984Y9900612D01*
X6785294Y9905566D01*
X6838009Y9931861D01*
X6894241Y9951571D01*
X6952923Y9964590D01*
X7012986Y9970811D01*
X7073360Y9970127D01*
G37*
X7606631Y8264446D02*
X7613498Y8263847D01*
X7620077Y8262805D01*
X7626723Y8261008D01*
X7633794Y8258142D01*
X7641647Y8253895D01*
X7650639Y8247956D01*
X7661128Y8240011D01*
X7673471Y8229747D01*
X7688024Y8216854D01*
X7705145Y8201017D01*
X7725192Y8181925D01*
X7748521Y8159265D01*
X7775489Y8132725D01*
X7806454Y8101992D01*
X7841773Y8066753D01*
X7881804Y8026697D01*
X7926902Y7981511D01*
X7953153Y7955203D01*
X7999606Y7908642D01*
X8040773Y7867346D01*
X8076981Y7830970D01*
X8108561Y7799168D01*
X8135839Y7771596D01*
X8159145Y7747908D01*
X8178806Y7727758D01*
X8195152Y7710802D01*
X8208510Y7696694D01*
X8219209Y7685088D01*
X8227578Y7675639D01*
X8233944Y7668002D01*
X8238637Y7661832D01*
X8241984Y7656783D01*
X8244315Y7652509D01*
X8245956Y7648667D01*
X8246726Y7646489D01*
X8253446Y7614957D01*
X8252841Y7584047D01*
X8245308Y7554826D01*
X8231247Y7528358D01*
X8211056Y7505710D01*
X8188042Y7489510D01*
X8177228Y7483925D01*
X8167716Y7480461D01*
X8157000Y7478623D01*
X8142577Y7477911D01*
X8129229Y7477817D01*
X8109689Y7478161D01*
X8095507Y7479474D01*
X8084125Y7482180D01*
X8072981Y7486700D01*
X8071682Y7487316D01*
X8067252Y7489981D01*
X8060921Y7494743D01*
X8052386Y7501894D01*
X8041348Y7511722D01*
X8027505Y7524520D01*
X8010554Y7540578D01*
X7990196Y7560186D01*
X7966127Y7583636D01*
X7938048Y7611217D01*
X7905656Y7643222D01*
X7868651Y7679939D01*
X7826730Y7721661D01*
X7779592Y7768677D01*
X7769235Y7779019D01*
X7722418Y7825793D01*
X7680913Y7867318D01*
X7644393Y7903933D01*
X7612533Y7935979D01*
X7585007Y7963792D01*
X7561488Y7987713D01*
X7541651Y8008081D01*
X7525170Y8025234D01*
X7511718Y8039512D01*
X7500970Y8051254D01*
X7492599Y8060798D01*
X7486280Y8068484D01*
X7481687Y8074650D01*
X7478493Y8079636D01*
X7476546Y8083392D01*
X7468021Y8108956D01*
X7464293Y8136053D01*
X7465670Y8161664D01*
X7467671Y8170644D01*
X7479911Y8200672D01*
X7497813Y8225650D01*
X7520590Y8245015D01*
X7547454Y8258200D01*
X7577617Y8264642D01*
X7599116Y8264914D01*
X7606631Y8264446D01*
G36*
X7606631Y8264446D02*
G01*
X7613498Y8263847D01*
X7620077Y8262805D01*
X7626723Y8261008D01*
X7633794Y8258142D01*
X7641647Y8253895D01*
X7650639Y8247956D01*
X7661128Y8240011D01*
X7673471Y8229747D01*
X7688024Y8216854D01*
X7705145Y8201017D01*
X7725192Y8181925D01*
X7748521Y8159265D01*
X7775489Y8132725D01*
X7806454Y8101992D01*
X7841773Y8066753D01*
X7881804Y8026697D01*
X7926902Y7981511D01*
X7953153Y7955203D01*
X7999606Y7908642D01*
X8040773Y7867346D01*
X8076981Y7830970D01*
X8108561Y7799168D01*
X8135839Y7771596D01*
X8159145Y7747908D01*
X8178806Y7727758D01*
X8195152Y7710802D01*
X8208510Y7696694D01*
X8219209Y7685088D01*
X8227578Y7675639D01*
X8233944Y7668002D01*
X8238637Y7661832D01*
X8241984Y7656783D01*
X8244315Y7652509D01*
X8245956Y7648667D01*
X8246726Y7646489D01*
X8253446Y7614957D01*
X8252841Y7584047D01*
X8245308Y7554826D01*
X8231247Y7528358D01*
X8211056Y7505710D01*
X8188042Y7489510D01*
X8177228Y7483925D01*
X8167716Y7480461D01*
X8157000Y7478623D01*
X8142577Y7477911D01*
X8129229Y7477817D01*
X8109689Y7478161D01*
X8095507Y7479474D01*
X8084125Y7482180D01*
X8072981Y7486700D01*
X8071682Y7487316D01*
X8067252Y7489981D01*
X8060921Y7494743D01*
X8052386Y7501894D01*
X8041348Y7511722D01*
X8027505Y7524520D01*
X8010554Y7540578D01*
X7990196Y7560186D01*
X7966127Y7583636D01*
X7938048Y7611217D01*
X7905656Y7643222D01*
X7868651Y7679939D01*
X7826730Y7721661D01*
X7779592Y7768677D01*
X7769235Y7779019D01*
X7722418Y7825793D01*
X7680913Y7867318D01*
X7644393Y7903933D01*
X7612533Y7935979D01*
X7585007Y7963792D01*
X7561488Y7987713D01*
X7541651Y8008081D01*
X7525170Y8025234D01*
X7511718Y8039512D01*
X7500970Y8051254D01*
X7492599Y8060798D01*
X7486280Y8068484D01*
X7481687Y8074650D01*
X7478493Y8079636D01*
X7476546Y8083392D01*
X7468021Y8108956D01*
X7464293Y8136053D01*
X7465670Y8161664D01*
X7467671Y8170644D01*
X7479911Y8200672D01*
X7497813Y8225650D01*
X7520590Y8245015D01*
X7547454Y8258200D01*
X7577617Y8264642D01*
X7599116Y8264914D01*
X7606631Y8264446D01*
G37*
X8936612Y7721986D02*
X8962064Y7714251D01*
X8984495Y7705056D01*
X9105014Y7655612D01*
X9229303Y7612330D01*
X9357945Y7575030D01*
X9491522Y7543530D01*
X9522203Y7537246D01*
X9556886Y7530145D01*
X9585267Y7523833D01*
X9608886Y7517861D01*
X9629280Y7511784D01*
X9647989Y7505155D01*
X9666551Y7497525D01*
X9680389Y7491301D01*
X9733370Y7462562D01*
X9782437Y7427417D01*
X9827021Y7386595D01*
X9866549Y7340824D01*
X9900450Y7290832D01*
X9928153Y7237348D01*
X9949087Y7181101D01*
X9960734Y7133781D01*
X9968858Y7071022D01*
X9969395Y7009393D01*
X9962671Y6949378D01*
X9949012Y6891462D01*
X9928742Y6836133D01*
X9902187Y6783874D01*
X9869671Y6735171D01*
X9831521Y6690510D01*
X9788061Y6650375D01*
X9739616Y6615254D01*
X9686512Y6585630D01*
X9629074Y6561989D01*
X9567627Y6544817D01*
X9565917Y6544448D01*
X9548235Y6541266D01*
X9528993Y6539142D01*
X9506294Y6537945D01*
X9478246Y6537543D01*
X9466698Y6537566D01*
X9445013Y6537943D01*
X9424050Y6538947D01*
X9402807Y6540740D01*
X9380279Y6543483D01*
X9355462Y6547338D01*
X9327352Y6552467D01*
X9294945Y6559030D01*
X9257238Y6567190D01*
X9213225Y6577109D01*
X9194839Y6581327D01*
X9081426Y6609840D01*
X8965247Y6643635D01*
X8848159Y6682046D01*
X8732018Y6724406D01*
X8618681Y6770048D01*
X8510005Y6818307D01*
X8438836Y6852717D01*
X8411309Y6867202D01*
X8390278Y6879996D01*
X8374706Y6891910D01*
X8363554Y6903752D01*
X8355785Y6916332D01*
X8354912Y6918189D01*
X8348937Y6936223D01*
X8348989Y6953047D01*
X8352944Y6967288D01*
X8363798Y6987000D01*
X8382119Y7007247D01*
X8407499Y7027592D01*
X8412285Y7030893D01*
X8485517Y7084967D01*
X8552985Y7144171D01*
X8614447Y7208212D01*
X8669663Y7276798D01*
X8718389Y7349634D01*
X8760384Y7426430D01*
X8785892Y7482980D01*
X8798237Y7514171D01*
X8809457Y7545564D01*
X8820207Y7579185D01*
X8831144Y7617062D01*
X8840000Y7650000D01*
X8845312Y7668243D01*
X8850727Y7681291D01*
X8857566Y7691792D01*
X8865019Y7700213D01*
X8880582Y7713652D01*
X8896969Y7721731D01*
X8915280Y7724494D01*
X8936612Y7721986D01*
G36*
X8936612Y7721986D02*
G01*
X8962064Y7714251D01*
X8984495Y7705056D01*
X9105014Y7655612D01*
X9229303Y7612330D01*
X9357945Y7575030D01*
X9491522Y7543530D01*
X9522203Y7537246D01*
X9556886Y7530145D01*
X9585267Y7523833D01*
X9608886Y7517861D01*
X9629280Y7511784D01*
X9647989Y7505155D01*
X9666551Y7497525D01*
X9680389Y7491301D01*
X9733370Y7462562D01*
X9782437Y7427417D01*
X9827021Y7386595D01*
X9866549Y7340824D01*
X9900450Y7290832D01*
X9928153Y7237348D01*
X9949087Y7181101D01*
X9960734Y7133781D01*
X9968858Y7071022D01*
X9969395Y7009393D01*
X9962671Y6949378D01*
X9949012Y6891462D01*
X9928742Y6836133D01*
X9902187Y6783874D01*
X9869671Y6735171D01*
X9831521Y6690510D01*
X9788061Y6650375D01*
X9739616Y6615254D01*
X9686512Y6585630D01*
X9629074Y6561989D01*
X9567627Y6544817D01*
X9565917Y6544448D01*
X9548235Y6541266D01*
X9528993Y6539142D01*
X9506294Y6537945D01*
X9478246Y6537543D01*
X9466698Y6537566D01*
X9445013Y6537943D01*
X9424050Y6538947D01*
X9402807Y6540740D01*
X9380279Y6543483D01*
X9355462Y6547338D01*
X9327352Y6552467D01*
X9294945Y6559030D01*
X9257238Y6567190D01*
X9213225Y6577109D01*
X9194839Y6581327D01*
X9081426Y6609840D01*
X8965247Y6643635D01*
X8848159Y6682046D01*
X8732018Y6724406D01*
X8618681Y6770048D01*
X8510005Y6818307D01*
X8438836Y6852717D01*
X8411309Y6867202D01*
X8390278Y6879996D01*
X8374706Y6891910D01*
X8363554Y6903752D01*
X8355785Y6916332D01*
X8354912Y6918189D01*
X8348937Y6936223D01*
X8348989Y6953047D01*
X8352944Y6967288D01*
X8363798Y6987000D01*
X8382119Y7007247D01*
X8407499Y7027592D01*
X8412285Y7030893D01*
X8485517Y7084967D01*
X8552985Y7144171D01*
X8614447Y7208212D01*
X8669663Y7276798D01*
X8718389Y7349634D01*
X8760384Y7426430D01*
X8785892Y7482980D01*
X8798237Y7514171D01*
X8809457Y7545564D01*
X8820207Y7579185D01*
X8831144Y7617062D01*
X8840000Y7650000D01*
X8845312Y7668243D01*
X8850727Y7681291D01*
X8857566Y7691792D01*
X8865019Y7700213D01*
X8880582Y7713652D01*
X8896969Y7721731D01*
X8915280Y7724494D01*
X8936612Y7721986D01*
G37*
%TO.C,MH2*%
X-8905140Y7715689D02*
X-8889420Y7708384D01*
X-8876140Y7698433D01*
X-8866875Y7689483D01*
X-8859209Y7679773D01*
X-8852473Y7667917D01*
X-8845997Y7652525D01*
X-8839110Y7632212D01*
X-8831143Y7605589D01*
X-8830887Y7604703D01*
X-8813203Y7547912D01*
X-8794158Y7496181D01*
X-8772631Y7446638D01*
X-8756437Y7413577D01*
X-8713699Y7338443D01*
X-8664175Y7266865D01*
X-8608495Y7199569D01*
X-8547291Y7137284D01*
X-8481194Y7080737D01*
X-8443873Y7052975D01*
X-8415075Y7031042D01*
X-8393324Y7010708D01*
X-8378079Y6991247D01*
X-8368799Y6971930D01*
X-8364940Y6952033D01*
X-8364759Y6946868D01*
X-8366647Y6928317D01*
X-8372980Y6911583D01*
X-8384417Y6895958D01*
X-8401616Y6880733D01*
X-8425238Y6865198D01*
X-8455941Y6848647D01*
X-8456252Y6848490D01*
X-8577841Y6791093D01*
X-8705489Y6737666D01*
X-8838199Y6688547D01*
X-8974975Y6644073D01*
X-9114819Y6604582D01*
X-9256733Y6570410D01*
X-9315373Y6557997D01*
X-9374850Y6547190D01*
X-9427984Y6540277D01*
X-9475326Y6537220D01*
X-9517429Y6537981D01*
X-9551016Y6541851D01*
X-9614451Y6556344D01*
X-9674233Y6577720D01*
X-9730011Y6605741D01*
X-9781437Y6640166D01*
X-9828159Y6680757D01*
X-9869827Y6727274D01*
X-9906092Y6779479D01*
X-9911046Y6787789D01*
X-9937341Y6840504D01*
X-9957051Y6896736D01*
X-9970070Y6955418D01*
X-9976291Y7015481D01*
X-9975607Y7075855D01*
X-9967912Y7135473D01*
X-9953100Y7193267D01*
X-9951838Y7197084D01*
X-9928924Y7253142D01*
X-9899124Y7306092D01*
X-9863109Y7355247D01*
X-9821546Y7399921D01*
X-9775103Y7439428D01*
X-9724450Y7473081D01*
X-9670254Y7500194D01*
X-9648245Y7508868D01*
X-9633956Y7513418D01*
X-9613734Y7518949D01*
X-9589450Y7524996D01*
X-9562974Y7531093D01*
X-9536180Y7536774D01*
X-9535741Y7536862D01*
X-9436012Y7558489D01*
X-9342244Y7582080D01*
X-9252589Y7608196D01*
X-9165194Y7637397D01*
X-9078211Y7670243D01*
X-9030514Y7689795D01*
X-8996006Y7703475D01*
X-8967174Y7712851D01*
X-8943057Y7717976D01*
X-8922699Y7718904D01*
X-8905140Y7715689D01*
G36*
X-8905140Y7715689D02*
G01*
X-8889420Y7708384D01*
X-8876140Y7698433D01*
X-8866875Y7689483D01*
X-8859209Y7679773D01*
X-8852473Y7667917D01*
X-8845997Y7652525D01*
X-8839110Y7632212D01*
X-8831143Y7605589D01*
X-8830887Y7604703D01*
X-8813203Y7547912D01*
X-8794158Y7496181D01*
X-8772631Y7446638D01*
X-8756437Y7413577D01*
X-8713699Y7338443D01*
X-8664175Y7266865D01*
X-8608495Y7199569D01*
X-8547291Y7137284D01*
X-8481194Y7080737D01*
X-8443873Y7052975D01*
X-8415075Y7031042D01*
X-8393324Y7010708D01*
X-8378079Y6991247D01*
X-8368799Y6971930D01*
X-8364940Y6952033D01*
X-8364759Y6946868D01*
X-8366647Y6928317D01*
X-8372980Y6911583D01*
X-8384417Y6895958D01*
X-8401616Y6880733D01*
X-8425238Y6865198D01*
X-8455941Y6848647D01*
X-8456252Y6848490D01*
X-8577841Y6791093D01*
X-8705489Y6737666D01*
X-8838199Y6688547D01*
X-8974975Y6644073D01*
X-9114819Y6604582D01*
X-9256733Y6570410D01*
X-9315373Y6557997D01*
X-9374850Y6547190D01*
X-9427984Y6540277D01*
X-9475326Y6537220D01*
X-9517429Y6537981D01*
X-9551016Y6541851D01*
X-9614451Y6556344D01*
X-9674233Y6577720D01*
X-9730011Y6605741D01*
X-9781437Y6640166D01*
X-9828159Y6680757D01*
X-9869827Y6727274D01*
X-9906092Y6779479D01*
X-9911046Y6787789D01*
X-9937341Y6840504D01*
X-9957051Y6896736D01*
X-9970070Y6955418D01*
X-9976291Y7015481D01*
X-9975607Y7075855D01*
X-9967912Y7135473D01*
X-9953100Y7193267D01*
X-9951838Y7197084D01*
X-9928924Y7253142D01*
X-9899124Y7306092D01*
X-9863109Y7355247D01*
X-9821546Y7399921D01*
X-9775103Y7439428D01*
X-9724450Y7473081D01*
X-9670254Y7500194D01*
X-9648245Y7508868D01*
X-9633956Y7513418D01*
X-9613734Y7518949D01*
X-9589450Y7524996D01*
X-9562974Y7531093D01*
X-9536180Y7536774D01*
X-9535741Y7536862D01*
X-9436012Y7558489D01*
X-9342244Y7582080D01*
X-9252589Y7608196D01*
X-9165194Y7637397D01*
X-9078211Y7670243D01*
X-9030514Y7689795D01*
X-8996006Y7703475D01*
X-8967174Y7712851D01*
X-8943057Y7717976D01*
X-8922699Y7718904D01*
X-8905140Y7715689D01*
G37*
X-7589527Y8255336D02*
X-7560306Y8247803D01*
X-7533838Y8233742D01*
X-7511190Y8213551D01*
X-7494990Y8190537D01*
X-7489405Y8179723D01*
X-7485941Y8170211D01*
X-7484103Y8159495D01*
X-7483391Y8145072D01*
X-7483297Y8131724D01*
X-7483641Y8112184D01*
X-7484954Y8098002D01*
X-7487660Y8086620D01*
X-7492180Y8075476D01*
X-7492796Y8074177D01*
X-7495461Y8069747D01*
X-7500223Y8063416D01*
X-7507374Y8054881D01*
X-7517202Y8043843D01*
X-7530000Y8030000D01*
X-7546058Y8013049D01*
X-7565666Y7992691D01*
X-7589116Y7968622D01*
X-7616697Y7940543D01*
X-7648702Y7908151D01*
X-7685419Y7871146D01*
X-7727141Y7829225D01*
X-7774157Y7782087D01*
X-7784499Y7771730D01*
X-7831273Y7724913D01*
X-7872798Y7683408D01*
X-7909413Y7646888D01*
X-7941459Y7615028D01*
X-7969272Y7587502D01*
X-7993193Y7563983D01*
X-8013561Y7544146D01*
X-8030714Y7527665D01*
X-8044992Y7514213D01*
X-8056734Y7503465D01*
X-8066278Y7495094D01*
X-8073964Y7488775D01*
X-8080130Y7484182D01*
X-8085116Y7480988D01*
X-8088872Y7479041D01*
X-8114436Y7470516D01*
X-8141533Y7466788D01*
X-8167144Y7468165D01*
X-8176124Y7470166D01*
X-8206152Y7482406D01*
X-8231130Y7500308D01*
X-8250495Y7523085D01*
X-8263680Y7549949D01*
X-8270122Y7580112D01*
X-8270394Y7601611D01*
X-8269926Y7609126D01*
X-8269327Y7615993D01*
X-8268285Y7622572D01*
X-8266488Y7629218D01*
X-8263622Y7636289D01*
X-8259375Y7644142D01*
X-8253436Y7653134D01*
X-8245491Y7663623D01*
X-8235227Y7675966D01*
X-8222334Y7690519D01*
X-8206497Y7707640D01*
X-8187405Y7727687D01*
X-8164745Y7751016D01*
X-8138205Y7777984D01*
X-8107472Y7808949D01*
X-8072233Y7844268D01*
X-8032177Y7884299D01*
X-7986991Y7929397D01*
X-7960683Y7955648D01*
X-7914122Y8002101D01*
X-7872826Y8043268D01*
X-7836450Y8079476D01*
X-7804648Y8111056D01*
X-7777076Y8138334D01*
X-7753388Y8161640D01*
X-7733238Y8181301D01*
X-7716282Y8197647D01*
X-7702174Y8211005D01*
X-7690568Y8221704D01*
X-7681119Y8230073D01*
X-7673482Y8236439D01*
X-7667312Y8241132D01*
X-7662263Y8244479D01*
X-7657989Y8246810D01*
X-7654147Y8248451D01*
X-7651969Y8249221D01*
X-7620437Y8255941D01*
X-7589527Y8255336D01*
G36*
X-7589527Y8255336D02*
G01*
X-7560306Y8247803D01*
X-7533838Y8233742D01*
X-7511190Y8213551D01*
X-7494990Y8190537D01*
X-7489405Y8179723D01*
X-7485941Y8170211D01*
X-7484103Y8159495D01*
X-7483391Y8145072D01*
X-7483297Y8131724D01*
X-7483641Y8112184D01*
X-7484954Y8098002D01*
X-7487660Y8086620D01*
X-7492180Y8075476D01*
X-7492796Y8074177D01*
X-7495461Y8069747D01*
X-7500223Y8063416D01*
X-7507374Y8054881D01*
X-7517202Y8043843D01*
X-7530000Y8030000D01*
X-7546058Y8013049D01*
X-7565666Y7992691D01*
X-7589116Y7968622D01*
X-7616697Y7940543D01*
X-7648702Y7908151D01*
X-7685419Y7871146D01*
X-7727141Y7829225D01*
X-7774157Y7782087D01*
X-7784499Y7771730D01*
X-7831273Y7724913D01*
X-7872798Y7683408D01*
X-7909413Y7646888D01*
X-7941459Y7615028D01*
X-7969272Y7587502D01*
X-7993193Y7563983D01*
X-8013561Y7544146D01*
X-8030714Y7527665D01*
X-8044992Y7514213D01*
X-8056734Y7503465D01*
X-8066278Y7495094D01*
X-8073964Y7488775D01*
X-8080130Y7484182D01*
X-8085116Y7480988D01*
X-8088872Y7479041D01*
X-8114436Y7470516D01*
X-8141533Y7466788D01*
X-8167144Y7468165D01*
X-8176124Y7470166D01*
X-8206152Y7482406D01*
X-8231130Y7500308D01*
X-8250495Y7523085D01*
X-8263680Y7549949D01*
X-8270122Y7580112D01*
X-8270394Y7601611D01*
X-8269926Y7609126D01*
X-8269327Y7615993D01*
X-8268285Y7622572D01*
X-8266488Y7629218D01*
X-8263622Y7636289D01*
X-8259375Y7644142D01*
X-8253436Y7653134D01*
X-8245491Y7663623D01*
X-8235227Y7675966D01*
X-8222334Y7690519D01*
X-8206497Y7707640D01*
X-8187405Y7727687D01*
X-8164745Y7751016D01*
X-8138205Y7777984D01*
X-8107472Y7808949D01*
X-8072233Y7844268D01*
X-8032177Y7884299D01*
X-7986991Y7929397D01*
X-7960683Y7955648D01*
X-7914122Y8002101D01*
X-7872826Y8043268D01*
X-7836450Y8079476D01*
X-7804648Y8111056D01*
X-7777076Y8138334D01*
X-7753388Y8161640D01*
X-7733238Y8181301D01*
X-7716282Y8197647D01*
X-7702174Y8211005D01*
X-7690568Y8221704D01*
X-7681119Y8230073D01*
X-7673482Y8236439D01*
X-7667312Y8241132D01*
X-7662263Y8244479D01*
X-7657989Y8246810D01*
X-7654147Y8248451D01*
X-7651969Y8249221D01*
X-7620437Y8255941D01*
X-7589527Y8255336D01*
G37*
X-6954858Y9965166D02*
X-6896942Y9951507D01*
X-6841613Y9931237D01*
X-6789354Y9904682D01*
X-6740651Y9872166D01*
X-6695990Y9834016D01*
X-6655855Y9790556D01*
X-6620734Y9742111D01*
X-6591110Y9689007D01*
X-6567469Y9631569D01*
X-6550297Y9570122D01*
X-6549928Y9568412D01*
X-6546746Y9550730D01*
X-6544622Y9531488D01*
X-6543425Y9508789D01*
X-6543023Y9480741D01*
X-6543046Y9469193D01*
X-6543423Y9447508D01*
X-6544427Y9426545D01*
X-6546220Y9405302D01*
X-6548963Y9382774D01*
X-6552818Y9357957D01*
X-6557947Y9329847D01*
X-6564510Y9297440D01*
X-6572670Y9259733D01*
X-6582589Y9215720D01*
X-6586807Y9197334D01*
X-6615320Y9083921D01*
X-6649115Y8967742D01*
X-6687526Y8850654D01*
X-6729886Y8734513D01*
X-6775528Y8621176D01*
X-6823787Y8512500D01*
X-6858197Y8441331D01*
X-6872682Y8413804D01*
X-6885476Y8392773D01*
X-6897390Y8377201D01*
X-6909232Y8366049D01*
X-6921812Y8358280D01*
X-6923669Y8357407D01*
X-6941703Y8351432D01*
X-6958527Y8351484D01*
X-6972768Y8355439D01*
X-6992480Y8366293D01*
X-7012727Y8384614D01*
X-7033072Y8409994D01*
X-7036373Y8414780D01*
X-7090447Y8488012D01*
X-7149651Y8555480D01*
X-7213692Y8616942D01*
X-7282278Y8672158D01*
X-7355114Y8720884D01*
X-7431910Y8762879D01*
X-7488460Y8788387D01*
X-7519651Y8800732D01*
X-7551044Y8811952D01*
X-7584665Y8822702D01*
X-7622542Y8833639D01*
X-7655480Y8842495D01*
X-7673723Y8847807D01*
X-7686771Y8853222D01*
X-7697272Y8860061D01*
X-7705693Y8867514D01*
X-7719132Y8883077D01*
X-7727211Y8899464D01*
X-7729974Y8917775D01*
X-7727466Y8939107D01*
X-7719731Y8964559D01*
X-7710536Y8986990D01*
X-7661092Y9107509D01*
X-7617810Y9231798D01*
X-7580510Y9360440D01*
X-7549010Y9494017D01*
X-7542726Y9524698D01*
X-7535625Y9559381D01*
X-7529313Y9587762D01*
X-7523341Y9611381D01*
X-7517264Y9631775D01*
X-7510635Y9650484D01*
X-7503005Y9669046D01*
X-7496781Y9682884D01*
X-7468042Y9735865D01*
X-7432897Y9784932D01*
X-7392075Y9829516D01*
X-7346304Y9869044D01*
X-7296312Y9902945D01*
X-7242828Y9930648D01*
X-7186581Y9951582D01*
X-7139261Y9963229D01*
X-7076502Y9971353D01*
X-7014873Y9971890D01*
X-6954858Y9965166D01*
G36*
X-6954858Y9965166D02*
G01*
X-6896942Y9951507D01*
X-6841613Y9931237D01*
X-6789354Y9904682D01*
X-6740651Y9872166D01*
X-6695990Y9834016D01*
X-6655855Y9790556D01*
X-6620734Y9742111D01*
X-6591110Y9689007D01*
X-6567469Y9631569D01*
X-6550297Y9570122D01*
X-6549928Y9568412D01*
X-6546746Y9550730D01*
X-6544622Y9531488D01*
X-6543425Y9508789D01*
X-6543023Y9480741D01*
X-6543046Y9469193D01*
X-6543423Y9447508D01*
X-6544427Y9426545D01*
X-6546220Y9405302D01*
X-6548963Y9382774D01*
X-6552818Y9357957D01*
X-6557947Y9329847D01*
X-6564510Y9297440D01*
X-6572670Y9259733D01*
X-6582589Y9215720D01*
X-6586807Y9197334D01*
X-6615320Y9083921D01*
X-6649115Y8967742D01*
X-6687526Y8850654D01*
X-6729886Y8734513D01*
X-6775528Y8621176D01*
X-6823787Y8512500D01*
X-6858197Y8441331D01*
X-6872682Y8413804D01*
X-6885476Y8392773D01*
X-6897390Y8377201D01*
X-6909232Y8366049D01*
X-6921812Y8358280D01*
X-6923669Y8357407D01*
X-6941703Y8351432D01*
X-6958527Y8351484D01*
X-6972768Y8355439D01*
X-6992480Y8366293D01*
X-7012727Y8384614D01*
X-7033072Y8409994D01*
X-7036373Y8414780D01*
X-7090447Y8488012D01*
X-7149651Y8555480D01*
X-7213692Y8616942D01*
X-7282278Y8672158D01*
X-7355114Y8720884D01*
X-7431910Y8762879D01*
X-7488460Y8788387D01*
X-7519651Y8800732D01*
X-7551044Y8811952D01*
X-7584665Y8822702D01*
X-7622542Y8833639D01*
X-7655480Y8842495D01*
X-7673723Y8847807D01*
X-7686771Y8853222D01*
X-7697272Y8860061D01*
X-7705693Y8867514D01*
X-7719132Y8883077D01*
X-7727211Y8899464D01*
X-7729974Y8917775D01*
X-7727466Y8939107D01*
X-7719731Y8964559D01*
X-7710536Y8986990D01*
X-7661092Y9107509D01*
X-7617810Y9231798D01*
X-7580510Y9360440D01*
X-7549010Y9494017D01*
X-7542726Y9524698D01*
X-7535625Y9559381D01*
X-7529313Y9587762D01*
X-7523341Y9611381D01*
X-7517264Y9631775D01*
X-7510635Y9650484D01*
X-7503005Y9669046D01*
X-7496781Y9682884D01*
X-7468042Y9735865D01*
X-7432897Y9784932D01*
X-7392075Y9829516D01*
X-7346304Y9869044D01*
X-7296312Y9902945D01*
X-7242828Y9930648D01*
X-7186581Y9951582D01*
X-7139261Y9963229D01*
X-7076502Y9971353D01*
X-7014873Y9971890D01*
X-6954858Y9965166D01*
G37*
D10*
%TO.C,D2*%
X1680000Y-5370000D02*
X1780000Y-5270000D01*
X1680000Y-5400000D02*
X1680000Y-5370000D01*
X1680000Y-5880000D02*
X1680000Y-5400000D01*
X1700000Y-6660000D02*
X1700000Y-6130000D01*
X1770000Y-6730000D02*
X1700000Y-6660000D01*
X1780000Y-5270000D02*
X2520000Y-5270000D01*
X1790000Y-5090000D02*
X2550000Y-5090000D01*
X1880000Y-6730000D02*
X1770000Y-6730000D01*
X2520000Y-5270000D02*
X2630000Y-5270000D01*
X2610000Y-6910000D02*
X1850000Y-6910000D01*
X2620000Y-6730000D02*
X1880000Y-6730000D01*
X2630000Y-5270000D02*
X2700000Y-5340000D01*
X2700000Y-5340000D02*
X2700000Y-5870000D01*
X2720000Y-6120000D02*
X2720000Y-6600000D01*
X2720000Y-6600000D02*
X2720000Y-6630000D01*
X2720000Y-6630000D02*
X2620000Y-6730000D01*
D12*
%TO.C,C3*%
X-8859420Y510000D02*
X-9140580Y510000D01*
X-8859420Y-510000D02*
X-9140580Y-510000D01*
%TO.C,R3*%
X4877500Y-5162742D02*
X4877500Y-5637258D01*
X5922500Y-5162742D02*
X5922500Y-5637258D01*
%TD*%
M02*
