%TF.GenerationSoftware,KiCad,Pcbnew,9.0.2*%
%TF.CreationDate,2026-02-09T05:43:33+00:00*%
%TF.ProjectId,kicad_rgb_module,6b696361-645f-4726-9762-5f6d6f64756c,0.1*%
%TF.SameCoordinates,PX518a060PY47868c0*%
%TF.FileFunction,Legend,Bot*%
%TF.FilePolarity,Positive*%
%FSLAX46Y46*%
G04 Gerber Fmt 4.6, Leading zero omitted, Abs format (unit mm)*
G04 Created by KiCad (PCBNEW 9.0.2) date 2026-02-09 05:43:33*
%MOMM*%
%LPD*%
G01*
G04 APERTURE LIST*
%ADD10C,0.010000*%
%ADD11C,0.000000*%
G04 APERTURE END LIST*
D10*
%TO.C,MH1*%
X-6927224Y-8363673D02*
X-6910490Y-8370006D01*
X-6894865Y-8381443D01*
X-6879640Y-8398642D01*
X-6864105Y-8422264D01*
X-6847554Y-8452967D01*
X-6847397Y-8453278D01*
X-6790000Y-8574867D01*
X-6736573Y-8702515D01*
X-6687454Y-8835225D01*
X-6642980Y-8972001D01*
X-6603489Y-9111845D01*
X-6569317Y-9253759D01*
X-6556904Y-9312399D01*
X-6546097Y-9371876D01*
X-6539184Y-9425010D01*
X-6536127Y-9472352D01*
X-6536888Y-9514455D01*
X-6540758Y-9548042D01*
X-6555251Y-9611477D01*
X-6576627Y-9671259D01*
X-6604648Y-9727037D01*
X-6639073Y-9778463D01*
X-6679664Y-9825185D01*
X-6726181Y-9866853D01*
X-6778386Y-9903118D01*
X-6786696Y-9908072D01*
X-6839411Y-9934367D01*
X-6895643Y-9954077D01*
X-6954325Y-9967096D01*
X-7014388Y-9973317D01*
X-7074762Y-9972633D01*
X-7134380Y-9964938D01*
X-7192174Y-9950126D01*
X-7195991Y-9948864D01*
X-7252049Y-9925950D01*
X-7304999Y-9896150D01*
X-7354154Y-9860135D01*
X-7398828Y-9818572D01*
X-7438335Y-9772129D01*
X-7471988Y-9721476D01*
X-7499101Y-9667280D01*
X-7507775Y-9645271D01*
X-7512325Y-9630982D01*
X-7517856Y-9610760D01*
X-7523903Y-9586476D01*
X-7530000Y-9560000D01*
X-7535681Y-9533206D01*
X-7535769Y-9532767D01*
X-7557396Y-9433038D01*
X-7580987Y-9339270D01*
X-7607103Y-9249615D01*
X-7636304Y-9162220D01*
X-7669150Y-9075237D01*
X-7688702Y-9027540D01*
X-7702382Y-8993032D01*
X-7711758Y-8964200D01*
X-7716883Y-8940083D01*
X-7717811Y-8919725D01*
X-7714596Y-8902166D01*
X-7707291Y-8886446D01*
X-7697340Y-8873166D01*
X-7688390Y-8863901D01*
X-7678680Y-8856235D01*
X-7666824Y-8849499D01*
X-7651432Y-8843023D01*
X-7631119Y-8836136D01*
X-7604496Y-8828169D01*
X-7603610Y-8827913D01*
X-7546819Y-8810229D01*
X-7495088Y-8791184D01*
X-7445545Y-8769657D01*
X-7412484Y-8753463D01*
X-7337350Y-8710725D01*
X-7265772Y-8661201D01*
X-7198476Y-8605521D01*
X-7136191Y-8544317D01*
X-7079644Y-8478220D01*
X-7051882Y-8440899D01*
X-7029949Y-8412101D01*
X-7009615Y-8390350D01*
X-6990154Y-8375105D01*
X-6970837Y-8365825D01*
X-6950940Y-8361966D01*
X-6945775Y-8361785D01*
X-6927224Y-8363673D01*
G36*
X-6927224Y-8363673D02*
G01*
X-6910490Y-8370006D01*
X-6894865Y-8381443D01*
X-6879640Y-8398642D01*
X-6864105Y-8422264D01*
X-6847554Y-8452967D01*
X-6847397Y-8453278D01*
X-6790000Y-8574867D01*
X-6736573Y-8702515D01*
X-6687454Y-8835225D01*
X-6642980Y-8972001D01*
X-6603489Y-9111845D01*
X-6569317Y-9253759D01*
X-6556904Y-9312399D01*
X-6546097Y-9371876D01*
X-6539184Y-9425010D01*
X-6536127Y-9472352D01*
X-6536888Y-9514455D01*
X-6540758Y-9548042D01*
X-6555251Y-9611477D01*
X-6576627Y-9671259D01*
X-6604648Y-9727037D01*
X-6639073Y-9778463D01*
X-6679664Y-9825185D01*
X-6726181Y-9866853D01*
X-6778386Y-9903118D01*
X-6786696Y-9908072D01*
X-6839411Y-9934367D01*
X-6895643Y-9954077D01*
X-6954325Y-9967096D01*
X-7014388Y-9973317D01*
X-7074762Y-9972633D01*
X-7134380Y-9964938D01*
X-7192174Y-9950126D01*
X-7195991Y-9948864D01*
X-7252049Y-9925950D01*
X-7304999Y-9896150D01*
X-7354154Y-9860135D01*
X-7398828Y-9818572D01*
X-7438335Y-9772129D01*
X-7471988Y-9721476D01*
X-7499101Y-9667280D01*
X-7507775Y-9645271D01*
X-7512325Y-9630982D01*
X-7517856Y-9610760D01*
X-7523903Y-9586476D01*
X-7530000Y-9560000D01*
X-7535681Y-9533206D01*
X-7535769Y-9532767D01*
X-7557396Y-9433038D01*
X-7580987Y-9339270D01*
X-7607103Y-9249615D01*
X-7636304Y-9162220D01*
X-7669150Y-9075237D01*
X-7688702Y-9027540D01*
X-7702382Y-8993032D01*
X-7711758Y-8964200D01*
X-7716883Y-8940083D01*
X-7717811Y-8919725D01*
X-7714596Y-8902166D01*
X-7707291Y-8886446D01*
X-7697340Y-8873166D01*
X-7688390Y-8863901D01*
X-7678680Y-8856235D01*
X-7666824Y-8849499D01*
X-7651432Y-8843023D01*
X-7631119Y-8836136D01*
X-7604496Y-8828169D01*
X-7603610Y-8827913D01*
X-7546819Y-8810229D01*
X-7495088Y-8791184D01*
X-7445545Y-8769657D01*
X-7412484Y-8753463D01*
X-7337350Y-8710725D01*
X-7265772Y-8661201D01*
X-7198476Y-8605521D01*
X-7136191Y-8544317D01*
X-7079644Y-8478220D01*
X-7051882Y-8440899D01*
X-7029949Y-8412101D01*
X-7009615Y-8390350D01*
X-6990154Y-8375105D01*
X-6970837Y-8365825D01*
X-6950940Y-8361966D01*
X-6945775Y-8361785D01*
X-6927224Y-8363673D01*
G37*
X-9468100Y-6540072D02*
X-9446415Y-6540449D01*
X-9425452Y-6541453D01*
X-9404209Y-6543246D01*
X-9381681Y-6545989D01*
X-9356864Y-6549844D01*
X-9328754Y-6554973D01*
X-9296347Y-6561536D01*
X-9258640Y-6569696D01*
X-9214627Y-6579615D01*
X-9196241Y-6583833D01*
X-9082828Y-6612346D01*
X-8966649Y-6646141D01*
X-8849561Y-6684552D01*
X-8733420Y-6726912D01*
X-8620083Y-6772554D01*
X-8511407Y-6820813D01*
X-8440238Y-6855223D01*
X-8412711Y-6869708D01*
X-8391680Y-6882502D01*
X-8376108Y-6894416D01*
X-8364956Y-6906258D01*
X-8357187Y-6918838D01*
X-8356314Y-6920695D01*
X-8350339Y-6938729D01*
X-8350391Y-6955553D01*
X-8354346Y-6969794D01*
X-8365200Y-6989506D01*
X-8383521Y-7009753D01*
X-8408901Y-7030098D01*
X-8413687Y-7033399D01*
X-8486919Y-7087473D01*
X-8554387Y-7146677D01*
X-8615849Y-7210718D01*
X-8671065Y-7279304D01*
X-8719791Y-7352140D01*
X-8761786Y-7428936D01*
X-8787294Y-7485486D01*
X-8799639Y-7516677D01*
X-8810859Y-7548070D01*
X-8821609Y-7581691D01*
X-8832546Y-7619568D01*
X-8841402Y-7652506D01*
X-8846714Y-7670749D01*
X-8852129Y-7683797D01*
X-8858968Y-7694298D01*
X-8866421Y-7702719D01*
X-8881984Y-7716158D01*
X-8898371Y-7724237D01*
X-8916682Y-7727000D01*
X-8938014Y-7724492D01*
X-8963466Y-7716757D01*
X-8985897Y-7707562D01*
X-9106416Y-7658118D01*
X-9230705Y-7614836D01*
X-9359347Y-7577536D01*
X-9492924Y-7546036D01*
X-9523605Y-7539752D01*
X-9558288Y-7532651D01*
X-9586669Y-7526339D01*
X-9610288Y-7520367D01*
X-9630682Y-7514290D01*
X-9649391Y-7507661D01*
X-9667953Y-7500031D01*
X-9681791Y-7493807D01*
X-9734772Y-7465068D01*
X-9783839Y-7429923D01*
X-9828423Y-7389101D01*
X-9867951Y-7343330D01*
X-9901852Y-7293338D01*
X-9929555Y-7239854D01*
X-9950489Y-7183607D01*
X-9962136Y-7136287D01*
X-9970260Y-7073528D01*
X-9970797Y-7011899D01*
X-9964073Y-6951884D01*
X-9950414Y-6893968D01*
X-9930144Y-6838639D01*
X-9903589Y-6786380D01*
X-9871073Y-6737677D01*
X-9832923Y-6693016D01*
X-9789463Y-6652881D01*
X-9741018Y-6617760D01*
X-9687914Y-6588136D01*
X-9630476Y-6564495D01*
X-9569029Y-6547323D01*
X-9567319Y-6546954D01*
X-9549637Y-6543772D01*
X-9530395Y-6541648D01*
X-9507696Y-6540451D01*
X-9479648Y-6540049D01*
X-9468100Y-6540072D01*
G36*
X-9468100Y-6540072D02*
G01*
X-9446415Y-6540449D01*
X-9425452Y-6541453D01*
X-9404209Y-6543246D01*
X-9381681Y-6545989D01*
X-9356864Y-6549844D01*
X-9328754Y-6554973D01*
X-9296347Y-6561536D01*
X-9258640Y-6569696D01*
X-9214627Y-6579615D01*
X-9196241Y-6583833D01*
X-9082828Y-6612346D01*
X-8966649Y-6646141D01*
X-8849561Y-6684552D01*
X-8733420Y-6726912D01*
X-8620083Y-6772554D01*
X-8511407Y-6820813D01*
X-8440238Y-6855223D01*
X-8412711Y-6869708D01*
X-8391680Y-6882502D01*
X-8376108Y-6894416D01*
X-8364956Y-6906258D01*
X-8357187Y-6918838D01*
X-8356314Y-6920695D01*
X-8350339Y-6938729D01*
X-8350391Y-6955553D01*
X-8354346Y-6969794D01*
X-8365200Y-6989506D01*
X-8383521Y-7009753D01*
X-8408901Y-7030098D01*
X-8413687Y-7033399D01*
X-8486919Y-7087473D01*
X-8554387Y-7146677D01*
X-8615849Y-7210718D01*
X-8671065Y-7279304D01*
X-8719791Y-7352140D01*
X-8761786Y-7428936D01*
X-8787294Y-7485486D01*
X-8799639Y-7516677D01*
X-8810859Y-7548070D01*
X-8821609Y-7581691D01*
X-8832546Y-7619568D01*
X-8841402Y-7652506D01*
X-8846714Y-7670749D01*
X-8852129Y-7683797D01*
X-8858968Y-7694298D01*
X-8866421Y-7702719D01*
X-8881984Y-7716158D01*
X-8898371Y-7724237D01*
X-8916682Y-7727000D01*
X-8938014Y-7724492D01*
X-8963466Y-7716757D01*
X-8985897Y-7707562D01*
X-9106416Y-7658118D01*
X-9230705Y-7614836D01*
X-9359347Y-7577536D01*
X-9492924Y-7546036D01*
X-9523605Y-7539752D01*
X-9558288Y-7532651D01*
X-9586669Y-7526339D01*
X-9610288Y-7520367D01*
X-9630682Y-7514290D01*
X-9649391Y-7507661D01*
X-9667953Y-7500031D01*
X-9681791Y-7493807D01*
X-9734772Y-7465068D01*
X-9783839Y-7429923D01*
X-9828423Y-7389101D01*
X-9867951Y-7343330D01*
X-9901852Y-7293338D01*
X-9929555Y-7239854D01*
X-9950489Y-7183607D01*
X-9962136Y-7136287D01*
X-9970260Y-7073528D01*
X-9970797Y-7011899D01*
X-9964073Y-6951884D01*
X-9950414Y-6893968D01*
X-9930144Y-6838639D01*
X-9903589Y-6786380D01*
X-9871073Y-6737677D01*
X-9832923Y-6693016D01*
X-9789463Y-6652881D01*
X-9741018Y-6617760D01*
X-9687914Y-6588136D01*
X-9630476Y-6564495D01*
X-9569029Y-6547323D01*
X-9567319Y-6546954D01*
X-9549637Y-6543772D01*
X-9530395Y-6541648D01*
X-9507696Y-6540451D01*
X-9479648Y-6540049D01*
X-9468100Y-6540072D01*
G37*
X-7964282Y-7304831D02*
X-7956004Y-7306451D01*
X-7948531Y-7308923D01*
X-7946717Y-7309658D01*
X-7926651Y-7321473D01*
X-7908399Y-7338391D01*
X-7895341Y-7356916D01*
X-7889021Y-7375281D01*
X-7886342Y-7397524D01*
X-7887305Y-7420490D01*
X-7891913Y-7441025D01*
X-7895287Y-7448844D01*
X-7906301Y-7464927D01*
X-7921061Y-7480302D01*
X-7936929Y-7492456D01*
X-7946113Y-7497250D01*
X-7953555Y-7499582D01*
X-7967356Y-7503279D01*
X-7986129Y-7507993D01*
X-8008482Y-7513377D01*
X-8033026Y-7519082D01*
X-8037082Y-7520005D01*
X-8060965Y-7525466D01*
X-8082059Y-7530363D01*
X-8099196Y-7534417D01*
X-8111207Y-7537353D01*
X-8116927Y-7538893D01*
X-8117234Y-7539025D01*
X-8114666Y-7541714D01*
X-8106885Y-7548445D01*
X-8094921Y-7558357D01*
X-8079805Y-7570592D01*
X-8069893Y-7578499D01*
X-7950758Y-7678104D01*
X-7836829Y-7783700D01*
X-7728115Y-7895278D01*
X-7624622Y-8012832D01*
X-7575743Y-8072709D01*
X-7561845Y-8089815D01*
X-7549589Y-8104241D01*
X-7539827Y-8115039D01*
X-7533407Y-8121261D01*
X-7531257Y-8122318D01*
X-7529568Y-8117732D01*
X-7526289Y-8106603D01*
X-7521739Y-8090097D01*
X-7516236Y-8069375D01*
X-7510098Y-8045601D01*
X-7507650Y-8035948D01*
X-7499793Y-8004998D01*
X-7493445Y-7980698D01*
X-7488219Y-7961991D01*
X-7483727Y-7947820D01*
X-7479583Y-7937128D01*
X-7475400Y-7928856D01*
X-7470791Y-7921947D01*
X-7465369Y-7915344D01*
X-7462249Y-7911845D01*
X-7441788Y-7894613D01*
X-7418455Y-7883937D01*
X-7393563Y-7879633D01*
X-7368428Y-7881513D01*
X-7344365Y-7889393D01*
X-7322688Y-7903085D01*
X-7304712Y-7922404D01*
X-7296945Y-7935233D01*
X-7291914Y-7946367D01*
X-7288606Y-7957519D01*
X-7287107Y-7969792D01*
X-7287506Y-7984288D01*
X-7289888Y-8002110D01*
X-7294342Y-8024360D01*
X-7300954Y-8052141D01*
X-7308509Y-8081588D01*
X-7315878Y-8109832D01*
X-7324678Y-8143674D01*
X-7334366Y-8181024D01*
X-7344401Y-8219791D01*
X-7354240Y-8257884D01*
X-7362945Y-8291666D01*
X-7372521Y-8328545D01*
X-7380605Y-8358575D01*
X-7387567Y-8382622D01*
X-7393775Y-8401553D01*
X-7399600Y-8416236D01*
X-7405409Y-8427538D01*
X-7411573Y-8436324D01*
X-7418460Y-8443463D01*
X-7426440Y-8449821D01*
X-7431906Y-8453622D01*
X-7437984Y-8457585D01*
X-7443925Y-8460894D01*
X-7450423Y-8463569D01*
X-7458168Y-8465630D01*
X-7467853Y-8467096D01*
X-7480170Y-8467988D01*
X-7495810Y-8468325D01*
X-7515466Y-8468128D01*
X-7539830Y-8467416D01*
X-7569593Y-8466209D01*
X-7605448Y-8464528D01*
X-7648087Y-8462392D01*
X-7679845Y-8460764D01*
X-7719694Y-8458655D01*
X-7757522Y-8456536D01*
X-7792512Y-8454462D01*
X-7823849Y-8452486D01*
X-7850718Y-8450661D01*
X-7872303Y-8449042D01*
X-7887788Y-8447682D01*
X-7896358Y-8446635D01*
X-7897300Y-8446435D01*
X-7920588Y-8436478D01*
X-7939627Y-8420904D01*
X-7954050Y-8401024D01*
X-7963486Y-8378146D01*
X-7967568Y-8353579D01*
X-7965926Y-8328632D01*
X-7958191Y-8304615D01*
X-7943994Y-8282836D01*
X-7943551Y-8282329D01*
X-7927507Y-8267945D01*
X-7908797Y-8256783D01*
X-7907539Y-8256227D01*
X-7899685Y-8253014D01*
X-7892427Y-8250730D01*
X-7884347Y-8249280D01*
X-7874027Y-8248564D01*
X-7860048Y-8248486D01*
X-7840991Y-8248948D01*
X-7815438Y-8249852D01*
X-7815116Y-8249864D01*
X-7789965Y-8250888D01*
X-7765599Y-8252033D01*
X-7743931Y-8253198D01*
X-7726877Y-8254283D01*
X-7718415Y-8254967D01*
X-7708477Y-8255936D01*
X-7701486Y-8256149D01*
X-7697714Y-8254836D01*
X-7697431Y-8251232D01*
X-7700910Y-8244569D01*
X-7708422Y-8234080D01*
X-7720237Y-8218997D01*
X-7736627Y-8198552D01*
X-7739720Y-8194698D01*
X-7809142Y-8111622D01*
X-7883173Y-8029536D01*
X-7960586Y-7949640D01*
X-8040154Y-7873134D01*
X-8120650Y-7801218D01*
X-8200846Y-7735090D01*
X-8243237Y-7702480D01*
X-8258607Y-7690964D01*
X-8256073Y-7726534D01*
X-8255110Y-7743577D01*
X-8254201Y-7766028D01*
X-8253431Y-7791357D01*
X-8252884Y-7817034D01*
X-8252761Y-7825604D01*
X-8252590Y-7850786D01*
X-8252860Y-7869488D01*
X-8253686Y-7883160D01*
X-8255180Y-7893252D01*
X-8257455Y-7901216D01*
X-8258977Y-7904979D01*
X-8273147Y-7927779D01*
X-8292882Y-7946228D01*
X-8316564Y-7959267D01*
X-8342573Y-7965837D01*
X-8352881Y-7966417D01*
X-8378604Y-7962783D01*
X-8402888Y-7952630D01*
X-8424002Y-7937081D01*
X-8440217Y-7917260D01*
X-8446009Y-7905947D01*
X-8447904Y-7901109D01*
X-8449545Y-7895913D01*
X-8450976Y-7889691D01*
X-8452243Y-7881775D01*
X-8453389Y-7871499D01*
X-8454459Y-7858194D01*
X-8455497Y-7841193D01*
X-8456548Y-7819827D01*
X-8457655Y-7793431D01*
X-8458863Y-7761335D01*
X-8460216Y-7722873D01*
X-8461759Y-7677377D01*
X-8462347Y-7659816D01*
X-8463863Y-7613978D01*
X-8465055Y-7575345D01*
X-8465865Y-7543191D01*
X-8466239Y-7516787D01*
X-8466120Y-7495406D01*
X-8465453Y-7478322D01*
X-8464182Y-7464805D01*
X-8462252Y-7454130D01*
X-8459607Y-7445567D01*
X-8456190Y-7438392D01*
X-8451948Y-7431874D01*
X-8446822Y-7425288D01*
X-8444138Y-7422016D01*
X-8432628Y-7411144D01*
X-8417438Y-7400826D01*
X-8401219Y-7392524D01*
X-8386619Y-7387704D01*
X-8380875Y-7387057D01*
X-8375033Y-7386188D01*
X-8362270Y-7383701D01*
X-8343400Y-7379771D01*
X-8319234Y-7374575D01*
X-8290584Y-7368290D01*
X-8258263Y-7361091D01*
X-8223082Y-7353155D01*
X-8189019Y-7345385D01*
X-8142404Y-7334755D01*
X-8102812Y-7325894D01*
X-8069552Y-7318700D01*
X-8041933Y-7313071D01*
X-8019265Y-7308904D01*
X-8000857Y-7306099D01*
X-7986018Y-7304553D01*
X-7974056Y-7304164D01*
X-7964282Y-7304831D01*
G36*
X-7964282Y-7304831D02*
G01*
X-7956004Y-7306451D01*
X-7948531Y-7308923D01*
X-7946717Y-7309658D01*
X-7926651Y-7321473D01*
X-7908399Y-7338391D01*
X-7895341Y-7356916D01*
X-7889021Y-7375281D01*
X-7886342Y-7397524D01*
X-7887305Y-7420490D01*
X-7891913Y-7441025D01*
X-7895287Y-7448844D01*
X-7906301Y-7464927D01*
X-7921061Y-7480302D01*
X-7936929Y-7492456D01*
X-7946113Y-7497250D01*
X-7953555Y-7499582D01*
X-7967356Y-7503279D01*
X-7986129Y-7507993D01*
X-8008482Y-7513377D01*
X-8033026Y-7519082D01*
X-8037082Y-7520005D01*
X-8060965Y-7525466D01*
X-8082059Y-7530363D01*
X-8099196Y-7534417D01*
X-8111207Y-7537353D01*
X-8116927Y-7538893D01*
X-8117234Y-7539025D01*
X-8114666Y-7541714D01*
X-8106885Y-7548445D01*
X-8094921Y-7558357D01*
X-8079805Y-7570592D01*
X-8069893Y-7578499D01*
X-7950758Y-7678104D01*
X-7836829Y-7783700D01*
X-7728115Y-7895278D01*
X-7624622Y-8012832D01*
X-7575743Y-8072709D01*
X-7561845Y-8089815D01*
X-7549589Y-8104241D01*
X-7539827Y-8115039D01*
X-7533407Y-8121261D01*
X-7531257Y-8122318D01*
X-7529568Y-8117732D01*
X-7526289Y-8106603D01*
X-7521739Y-8090097D01*
X-7516236Y-8069375D01*
X-7510098Y-8045601D01*
X-7507650Y-8035948D01*
X-7499793Y-8004998D01*
X-7493445Y-7980698D01*
X-7488219Y-7961991D01*
X-7483727Y-7947820D01*
X-7479583Y-7937128D01*
X-7475400Y-7928856D01*
X-7470791Y-7921947D01*
X-7465369Y-7915344D01*
X-7462249Y-7911845D01*
X-7441788Y-7894613D01*
X-7418455Y-7883937D01*
X-7393563Y-7879633D01*
X-7368428Y-7881513D01*
X-7344365Y-7889393D01*
X-7322688Y-7903085D01*
X-7304712Y-7922404D01*
X-7296945Y-7935233D01*
X-7291914Y-7946367D01*
X-7288606Y-7957519D01*
X-7287107Y-7969792D01*
X-7287506Y-7984288D01*
X-7289888Y-8002110D01*
X-7294342Y-8024360D01*
X-7300954Y-8052141D01*
X-7308509Y-8081588D01*
X-7315878Y-8109832D01*
X-7324678Y-8143674D01*
X-7334366Y-8181024D01*
X-7344401Y-8219791D01*
X-7354240Y-8257884D01*
X-7362945Y-8291666D01*
X-7372521Y-8328545D01*
X-7380605Y-8358575D01*
X-7387567Y-8382622D01*
X-7393775Y-8401553D01*
X-7399600Y-8416236D01*
X-7405409Y-8427538D01*
X-7411573Y-8436324D01*
X-7418460Y-8443463D01*
X-7426440Y-8449821D01*
X-7431906Y-8453622D01*
X-7437984Y-8457585D01*
X-7443925Y-8460894D01*
X-7450423Y-8463569D01*
X-7458168Y-8465630D01*
X-7467853Y-8467096D01*
X-7480170Y-8467988D01*
X-7495810Y-8468325D01*
X-7515466Y-8468128D01*
X-7539830Y-8467416D01*
X-7569593Y-8466209D01*
X-7605448Y-8464528D01*
X-7648087Y-8462392D01*
X-7679845Y-8460764D01*
X-7719694Y-8458655D01*
X-7757522Y-8456536D01*
X-7792512Y-8454462D01*
X-7823849Y-8452486D01*
X-7850718Y-8450661D01*
X-7872303Y-8449042D01*
X-7887788Y-8447682D01*
X-7896358Y-8446635D01*
X-7897300Y-8446435D01*
X-7920588Y-8436478D01*
X-7939627Y-8420904D01*
X-7954050Y-8401024D01*
X-7963486Y-8378146D01*
X-7967568Y-8353579D01*
X-7965926Y-8328632D01*
X-7958191Y-8304615D01*
X-7943994Y-8282836D01*
X-7943551Y-8282329D01*
X-7927507Y-8267945D01*
X-7908797Y-8256783D01*
X-7907539Y-8256227D01*
X-7899685Y-8253014D01*
X-7892427Y-8250730D01*
X-7884347Y-8249280D01*
X-7874027Y-8248564D01*
X-7860048Y-8248486D01*
X-7840991Y-8248948D01*
X-7815438Y-8249852D01*
X-7815116Y-8249864D01*
X-7789965Y-8250888D01*
X-7765599Y-8252033D01*
X-7743931Y-8253198D01*
X-7726877Y-8254283D01*
X-7718415Y-8254967D01*
X-7708477Y-8255936D01*
X-7701486Y-8256149D01*
X-7697714Y-8254836D01*
X-7697431Y-8251232D01*
X-7700910Y-8244569D01*
X-7708422Y-8234080D01*
X-7720237Y-8218997D01*
X-7736627Y-8198552D01*
X-7739720Y-8194698D01*
X-7809142Y-8111622D01*
X-7883173Y-8029536D01*
X-7960586Y-7949640D01*
X-8040154Y-7873134D01*
X-8120650Y-7801218D01*
X-8200846Y-7735090D01*
X-8243237Y-7702480D01*
X-8258607Y-7690964D01*
X-8256073Y-7726534D01*
X-8255110Y-7743577D01*
X-8254201Y-7766028D01*
X-8253431Y-7791357D01*
X-8252884Y-7817034D01*
X-8252761Y-7825604D01*
X-8252590Y-7850786D01*
X-8252860Y-7869488D01*
X-8253686Y-7883160D01*
X-8255180Y-7893252D01*
X-8257455Y-7901216D01*
X-8258977Y-7904979D01*
X-8273147Y-7927779D01*
X-8292882Y-7946228D01*
X-8316564Y-7959267D01*
X-8342573Y-7965837D01*
X-8352881Y-7966417D01*
X-8378604Y-7962783D01*
X-8402888Y-7952630D01*
X-8424002Y-7937081D01*
X-8440217Y-7917260D01*
X-8446009Y-7905947D01*
X-8447904Y-7901109D01*
X-8449545Y-7895913D01*
X-8450976Y-7889691D01*
X-8452243Y-7881775D01*
X-8453389Y-7871499D01*
X-8454459Y-7858194D01*
X-8455497Y-7841193D01*
X-8456548Y-7819827D01*
X-8457655Y-7793431D01*
X-8458863Y-7761335D01*
X-8460216Y-7722873D01*
X-8461759Y-7677377D01*
X-8462347Y-7659816D01*
X-8463863Y-7613978D01*
X-8465055Y-7575345D01*
X-8465865Y-7543191D01*
X-8466239Y-7516787D01*
X-8466120Y-7495406D01*
X-8465453Y-7478322D01*
X-8464182Y-7464805D01*
X-8462252Y-7454130D01*
X-8459607Y-7445567D01*
X-8456190Y-7438392D01*
X-8451948Y-7431874D01*
X-8446822Y-7425288D01*
X-8444138Y-7422016D01*
X-8432628Y-7411144D01*
X-8417438Y-7400826D01*
X-8401219Y-7392524D01*
X-8386619Y-7387704D01*
X-8380875Y-7387057D01*
X-8375033Y-7386188D01*
X-8362270Y-7383701D01*
X-8343400Y-7379771D01*
X-8319234Y-7374575D01*
X-8290584Y-7368290D01*
X-8258263Y-7361091D01*
X-8223082Y-7353155D01*
X-8189019Y-7345385D01*
X-8142404Y-7334755D01*
X-8102812Y-7325894D01*
X-8069552Y-7318700D01*
X-8041933Y-7313071D01*
X-8019265Y-7308904D01*
X-8000857Y-7306099D01*
X-7986018Y-7304553D01*
X-7974056Y-7304164D01*
X-7964282Y-7304831D01*
G37*
%TO.C,MH3*%
X9513920Y-6538170D02*
X9547507Y-6542040D01*
X9610942Y-6556533D01*
X9670724Y-6577909D01*
X9726502Y-6605930D01*
X9777928Y-6640355D01*
X9824650Y-6680946D01*
X9866318Y-6727463D01*
X9902583Y-6779668D01*
X9907537Y-6787978D01*
X9933832Y-6840693D01*
X9953542Y-6896925D01*
X9966561Y-6955607D01*
X9972782Y-7015670D01*
X9972098Y-7076044D01*
X9964403Y-7135662D01*
X9949591Y-7193456D01*
X9948329Y-7197273D01*
X9925415Y-7253331D01*
X9895615Y-7306281D01*
X9859600Y-7355436D01*
X9818037Y-7400110D01*
X9771594Y-7439617D01*
X9720941Y-7473270D01*
X9666745Y-7500383D01*
X9644736Y-7509057D01*
X9630447Y-7513607D01*
X9610225Y-7519138D01*
X9585941Y-7525185D01*
X9559465Y-7531282D01*
X9532671Y-7536963D01*
X9532232Y-7537051D01*
X9432503Y-7558678D01*
X9338735Y-7582269D01*
X9249080Y-7608385D01*
X9161685Y-7637586D01*
X9074702Y-7670432D01*
X9027005Y-7689984D01*
X8992497Y-7703664D01*
X8963665Y-7713040D01*
X8939548Y-7718165D01*
X8919190Y-7719093D01*
X8901631Y-7715878D01*
X8885911Y-7708573D01*
X8872631Y-7698622D01*
X8863366Y-7689672D01*
X8855700Y-7679962D01*
X8848964Y-7668106D01*
X8842488Y-7652714D01*
X8835601Y-7632401D01*
X8827634Y-7605778D01*
X8827378Y-7604892D01*
X8809694Y-7548101D01*
X8790649Y-7496370D01*
X8769122Y-7446827D01*
X8752928Y-7413766D01*
X8710190Y-7338632D01*
X8660666Y-7267054D01*
X8604986Y-7199758D01*
X8543782Y-7137473D01*
X8477685Y-7080926D01*
X8440364Y-7053164D01*
X8411566Y-7031231D01*
X8389815Y-7010897D01*
X8374570Y-6991436D01*
X8365290Y-6972119D01*
X8361431Y-6952222D01*
X8361250Y-6947057D01*
X8363138Y-6928506D01*
X8369471Y-6911772D01*
X8380908Y-6896147D01*
X8398107Y-6880922D01*
X8421729Y-6865387D01*
X8452432Y-6848836D01*
X8452743Y-6848679D01*
X8574332Y-6791282D01*
X8701980Y-6737855D01*
X8834690Y-6688736D01*
X8971466Y-6644262D01*
X9111310Y-6604771D01*
X9253224Y-6570599D01*
X9311864Y-6558186D01*
X9371341Y-6547379D01*
X9424475Y-6540466D01*
X9471817Y-6537409D01*
X9513920Y-6538170D01*
G36*
X9513920Y-6538170D02*
G01*
X9547507Y-6542040D01*
X9610942Y-6556533D01*
X9670724Y-6577909D01*
X9726502Y-6605930D01*
X9777928Y-6640355D01*
X9824650Y-6680946D01*
X9866318Y-6727463D01*
X9902583Y-6779668D01*
X9907537Y-6787978D01*
X9933832Y-6840693D01*
X9953542Y-6896925D01*
X9966561Y-6955607D01*
X9972782Y-7015670D01*
X9972098Y-7076044D01*
X9964403Y-7135662D01*
X9949591Y-7193456D01*
X9948329Y-7197273D01*
X9925415Y-7253331D01*
X9895615Y-7306281D01*
X9859600Y-7355436D01*
X9818037Y-7400110D01*
X9771594Y-7439617D01*
X9720941Y-7473270D01*
X9666745Y-7500383D01*
X9644736Y-7509057D01*
X9630447Y-7513607D01*
X9610225Y-7519138D01*
X9585941Y-7525185D01*
X9559465Y-7531282D01*
X9532671Y-7536963D01*
X9532232Y-7537051D01*
X9432503Y-7558678D01*
X9338735Y-7582269D01*
X9249080Y-7608385D01*
X9161685Y-7637586D01*
X9074702Y-7670432D01*
X9027005Y-7689984D01*
X8992497Y-7703664D01*
X8963665Y-7713040D01*
X8939548Y-7718165D01*
X8919190Y-7719093D01*
X8901631Y-7715878D01*
X8885911Y-7708573D01*
X8872631Y-7698622D01*
X8863366Y-7689672D01*
X8855700Y-7679962D01*
X8848964Y-7668106D01*
X8842488Y-7652714D01*
X8835601Y-7632401D01*
X8827634Y-7605778D01*
X8827378Y-7604892D01*
X8809694Y-7548101D01*
X8790649Y-7496370D01*
X8769122Y-7446827D01*
X8752928Y-7413766D01*
X8710190Y-7338632D01*
X8660666Y-7267054D01*
X8604986Y-7199758D01*
X8543782Y-7137473D01*
X8477685Y-7080926D01*
X8440364Y-7053164D01*
X8411566Y-7031231D01*
X8389815Y-7010897D01*
X8374570Y-6991436D01*
X8365290Y-6972119D01*
X8361431Y-6952222D01*
X8361250Y-6947057D01*
X8363138Y-6928506D01*
X8369471Y-6911772D01*
X8380908Y-6896147D01*
X8398107Y-6880922D01*
X8421729Y-6865387D01*
X8452432Y-6848836D01*
X8452743Y-6848679D01*
X8574332Y-6791282D01*
X8701980Y-6737855D01*
X8834690Y-6688736D01*
X8971466Y-6644262D01*
X9111310Y-6604771D01*
X9253224Y-6570599D01*
X9311864Y-6558186D01*
X9371341Y-6547379D01*
X9424475Y-6540466D01*
X9471817Y-6537409D01*
X9513920Y-6538170D01*
G37*
X6955018Y-8351673D02*
X6969259Y-8355628D01*
X6988971Y-8366482D01*
X7009218Y-8384803D01*
X7029563Y-8410183D01*
X7032864Y-8414969D01*
X7086938Y-8488201D01*
X7146142Y-8555669D01*
X7210183Y-8617131D01*
X7278769Y-8672347D01*
X7351605Y-8721073D01*
X7428401Y-8763068D01*
X7484951Y-8788576D01*
X7516142Y-8800921D01*
X7547535Y-8812141D01*
X7581156Y-8822891D01*
X7619033Y-8833828D01*
X7651971Y-8842684D01*
X7670214Y-8847996D01*
X7683262Y-8853411D01*
X7693763Y-8860250D01*
X7702184Y-8867703D01*
X7715623Y-8883266D01*
X7723702Y-8899653D01*
X7726465Y-8917964D01*
X7723957Y-8939296D01*
X7716222Y-8964748D01*
X7707027Y-8987179D01*
X7657583Y-9107698D01*
X7614301Y-9231987D01*
X7577001Y-9360629D01*
X7545501Y-9494206D01*
X7539217Y-9524887D01*
X7532116Y-9559570D01*
X7525804Y-9587951D01*
X7519832Y-9611570D01*
X7513755Y-9631964D01*
X7507126Y-9650673D01*
X7499496Y-9669235D01*
X7493272Y-9683073D01*
X7464533Y-9736054D01*
X7429388Y-9785121D01*
X7388566Y-9829705D01*
X7342795Y-9869233D01*
X7292803Y-9903134D01*
X7239319Y-9930837D01*
X7183072Y-9951771D01*
X7135752Y-9963418D01*
X7072993Y-9971542D01*
X7011364Y-9972079D01*
X6951349Y-9965355D01*
X6893433Y-9951696D01*
X6838104Y-9931426D01*
X6785845Y-9904871D01*
X6737142Y-9872355D01*
X6692481Y-9834205D01*
X6652346Y-9790745D01*
X6617225Y-9742300D01*
X6587601Y-9689196D01*
X6563960Y-9631758D01*
X6546788Y-9570311D01*
X6546419Y-9568601D01*
X6543237Y-9550919D01*
X6541113Y-9531677D01*
X6539916Y-9508978D01*
X6539514Y-9480930D01*
X6539537Y-9469382D01*
X6539914Y-9447697D01*
X6540918Y-9426734D01*
X6542711Y-9405491D01*
X6545454Y-9382963D01*
X6549309Y-9358146D01*
X6554438Y-9330036D01*
X6561001Y-9297629D01*
X6569161Y-9259922D01*
X6579080Y-9215909D01*
X6583298Y-9197523D01*
X6611811Y-9084110D01*
X6645606Y-8967931D01*
X6684017Y-8850843D01*
X6726377Y-8734702D01*
X6772019Y-8621365D01*
X6820278Y-8512689D01*
X6854688Y-8441520D01*
X6869173Y-8413993D01*
X6881967Y-8392962D01*
X6893881Y-8377390D01*
X6905723Y-8366238D01*
X6918303Y-8358469D01*
X6920160Y-8357596D01*
X6938194Y-8351621D01*
X6955018Y-8351673D01*
G36*
X6955018Y-8351673D02*
G01*
X6969259Y-8355628D01*
X6988971Y-8366482D01*
X7009218Y-8384803D01*
X7029563Y-8410183D01*
X7032864Y-8414969D01*
X7086938Y-8488201D01*
X7146142Y-8555669D01*
X7210183Y-8617131D01*
X7278769Y-8672347D01*
X7351605Y-8721073D01*
X7428401Y-8763068D01*
X7484951Y-8788576D01*
X7516142Y-8800921D01*
X7547535Y-8812141D01*
X7581156Y-8822891D01*
X7619033Y-8833828D01*
X7651971Y-8842684D01*
X7670214Y-8847996D01*
X7683262Y-8853411D01*
X7693763Y-8860250D01*
X7702184Y-8867703D01*
X7715623Y-8883266D01*
X7723702Y-8899653D01*
X7726465Y-8917964D01*
X7723957Y-8939296D01*
X7716222Y-8964748D01*
X7707027Y-8987179D01*
X7657583Y-9107698D01*
X7614301Y-9231987D01*
X7577001Y-9360629D01*
X7545501Y-9494206D01*
X7539217Y-9524887D01*
X7532116Y-9559570D01*
X7525804Y-9587951D01*
X7519832Y-9611570D01*
X7513755Y-9631964D01*
X7507126Y-9650673D01*
X7499496Y-9669235D01*
X7493272Y-9683073D01*
X7464533Y-9736054D01*
X7429388Y-9785121D01*
X7388566Y-9829705D01*
X7342795Y-9869233D01*
X7292803Y-9903134D01*
X7239319Y-9930837D01*
X7183072Y-9951771D01*
X7135752Y-9963418D01*
X7072993Y-9971542D01*
X7011364Y-9972079D01*
X6951349Y-9965355D01*
X6893433Y-9951696D01*
X6838104Y-9931426D01*
X6785845Y-9904871D01*
X6737142Y-9872355D01*
X6692481Y-9834205D01*
X6652346Y-9790745D01*
X6617225Y-9742300D01*
X6587601Y-9689196D01*
X6563960Y-9631758D01*
X6546788Y-9570311D01*
X6546419Y-9568601D01*
X6543237Y-9550919D01*
X6541113Y-9531677D01*
X6539916Y-9508978D01*
X6539514Y-9480930D01*
X6539537Y-9469382D01*
X6539914Y-9447697D01*
X6540918Y-9426734D01*
X6542711Y-9405491D01*
X6545454Y-9382963D01*
X6549309Y-9358146D01*
X6554438Y-9330036D01*
X6561001Y-9297629D01*
X6569161Y-9259922D01*
X6579080Y-9215909D01*
X6583298Y-9197523D01*
X6611811Y-9084110D01*
X6645606Y-8967931D01*
X6684017Y-8850843D01*
X6726377Y-8734702D01*
X6772019Y-8621365D01*
X6820278Y-8512689D01*
X6854688Y-8441520D01*
X6869173Y-8413993D01*
X6881967Y-8392962D01*
X6893881Y-8377390D01*
X6905723Y-8366238D01*
X6918303Y-8358469D01*
X6920160Y-8357596D01*
X6938194Y-8351621D01*
X6955018Y-8351673D01*
G37*
X8173913Y-7497820D02*
X8187437Y-7503224D01*
X8210652Y-7518879D01*
X8227874Y-7539503D01*
X8237933Y-7562126D01*
X8242314Y-7579823D01*
X8243348Y-7594838D01*
X8241009Y-7610844D01*
X8237471Y-7624185D01*
X8235599Y-7629927D01*
X8233123Y-7635561D01*
X8229495Y-7641713D01*
X8224164Y-7649007D01*
X8216580Y-7658067D01*
X8206195Y-7669517D01*
X8192456Y-7683982D01*
X8174816Y-7702086D01*
X8152724Y-7724453D01*
X8125630Y-7751707D01*
X8121480Y-7755874D01*
X8011789Y-7866007D01*
X8121480Y-7976140D01*
X8149305Y-8004116D01*
X8172053Y-8027118D01*
X8190273Y-8045771D01*
X8204516Y-8060700D01*
X8215330Y-8072528D01*
X8223266Y-8081879D01*
X8228875Y-8089379D01*
X8232705Y-8095651D01*
X8235306Y-8101320D01*
X8237229Y-8107010D01*
X8237471Y-8107829D01*
X8242124Y-8126610D01*
X8243383Y-8141901D01*
X8241278Y-8157373D01*
X8237933Y-8169888D01*
X8226692Y-8194545D01*
X8209602Y-8214425D01*
X8187607Y-8228856D01*
X8161652Y-8237166D01*
X8140798Y-8238982D01*
X8129644Y-8238748D01*
X8119682Y-8237797D01*
X8110230Y-8235633D01*
X8100607Y-8231761D01*
X8090132Y-8225687D01*
X8078124Y-8216914D01*
X8063903Y-8204948D01*
X8046786Y-8189294D01*
X8026095Y-8169456D01*
X8001146Y-8144940D01*
X7972974Y-8116956D01*
X7866673Y-8011127D01*
X7758559Y-8118789D01*
X7725807Y-8151189D01*
X7698278Y-8177947D01*
X7675790Y-8199233D01*
X7658158Y-8215216D01*
X7645200Y-8226067D01*
X7636730Y-8231953D01*
X7635077Y-8232760D01*
X7611156Y-8238627D01*
X7585114Y-8238409D01*
X7559340Y-8232552D01*
X7536224Y-8221501D01*
X7524073Y-8212046D01*
X7508280Y-8191856D01*
X7498230Y-8167562D01*
X7494320Y-8140924D01*
X7496944Y-8113706D01*
X7499701Y-8103689D01*
X7501893Y-8097802D01*
X7504868Y-8091812D01*
X7509183Y-8085087D01*
X7515397Y-8076996D01*
X7524068Y-8066906D01*
X7535754Y-8054186D01*
X7551014Y-8038203D01*
X7570404Y-8018325D01*
X7594483Y-7993921D01*
X7614080Y-7974157D01*
X7721433Y-7866011D01*
X7616232Y-7759845D01*
X7588145Y-7731277D01*
X7563269Y-7705522D01*
X7542058Y-7683075D01*
X7524971Y-7664428D01*
X7512464Y-7650076D01*
X7504993Y-7640513D01*
X7503347Y-7637804D01*
X7497707Y-7619653D01*
X7495447Y-7597647D01*
X7496528Y-7574938D01*
X7500911Y-7554679D01*
X7504489Y-7546147D01*
X7518143Y-7526917D01*
X7536514Y-7510139D01*
X7555827Y-7498889D01*
X7571697Y-7494821D01*
X7591689Y-7493195D01*
X7612373Y-7494004D01*
X7630321Y-7497238D01*
X7635689Y-7499093D01*
X7643205Y-7504005D01*
X7656014Y-7514648D01*
X7674015Y-7530930D01*
X7697108Y-7552756D01*
X7725192Y-7580035D01*
X7758167Y-7612673D01*
X7758559Y-7613064D01*
X7866673Y-7720887D01*
X7972974Y-7615058D01*
X8004238Y-7584116D01*
X8030431Y-7558609D01*
X8051925Y-7538195D01*
X8069093Y-7522533D01*
X8082307Y-7511280D01*
X8091939Y-7504096D01*
X8097031Y-7501173D01*
X8121344Y-7494104D01*
X8147931Y-7493008D01*
X8173913Y-7497820D01*
G36*
X8173913Y-7497820D02*
G01*
X8187437Y-7503224D01*
X8210652Y-7518879D01*
X8227874Y-7539503D01*
X8237933Y-7562126D01*
X8242314Y-7579823D01*
X8243348Y-7594838D01*
X8241009Y-7610844D01*
X8237471Y-7624185D01*
X8235599Y-7629927D01*
X8233123Y-7635561D01*
X8229495Y-7641713D01*
X8224164Y-7649007D01*
X8216580Y-7658067D01*
X8206195Y-7669517D01*
X8192456Y-7683982D01*
X8174816Y-7702086D01*
X8152724Y-7724453D01*
X8125630Y-7751707D01*
X8121480Y-7755874D01*
X8011789Y-7866007D01*
X8121480Y-7976140D01*
X8149305Y-8004116D01*
X8172053Y-8027118D01*
X8190273Y-8045771D01*
X8204516Y-8060700D01*
X8215330Y-8072528D01*
X8223266Y-8081879D01*
X8228875Y-8089379D01*
X8232705Y-8095651D01*
X8235306Y-8101320D01*
X8237229Y-8107010D01*
X8237471Y-8107829D01*
X8242124Y-8126610D01*
X8243383Y-8141901D01*
X8241278Y-8157373D01*
X8237933Y-8169888D01*
X8226692Y-8194545D01*
X8209602Y-8214425D01*
X8187607Y-8228856D01*
X8161652Y-8237166D01*
X8140798Y-8238982D01*
X8129644Y-8238748D01*
X8119682Y-8237797D01*
X8110230Y-8235633D01*
X8100607Y-8231761D01*
X8090132Y-8225687D01*
X8078124Y-8216914D01*
X8063903Y-8204948D01*
X8046786Y-8189294D01*
X8026095Y-8169456D01*
X8001146Y-8144940D01*
X7972974Y-8116956D01*
X7866673Y-8011127D01*
X7758559Y-8118789D01*
X7725807Y-8151189D01*
X7698278Y-8177947D01*
X7675790Y-8199233D01*
X7658158Y-8215216D01*
X7645200Y-8226067D01*
X7636730Y-8231953D01*
X7635077Y-8232760D01*
X7611156Y-8238627D01*
X7585114Y-8238409D01*
X7559340Y-8232552D01*
X7536224Y-8221501D01*
X7524073Y-8212046D01*
X7508280Y-8191856D01*
X7498230Y-8167562D01*
X7494320Y-8140924D01*
X7496944Y-8113706D01*
X7499701Y-8103689D01*
X7501893Y-8097802D01*
X7504868Y-8091812D01*
X7509183Y-8085087D01*
X7515397Y-8076996D01*
X7524068Y-8066906D01*
X7535754Y-8054186D01*
X7551014Y-8038203D01*
X7570404Y-8018325D01*
X7594483Y-7993921D01*
X7614080Y-7974157D01*
X7721433Y-7866011D01*
X7616232Y-7759845D01*
X7588145Y-7731277D01*
X7563269Y-7705522D01*
X7542058Y-7683075D01*
X7524971Y-7664428D01*
X7512464Y-7650076D01*
X7504993Y-7640513D01*
X7503347Y-7637804D01*
X7497707Y-7619653D01*
X7495447Y-7597647D01*
X7496528Y-7574938D01*
X7500911Y-7554679D01*
X7504489Y-7546147D01*
X7518143Y-7526917D01*
X7536514Y-7510139D01*
X7555827Y-7498889D01*
X7571697Y-7494821D01*
X7591689Y-7493195D01*
X7612373Y-7494004D01*
X7630321Y-7497238D01*
X7635689Y-7499093D01*
X7643205Y-7504005D01*
X7656014Y-7514648D01*
X7674015Y-7530930D01*
X7697108Y-7552756D01*
X7725192Y-7580035D01*
X7758167Y-7612673D01*
X7758559Y-7613064D01*
X7866673Y-7720887D01*
X7972974Y-7615058D01*
X8004238Y-7584116D01*
X8030431Y-7558609D01*
X8051925Y-7538195D01*
X8069093Y-7522533D01*
X8082307Y-7511280D01*
X8091939Y-7504096D01*
X8097031Y-7501173D01*
X8121344Y-7494104D01*
X8147931Y-7493008D01*
X8173913Y-7497820D01*
G37*
%TO.C,MH4*%
X7074971Y9970493D02*
X7134589Y9962798D01*
X7192383Y9947986D01*
X7196200Y9946724D01*
X7252258Y9923810D01*
X7305208Y9894010D01*
X7354363Y9857995D01*
X7399037Y9816432D01*
X7438544Y9769989D01*
X7472197Y9719336D01*
X7499310Y9665140D01*
X7507984Y9643131D01*
X7512534Y9628842D01*
X7518065Y9608620D01*
X7524112Y9584336D01*
X7530209Y9557860D01*
X7535890Y9531066D01*
X7535978Y9530627D01*
X7557605Y9430898D01*
X7581196Y9337130D01*
X7607312Y9247475D01*
X7636513Y9160080D01*
X7669359Y9073097D01*
X7688911Y9025400D01*
X7702591Y8990892D01*
X7711967Y8962060D01*
X7717092Y8937943D01*
X7718020Y8917585D01*
X7714805Y8900026D01*
X7707500Y8884306D01*
X7697549Y8871026D01*
X7688599Y8861761D01*
X7678889Y8854095D01*
X7667033Y8847359D01*
X7651641Y8840883D01*
X7631328Y8833996D01*
X7604705Y8826029D01*
X7603819Y8825773D01*
X7547028Y8808089D01*
X7495297Y8789044D01*
X7445754Y8767517D01*
X7412693Y8751323D01*
X7337559Y8708585D01*
X7265981Y8659061D01*
X7198685Y8603381D01*
X7136400Y8542177D01*
X7079853Y8476080D01*
X7052091Y8438759D01*
X7030158Y8409961D01*
X7009824Y8388210D01*
X6990363Y8372965D01*
X6971046Y8363685D01*
X6951149Y8359826D01*
X6945984Y8359645D01*
X6927433Y8361533D01*
X6910699Y8367866D01*
X6895074Y8379303D01*
X6879849Y8396502D01*
X6864314Y8420124D01*
X6847763Y8450827D01*
X6847606Y8451138D01*
X6790209Y8572727D01*
X6736782Y8700375D01*
X6687663Y8833085D01*
X6643189Y8969861D01*
X6603698Y9109705D01*
X6569526Y9251619D01*
X6557113Y9310259D01*
X6546306Y9369736D01*
X6539393Y9422870D01*
X6536336Y9470212D01*
X6537097Y9512315D01*
X6540967Y9545902D01*
X6555460Y9609337D01*
X6576836Y9669119D01*
X6604857Y9724897D01*
X6639282Y9776323D01*
X6679873Y9823045D01*
X6726390Y9864713D01*
X6778595Y9900978D01*
X6786905Y9905932D01*
X6839620Y9932227D01*
X6895852Y9951937D01*
X6954534Y9964956D01*
X7014597Y9971177D01*
X7074971Y9970493D01*
G36*
X7074971Y9970493D02*
G01*
X7134589Y9962798D01*
X7192383Y9947986D01*
X7196200Y9946724D01*
X7252258Y9923810D01*
X7305208Y9894010D01*
X7354363Y9857995D01*
X7399037Y9816432D01*
X7438544Y9769989D01*
X7472197Y9719336D01*
X7499310Y9665140D01*
X7507984Y9643131D01*
X7512534Y9628842D01*
X7518065Y9608620D01*
X7524112Y9584336D01*
X7530209Y9557860D01*
X7535890Y9531066D01*
X7535978Y9530627D01*
X7557605Y9430898D01*
X7581196Y9337130D01*
X7607312Y9247475D01*
X7636513Y9160080D01*
X7669359Y9073097D01*
X7688911Y9025400D01*
X7702591Y8990892D01*
X7711967Y8962060D01*
X7717092Y8937943D01*
X7718020Y8917585D01*
X7714805Y8900026D01*
X7707500Y8884306D01*
X7697549Y8871026D01*
X7688599Y8861761D01*
X7678889Y8854095D01*
X7667033Y8847359D01*
X7651641Y8840883D01*
X7631328Y8833996D01*
X7604705Y8826029D01*
X7603819Y8825773D01*
X7547028Y8808089D01*
X7495297Y8789044D01*
X7445754Y8767517D01*
X7412693Y8751323D01*
X7337559Y8708585D01*
X7265981Y8659061D01*
X7198685Y8603381D01*
X7136400Y8542177D01*
X7079853Y8476080D01*
X7052091Y8438759D01*
X7030158Y8409961D01*
X7009824Y8388210D01*
X6990363Y8372965D01*
X6971046Y8363685D01*
X6951149Y8359826D01*
X6945984Y8359645D01*
X6927433Y8361533D01*
X6910699Y8367866D01*
X6895074Y8379303D01*
X6879849Y8396502D01*
X6864314Y8420124D01*
X6847763Y8450827D01*
X6847606Y8451138D01*
X6790209Y8572727D01*
X6736782Y8700375D01*
X6687663Y8833085D01*
X6643189Y8969861D01*
X6603698Y9109705D01*
X6569526Y9251619D01*
X6557113Y9310259D01*
X6546306Y9369736D01*
X6539393Y9422870D01*
X6536336Y9470212D01*
X6537097Y9512315D01*
X6540967Y9545902D01*
X6555460Y9609337D01*
X6576836Y9669119D01*
X6604857Y9724897D01*
X6639282Y9776323D01*
X6679873Y9823045D01*
X6726390Y9864713D01*
X6778595Y9900978D01*
X6786905Y9905932D01*
X6839620Y9932227D01*
X6895852Y9951937D01*
X6954534Y9964956D01*
X7014597Y9971177D01*
X7074971Y9970493D01*
G37*
X7608242Y8264812D02*
X7615109Y8264213D01*
X7621688Y8263171D01*
X7628334Y8261374D01*
X7635405Y8258508D01*
X7643258Y8254261D01*
X7652250Y8248322D01*
X7662739Y8240377D01*
X7675082Y8230113D01*
X7689635Y8217220D01*
X7706756Y8201383D01*
X7726803Y8182291D01*
X7750132Y8159631D01*
X7777100Y8133091D01*
X7808065Y8102358D01*
X7843384Y8067119D01*
X7883415Y8027063D01*
X7928513Y7981877D01*
X7954764Y7955569D01*
X8001217Y7909008D01*
X8042384Y7867712D01*
X8078592Y7831336D01*
X8110172Y7799534D01*
X8137450Y7771962D01*
X8160756Y7748274D01*
X8180417Y7728124D01*
X8196763Y7711168D01*
X8210121Y7697060D01*
X8220820Y7685454D01*
X8229189Y7676005D01*
X8235555Y7668368D01*
X8240248Y7662198D01*
X8243595Y7657149D01*
X8245926Y7652875D01*
X8247567Y7649033D01*
X8248337Y7646855D01*
X8255057Y7615323D01*
X8254452Y7584413D01*
X8246919Y7555192D01*
X8232858Y7528724D01*
X8212667Y7506076D01*
X8189653Y7489876D01*
X8178839Y7484291D01*
X8169327Y7480827D01*
X8158611Y7478989D01*
X8144188Y7478277D01*
X8130840Y7478183D01*
X8111300Y7478527D01*
X8097118Y7479840D01*
X8085736Y7482546D01*
X8074592Y7487066D01*
X8073293Y7487682D01*
X8068863Y7490347D01*
X8062532Y7495109D01*
X8053997Y7502260D01*
X8042959Y7512088D01*
X8029116Y7524886D01*
X8012165Y7540944D01*
X7991807Y7560552D01*
X7967738Y7584002D01*
X7939659Y7611583D01*
X7907267Y7643588D01*
X7870262Y7680305D01*
X7828341Y7722027D01*
X7781203Y7769043D01*
X7770846Y7779385D01*
X7724029Y7826159D01*
X7682524Y7867684D01*
X7646004Y7904299D01*
X7614144Y7936345D01*
X7586618Y7964158D01*
X7563099Y7988079D01*
X7543262Y8008447D01*
X7526781Y8025600D01*
X7513329Y8039878D01*
X7502581Y8051620D01*
X7494210Y8061164D01*
X7487891Y8068850D01*
X7483298Y8075016D01*
X7480104Y8080002D01*
X7478157Y8083758D01*
X7469632Y8109322D01*
X7465904Y8136419D01*
X7467281Y8162030D01*
X7469282Y8171010D01*
X7481522Y8201038D01*
X7499424Y8226016D01*
X7522201Y8245381D01*
X7549065Y8258566D01*
X7579228Y8265008D01*
X7600727Y8265280D01*
X7608242Y8264812D01*
G36*
X7608242Y8264812D02*
G01*
X7615109Y8264213D01*
X7621688Y8263171D01*
X7628334Y8261374D01*
X7635405Y8258508D01*
X7643258Y8254261D01*
X7652250Y8248322D01*
X7662739Y8240377D01*
X7675082Y8230113D01*
X7689635Y8217220D01*
X7706756Y8201383D01*
X7726803Y8182291D01*
X7750132Y8159631D01*
X7777100Y8133091D01*
X7808065Y8102358D01*
X7843384Y8067119D01*
X7883415Y8027063D01*
X7928513Y7981877D01*
X7954764Y7955569D01*
X8001217Y7909008D01*
X8042384Y7867712D01*
X8078592Y7831336D01*
X8110172Y7799534D01*
X8137450Y7771962D01*
X8160756Y7748274D01*
X8180417Y7728124D01*
X8196763Y7711168D01*
X8210121Y7697060D01*
X8220820Y7685454D01*
X8229189Y7676005D01*
X8235555Y7668368D01*
X8240248Y7662198D01*
X8243595Y7657149D01*
X8245926Y7652875D01*
X8247567Y7649033D01*
X8248337Y7646855D01*
X8255057Y7615323D01*
X8254452Y7584413D01*
X8246919Y7555192D01*
X8232858Y7528724D01*
X8212667Y7506076D01*
X8189653Y7489876D01*
X8178839Y7484291D01*
X8169327Y7480827D01*
X8158611Y7478989D01*
X8144188Y7478277D01*
X8130840Y7478183D01*
X8111300Y7478527D01*
X8097118Y7479840D01*
X8085736Y7482546D01*
X8074592Y7487066D01*
X8073293Y7487682D01*
X8068863Y7490347D01*
X8062532Y7495109D01*
X8053997Y7502260D01*
X8042959Y7512088D01*
X8029116Y7524886D01*
X8012165Y7540944D01*
X7991807Y7560552D01*
X7967738Y7584002D01*
X7939659Y7611583D01*
X7907267Y7643588D01*
X7870262Y7680305D01*
X7828341Y7722027D01*
X7781203Y7769043D01*
X7770846Y7779385D01*
X7724029Y7826159D01*
X7682524Y7867684D01*
X7646004Y7904299D01*
X7614144Y7936345D01*
X7586618Y7964158D01*
X7563099Y7988079D01*
X7543262Y8008447D01*
X7526781Y8025600D01*
X7513329Y8039878D01*
X7502581Y8051620D01*
X7494210Y8061164D01*
X7487891Y8068850D01*
X7483298Y8075016D01*
X7480104Y8080002D01*
X7478157Y8083758D01*
X7469632Y8109322D01*
X7465904Y8136419D01*
X7467281Y8162030D01*
X7469282Y8171010D01*
X7481522Y8201038D01*
X7499424Y8226016D01*
X7522201Y8245381D01*
X7549065Y8258566D01*
X7579228Y8265008D01*
X7600727Y8265280D01*
X7608242Y8264812D01*
G37*
X8938223Y7722352D02*
X8963675Y7714617D01*
X8986106Y7705422D01*
X9106625Y7655978D01*
X9230914Y7612696D01*
X9359556Y7575396D01*
X9493133Y7543896D01*
X9523814Y7537612D01*
X9558497Y7530511D01*
X9586878Y7524199D01*
X9610497Y7518227D01*
X9630891Y7512150D01*
X9649600Y7505521D01*
X9668162Y7497891D01*
X9682000Y7491667D01*
X9734981Y7462928D01*
X9784048Y7427783D01*
X9828632Y7386961D01*
X9868160Y7341190D01*
X9902061Y7291198D01*
X9929764Y7237714D01*
X9950698Y7181467D01*
X9962345Y7134147D01*
X9970469Y7071388D01*
X9971006Y7009759D01*
X9964282Y6949744D01*
X9950623Y6891828D01*
X9930353Y6836499D01*
X9903798Y6784240D01*
X9871282Y6735537D01*
X9833132Y6690876D01*
X9789672Y6650741D01*
X9741227Y6615620D01*
X9688123Y6585996D01*
X9630685Y6562355D01*
X9569238Y6545183D01*
X9567528Y6544814D01*
X9549846Y6541632D01*
X9530604Y6539508D01*
X9507905Y6538311D01*
X9479857Y6537909D01*
X9468309Y6537932D01*
X9446624Y6538309D01*
X9425661Y6539313D01*
X9404418Y6541106D01*
X9381890Y6543849D01*
X9357073Y6547704D01*
X9328963Y6552833D01*
X9296556Y6559396D01*
X9258849Y6567556D01*
X9214836Y6577475D01*
X9196450Y6581693D01*
X9083037Y6610206D01*
X8966858Y6644001D01*
X8849770Y6682412D01*
X8733629Y6724772D01*
X8620292Y6770414D01*
X8511616Y6818673D01*
X8440447Y6853083D01*
X8412920Y6867568D01*
X8391889Y6880362D01*
X8376317Y6892276D01*
X8365165Y6904118D01*
X8357396Y6916698D01*
X8356523Y6918555D01*
X8350548Y6936589D01*
X8350600Y6953413D01*
X8354555Y6967654D01*
X8365409Y6987366D01*
X8383730Y7007613D01*
X8409110Y7027958D01*
X8413896Y7031259D01*
X8487128Y7085333D01*
X8554596Y7144537D01*
X8616058Y7208578D01*
X8671274Y7277164D01*
X8720000Y7350000D01*
X8761995Y7426796D01*
X8787503Y7483346D01*
X8799848Y7514537D01*
X8811068Y7545930D01*
X8821818Y7579551D01*
X8832755Y7617428D01*
X8841611Y7650366D01*
X8846923Y7668609D01*
X8852338Y7681657D01*
X8859177Y7692158D01*
X8866630Y7700579D01*
X8882193Y7714018D01*
X8898580Y7722097D01*
X8916891Y7724860D01*
X8938223Y7722352D01*
G36*
X8938223Y7722352D02*
G01*
X8963675Y7714617D01*
X8986106Y7705422D01*
X9106625Y7655978D01*
X9230914Y7612696D01*
X9359556Y7575396D01*
X9493133Y7543896D01*
X9523814Y7537612D01*
X9558497Y7530511D01*
X9586878Y7524199D01*
X9610497Y7518227D01*
X9630891Y7512150D01*
X9649600Y7505521D01*
X9668162Y7497891D01*
X9682000Y7491667D01*
X9734981Y7462928D01*
X9784048Y7427783D01*
X9828632Y7386961D01*
X9868160Y7341190D01*
X9902061Y7291198D01*
X9929764Y7237714D01*
X9950698Y7181467D01*
X9962345Y7134147D01*
X9970469Y7071388D01*
X9971006Y7009759D01*
X9964282Y6949744D01*
X9950623Y6891828D01*
X9930353Y6836499D01*
X9903798Y6784240D01*
X9871282Y6735537D01*
X9833132Y6690876D01*
X9789672Y6650741D01*
X9741227Y6615620D01*
X9688123Y6585996D01*
X9630685Y6562355D01*
X9569238Y6545183D01*
X9567528Y6544814D01*
X9549846Y6541632D01*
X9530604Y6539508D01*
X9507905Y6538311D01*
X9479857Y6537909D01*
X9468309Y6537932D01*
X9446624Y6538309D01*
X9425661Y6539313D01*
X9404418Y6541106D01*
X9381890Y6543849D01*
X9357073Y6547704D01*
X9328963Y6552833D01*
X9296556Y6559396D01*
X9258849Y6567556D01*
X9214836Y6577475D01*
X9196450Y6581693D01*
X9083037Y6610206D01*
X8966858Y6644001D01*
X8849770Y6682412D01*
X8733629Y6724772D01*
X8620292Y6770414D01*
X8511616Y6818673D01*
X8440447Y6853083D01*
X8412920Y6867568D01*
X8391889Y6880362D01*
X8376317Y6892276D01*
X8365165Y6904118D01*
X8357396Y6916698D01*
X8356523Y6918555D01*
X8350548Y6936589D01*
X8350600Y6953413D01*
X8354555Y6967654D01*
X8365409Y6987366D01*
X8383730Y7007613D01*
X8409110Y7027958D01*
X8413896Y7031259D01*
X8487128Y7085333D01*
X8554596Y7144537D01*
X8616058Y7208578D01*
X8671274Y7277164D01*
X8720000Y7350000D01*
X8761995Y7426796D01*
X8787503Y7483346D01*
X8799848Y7514537D01*
X8811068Y7545930D01*
X8821818Y7579551D01*
X8832755Y7617428D01*
X8841611Y7650366D01*
X8846923Y7668609D01*
X8852338Y7681657D01*
X8859177Y7692158D01*
X8866630Y7700579D01*
X8882193Y7714018D01*
X8898580Y7722097D01*
X8916891Y7724860D01*
X8938223Y7722352D01*
G37*
%TO.C,MH2*%
X-8902426Y7715407D02*
X-8886706Y7708102D01*
X-8873426Y7698151D01*
X-8864161Y7689201D01*
X-8856495Y7679491D01*
X-8849759Y7667635D01*
X-8843283Y7652243D01*
X-8836396Y7631930D01*
X-8828429Y7605307D01*
X-8828173Y7604421D01*
X-8810489Y7547630D01*
X-8791444Y7495899D01*
X-8769917Y7446356D01*
X-8753723Y7413295D01*
X-8710985Y7338161D01*
X-8661461Y7266583D01*
X-8605781Y7199287D01*
X-8544577Y7137002D01*
X-8478480Y7080455D01*
X-8441159Y7052693D01*
X-8412361Y7030760D01*
X-8390610Y7010426D01*
X-8375365Y6990965D01*
X-8366085Y6971648D01*
X-8362226Y6951751D01*
X-8362045Y6946586D01*
X-8363933Y6928035D01*
X-8370266Y6911301D01*
X-8381703Y6895676D01*
X-8398902Y6880451D01*
X-8422524Y6864916D01*
X-8453227Y6848365D01*
X-8453538Y6848208D01*
X-8575127Y6790811D01*
X-8702775Y6737384D01*
X-8835485Y6688265D01*
X-8972261Y6643791D01*
X-9112105Y6604300D01*
X-9254019Y6570128D01*
X-9312659Y6557715D01*
X-9372136Y6546908D01*
X-9425270Y6539995D01*
X-9472612Y6536938D01*
X-9514715Y6537699D01*
X-9548302Y6541569D01*
X-9611737Y6556062D01*
X-9671519Y6577438D01*
X-9727297Y6605459D01*
X-9778723Y6639884D01*
X-9825445Y6680475D01*
X-9867113Y6726992D01*
X-9903378Y6779197D01*
X-9908332Y6787507D01*
X-9934627Y6840222D01*
X-9954337Y6896454D01*
X-9967356Y6955136D01*
X-9973577Y7015199D01*
X-9972893Y7075573D01*
X-9965198Y7135191D01*
X-9950386Y7192985D01*
X-9949124Y7196802D01*
X-9926210Y7252860D01*
X-9896410Y7305810D01*
X-9860395Y7354965D01*
X-9818832Y7399639D01*
X-9772389Y7439146D01*
X-9721736Y7472799D01*
X-9667540Y7499912D01*
X-9645531Y7508586D01*
X-9631242Y7513136D01*
X-9611020Y7518667D01*
X-9586736Y7524714D01*
X-9560260Y7530811D01*
X-9533466Y7536492D01*
X-9533027Y7536580D01*
X-9433298Y7558207D01*
X-9339530Y7581798D01*
X-9249875Y7607914D01*
X-9162480Y7637115D01*
X-9075497Y7669961D01*
X-9027800Y7689513D01*
X-8993292Y7703193D01*
X-8964460Y7712569D01*
X-8940343Y7717694D01*
X-8919985Y7718622D01*
X-8902426Y7715407D01*
G36*
X-8902426Y7715407D02*
G01*
X-8886706Y7708102D01*
X-8873426Y7698151D01*
X-8864161Y7689201D01*
X-8856495Y7679491D01*
X-8849759Y7667635D01*
X-8843283Y7652243D01*
X-8836396Y7631930D01*
X-8828429Y7605307D01*
X-8828173Y7604421D01*
X-8810489Y7547630D01*
X-8791444Y7495899D01*
X-8769917Y7446356D01*
X-8753723Y7413295D01*
X-8710985Y7338161D01*
X-8661461Y7266583D01*
X-8605781Y7199287D01*
X-8544577Y7137002D01*
X-8478480Y7080455D01*
X-8441159Y7052693D01*
X-8412361Y7030760D01*
X-8390610Y7010426D01*
X-8375365Y6990965D01*
X-8366085Y6971648D01*
X-8362226Y6951751D01*
X-8362045Y6946586D01*
X-8363933Y6928035D01*
X-8370266Y6911301D01*
X-8381703Y6895676D01*
X-8398902Y6880451D01*
X-8422524Y6864916D01*
X-8453227Y6848365D01*
X-8453538Y6848208D01*
X-8575127Y6790811D01*
X-8702775Y6737384D01*
X-8835485Y6688265D01*
X-8972261Y6643791D01*
X-9112105Y6604300D01*
X-9254019Y6570128D01*
X-9312659Y6557715D01*
X-9372136Y6546908D01*
X-9425270Y6539995D01*
X-9472612Y6536938D01*
X-9514715Y6537699D01*
X-9548302Y6541569D01*
X-9611737Y6556062D01*
X-9671519Y6577438D01*
X-9727297Y6605459D01*
X-9778723Y6639884D01*
X-9825445Y6680475D01*
X-9867113Y6726992D01*
X-9903378Y6779197D01*
X-9908332Y6787507D01*
X-9934627Y6840222D01*
X-9954337Y6896454D01*
X-9967356Y6955136D01*
X-9973577Y7015199D01*
X-9972893Y7075573D01*
X-9965198Y7135191D01*
X-9950386Y7192985D01*
X-9949124Y7196802D01*
X-9926210Y7252860D01*
X-9896410Y7305810D01*
X-9860395Y7354965D01*
X-9818832Y7399639D01*
X-9772389Y7439146D01*
X-9721736Y7472799D01*
X-9667540Y7499912D01*
X-9645531Y7508586D01*
X-9631242Y7513136D01*
X-9611020Y7518667D01*
X-9586736Y7524714D01*
X-9560260Y7530811D01*
X-9533466Y7536492D01*
X-9533027Y7536580D01*
X-9433298Y7558207D01*
X-9339530Y7581798D01*
X-9249875Y7607914D01*
X-9162480Y7637115D01*
X-9075497Y7669961D01*
X-9027800Y7689513D01*
X-8993292Y7703193D01*
X-8964460Y7712569D01*
X-8940343Y7717694D01*
X-8919985Y7718622D01*
X-8902426Y7715407D01*
G37*
X-7586813Y8255054D02*
X-7557592Y8247521D01*
X-7531124Y8233460D01*
X-7508476Y8213269D01*
X-7492276Y8190255D01*
X-7486691Y8179441D01*
X-7483227Y8169929D01*
X-7481389Y8159213D01*
X-7480677Y8144790D01*
X-7480583Y8131442D01*
X-7480927Y8111902D01*
X-7482240Y8097720D01*
X-7484946Y8086338D01*
X-7489466Y8075194D01*
X-7490082Y8073895D01*
X-7492747Y8069465D01*
X-7497509Y8063134D01*
X-7504660Y8054599D01*
X-7514488Y8043561D01*
X-7527286Y8029718D01*
X-7543344Y8012767D01*
X-7562952Y7992409D01*
X-7586402Y7968340D01*
X-7613983Y7940261D01*
X-7645988Y7907869D01*
X-7682705Y7870864D01*
X-7724427Y7828943D01*
X-7771443Y7781805D01*
X-7781785Y7771448D01*
X-7828559Y7724631D01*
X-7870084Y7683126D01*
X-7906699Y7646606D01*
X-7938745Y7614746D01*
X-7966558Y7587220D01*
X-7990479Y7563701D01*
X-8010847Y7543864D01*
X-8028000Y7527383D01*
X-8042278Y7513931D01*
X-8054020Y7503183D01*
X-8063564Y7494812D01*
X-8071250Y7488493D01*
X-8077416Y7483900D01*
X-8082402Y7480706D01*
X-8086158Y7478759D01*
X-8111722Y7470234D01*
X-8138819Y7466506D01*
X-8164430Y7467883D01*
X-8173410Y7469884D01*
X-8203438Y7482124D01*
X-8228416Y7500026D01*
X-8247781Y7522803D01*
X-8260966Y7549667D01*
X-8267408Y7579830D01*
X-8267680Y7601329D01*
X-8267212Y7608844D01*
X-8266613Y7615711D01*
X-8265571Y7622290D01*
X-8263774Y7628936D01*
X-8260908Y7636007D01*
X-8256661Y7643860D01*
X-8250722Y7652852D01*
X-8242777Y7663341D01*
X-8232513Y7675684D01*
X-8219620Y7690237D01*
X-8203783Y7707358D01*
X-8184691Y7727405D01*
X-8162031Y7750734D01*
X-8135491Y7777702D01*
X-8104758Y7808667D01*
X-8069519Y7843986D01*
X-8029463Y7884017D01*
X-7984277Y7929115D01*
X-7957969Y7955366D01*
X-7911408Y8001819D01*
X-7870112Y8042986D01*
X-7833736Y8079194D01*
X-7801934Y8110774D01*
X-7774362Y8138052D01*
X-7750674Y8161358D01*
X-7730524Y8181019D01*
X-7713568Y8197365D01*
X-7699460Y8210723D01*
X-7687854Y8221422D01*
X-7678405Y8229791D01*
X-7670768Y8236157D01*
X-7664598Y8240850D01*
X-7659549Y8244197D01*
X-7655275Y8246528D01*
X-7651433Y8248169D01*
X-7649255Y8248939D01*
X-7617723Y8255659D01*
X-7586813Y8255054D01*
G36*
X-7586813Y8255054D02*
G01*
X-7557592Y8247521D01*
X-7531124Y8233460D01*
X-7508476Y8213269D01*
X-7492276Y8190255D01*
X-7486691Y8179441D01*
X-7483227Y8169929D01*
X-7481389Y8159213D01*
X-7480677Y8144790D01*
X-7480583Y8131442D01*
X-7480927Y8111902D01*
X-7482240Y8097720D01*
X-7484946Y8086338D01*
X-7489466Y8075194D01*
X-7490082Y8073895D01*
X-7492747Y8069465D01*
X-7497509Y8063134D01*
X-7504660Y8054599D01*
X-7514488Y8043561D01*
X-7527286Y8029718D01*
X-7543344Y8012767D01*
X-7562952Y7992409D01*
X-7586402Y7968340D01*
X-7613983Y7940261D01*
X-7645988Y7907869D01*
X-7682705Y7870864D01*
X-7724427Y7828943D01*
X-7771443Y7781805D01*
X-7781785Y7771448D01*
X-7828559Y7724631D01*
X-7870084Y7683126D01*
X-7906699Y7646606D01*
X-7938745Y7614746D01*
X-7966558Y7587220D01*
X-7990479Y7563701D01*
X-8010847Y7543864D01*
X-8028000Y7527383D01*
X-8042278Y7513931D01*
X-8054020Y7503183D01*
X-8063564Y7494812D01*
X-8071250Y7488493D01*
X-8077416Y7483900D01*
X-8082402Y7480706D01*
X-8086158Y7478759D01*
X-8111722Y7470234D01*
X-8138819Y7466506D01*
X-8164430Y7467883D01*
X-8173410Y7469884D01*
X-8203438Y7482124D01*
X-8228416Y7500026D01*
X-8247781Y7522803D01*
X-8260966Y7549667D01*
X-8267408Y7579830D01*
X-8267680Y7601329D01*
X-8267212Y7608844D01*
X-8266613Y7615711D01*
X-8265571Y7622290D01*
X-8263774Y7628936D01*
X-8260908Y7636007D01*
X-8256661Y7643860D01*
X-8250722Y7652852D01*
X-8242777Y7663341D01*
X-8232513Y7675684D01*
X-8219620Y7690237D01*
X-8203783Y7707358D01*
X-8184691Y7727405D01*
X-8162031Y7750734D01*
X-8135491Y7777702D01*
X-8104758Y7808667D01*
X-8069519Y7843986D01*
X-8029463Y7884017D01*
X-7984277Y7929115D01*
X-7957969Y7955366D01*
X-7911408Y8001819D01*
X-7870112Y8042986D01*
X-7833736Y8079194D01*
X-7801934Y8110774D01*
X-7774362Y8138052D01*
X-7750674Y8161358D01*
X-7730524Y8181019D01*
X-7713568Y8197365D01*
X-7699460Y8210723D01*
X-7687854Y8221422D01*
X-7678405Y8229791D01*
X-7670768Y8236157D01*
X-7664598Y8240850D01*
X-7659549Y8244197D01*
X-7655275Y8246528D01*
X-7651433Y8248169D01*
X-7649255Y8248939D01*
X-7617723Y8255659D01*
X-7586813Y8255054D01*
G37*
X-6952144Y9964884D02*
X-6894228Y9951225D01*
X-6838899Y9930955D01*
X-6786640Y9904400D01*
X-6737937Y9871884D01*
X-6693276Y9833734D01*
X-6653141Y9790274D01*
X-6618020Y9741829D01*
X-6588396Y9688725D01*
X-6564755Y9631287D01*
X-6547583Y9569840D01*
X-6547214Y9568130D01*
X-6544032Y9550448D01*
X-6541908Y9531206D01*
X-6540711Y9508507D01*
X-6540309Y9480459D01*
X-6540332Y9468911D01*
X-6540709Y9447226D01*
X-6541713Y9426263D01*
X-6543506Y9405020D01*
X-6546249Y9382492D01*
X-6550104Y9357675D01*
X-6555233Y9329565D01*
X-6561796Y9297158D01*
X-6569956Y9259451D01*
X-6579875Y9215438D01*
X-6584093Y9197052D01*
X-6612606Y9083639D01*
X-6646401Y8967460D01*
X-6684812Y8850372D01*
X-6727172Y8734231D01*
X-6772814Y8620894D01*
X-6821073Y8512218D01*
X-6855483Y8441049D01*
X-6869968Y8413522D01*
X-6882762Y8392491D01*
X-6894676Y8376919D01*
X-6906518Y8365767D01*
X-6919098Y8357998D01*
X-6920955Y8357125D01*
X-6938989Y8351150D01*
X-6955813Y8351202D01*
X-6970054Y8355157D01*
X-6989766Y8366011D01*
X-7010013Y8384332D01*
X-7030358Y8409712D01*
X-7033659Y8414498D01*
X-7087733Y8487730D01*
X-7146937Y8555198D01*
X-7210978Y8616660D01*
X-7279564Y8671876D01*
X-7352400Y8720602D01*
X-7429196Y8762597D01*
X-7485746Y8788105D01*
X-7516937Y8800450D01*
X-7548330Y8811670D01*
X-7581951Y8822420D01*
X-7619828Y8833357D01*
X-7652766Y8842213D01*
X-7671009Y8847525D01*
X-7684057Y8852940D01*
X-7694558Y8859779D01*
X-7702979Y8867232D01*
X-7716418Y8882795D01*
X-7724497Y8899182D01*
X-7727260Y8917493D01*
X-7724752Y8938825D01*
X-7717017Y8964277D01*
X-7707822Y8986708D01*
X-7658378Y9107227D01*
X-7615096Y9231516D01*
X-7577796Y9360158D01*
X-7546296Y9493735D01*
X-7540012Y9524416D01*
X-7532911Y9559099D01*
X-7526599Y9587480D01*
X-7520627Y9611099D01*
X-7514550Y9631493D01*
X-7507921Y9650202D01*
X-7500291Y9668764D01*
X-7494067Y9682602D01*
X-7465328Y9735583D01*
X-7430183Y9784650D01*
X-7389361Y9829234D01*
X-7343590Y9868762D01*
X-7293598Y9902663D01*
X-7240114Y9930366D01*
X-7183867Y9951300D01*
X-7136547Y9962947D01*
X-7073788Y9971071D01*
X-7012159Y9971608D01*
X-6952144Y9964884D01*
G36*
X-6952144Y9964884D02*
G01*
X-6894228Y9951225D01*
X-6838899Y9930955D01*
X-6786640Y9904400D01*
X-6737937Y9871884D01*
X-6693276Y9833734D01*
X-6653141Y9790274D01*
X-6618020Y9741829D01*
X-6588396Y9688725D01*
X-6564755Y9631287D01*
X-6547583Y9569840D01*
X-6547214Y9568130D01*
X-6544032Y9550448D01*
X-6541908Y9531206D01*
X-6540711Y9508507D01*
X-6540309Y9480459D01*
X-6540332Y9468911D01*
X-6540709Y9447226D01*
X-6541713Y9426263D01*
X-6543506Y9405020D01*
X-6546249Y9382492D01*
X-6550104Y9357675D01*
X-6555233Y9329565D01*
X-6561796Y9297158D01*
X-6569956Y9259451D01*
X-6579875Y9215438D01*
X-6584093Y9197052D01*
X-6612606Y9083639D01*
X-6646401Y8967460D01*
X-6684812Y8850372D01*
X-6727172Y8734231D01*
X-6772814Y8620894D01*
X-6821073Y8512218D01*
X-6855483Y8441049D01*
X-6869968Y8413522D01*
X-6882762Y8392491D01*
X-6894676Y8376919D01*
X-6906518Y8365767D01*
X-6919098Y8357998D01*
X-6920955Y8357125D01*
X-6938989Y8351150D01*
X-6955813Y8351202D01*
X-6970054Y8355157D01*
X-6989766Y8366011D01*
X-7010013Y8384332D01*
X-7030358Y8409712D01*
X-7033659Y8414498D01*
X-7087733Y8487730D01*
X-7146937Y8555198D01*
X-7210978Y8616660D01*
X-7279564Y8671876D01*
X-7352400Y8720602D01*
X-7429196Y8762597D01*
X-7485746Y8788105D01*
X-7516937Y8800450D01*
X-7548330Y8811670D01*
X-7581951Y8822420D01*
X-7619828Y8833357D01*
X-7652766Y8842213D01*
X-7671009Y8847525D01*
X-7684057Y8852940D01*
X-7694558Y8859779D01*
X-7702979Y8867232D01*
X-7716418Y8882795D01*
X-7724497Y8899182D01*
X-7727260Y8917493D01*
X-7724752Y8938825D01*
X-7717017Y8964277D01*
X-7707822Y8986708D01*
X-7658378Y9107227D01*
X-7615096Y9231516D01*
X-7577796Y9360158D01*
X-7546296Y9493735D01*
X-7540012Y9524416D01*
X-7532911Y9559099D01*
X-7526599Y9587480D01*
X-7520627Y9611099D01*
X-7514550Y9631493D01*
X-7507921Y9650202D01*
X-7500291Y9668764D01*
X-7494067Y9682602D01*
X-7465328Y9735583D01*
X-7430183Y9784650D01*
X-7389361Y9829234D01*
X-7343590Y9868762D01*
X-7293598Y9902663D01*
X-7240114Y9930366D01*
X-7183867Y9951300D01*
X-7136547Y9962947D01*
X-7073788Y9971071D01*
X-7012159Y9971608D01*
X-6952144Y9964884D01*
G37*
D11*
%TO.C,G\u002A\u002A\u002A*%
G36*
X-1479141Y-812314D02*
G01*
X-1479141Y-945679D01*
X-1745871Y-945679D01*
X-2012602Y-945679D01*
X-2012602Y-812314D01*
X-2012602Y-678949D01*
X-1745871Y-678949D01*
X-1479141Y-678949D01*
X-1479141Y-812314D01*
G37*
G36*
X-666826Y2691552D02*
G01*
X-666826Y2558187D01*
X-800191Y2558187D01*
X-933556Y2558187D01*
X-933556Y2691552D01*
X-933556Y2824917D01*
X-800191Y2824917D01*
X-666826Y2824917D01*
X-666826Y2691552D01*
G37*
G36*
X-666826Y266731D02*
G01*
X-666826Y133366D01*
X-800191Y133366D01*
X-933556Y133366D01*
X-933556Y266731D01*
X-933556Y400096D01*
X-800191Y400096D01*
X-666826Y400096D01*
X-666826Y266731D01*
G37*
G36*
X-133365Y2418760D02*
G01*
X-133365Y2279333D01*
X-266731Y2279333D01*
X-400096Y2279333D01*
X-400096Y2418760D01*
X-400096Y2558187D01*
X-266731Y2558187D01*
X-133365Y2558187D01*
X-133365Y2418760D01*
G37*
G36*
X145489Y-1891360D02*
G01*
X145489Y-2024725D01*
X6062Y-2024725D01*
X-133365Y-2024725D01*
X-133365Y-1891360D01*
X-133365Y-1757994D01*
X6062Y-1757994D01*
X145489Y-1757994D01*
X145489Y-1891360D01*
G37*
G36*
X945680Y2418760D02*
G01*
X945680Y2279333D01*
X545584Y2279333D01*
X145489Y2279333D01*
X145489Y2418760D01*
X145489Y2558187D01*
X545584Y2558187D01*
X945680Y2558187D01*
X945680Y2418760D01*
G37*
G36*
X678950Y-1351837D02*
G01*
X678950Y-1491264D01*
X545584Y-1491264D01*
X412219Y-1491264D01*
X412219Y-1351837D01*
X412219Y-1212410D01*
X545584Y-1212410D01*
X678950Y-1212410D01*
X678950Y-1351837D01*
G37*
G36*
X678950Y-1891360D02*
G01*
X678950Y-2024725D01*
X545584Y-2024725D01*
X412219Y-2024725D01*
X412219Y-1891360D01*
X412219Y-1757994D01*
X545584Y-1757994D01*
X678950Y-1757994D01*
X678950Y-1891360D01*
G37*
G36*
X1491265Y-2970405D02*
G01*
X1491265Y-3103770D01*
X1351837Y-3103770D01*
X1212410Y-3103770D01*
X1212410Y-2970405D01*
X1212410Y-2837040D01*
X1351837Y-2837040D01*
X1491265Y-2837040D01*
X1491265Y-2970405D01*
G37*
G36*
X2837040Y800192D02*
G01*
X2837040Y666827D01*
X2703675Y666827D01*
X2570310Y666827D01*
X2570310Y800192D01*
X2570310Y933557D01*
X2703675Y933557D01*
X2837040Y933557D01*
X2837040Y800192D01*
G37*
G36*
X3103771Y-2430882D02*
G01*
X3103771Y-2570309D01*
X2837040Y-2570309D01*
X2570310Y-2570309D01*
X2570310Y-2430882D01*
X2570310Y-2291455D01*
X2837040Y-2291455D01*
X3103771Y-2291455D01*
X3103771Y-2430882D01*
G37*
G36*
X3103771Y-1757994D02*
G01*
X3103771Y-2024725D01*
X2697613Y-2024725D01*
X2291456Y-2024725D01*
X2291456Y-1891360D01*
X2291456Y-1757994D01*
X2564248Y-1757994D01*
X2837040Y-1757994D01*
X2837040Y-1624629D01*
X2837040Y-1491264D01*
X2970405Y-1491264D01*
X3103771Y-1491264D01*
X3103771Y-1757994D01*
G37*
G36*
X-2418759Y3091648D02*
G01*
X-1745871Y3091648D01*
X-1745871Y2418760D01*
X-1745871Y1745872D01*
X-2418759Y1745872D01*
X-3091647Y1745872D01*
X-3091647Y2418760D01*
X-3091647Y2824917D01*
X-2824917Y2824917D01*
X-2824917Y2418760D01*
X-2824917Y2012602D01*
X-2418759Y2012602D01*
X-2012602Y2012602D01*
X-2012602Y2418760D01*
X-2012602Y2824917D01*
X-2418759Y2824917D01*
X-2824917Y2824917D01*
X-3091647Y2824917D01*
X-3091647Y3091648D01*
X-2418759Y3091648D01*
G37*
G36*
X-2418759Y-1757994D02*
G01*
X-1745871Y-1757994D01*
X-1745871Y-2430882D01*
X-1745871Y-3103770D01*
X-2418759Y-3103770D01*
X-3091647Y-3103770D01*
X-3091647Y-2430882D01*
X-3091647Y-2024725D01*
X-2824917Y-2024725D01*
X-2824917Y-2430882D01*
X-2824917Y-2837040D01*
X-2418759Y-2837040D01*
X-2012602Y-2837040D01*
X-2012602Y-2430882D01*
X-2012602Y-2024725D01*
X-2418759Y-2024725D01*
X-2824917Y-2024725D01*
X-3091647Y-2024725D01*
X-3091647Y-1757994D01*
X-2418759Y-1757994D01*
G37*
G36*
X2430883Y3091648D02*
G01*
X3103771Y3091648D01*
X3103771Y2418760D01*
X3103771Y1745872D01*
X2430883Y1745872D01*
X1757995Y1745872D01*
X1757995Y2418760D01*
X1757995Y2824917D01*
X2024725Y2824917D01*
X2024725Y2418760D01*
X2024725Y2012602D01*
X2430883Y2012602D01*
X2837040Y2012602D01*
X2837040Y2418760D01*
X2837040Y2824917D01*
X2430883Y2824917D01*
X2024725Y2824917D01*
X1757995Y2824917D01*
X1757995Y3091648D01*
X2430883Y3091648D01*
G37*
G36*
X1624630Y-1212410D02*
G01*
X2024725Y-1212410D01*
X2024725Y-1618567D01*
X2024725Y-2024725D01*
X1618568Y-2024725D01*
X1212410Y-2024725D01*
X1212410Y-1618567D01*
X1212410Y-1491264D01*
X1491265Y-1491264D01*
X1491265Y-1624629D01*
X1491265Y-1757994D01*
X1624630Y-1757994D01*
X1757995Y-1757994D01*
X1757995Y-1624629D01*
X1757995Y-1491264D01*
X1624630Y-1491264D01*
X1491265Y-1491264D01*
X1212410Y-1491264D01*
X1212410Y-1212410D01*
X1618568Y-1212410D01*
X1624630Y-1212410D01*
G37*
G36*
X-4129992Y-536590D02*
G01*
X-4091681Y-552409D01*
X-4064389Y-582158D01*
X-4064248Y-582427D01*
X-4054438Y-618202D01*
X-4054790Y-660311D01*
X-4064128Y-698869D01*
X-4081275Y-723989D01*
X-4085412Y-726648D01*
X-4117960Y-736770D01*
X-4158905Y-739055D01*
X-4197728Y-733722D01*
X-4223909Y-720994D01*
X-4232397Y-710301D01*
X-4247788Y-671180D01*
X-4251998Y-624762D01*
X-4243476Y-582051D01*
X-4238733Y-572750D01*
X-4210750Y-546756D01*
X-4172092Y-534704D01*
X-4129992Y-536590D01*
G37*
G36*
X-1212411Y266731D02*
G01*
X-1212411Y133366D01*
X-1479141Y133366D01*
X-1745871Y133366D01*
X-1745871Y-6061D01*
X-1745871Y-145488D01*
X-1612506Y-145488D01*
X-1479141Y-145488D01*
X-1479141Y-278854D01*
X-1479141Y-412219D01*
X-1745871Y-412219D01*
X-2012602Y-412219D01*
X-2012602Y-139426D01*
X-2012602Y133366D01*
X-1879237Y133366D01*
X-1745871Y133366D01*
X-1745871Y266731D01*
X-1745871Y400096D01*
X-1479141Y400096D01*
X-1212411Y400096D01*
X-1212411Y266731D01*
G37*
G36*
X945680Y-2697613D02*
G01*
X945680Y-3103770D01*
X812315Y-3103770D01*
X678950Y-3103770D01*
X678950Y-2837040D01*
X678950Y-2570309D01*
X545584Y-2570309D01*
X412219Y-2570309D01*
X412219Y-2837040D01*
X412219Y-3103770D01*
X278854Y-3103770D01*
X145489Y-3103770D01*
X145489Y-2837040D01*
X145489Y-2570309D01*
X6062Y-2570309D01*
X-133365Y-2570309D01*
X-133365Y-2430882D01*
X-133365Y-2291455D01*
X406157Y-2291455D01*
X945680Y-2291455D01*
X945680Y-2697613D01*
G37*
G36*
X-4761886Y991786D02*
G01*
X-4727604Y981627D01*
X-4713558Y969161D01*
X-4706157Y945818D01*
X-4704153Y905245D01*
X-4705135Y881268D01*
X-4710403Y846645D01*
X-4718702Y826865D01*
X-4731252Y819586D01*
X-4764490Y813134D01*
X-4804847Y813150D01*
X-4842335Y819329D01*
X-4866962Y831368D01*
X-4868273Y832771D01*
X-4881175Y861131D01*
X-4886015Y903247D01*
X-4885981Y906913D01*
X-4880406Y948263D01*
X-4866962Y975125D01*
X-4842428Y987591D01*
X-4803637Y993612D01*
X-4761886Y991786D01*
G37*
G36*
X4807620Y-1662105D02*
G01*
X4834061Y-1680701D01*
X4846993Y-1713759D01*
X4849650Y-1757286D01*
X4842241Y-1799891D01*
X4825393Y-1830739D01*
X4807268Y-1843274D01*
X4766419Y-1854071D01*
X4721392Y-1851815D01*
X4682602Y-1836114D01*
X4679934Y-1834183D01*
X4664784Y-1817659D01*
X4657522Y-1792715D01*
X4655656Y-1751524D01*
X4655816Y-1734917D01*
X4658872Y-1701427D01*
X4668043Y-1681087D01*
X4686222Y-1665781D01*
X4689180Y-1663966D01*
X4725348Y-1652745D01*
X4768105Y-1652456D01*
X4807620Y-1662105D01*
G37*
G36*
X-2418759Y-145488D02*
G01*
X-2279332Y-145488D01*
X-2279332Y-278854D01*
X-2279332Y-412219D01*
X-2418759Y-412219D01*
X-2558187Y-412219D01*
X-2558187Y-545584D01*
X-2558187Y-678949D01*
X-2691552Y-678949D01*
X-2824917Y-678949D01*
X-2824917Y-545584D01*
X-2824917Y-412219D01*
X-2691552Y-412219D01*
X-2558187Y-412219D01*
X-2558187Y-278854D01*
X-2558187Y-145488D01*
X-2418759Y-145488D01*
G37*
G36*
X-2279332Y266731D02*
G01*
X-2279332Y133366D01*
X-2418759Y133366D01*
X-2558187Y133366D01*
X-2558187Y-6061D01*
X-2558187Y-145488D01*
X-2691552Y-145488D01*
X-2824917Y-145488D01*
X-2824917Y127304D01*
X-2824917Y400096D01*
X-2552124Y400096D01*
X-2279332Y400096D01*
X-2279332Y266731D01*
G37*
G36*
X-4330577Y991389D02*
G01*
X-4080459Y988115D01*
X-4065134Y957805D01*
X-4055510Y933520D01*
X-4051351Y883520D01*
X-4068325Y839262D01*
X-4073541Y832329D01*
X-4081800Y825063D01*
X-4094536Y819810D01*
X-4115042Y816243D01*
X-4146616Y814036D01*
X-4192552Y812863D01*
X-4256145Y812398D01*
X-4340691Y812316D01*
X-4389111Y812312D01*
X-4466886Y812661D01*
X-4524825Y814318D01*
X-4565845Y818282D01*
X-4592864Y825551D01*
X-4608799Y837124D01*
X-4616569Y853998D01*
X-4619092Y877173D01*
X-4619284Y907646D01*
X-4619252Y916493D01*
X-4617856Y942011D01*
X-4612283Y961250D01*
X-4599665Y975041D01*
X-4577135Y984217D01*
X-4541829Y989608D01*
X-4490878Y992046D01*
X-4421416Y992363D01*
X-4330577Y991389D01*
G37*
G36*
X4835428Y1272487D02*
G01*
X4862567Y1262436D01*
X4886147Y1233629D01*
X4906740Y1187002D01*
X4905799Y1149635D01*
X4882983Y1122425D01*
X4871268Y1115457D01*
X4836646Y1096936D01*
X4786346Y1071381D01*
X4723489Y1040266D01*
X4651197Y1005067D01*
X4572590Y967260D01*
X4490789Y928320D01*
X4408915Y889722D01*
X4330089Y852943D01*
X4257433Y819457D01*
X4194066Y790741D01*
X4143110Y768269D01*
X4107687Y753517D01*
X4090916Y747960D01*
X4075666Y749272D01*
X4045932Y765645D01*
X4022364Y794844D01*
X4008271Y830027D01*
X4006961Y864352D01*
X4021746Y890976D01*
X4037391Y901187D01*
X4072795Y920696D01*
X4123868Y947122D01*
X4187493Y978990D01*
X4260554Y1014827D01*
X4339936Y1053158D01*
X4422522Y1092509D01*
X4505196Y1131406D01*
X4584843Y1168374D01*
X4658346Y1201940D01*
X4722590Y1230630D01*
X4774457Y1252969D01*
X4810834Y1267483D01*
X4828603Y1272698D01*
X4835428Y1272487D01*
G37*
G36*
X4832490Y2291419D02*
G01*
X4861274Y2281727D01*
X4886442Y2252053D01*
X4896288Y2235795D01*
X4906765Y2215039D01*
X4910678Y2196730D01*
X4906133Y2179216D01*
X4891232Y2160849D01*
X4864080Y2139978D01*
X4822781Y2114952D01*
X4765438Y2084121D01*
X4690155Y2045835D01*
X4595035Y1998444D01*
X4579235Y1990597D01*
X4462438Y1932748D01*
X4365151Y1884950D01*
X4285494Y1846381D01*
X4221587Y1816215D01*
X4171551Y1793630D01*
X4133506Y1777801D01*
X4105571Y1767904D01*
X4085866Y1763116D01*
X4072513Y1762613D01*
X4063629Y1765572D01*
X4060677Y1767553D01*
X4038990Y1791798D01*
X4019753Y1826662D01*
X4007421Y1862479D01*
X4006452Y1889584D01*
X4008464Y1892272D01*
X4027933Y1906134D01*
X4065408Y1928090D01*
X4117898Y1956681D01*
X4182409Y1990446D01*
X4255948Y2027926D01*
X4335523Y2067660D01*
X4418139Y2108187D01*
X4500804Y2148049D01*
X4580525Y2185784D01*
X4654309Y2219932D01*
X4719163Y2249034D01*
X4772093Y2271629D01*
X4810107Y2286256D01*
X4830212Y2291457D01*
X4832490Y2291419D01*
G37*
G36*
X4857485Y-408960D02*
G01*
X4867962Y-414628D01*
X4875555Y-424061D01*
X4882033Y-436645D01*
X4889167Y-451762D01*
X4904383Y-490557D01*
X4908180Y-529457D01*
X4895107Y-554787D01*
X4894362Y-555341D01*
X4876291Y-565622D01*
X4839966Y-584371D01*
X4788467Y-610114D01*
X4724874Y-641382D01*
X4652264Y-676702D01*
X4573719Y-714603D01*
X4492317Y-753613D01*
X4411138Y-792262D01*
X4333260Y-829078D01*
X4261765Y-862588D01*
X4199730Y-891323D01*
X4150235Y-913810D01*
X4116360Y-928577D01*
X4101184Y-934154D01*
X4089725Y-935002D01*
X4064852Y-934951D01*
X4051684Y-926635D01*
X4034010Y-901707D01*
X4018178Y-868445D01*
X4008067Y-835271D01*
X4007558Y-810607D01*
X4017058Y-798877D01*
X4044078Y-779712D01*
X4089638Y-753517D01*
X4155029Y-719555D01*
X4241545Y-677088D01*
X4341141Y-629088D01*
X4457279Y-573134D01*
X4554593Y-526492D01*
X4634854Y-488545D01*
X4699834Y-458677D01*
X4751302Y-436272D01*
X4791030Y-420714D01*
X4820790Y-411387D01*
X4842351Y-407674D01*
X4857485Y-408960D01*
G37*
G36*
X-4330577Y-1469804D02*
G01*
X-4080459Y-1473078D01*
X-4064480Y-1503388D01*
X-4055501Y-1535081D01*
X-4054185Y-1576192D01*
X-4060361Y-1615131D01*
X-4073342Y-1641252D01*
X-4086134Y-1646302D01*
X-4121108Y-1651852D01*
X-4173915Y-1656256D01*
X-4241006Y-1659135D01*
X-4299651Y-1661072D01*
X-4357556Y-1665109D01*
X-4396840Y-1672681D01*
X-4420693Y-1685783D01*
X-4432308Y-1706408D01*
X-4434877Y-1736552D01*
X-4431591Y-1778207D01*
X-4431411Y-1779888D01*
X-4427822Y-1820986D01*
X-4429200Y-1845425D01*
X-4437194Y-1860342D01*
X-4453453Y-1872876D01*
X-4468072Y-1881294D01*
X-4512283Y-1896517D01*
X-4555091Y-1899160D01*
X-4587527Y-1888198D01*
X-4598640Y-1876229D01*
X-4613192Y-1840078D01*
X-4618008Y-1793821D01*
X-4612676Y-1745632D01*
X-4596788Y-1703682D01*
X-4587334Y-1687449D01*
X-4577994Y-1666614D01*
X-4580716Y-1652706D01*
X-4595293Y-1636496D01*
X-4613293Y-1606203D01*
X-4619284Y-1558813D01*
X-4619243Y-1546941D01*
X-4617828Y-1520467D01*
X-4612243Y-1500571D01*
X-4599622Y-1486368D01*
X-4577095Y-1476975D01*
X-4541795Y-1471505D01*
X-4490854Y-1469077D01*
X-4421404Y-1468804D01*
X-4330577Y-1469804D01*
G37*
G36*
X-4327555Y-800918D02*
G01*
X-4326399Y-800947D01*
X-4243781Y-816785D01*
X-4171535Y-853778D01*
X-4112013Y-910366D01*
X-4067566Y-984990D01*
X-4059937Y-1007475D01*
X-4051238Y-1065485D01*
X-4052362Y-1129871D01*
X-4063522Y-1189878D01*
X-4074925Y-1218417D01*
X-4110292Y-1273374D01*
X-4158091Y-1323568D01*
X-4211399Y-1360988D01*
X-4242646Y-1374638D01*
X-4287980Y-1384715D01*
X-4347443Y-1387849D01*
X-4385406Y-1387296D01*
X-4424091Y-1382848D01*
X-4456379Y-1371790D01*
X-4492557Y-1351550D01*
X-4525222Y-1328578D01*
X-4582514Y-1269032D01*
X-4620169Y-1199620D01*
X-4637608Y-1124089D01*
X-4636544Y-1099417D01*
X-4449547Y-1099417D01*
X-4448237Y-1116102D01*
X-4431521Y-1157122D01*
X-4400063Y-1185725D01*
X-4359580Y-1199508D01*
X-4315790Y-1196069D01*
X-4274410Y-1173006D01*
X-4253726Y-1149017D01*
X-4237811Y-1105920D01*
X-4241153Y-1061670D01*
X-4262776Y-1022627D01*
X-4301704Y-995151D01*
X-4327555Y-987942D01*
X-4373253Y-991443D01*
X-4412228Y-1013594D01*
X-4439365Y-1050788D01*
X-4449547Y-1099417D01*
X-4636544Y-1099417D01*
X-4634249Y-1046185D01*
X-4609514Y-969654D01*
X-4562819Y-898242D01*
X-4552922Y-887122D01*
X-4494065Y-837934D01*
X-4426430Y-809673D01*
X-4345841Y-800456D01*
X-4327555Y-800918D01*
G37*
G36*
X4344137Y1710623D02*
G01*
X4375869Y1684319D01*
X4384003Y1675907D01*
X4407055Y1643428D01*
X4410265Y1612729D01*
X4394988Y1576134D01*
X4383030Y1552951D01*
X4377231Y1536731D01*
X4388406Y1533882D01*
X4420088Y1531381D01*
X4468510Y1529404D01*
X4529902Y1528105D01*
X4600495Y1527638D01*
X4650200Y1527574D01*
X4717078Y1527045D01*
X4765104Y1525724D01*
X4797672Y1523306D01*
X4818173Y1519486D01*
X4830001Y1513959D01*
X4836546Y1506421D01*
X4838869Y1501547D01*
X4846153Y1471929D01*
X4849273Y1434542D01*
X4849304Y1430792D01*
X4849169Y1407335D01*
X4846683Y1388643D01*
X4839411Y1374178D01*
X4824921Y1363396D01*
X4800781Y1355758D01*
X4764556Y1350722D01*
X4713815Y1347746D01*
X4646125Y1346291D01*
X4559052Y1345815D01*
X4450165Y1345777D01*
X4441266Y1345776D01*
X4336482Y1345791D01*
X4253194Y1346182D01*
X4188842Y1347436D01*
X4140869Y1350040D01*
X4106714Y1354483D01*
X4083822Y1361252D01*
X4069631Y1370834D01*
X4061585Y1383717D01*
X4057124Y1400389D01*
X4053691Y1421337D01*
X4052542Y1432472D01*
X4054791Y1452896D01*
X4064344Y1475968D01*
X4083213Y1504549D01*
X4113404Y1541494D01*
X4156929Y1589662D01*
X4215795Y1651910D01*
X4248117Y1683805D01*
X4284566Y1711238D01*
X4315138Y1719887D01*
X4344137Y1710623D01*
G37*
G36*
X4590838Y-1002272D02*
G01*
X4679569Y-1028941D01*
X4752876Y-1069816D01*
X4808849Y-1124116D01*
X4845582Y-1191058D01*
X4847929Y-1198205D01*
X4856787Y-1239697D01*
X4860843Y-1283748D01*
X4858798Y-1328887D01*
X4839209Y-1405912D01*
X4799629Y-1470131D01*
X4740767Y-1521009D01*
X4663335Y-1558013D01*
X4568045Y-1580607D01*
X4455608Y-1588257D01*
X4403262Y-1586767D01*
X4297748Y-1572610D01*
X4210110Y-1543842D01*
X4140930Y-1500892D01*
X4090793Y-1444185D01*
X4060283Y-1374151D01*
X4049983Y-1291216D01*
X4051365Y-1273772D01*
X4238756Y-1273772D01*
X4240572Y-1314130D01*
X4261137Y-1350799D01*
X4300158Y-1377770D01*
X4343217Y-1391498D01*
X4409123Y-1401590D01*
X4478393Y-1402582D01*
X4544409Y-1394911D01*
X4600553Y-1379014D01*
X4640208Y-1355326D01*
X4651672Y-1341982D01*
X4666849Y-1302554D01*
X4663586Y-1260749D01*
X4641777Y-1225501D01*
X4634168Y-1219318D01*
X4591913Y-1199232D01*
X4534718Y-1185830D01*
X4469343Y-1179482D01*
X4402550Y-1180556D01*
X4341100Y-1189419D01*
X4291754Y-1206440D01*
X4255986Y-1235735D01*
X4238756Y-1273772D01*
X4051365Y-1273772D01*
X4054448Y-1234845D01*
X4078170Y-1159591D01*
X4121871Y-1097548D01*
X4185045Y-1049190D01*
X4267181Y-1014988D01*
X4367773Y-995415D01*
X4374734Y-994674D01*
X4469343Y-991280D01*
X4488590Y-990589D01*
X4590838Y-1002272D01*
G37*
G36*
X4328419Y35392D02*
G01*
X4352315Y23276D01*
X4377734Y933D01*
X4390338Y-12209D01*
X4408886Y-39467D01*
X4409878Y-66026D01*
X4394913Y-101409D01*
X4393940Y-103280D01*
X4381803Y-127765D01*
X4376802Y-140047D01*
X4387006Y-141401D01*
X4417824Y-143028D01*
X4465479Y-144719D01*
X4526155Y-146339D01*
X4596036Y-147754D01*
X4651998Y-148803D01*
X4716007Y-150484D01*
X4761722Y-152698D01*
X4792684Y-155856D01*
X4812434Y-160367D01*
X4824511Y-166640D01*
X4832456Y-175085D01*
X4839990Y-188811D01*
X4848675Y-230039D01*
X4845553Y-275242D01*
X4830768Y-312528D01*
X4828360Y-315909D01*
X4822188Y-322893D01*
X4813354Y-328340D01*
X4799161Y-332441D01*
X4776910Y-335386D01*
X4743903Y-337368D01*
X4697441Y-338576D01*
X4634826Y-339202D01*
X4553360Y-339438D01*
X4450343Y-339474D01*
X4441063Y-339475D01*
X4336326Y-339459D01*
X4253077Y-339067D01*
X4188757Y-337811D01*
X4140809Y-335203D01*
X4106675Y-330756D01*
X4083796Y-323983D01*
X4069616Y-314395D01*
X4061576Y-301506D01*
X4057118Y-284827D01*
X4053684Y-263871D01*
X4053187Y-260658D01*
X4052283Y-237709D01*
X4059068Y-215896D01*
X4076522Y-188960D01*
X4107629Y-150641D01*
X4146036Y-105574D01*
X4199068Y-45925D01*
X4241372Y-3379D01*
X4275398Y23439D01*
X4303597Y35904D01*
X4328419Y35392D01*
G37*
G36*
X4328419Y-1904465D02*
G01*
X4352315Y-1916580D01*
X4377734Y-1938923D01*
X4390338Y-1952066D01*
X4408886Y-1979324D01*
X4409878Y-2005882D01*
X4394913Y-2041266D01*
X4393940Y-2043137D01*
X4381803Y-2067622D01*
X4376802Y-2079904D01*
X4387006Y-2081257D01*
X4417824Y-2082885D01*
X4465479Y-2084576D01*
X4526155Y-2086196D01*
X4596036Y-2087611D01*
X4651998Y-2088660D01*
X4716007Y-2090340D01*
X4761722Y-2092555D01*
X4792684Y-2095713D01*
X4812434Y-2100224D01*
X4824511Y-2106497D01*
X4832456Y-2114942D01*
X4839990Y-2128668D01*
X4848675Y-2169896D01*
X4845553Y-2215099D01*
X4830768Y-2252385D01*
X4828360Y-2255766D01*
X4822188Y-2262750D01*
X4813354Y-2268197D01*
X4799161Y-2272298D01*
X4776910Y-2275243D01*
X4743903Y-2277224D01*
X4697441Y-2278433D01*
X4634826Y-2279059D01*
X4553360Y-2279295D01*
X4450343Y-2279331D01*
X4441063Y-2279331D01*
X4336326Y-2279316D01*
X4253077Y-2278924D01*
X4188757Y-2277668D01*
X4140809Y-2275060D01*
X4106675Y-2270613D01*
X4083796Y-2263840D01*
X4069616Y-2254252D01*
X4061576Y-2241362D01*
X4057118Y-2224684D01*
X4053684Y-2203728D01*
X4053187Y-2200515D01*
X4052283Y-2177566D01*
X4059068Y-2155753D01*
X4076522Y-2128817D01*
X4107629Y-2090498D01*
X4146036Y-2045431D01*
X4199068Y-1985782D01*
X4241372Y-1943236D01*
X4275398Y-1916418D01*
X4303597Y-1903953D01*
X4328419Y-1904465D01*
G37*
G36*
X-4512566Y94198D02*
G01*
X-4491927Y78073D01*
X-4460894Y50728D01*
X-4423781Y15871D01*
X-4339752Y-65252D01*
X-4270378Y2368D01*
X-4233863Y36857D01*
X-4191299Y71467D01*
X-4157774Y88450D01*
X-4129608Y88530D01*
X-4103123Y72431D01*
X-4074640Y40877D01*
X-4074194Y40307D01*
X-4056704Y10902D01*
X-4049451Y-15087D01*
X-4051328Y-22233D01*
X-4066299Y-47256D01*
X-4092986Y-81383D01*
X-4127472Y-119382D01*
X-4205492Y-199734D01*
X-4127472Y-280549D01*
X-4120193Y-288173D01*
X-4082698Y-330916D01*
X-4058214Y-365339D01*
X-4049451Y-387724D01*
X-4049652Y-391252D01*
X-4061940Y-420894D01*
X-4087745Y-451441D01*
X-4119320Y-475321D01*
X-4148922Y-484963D01*
X-4166314Y-480160D01*
X-4202058Y-456099D01*
X-4249499Y-412219D01*
X-4261693Y-400060D01*
X-4294395Y-369119D01*
X-4319709Y-347565D01*
X-4332959Y-339474D01*
X-4336397Y-340735D01*
X-4355231Y-354229D01*
X-4384729Y-379364D01*
X-4420189Y-412219D01*
X-4422782Y-414703D01*
X-4469405Y-455953D01*
X-4505706Y-478611D01*
X-4535794Y-483384D01*
X-4563782Y-470980D01*
X-4593780Y-442107D01*
X-4604735Y-428806D01*
X-4623845Y-400279D01*
X-4631408Y-380308D01*
X-4629318Y-373805D01*
X-4614087Y-350533D01*
X-4587326Y-317635D01*
X-4552877Y-280020D01*
X-4474345Y-198675D01*
X-4539378Y-134451D01*
X-4579157Y-93727D01*
X-4609573Y-57274D01*
X-4624896Y-28767D01*
X-4627135Y-4267D01*
X-4618302Y20165D01*
X-4602123Y41711D01*
X-4573376Y67906D01*
X-4542466Y88538D01*
X-4518082Y96948D01*
X-4512566Y94198D01*
G37*
G36*
X-4067523Y2458163D02*
G01*
X-4056087Y2434304D01*
X-4053622Y2384943D01*
X-4058985Y2352577D01*
X-4068334Y2329820D01*
X-4085648Y2315461D01*
X-4114994Y2307581D01*
X-4160442Y2304261D01*
X-4226059Y2303581D01*
X-4241377Y2303566D01*
X-4297332Y2302927D01*
X-4335400Y2300725D01*
X-4360785Y2296116D01*
X-4378692Y2288256D01*
X-4394325Y2276302D01*
X-4418059Y2246267D01*
X-4432728Y2210423D01*
X-4434809Y2195906D01*
X-4430358Y2168030D01*
X-4409018Y2140709D01*
X-4400766Y2132744D01*
X-4386194Y2121874D01*
X-4368017Y2115075D01*
X-4341072Y2111396D01*
X-4300201Y2109887D01*
X-4240243Y2109595D01*
X-4223957Y2109567D01*
X-4157760Y2108184D01*
X-4111526Y2103364D01*
X-4081718Y2093252D01*
X-4064804Y2075991D01*
X-4057247Y2049727D01*
X-4055513Y2012602D01*
X-4057305Y1975488D01*
X-4065236Y1948570D01*
X-4082918Y1931148D01*
X-4113965Y1921226D01*
X-4161988Y1916811D01*
X-4230599Y1915906D01*
X-4266344Y1916420D01*
X-4325391Y1918972D01*
X-4376506Y1923154D01*
X-4411532Y1928403D01*
X-4462269Y1945219D01*
X-4522613Y1981321D01*
X-4569998Y2028970D01*
X-4602392Y2084387D01*
X-4617767Y2143792D01*
X-4614092Y2203408D01*
X-4589339Y2259455D01*
X-4559395Y2303581D01*
X-4703652Y2303581D01*
X-4716565Y2303597D01*
X-4783165Y2304818D01*
X-4829678Y2309246D01*
X-4859662Y2318656D01*
X-4876674Y2334820D01*
X-4884273Y2359514D01*
X-4886015Y2394512D01*
X-4886043Y2406128D01*
X-4885468Y2428180D01*
X-4882068Y2445716D01*
X-4873464Y2459251D01*
X-4857275Y2469303D01*
X-4831121Y2476390D01*
X-4792621Y2481028D01*
X-4739394Y2483735D01*
X-4669062Y2485029D01*
X-4579242Y2485425D01*
X-4467555Y2485442D01*
X-4087199Y2485442D01*
X-4067523Y2458163D01*
G37*
G36*
X-4257755Y716594D02*
G01*
X-4187523Y685829D01*
X-4127343Y635786D01*
X-4081015Y567792D01*
X-4064130Y530479D01*
X-4051949Y484465D01*
X-4054832Y441756D01*
X-4072329Y393336D01*
X-4081117Y373548D01*
X-4088368Y350522D01*
X-4085006Y334158D01*
X-4070848Y314716D01*
X-4068604Y311866D01*
X-4053294Y280053D01*
X-4053209Y239164D01*
X-4054453Y229511D01*
X-4057429Y209272D01*
X-4062326Y193232D01*
X-4071626Y180905D01*
X-4087807Y171802D01*
X-4113352Y165436D01*
X-4150741Y161321D01*
X-4202455Y158968D01*
X-4270974Y157891D01*
X-4358780Y157602D01*
X-4468352Y157614D01*
X-4512797Y157612D01*
X-4615889Y157734D01*
X-4698009Y158435D01*
X-4761540Y160208D01*
X-4808867Y163548D01*
X-4842372Y168949D01*
X-4864440Y176904D01*
X-4877455Y187908D01*
X-4883799Y202453D01*
X-4885858Y221035D01*
X-4886015Y244146D01*
X-4885976Y254633D01*
X-4884062Y289255D01*
X-4876540Y312901D01*
X-4859682Y327659D01*
X-4829761Y335615D01*
X-4783052Y338859D01*
X-4715827Y339476D01*
X-4570741Y339476D01*
X-4595013Y384762D01*
X-4609284Y419203D01*
X-4613387Y452979D01*
X-4431127Y452979D01*
X-4424732Y410851D01*
X-4418412Y398113D01*
X-4388007Y365938D01*
X-4348629Y351237D01*
X-4306989Y355361D01*
X-4269799Y379661D01*
X-4262590Y388167D01*
X-4244486Y428837D01*
X-4247244Y470544D01*
X-4269327Y507298D01*
X-4309196Y533110D01*
X-4313356Y534575D01*
X-4354814Y537253D01*
X-4391424Y521200D01*
X-4418444Y491435D01*
X-4431127Y452979D01*
X-4613387Y452979D01*
X-4616976Y482531D01*
X-4603823Y545951D01*
X-4571505Y605662D01*
X-4521705Y657862D01*
X-4456104Y698751D01*
X-4413171Y714985D01*
X-4354814Y723688D01*
X-4334238Y726756D01*
X-4257755Y716594D01*
G37*
G36*
X4795268Y684088D02*
G01*
X4824513Y659130D01*
X4827664Y655003D01*
X4835359Y642549D01*
X4841017Y626808D01*
X4844950Y604286D01*
X4847469Y571492D01*
X4848883Y524930D01*
X4849504Y461107D01*
X4849642Y376530D01*
X4849612Y327118D01*
X4849034Y245765D01*
X4847006Y184437D01*
X4842615Y140326D01*
X4834951Y110622D01*
X4823101Y92516D01*
X4806155Y83200D01*
X4783201Y79864D01*
X4753327Y79699D01*
X4731364Y80894D01*
X4696695Y86675D01*
X4676588Y95432D01*
X4673960Y99351D01*
X4666684Y126416D01*
X4661079Y173600D01*
X4657560Y237796D01*
X4653403Y365319D01*
X4629837Y317689D01*
X4600270Y267400D01*
X4545819Y203096D01*
X4482223Y153180D01*
X4413829Y120832D01*
X4344985Y109236D01*
X4279226Y116108D01*
X4204042Y143464D01*
X4140616Y188976D01*
X4091830Y249749D01*
X4060569Y322891D01*
X4049717Y405508D01*
X4050005Y418386D01*
X4064543Y500957D01*
X4099927Y572422D01*
X4154644Y630501D01*
X4227182Y672915D01*
X4257834Y682238D01*
X4303110Y689016D01*
X4349070Y690429D01*
X4387640Y686319D01*
X4410749Y676526D01*
X4411525Y675685D01*
X4420337Y653100D01*
X4424568Y617467D01*
X4424255Y578010D01*
X4419434Y543948D01*
X4410143Y524504D01*
X4407347Y522637D01*
X4382541Y513017D01*
X4348240Y505388D01*
X4331124Y502199D01*
X4278926Y482285D01*
X4247217Y450853D01*
X4236805Y409093D01*
X4248494Y358196D01*
X4271869Y323760D01*
X4309589Y305317D01*
X4358384Y308024D01*
X4384372Y319589D01*
X4426665Y355013D01*
X4472761Y410918D01*
X4521088Y485588D01*
X4562788Y552034D01*
X4611855Y615573D01*
X4659234Y658723D01*
X4707000Y683288D01*
X4757229Y691075D01*
X4795268Y684088D01*
G37*
G36*
X-4523716Y1881066D02*
G01*
X-4489220Y1868130D01*
X-4440669Y1849130D01*
X-4382714Y1825956D01*
X-4320006Y1800499D01*
X-4257197Y1774650D01*
X-4198938Y1750300D01*
X-4149879Y1729340D01*
X-4114671Y1713662D01*
X-4113918Y1713309D01*
X-4083758Y1693144D01*
X-4063698Y1669459D01*
X-4056846Y1645019D01*
X-4059367Y1603068D01*
X-4075732Y1567624D01*
X-4080218Y1563916D01*
X-4104435Y1550635D01*
X-4142997Y1533210D01*
X-4189936Y1514419D01*
X-4212497Y1505833D01*
X-4253242Y1489908D01*
X-4281414Y1478304D01*
X-4291934Y1473080D01*
X-4289175Y1471387D01*
X-4269142Y1462701D01*
X-4233960Y1448646D01*
X-4188678Y1431266D01*
X-4138905Y1411368D01*
X-4103041Y1393377D01*
X-4080612Y1375868D01*
X-4066482Y1355666D01*
X-4060583Y1341925D01*
X-4057133Y1299159D01*
X-4075598Y1261246D01*
X-4114222Y1232711D01*
X-4135073Y1223537D01*
X-4174714Y1206707D01*
X-4226999Y1184819D01*
X-4286928Y1159936D01*
X-4349499Y1134120D01*
X-4409713Y1109435D01*
X-4462568Y1087942D01*
X-4503064Y1071705D01*
X-4526201Y1062785D01*
X-4553252Y1061110D01*
X-4585712Y1078657D01*
X-4613097Y1115176D01*
X-4622610Y1135922D01*
X-4630052Y1170602D01*
X-4621350Y1199953D01*
X-4594567Y1226351D01*
X-4547769Y1252173D01*
X-4479021Y1279793D01*
X-4455765Y1288378D01*
X-4419838Y1303409D01*
X-4405153Y1315300D01*
X-4412185Y1326650D01*
X-4441405Y1340060D01*
X-4493289Y1358130D01*
X-4507141Y1362992D01*
X-4568839Y1392448D01*
X-4606954Y1426927D01*
X-4621646Y1466632D01*
X-4613075Y1511769D01*
X-4610406Y1517690D01*
X-4598083Y1535947D01*
X-4577746Y1551705D01*
X-4544346Y1568191D01*
X-4492835Y1588632D01*
X-4467731Y1598240D01*
X-4427642Y1614248D01*
X-4400680Y1625945D01*
X-4391659Y1631298D01*
X-4397096Y1634002D01*
X-4420939Y1644233D01*
X-4459124Y1659976D01*
X-4506663Y1679155D01*
X-4518370Y1683870D01*
X-4572077Y1707377D01*
X-4606414Y1727821D01*
X-4624625Y1748638D01*
X-4629954Y1773262D01*
X-4625646Y1805127D01*
X-4620802Y1822028D01*
X-4599532Y1859715D01*
X-4570214Y1882492D01*
X-4537885Y1885732D01*
X-4523716Y1881066D01*
G37*
G36*
X-4328707Y-1916442D02*
G01*
X-4259913Y-1932129D01*
X-4196973Y-1965184D01*
X-4143556Y-2011818D01*
X-4103329Y-2068241D01*
X-4079963Y-2130667D01*
X-4077125Y-2195305D01*
X-4078484Y-2203661D01*
X-4089558Y-2241059D01*
X-4104862Y-2268148D01*
X-4107592Y-2271178D01*
X-4117873Y-2285149D01*
X-4111199Y-2290555D01*
X-4083927Y-2291455D01*
X-4070185Y-2290781D01*
X-4026910Y-2276704D01*
X-3998906Y-2246806D01*
X-3987256Y-2204289D01*
X-3993041Y-2152356D01*
X-4017340Y-2094211D01*
X-4043389Y-2047989D01*
X-3998102Y-2006047D01*
X-3981601Y-1992037D01*
X-3951362Y-1971983D01*
X-3929005Y-1964104D01*
X-3913069Y-1968617D01*
X-3885500Y-1992188D01*
X-3857820Y-2031746D01*
X-3833111Y-2082561D01*
X-3814455Y-2139904D01*
X-3810856Y-2168937D01*
X-3813665Y-2221998D01*
X-3824534Y-2277711D01*
X-3841794Y-2324794D01*
X-3851290Y-2341857D01*
X-3898742Y-2401317D01*
X-3958468Y-2446336D01*
X-4024388Y-2472009D01*
X-4054549Y-2476486D01*
X-4105791Y-2480589D01*
X-4169642Y-2483439D01*
X-4241498Y-2485053D01*
X-4316754Y-2485450D01*
X-4390808Y-2484648D01*
X-4459054Y-2482665D01*
X-4516890Y-2479519D01*
X-4559710Y-2475229D01*
X-4582912Y-2469812D01*
X-4586469Y-2467950D01*
X-4603683Y-2453960D01*
X-4612673Y-2431335D01*
X-4616849Y-2392289D01*
X-4617346Y-2382851D01*
X-4616863Y-2347583D01*
X-4609682Y-2326403D01*
X-4593435Y-2311097D01*
X-4577352Y-2298751D01*
X-4573933Y-2286427D01*
X-4588545Y-2267681D01*
X-4589805Y-2266241D01*
X-4608179Y-2229556D01*
X-4613419Y-2199093D01*
X-4437423Y-2199093D01*
X-4437379Y-2202108D01*
X-4426129Y-2244129D01*
X-4399208Y-2273605D01*
X-4362707Y-2288028D01*
X-4322715Y-2284894D01*
X-4285320Y-2261696D01*
X-4274721Y-2249146D01*
X-4259220Y-2209968D01*
X-4262591Y-2169427D01*
X-4282216Y-2133307D01*
X-4315472Y-2107393D01*
X-4359738Y-2097469D01*
X-4381543Y-2104074D01*
X-4408669Y-2128031D01*
X-4429255Y-2162267D01*
X-4437423Y-2199093D01*
X-4613419Y-2199093D01*
X-4616651Y-2180299D01*
X-4614580Y-2127821D01*
X-4601324Y-2081471D01*
X-4592146Y-2064052D01*
X-4546262Y-2005296D01*
X-4486143Y-1958288D01*
X-4417964Y-1927069D01*
X-4359738Y-1917600D01*
X-4347899Y-1915675D01*
X-4328707Y-1916442D01*
G37*
G36*
X412219Y533461D02*
G01*
X412219Y400096D01*
X278854Y400096D01*
X145489Y400096D01*
X145489Y266731D01*
X145489Y133366D01*
X6062Y133366D01*
X-133365Y133366D01*
X-133365Y-272792D01*
X-133365Y-678949D01*
X6062Y-678949D01*
X145489Y-678949D01*
X145489Y-412219D01*
X145489Y-145488D01*
X278854Y-145488D01*
X412219Y-145488D01*
X412219Y-6061D01*
X412219Y133366D01*
X678950Y133366D01*
X945680Y133366D01*
X1491265Y133366D01*
X1491265Y-6061D01*
X1491265Y-145488D01*
X1624630Y-145488D01*
X1757995Y-145488D01*
X1757995Y-6061D01*
X1757995Y133366D01*
X1624630Y133366D01*
X1491265Y133366D01*
X945680Y133366D01*
X945680Y266731D01*
X945680Y400096D01*
X1218472Y400096D01*
X1491265Y400096D01*
X1491265Y533461D01*
X1491265Y666827D01*
X1624630Y666827D01*
X1757995Y666827D01*
X1757995Y533461D01*
X1757995Y400096D01*
X2158090Y400096D01*
X2164152Y400096D01*
X2570310Y400096D01*
X2570310Y266731D01*
X2570310Y133366D01*
X2430883Y133366D01*
X2291456Y133366D01*
X2291456Y-6061D01*
X2291456Y-145488D01*
X2564248Y-145488D01*
X2837040Y-145488D01*
X2837040Y-278854D01*
X2837040Y-412219D01*
X2703675Y-412219D01*
X2570310Y-412219D01*
X2570310Y-545584D01*
X2570310Y-678949D01*
X2430883Y-678949D01*
X2291456Y-678949D01*
X2291456Y-812314D01*
X2291456Y-945679D01*
X1751933Y-945679D01*
X1212410Y-945679D01*
X1212410Y-678949D01*
X1212410Y-412219D01*
X1351837Y-412219D01*
X1491265Y-412219D01*
X2024725Y-412219D01*
X2024725Y-545584D01*
X2024725Y-678949D01*
X2158090Y-678949D01*
X2291456Y-678949D01*
X2291456Y-545584D01*
X2291456Y-412219D01*
X2158090Y-412219D01*
X2024725Y-412219D01*
X1491265Y-412219D01*
X1491265Y-278854D01*
X1491265Y-145488D01*
X1218472Y-145488D01*
X945680Y-145488D01*
X945680Y-545584D01*
X945680Y-945679D01*
X678950Y-945679D01*
X412219Y-945679D01*
X412219Y-812314D01*
X412219Y-678949D01*
X278854Y-678949D01*
X145489Y-678949D01*
X145489Y-945679D01*
X145489Y-1212410D01*
X-127303Y-1212410D01*
X-400096Y-1212410D01*
X-400096Y-1079045D01*
X-400096Y-945679D01*
X-266731Y-945679D01*
X-133365Y-945679D01*
X-133365Y-812314D01*
X-133365Y-678949D01*
X-266731Y-678949D01*
X-400096Y-678949D01*
X-400096Y-545584D01*
X-400096Y-412219D01*
X-666826Y-412219D01*
X-933556Y-412219D01*
X-933556Y-278854D01*
X-933556Y-145488D01*
X-666826Y-145488D01*
X-400096Y-145488D01*
X-400096Y127304D01*
X-400096Y400096D01*
X-127303Y400096D01*
X145489Y400096D01*
X145489Y533461D01*
X145489Y666827D01*
X278854Y666827D01*
X412219Y666827D01*
X412219Y533461D01*
G37*
G36*
X2703675Y-678949D02*
G01*
X2837040Y-678949D01*
X2837040Y-812314D01*
X2837040Y-945679D01*
X2703675Y-945679D01*
X2570310Y-945679D01*
X2570310Y-1079045D01*
X2570310Y-1212410D01*
X2430883Y-1212410D01*
X2291456Y-1212410D01*
X2291456Y-1079045D01*
X2291456Y-945679D01*
X2430883Y-945679D01*
X2570310Y-945679D01*
X2570310Y-812314D01*
X2570310Y-678949D01*
X2703675Y-678949D01*
G37*
G36*
X-2418759Y3631170D02*
G01*
X-672888Y3631170D01*
X0Y3631170D01*
X2430883Y3631170D01*
X3538460Y3631170D01*
X3572691Y3605786D01*
X3572994Y3605560D01*
X3601259Y3575533D01*
X3621392Y3539104D01*
X3621869Y3536533D01*
X3623334Y3512852D01*
X3624725Y3466466D01*
X3626042Y3398550D01*
X3627286Y3310277D01*
X3628455Y3202822D01*
X3629551Y3077357D01*
X3630573Y2935057D01*
X3631521Y2777096D01*
X3632396Y2604647D01*
X3633196Y2418884D01*
X3633923Y2220981D01*
X3634576Y2012113D01*
X3635155Y1793451D01*
X3635660Y1566171D01*
X3636091Y1331447D01*
X3636449Y1090451D01*
X3636732Y844359D01*
X3636942Y594343D01*
X3637078Y341577D01*
X3637141Y87236D01*
X3637129Y-167507D01*
X3637043Y-421479D01*
X3636884Y-673504D01*
X3636651Y-922410D01*
X3636344Y-1167023D01*
X3635963Y-1406168D01*
X3635509Y-1638673D01*
X3634980Y-1863362D01*
X3634378Y-2079064D01*
X3633702Y-2284602D01*
X3632952Y-2478805D01*
X3632128Y-2660498D01*
X3631230Y-2828506D01*
X3630259Y-2981658D01*
X3629214Y-3118777D01*
X3628095Y-3238692D01*
X3626902Y-3340227D01*
X3625635Y-3422210D01*
X3624294Y-3483466D01*
X3622880Y-3522821D01*
X3621392Y-3539102D01*
X3621262Y-3539469D01*
X3600974Y-3575921D01*
X3572691Y-3605785D01*
X3538460Y-3631169D01*
X0Y-3631169D01*
X-3538461Y-3631169D01*
X-3572691Y-3605785D01*
X-3572995Y-3605558D01*
X-3601259Y-3575531D01*
X-3621392Y-3539102D01*
X-3621870Y-3536532D01*
X-3623334Y-3512850D01*
X-3624726Y-3466465D01*
X-3626043Y-3398548D01*
X-3627286Y-3310276D01*
X-3628456Y-3202820D01*
X-3629552Y-3077355D01*
X-3630574Y-2935055D01*
X-3631522Y-2777094D01*
X-3632396Y-2604645D01*
X-3633197Y-2418882D01*
X-3633924Y-2220980D01*
X-3634576Y-2012111D01*
X-3635155Y-1793450D01*
X-3635661Y-1566170D01*
X-3635799Y-1491264D01*
X-3358377Y-1491264D01*
X-3358377Y-2430882D01*
X-3358377Y-3370500D01*
X-2418759Y-3370500D01*
X-1479141Y-3370500D01*
X-1479141Y-3103770D01*
X-1212411Y-3103770D01*
X-1212411Y-3237135D01*
X-1212411Y-3370500D01*
X-1072984Y-3370500D01*
X-933556Y-3370500D01*
X-933556Y-3237135D01*
X-933556Y-3103770D01*
X-800191Y-3103770D01*
X-666826Y-3103770D01*
X-666826Y-2970405D01*
X-666826Y-2837040D01*
X-800191Y-2837040D01*
X-933556Y-2837040D01*
X-933556Y-2970405D01*
X-933556Y-3103770D01*
X-1072984Y-3103770D01*
X-1212411Y-3103770D01*
X-1479141Y-3103770D01*
X-1479141Y-2430882D01*
X-1479141Y-2024725D01*
X-1212411Y-2024725D01*
X-1212411Y-2430882D01*
X-1212411Y-2837040D01*
X-1072984Y-2837040D01*
X-933556Y-2837040D01*
X-933556Y-2430882D01*
X-933556Y-2024725D01*
X-800191Y-2024725D01*
X-666826Y-2024725D01*
X-666826Y-1891360D01*
X-666826Y-1757994D01*
X-800191Y-1757994D01*
X-933556Y-1757994D01*
X-933556Y-1891360D01*
X-933556Y-2024725D01*
X-1072984Y-2024725D01*
X-1212411Y-2024725D01*
X-1479141Y-2024725D01*
X-1479141Y-1491264D01*
X-2418759Y-1491264D01*
X-3358377Y-1491264D01*
X-3635799Y-1491264D01*
X-3636092Y-1331445D01*
X-3636449Y-1090450D01*
X-3636733Y-844357D01*
X-3636943Y-594341D01*
X-3637079Y-341575D01*
X-3637141Y-87234D01*
X-3637130Y167509D01*
X-3637044Y421480D01*
X-3636885Y673506D01*
X-3636652Y922412D01*
X-3636345Y1167024D01*
X-3636273Y1212411D01*
X-3358377Y1212411D01*
X-3358377Y1072984D01*
X-3358377Y933557D01*
X-3225012Y933557D01*
X-3091647Y933557D01*
X-3091647Y800192D01*
X-3091647Y666827D01*
X-3225012Y666827D01*
X-3358377Y666827D01*
X-3358377Y533461D01*
X-3358377Y400096D01*
X-3225012Y400096D01*
X-3091647Y400096D01*
X-3091647Y266731D01*
X-3091647Y133366D01*
X-3225012Y133366D01*
X-3358377Y133366D01*
X-3358377Y-6061D01*
X-3358377Y-145488D01*
X-3091647Y-145488D01*
X-2824917Y-145488D01*
X-2824917Y-278854D01*
X-2824917Y-412219D01*
X-2958282Y-412219D01*
X-3091647Y-412219D01*
X-3091647Y-545584D01*
X-3091647Y-678949D01*
X-2958282Y-678949D01*
X-2824917Y-678949D01*
X-2824917Y-812314D01*
X-2824917Y-945679D01*
X-2958282Y-945679D01*
X-3091647Y-945679D01*
X-3091647Y-1079045D01*
X-3091647Y-1212410D01*
X-2958282Y-1212410D01*
X-2824917Y-1212410D01*
X-2824917Y-1079045D01*
X-2824917Y-945679D01*
X-2552124Y-945679D01*
X-2418759Y-945679D01*
X-2279332Y-945679D01*
X-2279332Y-1079045D01*
X-2279332Y-1212410D01*
X-1879237Y-1212410D01*
X-1479141Y-1212410D01*
X-1479141Y-1079045D01*
X-1479141Y-945679D01*
X-1345776Y-945679D01*
X-1212411Y-945679D01*
X-1212411Y-812314D01*
X-1212411Y-678949D01*
X-1345776Y-678949D01*
X-1479141Y-678949D01*
X-1479141Y-545584D01*
X-1479141Y-412219D01*
X-1206349Y-412219D01*
X-933556Y-412219D01*
X-933556Y-545584D01*
X-933556Y-678949D01*
X-666826Y-678949D01*
X-400096Y-678949D01*
X-400096Y-812314D01*
X-400096Y-945679D01*
X-666826Y-945679D01*
X-933556Y-945679D01*
X-933556Y-1079045D01*
X-933556Y-1212410D01*
X-1072984Y-1212410D01*
X-1212411Y-1212410D01*
X-1212411Y-1351837D01*
X-1212411Y-1491264D01*
X-939618Y-1491264D01*
X-933556Y-1491264D01*
X-666826Y-1491264D01*
X-666826Y-1351837D01*
X-666826Y-1212410D01*
X-533461Y-1212410D01*
X-400096Y-1212410D01*
X-400096Y-1618567D01*
X-400096Y-2024725D01*
X-533461Y-2024725D01*
X-666826Y-2024725D01*
X-666826Y-2158090D01*
X-666826Y-2291455D01*
X-533461Y-2291455D01*
X-400096Y-2291455D01*
X-400096Y-2564247D01*
X-400096Y-2837040D01*
X-266731Y-2837040D01*
X-133365Y-2837040D01*
X-133365Y-3103770D01*
X-133365Y-3370500D01*
X139427Y-3370500D01*
X412219Y-3370500D01*
X412219Y-3237135D01*
X412219Y-3103770D01*
X545584Y-3103770D01*
X678950Y-3103770D01*
X678950Y-3237135D01*
X678950Y-3370500D01*
X1218472Y-3370500D01*
X1757995Y-3370500D01*
X1757995Y-2970405D01*
X1757995Y-2570309D01*
X1485203Y-2570309D01*
X1212410Y-2570309D01*
X1212410Y-2430882D01*
X1212410Y-2291455D01*
X1618568Y-2291455D01*
X2024725Y-2291455D01*
X2024725Y-2430882D01*
X2024725Y-2570309D01*
X2158090Y-2570309D01*
X2291456Y-2570309D01*
X2291456Y-2970405D01*
X2291456Y-3370500D01*
X2430883Y-3370500D01*
X2570310Y-3370500D01*
X2570310Y-3237135D01*
X2570310Y-3103770D01*
X2703675Y-3103770D01*
X2837040Y-3103770D01*
X2837040Y-2970405D01*
X2837040Y-2837040D01*
X2970405Y-2837040D01*
X3103771Y-2837040D01*
X3103771Y-3103770D01*
X3103771Y-3370500D01*
X3237136Y-3370500D01*
X3370501Y-3370500D01*
X3370501Y-2430882D01*
X3370501Y-1491264D01*
X3237136Y-1491264D01*
X3103771Y-1491264D01*
X3103771Y-1351837D01*
X3103771Y-1212410D01*
X2970405Y-1212410D01*
X2837040Y-1212410D01*
X2837040Y-1079045D01*
X2837040Y-945679D01*
X2970405Y-945679D01*
X3103771Y-945679D01*
X3103771Y-812314D01*
X3103771Y-678949D01*
X2970405Y-678949D01*
X2837040Y-678949D01*
X2837040Y-545584D01*
X2837040Y-412219D01*
X2970405Y-412219D01*
X3103771Y-412219D01*
X3103771Y-139426D01*
X3103771Y133366D01*
X2970405Y133366D01*
X2837040Y133366D01*
X2837040Y400096D01*
X2837040Y666827D01*
X3103771Y666827D01*
X3370501Y666827D01*
X3370501Y939619D01*
X3370501Y1212411D01*
X2830978Y1212411D01*
X2291456Y1212411D01*
X2291456Y1072984D01*
X2291456Y933557D01*
X1891360Y933557D01*
X1491265Y933557D01*
X1491265Y1072984D01*
X1491265Y1212411D01*
X1351837Y1212411D01*
X1212410Y1212411D01*
X1212410Y1072984D01*
X1212410Y933557D01*
X1351837Y933557D01*
X1491265Y933557D01*
X1491265Y800192D01*
X1491265Y666827D01*
X1085107Y666827D01*
X678950Y666827D01*
X678950Y939619D01*
X678950Y1212411D01*
X545584Y1212411D01*
X412219Y1212411D01*
X412219Y1072984D01*
X412219Y933557D01*
X278854Y933557D01*
X145489Y933557D01*
X145489Y1339714D01*
X145489Y1745872D01*
X412219Y1745872D01*
X412219Y1612507D01*
X412219Y1479142D01*
X545584Y1479142D01*
X678950Y1479142D01*
X678950Y1612507D01*
X678950Y1745872D01*
X945680Y1745872D01*
X945680Y1612507D01*
X945680Y1479142D01*
X1079045Y1479142D01*
X1212410Y1479142D01*
X1212410Y1612507D01*
X1212410Y1745872D01*
X1079045Y1745872D01*
X945680Y1745872D01*
X678950Y1745872D01*
X545584Y1745872D01*
X412219Y1745872D01*
X145489Y1745872D01*
X6062Y1745872D01*
X-133365Y1745872D01*
X-133365Y1612507D01*
X-133365Y1479142D01*
X-266731Y1479142D01*
X-400096Y1479142D01*
X-400096Y1612507D01*
X-400096Y1745872D01*
X-533461Y1745872D01*
X-666826Y1745872D01*
X-666826Y1612507D01*
X-666826Y1479142D01*
X-800191Y1479142D01*
X-933556Y1479142D01*
X-933556Y1612507D01*
X-933556Y1745872D01*
X-1072984Y1745872D01*
X-1212411Y1745872D01*
X-1212411Y1612507D01*
X-1212411Y1479142D01*
X-1072984Y1479142D01*
X-933556Y1479142D01*
X-933556Y1345777D01*
X-933556Y1212411D01*
X-1072984Y1212411D01*
X-1212411Y1212411D01*
X-1212411Y1072984D01*
X-1212411Y933557D01*
X-939618Y933557D01*
X-666826Y933557D01*
X-666826Y800192D01*
X-666826Y666827D01*
X-1339714Y666827D01*
X-2012602Y666827D01*
X-2012602Y533461D01*
X-2012602Y400096D01*
X-2145967Y400096D01*
X-2279332Y400096D01*
X-2279332Y666827D01*
X-2279332Y933557D01*
X-2145967Y933557D01*
X-2012602Y933557D01*
X-2012602Y1072984D01*
X-2012602Y1212411D01*
X-1745871Y1212411D01*
X-1745871Y1072984D01*
X-1745871Y933557D01*
X-1612506Y933557D01*
X-1479141Y933557D01*
X-1479141Y1072984D01*
X-1479141Y1212411D01*
X-1612506Y1212411D01*
X-1745871Y1212411D01*
X-2012602Y1212411D01*
X-2418759Y1212411D01*
X-2824917Y1212411D01*
X-2824917Y1072984D01*
X-2824917Y933557D01*
X-2958282Y933557D01*
X-3091647Y933557D01*
X-3091647Y1072984D01*
X-3091647Y1212411D01*
X-3225012Y1212411D01*
X-3358377Y1212411D01*
X-3636273Y1212411D01*
X-3635964Y1406170D01*
X-3635509Y1638674D01*
X-3634981Y1863364D01*
X-3634379Y2079065D01*
X-3633702Y2284604D01*
X-3632953Y2478807D01*
X-3632129Y2660499D01*
X-3631231Y2828508D01*
X-3630260Y2981659D01*
X-3629214Y3118779D01*
X-3628095Y3238693D01*
X-3626902Y3340229D01*
X-3626622Y3358378D01*
X-3358377Y3358378D01*
X-3358377Y2418760D01*
X-3358377Y1479142D01*
X-2418759Y1479142D01*
X-1612506Y1479142D01*
X-1479141Y1479142D01*
X-1479141Y2418760D01*
X-1479141Y3358378D01*
X-1212411Y3358378D01*
X-1212411Y2818855D01*
X-1212411Y2279333D01*
X-1072984Y2279333D01*
X-933556Y2279333D01*
X-933556Y2145967D01*
X-933556Y2012602D01*
X-800191Y2012602D01*
X-666826Y2012602D01*
X-666826Y2145967D01*
X-666826Y2279333D01*
X-533461Y2279333D01*
X-400096Y2279333D01*
X-400096Y2145967D01*
X-400096Y2012602D01*
X406157Y2012602D01*
X545584Y2012602D01*
X1079045Y2012602D01*
X1212410Y2012602D01*
X1212410Y2285395D01*
X1212410Y2558187D01*
X1079045Y2558187D01*
X945680Y2558187D01*
X945680Y2691552D01*
X945680Y2824917D01*
X812315Y2824917D01*
X678950Y2824917D01*
X678950Y2958282D01*
X678950Y3091648D01*
X812315Y3091648D01*
X945680Y3091648D01*
X945680Y3225013D01*
X945680Y3358378D01*
X1491265Y3358378D01*
X1491265Y2418760D01*
X1491265Y1479142D01*
X2430883Y1479142D01*
X3370501Y1479142D01*
X3370501Y2418760D01*
X3370501Y3358378D01*
X2430883Y3358378D01*
X1491265Y3358378D01*
X945680Y3358378D01*
X812315Y3358378D01*
X678950Y3358378D01*
X678950Y3225013D01*
X678950Y3091648D01*
X412219Y3091648D01*
X145489Y3091648D01*
X145489Y2958282D01*
X145489Y2824917D01*
X-260669Y2824917D01*
X-666826Y2824917D01*
X-666826Y2958282D01*
X-666826Y3091648D01*
X-400096Y3091648D01*
X-133365Y3091648D01*
X-133365Y3225013D01*
X-133365Y3358378D01*
X-672888Y3358378D01*
X-1212411Y3358378D01*
X-1479141Y3358378D01*
X-2418759Y3358378D01*
X-3358377Y3358378D01*
X-3626622Y3358378D01*
X-3625636Y3422211D01*
X-3624295Y3483467D01*
X-3622881Y3522823D01*
X-3621392Y3539104D01*
X-3621263Y3539471D01*
X-3600975Y3575922D01*
X-3572691Y3605786D01*
X-3538461Y3631170D01*
X-2418759Y3631170D01*
G37*
%TD*%
M02*
