%TF.GenerationSoftware,KiCad,Pcbnew,9.0.2*%
%TF.CreationDate,2026-02-09T05:43:33+00:00*%
%TF.ProjectId,kicad_rgb_module,6b696361-645f-4726-9762-5f6d6f64756c,0.1*%
%TF.SameCoordinates,PX518a060PY47868c0*%
%TF.FileFunction,AssemblyDrawing,Top*%
%FSLAX46Y46*%
G04 Gerber Fmt 4.6, Leading zero omitted, Abs format (unit mm)*
G04 Created by KiCad (PCBNEW 9.0.2) date 2026-02-09 05:43:33*
%MOMM*%
%LPD*%
G01*
G04 APERTURE LIST*
%ADD10C,0.060000*%
%ADD11C,0.125000*%
%ADD12C,0.150000*%
%ADD13C,0.100000*%
%ADD14C,0.075000*%
%ADD15C,0.120000*%
G04 APERTURE END LIST*
D10*
X3981927Y-5466666D02*
X3791451Y-5599999D01*
X3981927Y-5695237D02*
X3581927Y-5695237D01*
X3581927Y-5695237D02*
X3581927Y-5542856D01*
X3581927Y-5542856D02*
X3600975Y-5504761D01*
X3600975Y-5504761D02*
X3620022Y-5485714D01*
X3620022Y-5485714D02*
X3658118Y-5466666D01*
X3658118Y-5466666D02*
X3715260Y-5466666D01*
X3715260Y-5466666D02*
X3753356Y-5485714D01*
X3753356Y-5485714D02*
X3772403Y-5504761D01*
X3772403Y-5504761D02*
X3791451Y-5542856D01*
X3791451Y-5542856D02*
X3791451Y-5695237D01*
X3620022Y-5314285D02*
X3600975Y-5295237D01*
X3600975Y-5295237D02*
X3581927Y-5257142D01*
X3581927Y-5257142D02*
X3581927Y-5161904D01*
X3581927Y-5161904D02*
X3600975Y-5123809D01*
X3600975Y-5123809D02*
X3620022Y-5104761D01*
X3620022Y-5104761D02*
X3658118Y-5085714D01*
X3658118Y-5085714D02*
X3696213Y-5085714D01*
X3696213Y-5085714D02*
X3753356Y-5104761D01*
X3753356Y-5104761D02*
X3981927Y-5333333D01*
X3981927Y-5333333D02*
X3981927Y-5085714D01*
X-4866667Y4056168D02*
X-4885715Y4037120D01*
X-4885715Y4037120D02*
X-4942857Y4018073D01*
X-4942857Y4018073D02*
X-4980953Y4018073D01*
X-4980953Y4018073D02*
X-5038096Y4037120D01*
X-5038096Y4037120D02*
X-5076191Y4075216D01*
X-5076191Y4075216D02*
X-5095238Y4113311D01*
X-5095238Y4113311D02*
X-5114286Y4189501D01*
X-5114286Y4189501D02*
X-5114286Y4246644D01*
X-5114286Y4246644D02*
X-5095238Y4322835D01*
X-5095238Y4322835D02*
X-5076191Y4360930D01*
X-5076191Y4360930D02*
X-5038096Y4399025D01*
X-5038096Y4399025D02*
X-4980953Y4418073D01*
X-4980953Y4418073D02*
X-4942857Y4418073D01*
X-4942857Y4418073D02*
X-4885715Y4399025D01*
X-4885715Y4399025D02*
X-4866667Y4379978D01*
X-4485715Y4018073D02*
X-4714286Y4018073D01*
X-4600000Y4018073D02*
X-4600000Y4418073D01*
X-4600000Y4418073D02*
X-4638096Y4360930D01*
X-4638096Y4360930D02*
X-4676191Y4322835D01*
X-4676191Y4322835D02*
X-4714286Y4303787D01*
D11*
X-15439379Y1025191D02*
X-15606045Y1263286D01*
X-15725093Y1025191D02*
X-15725093Y1525191D01*
X-15725093Y1525191D02*
X-15534617Y1525191D01*
X-15534617Y1525191D02*
X-15486998Y1501381D01*
X-15486998Y1501381D02*
X-15463188Y1477572D01*
X-15463188Y1477572D02*
X-15439379Y1429953D01*
X-15439379Y1429953D02*
X-15439379Y1358524D01*
X-15439379Y1358524D02*
X-15463188Y1310905D01*
X-15463188Y1310905D02*
X-15486998Y1287096D01*
X-15486998Y1287096D02*
X-15534617Y1263286D01*
X-15534617Y1263286D02*
X-15725093Y1263286D01*
X-15225093Y1287096D02*
X-15058426Y1287096D01*
X-14986998Y1025191D02*
X-15225093Y1025191D01*
X-15225093Y1025191D02*
X-15225093Y1525191D01*
X-15225093Y1525191D02*
X-14986998Y1525191D01*
X-14796521Y1049000D02*
X-14725093Y1025191D01*
X-14725093Y1025191D02*
X-14606045Y1025191D01*
X-14606045Y1025191D02*
X-14558426Y1049000D01*
X-14558426Y1049000D02*
X-14534617Y1072810D01*
X-14534617Y1072810D02*
X-14510807Y1120429D01*
X-14510807Y1120429D02*
X-14510807Y1168048D01*
X-14510807Y1168048D02*
X-14534617Y1215667D01*
X-14534617Y1215667D02*
X-14558426Y1239477D01*
X-14558426Y1239477D02*
X-14606045Y1263286D01*
X-14606045Y1263286D02*
X-14701283Y1287096D01*
X-14701283Y1287096D02*
X-14748902Y1310905D01*
X-14748902Y1310905D02*
X-14772712Y1334715D01*
X-14772712Y1334715D02*
X-14796521Y1382334D01*
X-14796521Y1382334D02*
X-14796521Y1429953D01*
X-14796521Y1429953D02*
X-14772712Y1477572D01*
X-14772712Y1477572D02*
X-14748902Y1501381D01*
X-14748902Y1501381D02*
X-14701283Y1525191D01*
X-14701283Y1525191D02*
X-14582236Y1525191D01*
X-14582236Y1525191D02*
X-14510807Y1501381D01*
X-14296522Y1287096D02*
X-14129855Y1287096D01*
X-14058427Y1025191D02*
X-14296522Y1025191D01*
X-14296522Y1025191D02*
X-14296522Y1525191D01*
X-14296522Y1525191D02*
X-14058427Y1525191D01*
X-13915569Y1525191D02*
X-13629855Y1525191D01*
X-13772712Y1025191D02*
X-13772712Y1525191D01*
X-14725094Y251381D02*
X-14772713Y275191D01*
X-14772713Y275191D02*
X-14844142Y275191D01*
X-14844142Y275191D02*
X-14915570Y251381D01*
X-14915570Y251381D02*
X-14963189Y203762D01*
X-14963189Y203762D02*
X-14986999Y156143D01*
X-14986999Y156143D02*
X-15010808Y60905D01*
X-15010808Y60905D02*
X-15010808Y-10523D01*
X-15010808Y-10523D02*
X-14986999Y-105761D01*
X-14986999Y-105761D02*
X-14963189Y-153380D01*
X-14963189Y-153380D02*
X-14915570Y-201000D01*
X-14915570Y-201000D02*
X-14844142Y-224809D01*
X-14844142Y-224809D02*
X-14796523Y-224809D01*
X-14796523Y-224809D02*
X-14725094Y-201000D01*
X-14725094Y-201000D02*
X-14701285Y-177190D01*
X-14701285Y-177190D02*
X-14701285Y-10523D01*
X-14701285Y-10523D02*
X-14796523Y-10523D01*
X-14486999Y-224809D02*
X-14486999Y275191D01*
X-14486999Y275191D02*
X-14201285Y-224809D01*
X-14201285Y-224809D02*
X-14201285Y275191D01*
X-13963189Y-224809D02*
X-13963189Y275191D01*
X-13963189Y275191D02*
X-13844141Y275191D01*
X-13844141Y275191D02*
X-13772713Y251381D01*
X-13772713Y251381D02*
X-13725094Y203762D01*
X-13725094Y203762D02*
X-13701284Y156143D01*
X-13701284Y156143D02*
X-13677475Y60905D01*
X-13677475Y60905D02*
X-13677475Y-10523D01*
X-13677475Y-10523D02*
X-13701284Y-105761D01*
X-13701284Y-105761D02*
X-13725094Y-153380D01*
X-13725094Y-153380D02*
X-13772713Y-201000D01*
X-13772713Y-201000D02*
X-13844141Y-224809D01*
X-13844141Y-224809D02*
X-13963189Y-224809D01*
D10*
X7143832Y-5466666D02*
X7162880Y-5485714D01*
X7162880Y-5485714D02*
X7181927Y-5542856D01*
X7181927Y-5542856D02*
X7181927Y-5580952D01*
X7181927Y-5580952D02*
X7162880Y-5638095D01*
X7162880Y-5638095D02*
X7124784Y-5676190D01*
X7124784Y-5676190D02*
X7086689Y-5695237D01*
X7086689Y-5695237D02*
X7010499Y-5714285D01*
X7010499Y-5714285D02*
X6953356Y-5714285D01*
X6953356Y-5714285D02*
X6877165Y-5695237D01*
X6877165Y-5695237D02*
X6839070Y-5676190D01*
X6839070Y-5676190D02*
X6800975Y-5638095D01*
X6800975Y-5638095D02*
X6781927Y-5580952D01*
X6781927Y-5580952D02*
X6781927Y-5542856D01*
X6781927Y-5542856D02*
X6800975Y-5485714D01*
X6800975Y-5485714D02*
X6820022Y-5466666D01*
X6820022Y-5314285D02*
X6800975Y-5295237D01*
X6800975Y-5295237D02*
X6781927Y-5257142D01*
X6781927Y-5257142D02*
X6781927Y-5161904D01*
X6781927Y-5161904D02*
X6800975Y-5123809D01*
X6800975Y-5123809D02*
X6820022Y-5104761D01*
X6820022Y-5104761D02*
X6858118Y-5085714D01*
X6858118Y-5085714D02*
X6896213Y-5085714D01*
X6896213Y-5085714D02*
X6953356Y-5104761D01*
X6953356Y-5104761D02*
X7181927Y-5333333D01*
X7181927Y-5333333D02*
X7181927Y-5085714D01*
D12*
X-5633334Y6068991D02*
X-5966667Y6068991D01*
X-5966667Y5545181D02*
X-5966667Y6545181D01*
X-5966667Y6545181D02*
X-5490477Y6545181D01*
X-4776191Y6068991D02*
X-4633334Y6021372D01*
X-4633334Y6021372D02*
X-4585715Y5973753D01*
X-4585715Y5973753D02*
X-4538096Y5878515D01*
X-4538096Y5878515D02*
X-4538096Y5735658D01*
X-4538096Y5735658D02*
X-4585715Y5640420D01*
X-4585715Y5640420D02*
X-4633334Y5592800D01*
X-4633334Y5592800D02*
X-4728572Y5545181D01*
X-4728572Y5545181D02*
X-5109524Y5545181D01*
X-5109524Y5545181D02*
X-5109524Y6545181D01*
X-5109524Y6545181D02*
X-4776191Y6545181D01*
X-4776191Y6545181D02*
X-4680953Y6497562D01*
X-4680953Y6497562D02*
X-4633334Y6449943D01*
X-4633334Y6449943D02*
X-4585715Y6354705D01*
X-4585715Y6354705D02*
X-4585715Y6259467D01*
X-4585715Y6259467D02*
X-4633334Y6164229D01*
X-4633334Y6164229D02*
X-4680953Y6116610D01*
X-4680953Y6116610D02*
X-4776191Y6068991D01*
X-4776191Y6068991D02*
X-5109524Y6068991D01*
X-3585715Y5545181D02*
X-4157143Y5545181D01*
X-3871429Y5545181D02*
X-3871429Y6545181D01*
X-3871429Y6545181D02*
X-3966667Y6402324D01*
X-3966667Y6402324D02*
X-4061905Y6307086D01*
X-4061905Y6307086D02*
X-4157143Y6259467D01*
D10*
X-9066667Y-5743832D02*
X-9085715Y-5762880D01*
X-9085715Y-5762880D02*
X-9142857Y-5781927D01*
X-9142857Y-5781927D02*
X-9180953Y-5781927D01*
X-9180953Y-5781927D02*
X-9238096Y-5762880D01*
X-9238096Y-5762880D02*
X-9276191Y-5724784D01*
X-9276191Y-5724784D02*
X-9295238Y-5686689D01*
X-9295238Y-5686689D02*
X-9314286Y-5610499D01*
X-9314286Y-5610499D02*
X-9314286Y-5553356D01*
X-9314286Y-5553356D02*
X-9295238Y-5477165D01*
X-9295238Y-5477165D02*
X-9276191Y-5439070D01*
X-9276191Y-5439070D02*
X-9238096Y-5400975D01*
X-9238096Y-5400975D02*
X-9180953Y-5381927D01*
X-9180953Y-5381927D02*
X-9142857Y-5381927D01*
X-9142857Y-5381927D02*
X-9085715Y-5400975D01*
X-9085715Y-5400975D02*
X-9066667Y-5420022D01*
X-8723810Y-5515260D02*
X-8723810Y-5781927D01*
X-8819048Y-5362880D02*
X-8914286Y-5648594D01*
X-8914286Y-5648594D02*
X-8666667Y-5648594D01*
D11*
X-15939379Y2299000D02*
X-15867951Y2275191D01*
X-15867951Y2275191D02*
X-15748903Y2275191D01*
X-15748903Y2275191D02*
X-15701284Y2299000D01*
X-15701284Y2299000D02*
X-15677475Y2322810D01*
X-15677475Y2322810D02*
X-15653665Y2370429D01*
X-15653665Y2370429D02*
X-15653665Y2418048D01*
X-15653665Y2418048D02*
X-15677475Y2465667D01*
X-15677475Y2465667D02*
X-15701284Y2489477D01*
X-15701284Y2489477D02*
X-15748903Y2513286D01*
X-15748903Y2513286D02*
X-15844141Y2537096D01*
X-15844141Y2537096D02*
X-15891760Y2560905D01*
X-15891760Y2560905D02*
X-15915570Y2584715D01*
X-15915570Y2584715D02*
X-15939379Y2632334D01*
X-15939379Y2632334D02*
X-15939379Y2679953D01*
X-15939379Y2679953D02*
X-15915570Y2727572D01*
X-15915570Y2727572D02*
X-15891760Y2751381D01*
X-15891760Y2751381D02*
X-15844141Y2775191D01*
X-15844141Y2775191D02*
X-15725094Y2775191D01*
X-15725094Y2775191D02*
X-15653665Y2751381D01*
X-15486999Y2775191D02*
X-15367951Y2275191D01*
X-15367951Y2275191D02*
X-15272713Y2632334D01*
X-15272713Y2632334D02*
X-15177475Y2275191D01*
X-15177475Y2275191D02*
X-15058427Y2775191D01*
X-14582237Y2322810D02*
X-14606046Y2299000D01*
X-14606046Y2299000D02*
X-14677475Y2275191D01*
X-14677475Y2275191D02*
X-14725094Y2275191D01*
X-14725094Y2275191D02*
X-14796522Y2299000D01*
X-14796522Y2299000D02*
X-14844141Y2346620D01*
X-14844141Y2346620D02*
X-14867951Y2394239D01*
X-14867951Y2394239D02*
X-14891760Y2489477D01*
X-14891760Y2489477D02*
X-14891760Y2560905D01*
X-14891760Y2560905D02*
X-14867951Y2656143D01*
X-14867951Y2656143D02*
X-14844141Y2703762D01*
X-14844141Y2703762D02*
X-14796522Y2751381D01*
X-14796522Y2751381D02*
X-14725094Y2775191D01*
X-14725094Y2775191D02*
X-14677475Y2775191D01*
X-14677475Y2775191D02*
X-14606046Y2751381D01*
X-14606046Y2751381D02*
X-14582237Y2727572D01*
X-14129856Y2275191D02*
X-14367951Y2275191D01*
X-14367951Y2275191D02*
X-14367951Y2775191D01*
X-13963189Y2275191D02*
X-13963189Y2775191D01*
X-13677475Y2275191D02*
X-13891760Y2560905D01*
X-13677475Y2775191D02*
X-13963189Y2489477D01*
D12*
X-1745181Y-6738094D02*
X-2745181Y-6738094D01*
X-2745181Y-6738094D02*
X-2745181Y-6499999D01*
X-2745181Y-6499999D02*
X-2697562Y-6357142D01*
X-2697562Y-6357142D02*
X-2602324Y-6261904D01*
X-2602324Y-6261904D02*
X-2507086Y-6214285D01*
X-2507086Y-6214285D02*
X-2316610Y-6166666D01*
X-2316610Y-6166666D02*
X-2173753Y-6166666D01*
X-2173753Y-6166666D02*
X-1983277Y-6214285D01*
X-1983277Y-6214285D02*
X-1888039Y-6261904D01*
X-1888039Y-6261904D02*
X-1792800Y-6357142D01*
X-1792800Y-6357142D02*
X-1745181Y-6499999D01*
X-1745181Y-6499999D02*
X-1745181Y-6738094D01*
X-2745181Y-5833332D02*
X-2745181Y-5214285D01*
X-2745181Y-5214285D02*
X-2364229Y-5547618D01*
X-2364229Y-5547618D02*
X-2364229Y-5404761D01*
X-2364229Y-5404761D02*
X-2316610Y-5309523D01*
X-2316610Y-5309523D02*
X-2268991Y-5261904D01*
X-2268991Y-5261904D02*
X-2173753Y-5214285D01*
X-2173753Y-5214285D02*
X-1935658Y-5214285D01*
X-1935658Y-5214285D02*
X-1840420Y-5261904D01*
X-1840420Y-5261904D02*
X-1792800Y-5309523D01*
X-1792800Y-5309523D02*
X-1745181Y-5404761D01*
X-1745181Y-5404761D02*
X-1745181Y-5690475D01*
X-1745181Y-5690475D02*
X-1792800Y-5785713D01*
X-1792800Y-5785713D02*
X-1840420Y-5833332D01*
D11*
X-16153665Y-974809D02*
X-16153665Y-1331952D01*
X-16153665Y-1331952D02*
X-16177474Y-1403380D01*
X-16177474Y-1403380D02*
X-16225093Y-1451000D01*
X-16225093Y-1451000D02*
X-16296522Y-1474809D01*
X-16296522Y-1474809D02*
X-16344141Y-1474809D01*
X-15915570Y-1474809D02*
X-15915570Y-974809D01*
X-15915570Y-974809D02*
X-15796522Y-974809D01*
X-15796522Y-974809D02*
X-15725094Y-998619D01*
X-15725094Y-998619D02*
X-15677475Y-1046238D01*
X-15677475Y-1046238D02*
X-15653665Y-1093857D01*
X-15653665Y-1093857D02*
X-15629856Y-1189095D01*
X-15629856Y-1189095D02*
X-15629856Y-1260523D01*
X-15629856Y-1260523D02*
X-15653665Y-1355761D01*
X-15653665Y-1355761D02*
X-15677475Y-1403380D01*
X-15677475Y-1403380D02*
X-15725094Y-1451000D01*
X-15725094Y-1451000D02*
X-15796522Y-1474809D01*
X-15796522Y-1474809D02*
X-15915570Y-1474809D01*
X-15534617Y-1522428D02*
X-15153665Y-1522428D01*
X-15034618Y-1474809D02*
X-15034618Y-974809D01*
X-15034618Y-974809D02*
X-14844142Y-974809D01*
X-14844142Y-974809D02*
X-14796523Y-998619D01*
X-14796523Y-998619D02*
X-14772713Y-1022428D01*
X-14772713Y-1022428D02*
X-14748904Y-1070047D01*
X-14748904Y-1070047D02*
X-14748904Y-1141476D01*
X-14748904Y-1141476D02*
X-14772713Y-1189095D01*
X-14772713Y-1189095D02*
X-14796523Y-1212904D01*
X-14796523Y-1212904D02*
X-14844142Y-1236714D01*
X-14844142Y-1236714D02*
X-15034618Y-1236714D01*
X-14582237Y-974809D02*
X-14463189Y-1474809D01*
X-14463189Y-1474809D02*
X-14367951Y-1117666D01*
X-14367951Y-1117666D02*
X-14272713Y-1474809D01*
X-14272713Y-1474809D02*
X-14153665Y-974809D01*
X-13677475Y-1474809D02*
X-13844141Y-1236714D01*
X-13963189Y-1474809D02*
X-13963189Y-974809D01*
X-13963189Y-974809D02*
X-13772713Y-974809D01*
X-13772713Y-974809D02*
X-13725094Y-998619D01*
X-13725094Y-998619D02*
X-13701284Y-1022428D01*
X-13701284Y-1022428D02*
X-13677475Y-1070047D01*
X-13677475Y-1070047D02*
X-13677475Y-1141476D01*
X-13677475Y-1141476D02*
X-13701284Y-1189095D01*
X-13701284Y-1189095D02*
X-13725094Y-1212904D01*
X-13725094Y-1212904D02*
X-13772713Y-1236714D01*
X-13772713Y-1236714D02*
X-13963189Y-1236714D01*
D10*
X7381927Y5333334D02*
X7191451Y5200001D01*
X7381927Y5104763D02*
X6981927Y5104763D01*
X6981927Y5104763D02*
X6981927Y5257144D01*
X6981927Y5257144D02*
X7000975Y5295239D01*
X7000975Y5295239D02*
X7020022Y5314286D01*
X7020022Y5314286D02*
X7058118Y5333334D01*
X7058118Y5333334D02*
X7115260Y5333334D01*
X7115260Y5333334D02*
X7153356Y5314286D01*
X7153356Y5314286D02*
X7172403Y5295239D01*
X7172403Y5295239D02*
X7191451Y5257144D01*
X7191451Y5257144D02*
X7191451Y5104763D01*
X6981927Y5676191D02*
X6981927Y5600001D01*
X6981927Y5600001D02*
X7000975Y5561905D01*
X7000975Y5561905D02*
X7020022Y5542858D01*
X7020022Y5542858D02*
X7077165Y5504763D01*
X7077165Y5504763D02*
X7153356Y5485715D01*
X7153356Y5485715D02*
X7305737Y5485715D01*
X7305737Y5485715D02*
X7343832Y5504763D01*
X7343832Y5504763D02*
X7362880Y5523810D01*
X7362880Y5523810D02*
X7381927Y5561905D01*
X7381927Y5561905D02*
X7381927Y5638096D01*
X7381927Y5638096D02*
X7362880Y5676191D01*
X7362880Y5676191D02*
X7343832Y5695239D01*
X7343832Y5695239D02*
X7305737Y5714286D01*
X7305737Y5714286D02*
X7210499Y5714286D01*
X7210499Y5714286D02*
X7172403Y5695239D01*
X7172403Y5695239D02*
X7153356Y5676191D01*
X7153356Y5676191D02*
X7134308Y5638096D01*
X7134308Y5638096D02*
X7134308Y5561905D01*
X7134308Y5561905D02*
X7153356Y5523810D01*
X7153356Y5523810D02*
X7172403Y5504763D01*
X7172403Y5504763D02*
X7210499Y5485715D01*
D12*
X-1745181Y5261906D02*
X-2745181Y5261906D01*
X-2745181Y5261906D02*
X-2745181Y5500001D01*
X-2745181Y5500001D02*
X-2697562Y5642858D01*
X-2697562Y5642858D02*
X-2602324Y5738096D01*
X-2602324Y5738096D02*
X-2507086Y5785715D01*
X-2507086Y5785715D02*
X-2316610Y5833334D01*
X-2316610Y5833334D02*
X-2173753Y5833334D01*
X-2173753Y5833334D02*
X-1983277Y5785715D01*
X-1983277Y5785715D02*
X-1888039Y5738096D01*
X-1888039Y5738096D02*
X-1792800Y5642858D01*
X-1792800Y5642858D02*
X-1745181Y5500001D01*
X-1745181Y5500001D02*
X-1745181Y5261906D01*
X-2411848Y6690477D02*
X-1745181Y6690477D01*
X-2792800Y6452382D02*
X-2078515Y6214287D01*
X-2078515Y6214287D02*
X-2078515Y6833334D01*
D10*
X9533333Y-5381927D02*
X9400000Y-5191451D01*
X9304762Y-5381927D02*
X9304762Y-4981927D01*
X9304762Y-4981927D02*
X9457143Y-4981927D01*
X9457143Y-4981927D02*
X9495238Y-5000975D01*
X9495238Y-5000975D02*
X9514285Y-5020022D01*
X9514285Y-5020022D02*
X9533333Y-5058118D01*
X9533333Y-5058118D02*
X9533333Y-5115260D01*
X9533333Y-5115260D02*
X9514285Y-5153356D01*
X9514285Y-5153356D02*
X9495238Y-5172403D01*
X9495238Y-5172403D02*
X9457143Y-5191451D01*
X9457143Y-5191451D02*
X9304762Y-5191451D01*
X9876190Y-5115260D02*
X9876190Y-5381927D01*
X9780952Y-4962880D02*
X9685714Y-5248594D01*
X9685714Y-5248594D02*
X9933333Y-5248594D01*
D12*
X2654819Y5261906D02*
X1654819Y5261906D01*
X1654819Y5261906D02*
X1654819Y5500001D01*
X1654819Y5500001D02*
X1702438Y5642858D01*
X1702438Y5642858D02*
X1797676Y5738096D01*
X1797676Y5738096D02*
X1892914Y5785715D01*
X1892914Y5785715D02*
X2083390Y5833334D01*
X2083390Y5833334D02*
X2226247Y5833334D01*
X2226247Y5833334D02*
X2416723Y5785715D01*
X2416723Y5785715D02*
X2511961Y5738096D01*
X2511961Y5738096D02*
X2607200Y5642858D01*
X2607200Y5642858D02*
X2654819Y5500001D01*
X2654819Y5500001D02*
X2654819Y5261906D01*
X1654819Y6738096D02*
X1654819Y6261906D01*
X1654819Y6261906D02*
X2131009Y6214287D01*
X2131009Y6214287D02*
X2083390Y6261906D01*
X2083390Y6261906D02*
X2035771Y6357144D01*
X2035771Y6357144D02*
X2035771Y6595239D01*
X2035771Y6595239D02*
X2083390Y6690477D01*
X2083390Y6690477D02*
X2131009Y6738096D01*
X2131009Y6738096D02*
X2226247Y6785715D01*
X2226247Y6785715D02*
X2464342Y6785715D01*
X2464342Y6785715D02*
X2559580Y6738096D01*
X2559580Y6738096D02*
X2607200Y6690477D01*
X2607200Y6690477D02*
X2654819Y6595239D01*
X2654819Y6595239D02*
X2654819Y6357144D01*
X2654819Y6357144D02*
X2607200Y6261906D01*
X2607200Y6261906D02*
X2559580Y6214287D01*
D10*
X9533333Y5018073D02*
X9400000Y5208549D01*
X9304762Y5018073D02*
X9304762Y5418073D01*
X9304762Y5418073D02*
X9457143Y5418073D01*
X9457143Y5418073D02*
X9495238Y5399025D01*
X9495238Y5399025D02*
X9514285Y5379978D01*
X9514285Y5379978D02*
X9533333Y5341882D01*
X9533333Y5341882D02*
X9533333Y5284740D01*
X9533333Y5284740D02*
X9514285Y5246644D01*
X9514285Y5246644D02*
X9495238Y5227597D01*
X9495238Y5227597D02*
X9457143Y5208549D01*
X9457143Y5208549D02*
X9304762Y5208549D01*
X9895238Y5418073D02*
X9704762Y5418073D01*
X9704762Y5418073D02*
X9685714Y5227597D01*
X9685714Y5227597D02*
X9704762Y5246644D01*
X9704762Y5246644D02*
X9742857Y5265692D01*
X9742857Y5265692D02*
X9838095Y5265692D01*
X9838095Y5265692D02*
X9876190Y5246644D01*
X9876190Y5246644D02*
X9895238Y5227597D01*
X9895238Y5227597D02*
X9914285Y5189501D01*
X9914285Y5189501D02*
X9914285Y5094263D01*
X9914285Y5094263D02*
X9895238Y5056168D01*
X9895238Y5056168D02*
X9876190Y5037120D01*
X9876190Y5037120D02*
X9838095Y5018073D01*
X9838095Y5018073D02*
X9742857Y5018073D01*
X9742857Y5018073D02*
X9704762Y5037120D01*
X9704762Y5037120D02*
X9685714Y5056168D01*
D11*
X-16320330Y-2224809D02*
X-16320330Y-2581952D01*
X-16320330Y-2581952D02*
X-16344139Y-2653380D01*
X-16344139Y-2653380D02*
X-16391758Y-2701000D01*
X-16391758Y-2701000D02*
X-16463187Y-2724809D01*
X-16463187Y-2724809D02*
X-16510806Y-2724809D01*
X-16082235Y-2724809D02*
X-16082235Y-2224809D01*
X-16082235Y-2224809D02*
X-15963187Y-2224809D01*
X-15963187Y-2224809D02*
X-15891759Y-2248619D01*
X-15891759Y-2248619D02*
X-15844140Y-2296238D01*
X-15844140Y-2296238D02*
X-15820330Y-2343857D01*
X-15820330Y-2343857D02*
X-15796521Y-2439095D01*
X-15796521Y-2439095D02*
X-15796521Y-2510523D01*
X-15796521Y-2510523D02*
X-15820330Y-2605761D01*
X-15820330Y-2605761D02*
X-15844140Y-2653380D01*
X-15844140Y-2653380D02*
X-15891759Y-2701000D01*
X-15891759Y-2701000D02*
X-15963187Y-2724809D01*
X-15963187Y-2724809D02*
X-16082235Y-2724809D01*
X-15701282Y-2772428D02*
X-15320330Y-2772428D01*
X-15201283Y-2724809D02*
X-15201283Y-2224809D01*
X-15201283Y-2224809D02*
X-15082235Y-2224809D01*
X-15082235Y-2224809D02*
X-15010807Y-2248619D01*
X-15010807Y-2248619D02*
X-14963188Y-2296238D01*
X-14963188Y-2296238D02*
X-14939378Y-2343857D01*
X-14939378Y-2343857D02*
X-14915569Y-2439095D01*
X-14915569Y-2439095D02*
X-14915569Y-2510523D01*
X-14915569Y-2510523D02*
X-14939378Y-2605761D01*
X-14939378Y-2605761D02*
X-14963188Y-2653380D01*
X-14963188Y-2653380D02*
X-15010807Y-2701000D01*
X-15010807Y-2701000D02*
X-15082235Y-2724809D01*
X-15082235Y-2724809D02*
X-15201283Y-2724809D01*
X-14725092Y-2581952D02*
X-14486997Y-2581952D01*
X-14772711Y-2724809D02*
X-14606045Y-2224809D01*
X-14606045Y-2224809D02*
X-14439378Y-2724809D01*
X-14344140Y-2224809D02*
X-14058426Y-2224809D01*
X-14201283Y-2724809D02*
X-14201283Y-2224809D01*
X-13915569Y-2581952D02*
X-13677474Y-2581952D01*
X-13963188Y-2724809D02*
X-13796522Y-2224809D01*
X-13796522Y-2224809D02*
X-13629855Y-2724809D01*
D12*
X3861905Y5545181D02*
X3861905Y6545181D01*
X3861905Y6545181D02*
X4100000Y6545181D01*
X4100000Y6545181D02*
X4242857Y6497562D01*
X4242857Y6497562D02*
X4338095Y6402324D01*
X4338095Y6402324D02*
X4385714Y6307086D01*
X4385714Y6307086D02*
X4433333Y6116610D01*
X4433333Y6116610D02*
X4433333Y5973753D01*
X4433333Y5973753D02*
X4385714Y5783277D01*
X4385714Y5783277D02*
X4338095Y5688039D01*
X4338095Y5688039D02*
X4242857Y5592800D01*
X4242857Y5592800D02*
X4100000Y5545181D01*
X4100000Y5545181D02*
X3861905Y5545181D01*
X5385714Y5545181D02*
X4814286Y5545181D01*
X5100000Y5545181D02*
X5100000Y6545181D01*
X5100000Y6545181D02*
X5004762Y6402324D01*
X5004762Y6402324D02*
X4909524Y6307086D01*
X4909524Y6307086D02*
X4814286Y6259467D01*
D10*
X-4866667Y2218073D02*
X-5000000Y2408549D01*
X-5095238Y2218073D02*
X-5095238Y2618073D01*
X-5095238Y2618073D02*
X-4942857Y2618073D01*
X-4942857Y2618073D02*
X-4904762Y2599025D01*
X-4904762Y2599025D02*
X-4885715Y2579978D01*
X-4885715Y2579978D02*
X-4866667Y2541882D01*
X-4866667Y2541882D02*
X-4866667Y2484740D01*
X-4866667Y2484740D02*
X-4885715Y2446644D01*
X-4885715Y2446644D02*
X-4904762Y2427597D01*
X-4904762Y2427597D02*
X-4942857Y2408549D01*
X-4942857Y2408549D02*
X-5095238Y2408549D01*
X-4485715Y2218073D02*
X-4714286Y2218073D01*
X-4600000Y2218073D02*
X-4600000Y2618073D01*
X-4600000Y2618073D02*
X-4638096Y2560930D01*
X-4638096Y2560930D02*
X-4676191Y2522835D01*
X-4676191Y2522835D02*
X-4714286Y2503787D01*
D11*
X13677474Y1049000D02*
X13748902Y1025191D01*
X13748902Y1025191D02*
X13867950Y1025191D01*
X13867950Y1025191D02*
X13915569Y1049000D01*
X13915569Y1049000D02*
X13939378Y1072810D01*
X13939378Y1072810D02*
X13963188Y1120429D01*
X13963188Y1120429D02*
X13963188Y1168048D01*
X13963188Y1168048D02*
X13939378Y1215667D01*
X13939378Y1215667D02*
X13915569Y1239477D01*
X13915569Y1239477D02*
X13867950Y1263286D01*
X13867950Y1263286D02*
X13772712Y1287096D01*
X13772712Y1287096D02*
X13725093Y1310905D01*
X13725093Y1310905D02*
X13701283Y1334715D01*
X13701283Y1334715D02*
X13677474Y1382334D01*
X13677474Y1382334D02*
X13677474Y1429953D01*
X13677474Y1429953D02*
X13701283Y1477572D01*
X13701283Y1477572D02*
X13725093Y1501381D01*
X13725093Y1501381D02*
X13772712Y1525191D01*
X13772712Y1525191D02*
X13891759Y1525191D01*
X13891759Y1525191D02*
X13963188Y1501381D01*
X14177473Y1287096D02*
X14344140Y1287096D01*
X14415568Y1025191D02*
X14177473Y1025191D01*
X14177473Y1025191D02*
X14177473Y1525191D01*
X14177473Y1525191D02*
X14415568Y1525191D01*
X14915568Y1025191D02*
X14748902Y1263286D01*
X14629854Y1025191D02*
X14629854Y1525191D01*
X14629854Y1525191D02*
X14820330Y1525191D01*
X14820330Y1525191D02*
X14867949Y1501381D01*
X14867949Y1501381D02*
X14891759Y1477572D01*
X14891759Y1477572D02*
X14915568Y1429953D01*
X14915568Y1429953D02*
X14915568Y1358524D01*
X14915568Y1358524D02*
X14891759Y1310905D01*
X14891759Y1310905D02*
X14867949Y1287096D01*
X14867949Y1287096D02*
X14820330Y1263286D01*
X14820330Y1263286D02*
X14629854Y1263286D01*
X15129854Y1025191D02*
X15129854Y1525191D01*
X15344140Y1168048D02*
X15582235Y1168048D01*
X15296521Y1025191D02*
X15463187Y1525191D01*
X15463187Y1525191D02*
X15629854Y1025191D01*
X16034615Y1025191D02*
X15796520Y1025191D01*
X15796520Y1025191D02*
X15796520Y1525191D01*
X13653664Y275191D02*
X13963188Y275191D01*
X13963188Y275191D02*
X13796521Y84715D01*
X13796521Y84715D02*
X13867950Y84715D01*
X13867950Y84715D02*
X13915569Y60905D01*
X13915569Y60905D02*
X13939378Y37096D01*
X13939378Y37096D02*
X13963188Y-10523D01*
X13963188Y-10523D02*
X13963188Y-129571D01*
X13963188Y-129571D02*
X13939378Y-177190D01*
X13939378Y-177190D02*
X13915569Y-201000D01*
X13915569Y-201000D02*
X13867950Y-224809D01*
X13867950Y-224809D02*
X13725093Y-224809D01*
X13725093Y-224809D02*
X13677474Y-201000D01*
X13677474Y-201000D02*
X13653664Y-177190D01*
X14106045Y275191D02*
X14272711Y-224809D01*
X14272711Y-224809D02*
X14439378Y275191D01*
X14558425Y275191D02*
X14867949Y275191D01*
X14867949Y275191D02*
X14701282Y84715D01*
X14701282Y84715D02*
X14772711Y84715D01*
X14772711Y84715D02*
X14820330Y60905D01*
X14820330Y60905D02*
X14844139Y37096D01*
X14844139Y37096D02*
X14867949Y-10523D01*
X14867949Y-10523D02*
X14867949Y-129571D01*
X14867949Y-129571D02*
X14844139Y-177190D01*
X14844139Y-177190D02*
X14820330Y-201000D01*
X14820330Y-201000D02*
X14772711Y-224809D01*
X14772711Y-224809D02*
X14629854Y-224809D01*
X14629854Y-224809D02*
X14582235Y-201000D01*
X14582235Y-201000D02*
X14558425Y-177190D01*
D12*
X2654819Y-6738094D02*
X1654819Y-6738094D01*
X1654819Y-6738094D02*
X1654819Y-6499999D01*
X1654819Y-6499999D02*
X1702438Y-6357142D01*
X1702438Y-6357142D02*
X1797676Y-6261904D01*
X1797676Y-6261904D02*
X1892914Y-6214285D01*
X1892914Y-6214285D02*
X2083390Y-6166666D01*
X2083390Y-6166666D02*
X2226247Y-6166666D01*
X2226247Y-6166666D02*
X2416723Y-6214285D01*
X2416723Y-6214285D02*
X2511961Y-6261904D01*
X2511961Y-6261904D02*
X2607200Y-6357142D01*
X2607200Y-6357142D02*
X2654819Y-6499999D01*
X2654819Y-6499999D02*
X2654819Y-6738094D01*
X1750057Y-5785713D02*
X1702438Y-5738094D01*
X1702438Y-5738094D02*
X1654819Y-5642856D01*
X1654819Y-5642856D02*
X1654819Y-5404761D01*
X1654819Y-5404761D02*
X1702438Y-5309523D01*
X1702438Y-5309523D02*
X1750057Y-5261904D01*
X1750057Y-5261904D02*
X1845295Y-5214285D01*
X1845295Y-5214285D02*
X1940533Y-5214285D01*
X1940533Y-5214285D02*
X2083390Y-5261904D01*
X2083390Y-5261904D02*
X2654819Y-5833332D01*
X2654819Y-5833332D02*
X2654819Y-5214285D01*
D10*
X-9066667Y-143832D02*
X-9085715Y-162880D01*
X-9085715Y-162880D02*
X-9142857Y-181927D01*
X-9142857Y-181927D02*
X-9180953Y-181927D01*
X-9180953Y-181927D02*
X-9238096Y-162880D01*
X-9238096Y-162880D02*
X-9276191Y-124784D01*
X-9276191Y-124784D02*
X-9295238Y-86689D01*
X-9295238Y-86689D02*
X-9314286Y-10499D01*
X-9314286Y-10499D02*
X-9314286Y46644D01*
X-9314286Y46644D02*
X-9295238Y122835D01*
X-9295238Y122835D02*
X-9276191Y160930D01*
X-9276191Y160930D02*
X-9238096Y199025D01*
X-9238096Y199025D02*
X-9180953Y218073D01*
X-9180953Y218073D02*
X-9142857Y218073D01*
X-9142857Y218073D02*
X-9085715Y199025D01*
X-9085715Y199025D02*
X-9066667Y179978D01*
X-8933334Y218073D02*
X-8685715Y218073D01*
X-8685715Y218073D02*
X-8819048Y65692D01*
X-8819048Y65692D02*
X-8761905Y65692D01*
X-8761905Y65692D02*
X-8723810Y46644D01*
X-8723810Y46644D02*
X-8704762Y27597D01*
X-8704762Y27597D02*
X-8685715Y-10499D01*
X-8685715Y-10499D02*
X-8685715Y-105737D01*
X-8685715Y-105737D02*
X-8704762Y-143832D01*
X-8704762Y-143832D02*
X-8723810Y-162880D01*
X-8723810Y-162880D02*
X-8761905Y-181927D01*
X-8761905Y-181927D02*
X-8876191Y-181927D01*
X-8876191Y-181927D02*
X-8914286Y-162880D01*
X-8914286Y-162880D02*
X-8933334Y-143832D01*
X5581927Y-5466666D02*
X5391451Y-5599999D01*
X5581927Y-5695237D02*
X5181927Y-5695237D01*
X5181927Y-5695237D02*
X5181927Y-5542856D01*
X5181927Y-5542856D02*
X5200975Y-5504761D01*
X5200975Y-5504761D02*
X5220022Y-5485714D01*
X5220022Y-5485714D02*
X5258118Y-5466666D01*
X5258118Y-5466666D02*
X5315260Y-5466666D01*
X5315260Y-5466666D02*
X5353356Y-5485714D01*
X5353356Y-5485714D02*
X5372403Y-5504761D01*
X5372403Y-5504761D02*
X5391451Y-5542856D01*
X5391451Y-5542856D02*
X5391451Y-5695237D01*
X5181927Y-5333333D02*
X5181927Y-5085714D01*
X5181927Y-5085714D02*
X5334308Y-5219047D01*
X5334308Y-5219047D02*
X5334308Y-5161904D01*
X5334308Y-5161904D02*
X5353356Y-5123809D01*
X5353356Y-5123809D02*
X5372403Y-5104761D01*
X5372403Y-5104761D02*
X5410499Y-5085714D01*
X5410499Y-5085714D02*
X5505737Y-5085714D01*
X5505737Y-5085714D02*
X5543832Y-5104761D01*
X5543832Y-5104761D02*
X5562880Y-5123809D01*
X5562880Y-5123809D02*
X5581927Y-5161904D01*
X5581927Y-5161904D02*
X5581927Y-5276190D01*
X5581927Y-5276190D02*
X5562880Y-5314285D01*
X5562880Y-5314285D02*
X5543832Y-5333333D01*
D11*
X13677474Y-1451000D02*
X13748902Y-1474809D01*
X13748902Y-1474809D02*
X13867950Y-1474809D01*
X13867950Y-1474809D02*
X13915569Y-1451000D01*
X13915569Y-1451000D02*
X13939378Y-1427190D01*
X13939378Y-1427190D02*
X13963188Y-1379571D01*
X13963188Y-1379571D02*
X13963188Y-1331952D01*
X13963188Y-1331952D02*
X13939378Y-1284333D01*
X13939378Y-1284333D02*
X13915569Y-1260523D01*
X13915569Y-1260523D02*
X13867950Y-1236714D01*
X13867950Y-1236714D02*
X13772712Y-1212904D01*
X13772712Y-1212904D02*
X13725093Y-1189095D01*
X13725093Y-1189095D02*
X13701283Y-1165285D01*
X13701283Y-1165285D02*
X13677474Y-1117666D01*
X13677474Y-1117666D02*
X13677474Y-1070047D01*
X13677474Y-1070047D02*
X13701283Y-1022428D01*
X13701283Y-1022428D02*
X13725093Y-998619D01*
X13725093Y-998619D02*
X13772712Y-974809D01*
X13772712Y-974809D02*
X13891759Y-974809D01*
X13891759Y-974809D02*
X13963188Y-998619D01*
X14129854Y-974809D02*
X14248902Y-1474809D01*
X14248902Y-1474809D02*
X14344140Y-1117666D01*
X14344140Y-1117666D02*
X14439378Y-1474809D01*
X14439378Y-1474809D02*
X14558426Y-974809D01*
X14748902Y-1474809D02*
X14748902Y-974809D01*
X14748902Y-974809D02*
X14867950Y-974809D01*
X14867950Y-974809D02*
X14939378Y-998619D01*
X14939378Y-998619D02*
X14986997Y-1046238D01*
X14986997Y-1046238D02*
X15010807Y-1093857D01*
X15010807Y-1093857D02*
X15034616Y-1189095D01*
X15034616Y-1189095D02*
X15034616Y-1260523D01*
X15034616Y-1260523D02*
X15010807Y-1355761D01*
X15010807Y-1355761D02*
X14986997Y-1403380D01*
X14986997Y-1403380D02*
X14939378Y-1451000D01*
X14939378Y-1451000D02*
X14867950Y-1474809D01*
X14867950Y-1474809D02*
X14748902Y-1474809D01*
X15248902Y-1474809D02*
X15248902Y-974809D01*
X15582235Y-974809D02*
X15677473Y-974809D01*
X15677473Y-974809D02*
X15725092Y-998619D01*
X15725092Y-998619D02*
X15772711Y-1046238D01*
X15772711Y-1046238D02*
X15796521Y-1141476D01*
X15796521Y-1141476D02*
X15796521Y-1308142D01*
X15796521Y-1308142D02*
X15772711Y-1403380D01*
X15772711Y-1403380D02*
X15725092Y-1451000D01*
X15725092Y-1451000D02*
X15677473Y-1474809D01*
X15677473Y-1474809D02*
X15582235Y-1474809D01*
X15582235Y-1474809D02*
X15534616Y-1451000D01*
X15534616Y-1451000D02*
X15486997Y-1403380D01*
X15486997Y-1403380D02*
X15463188Y-1308142D01*
X15463188Y-1308142D02*
X15463188Y-1141476D01*
X15463188Y-1141476D02*
X15486997Y-1046238D01*
X15486997Y-1046238D02*
X15534616Y-998619D01*
X15534616Y-998619D02*
X15582235Y-974809D01*
X15939379Y-1284333D02*
X15963188Y-1260523D01*
X15963188Y-1260523D02*
X16010807Y-1236714D01*
X16010807Y-1236714D02*
X16106045Y-1284333D01*
X16106045Y-1284333D02*
X16153664Y-1260523D01*
X16153664Y-1260523D02*
X16177474Y-1236714D01*
X16296522Y-1022428D02*
X16391760Y-951000D01*
X16391760Y-951000D02*
X16486998Y-1022428D01*
D13*
%TO.C,R2*%
X3387500Y-4600000D02*
X4212500Y-4600000D01*
X3387500Y-6200000D02*
X3387500Y-4600000D01*
X4212500Y-4600000D02*
X4212500Y-6200000D01*
X4212500Y-6200000D02*
X3387500Y-6200000D01*
%TO.C,C1*%
X-5600000Y4600000D02*
X-4000000Y4600000D01*
X-5600000Y3800000D02*
X-5600000Y4600000D01*
X-4000000Y4600000D02*
X-4000000Y3800000D01*
X-4000000Y3800000D02*
X-5600000Y3800000D01*
%TO.C,U2*%
D14*
X-7737500Y-975000D02*
G75*
G02*
X-7812500Y-975000I-37500J0D01*
G01*
X-7812500Y-975000D02*
G75*
G02*
X-7737500Y-975000I37500J0D01*
G01*
D13*
%TO.C,GS4*%
X-12500000Y1750000D02*
X-12500000Y750000D01*
X-12000000Y1250000D02*
X-13000000Y1250000D01*
X-12000000Y1250000D02*
G75*
G02*
X-13000000Y1250000I-500000J0D01*
G01*
X-13000000Y1250000D02*
G75*
G02*
X-12000000Y1250000I500000J0D01*
G01*
%TO.C,GS1*%
X-13000000Y0D02*
X-12000000Y0D01*
X-12500000Y-500000D02*
X-12500000Y500000D01*
X-12000000Y0D02*
G75*
G02*
X-13000000Y0I-500000J0D01*
G01*
X-13000000Y0D02*
G75*
G02*
X-12000000Y0I500000J0D01*
G01*
D15*
%TO.C,J1*%
X-10514500Y4616000D02*
X-9244500Y5886000D01*
X-10514500Y1314000D02*
X-10514500Y4616000D01*
X-9244500Y5886000D02*
X-6958500Y5886000D01*
X-6958500Y5886000D02*
X-6958500Y1314000D01*
X-6958500Y1314000D02*
X-10514500Y1314000D01*
%TO.C,D8*%
D14*
X-987500Y-1175000D02*
G75*
G02*
X-1062500Y-1175000I-37500J0D01*
G01*
X-1062500Y-1175000D02*
G75*
G02*
X-987500Y-1175000I37500J0D01*
G01*
D13*
%TO.C,C2*%
X6600000Y-4600000D02*
X7400000Y-4600000D01*
X6600000Y-6200000D02*
X6600000Y-4600000D01*
X7400000Y-4600000D02*
X7400000Y-6200000D01*
X7400000Y-6200000D02*
X6600000Y-6200000D01*
%TO.C,U1*%
D14*
X4387500Y-2875000D02*
G75*
G02*
X4312500Y-2875000I-37500J0D01*
G01*
X4312500Y-2875000D02*
G75*
G02*
X4387500Y-2875000I37500J0D01*
G01*
%TO.C,D7*%
X1212500Y5375000D02*
G75*
G02*
X1137500Y5375000I-37500J0D01*
G01*
X1137500Y5375000D02*
G75*
G02*
X1212500Y5375000I37500J0D01*
G01*
D10*
%TO.C,FB1*%
X-3970000Y6400000D02*
G75*
G02*
X-4030000Y6400000I-30000J0D01*
G01*
X-4030000Y6400000D02*
G75*
G02*
X-3970000Y6400000I30000J0D01*
G01*
D13*
%TO.C,C4*%
X-9800000Y-5200000D02*
X-8200000Y-5200000D01*
X-9800000Y-6000000D02*
X-9800000Y-5200000D01*
X-8200000Y-5200000D02*
X-8200000Y-6000000D01*
X-8200000Y-6000000D02*
X-9800000Y-6000000D01*
%TO.C,GS5*%
X-12500000Y3000000D02*
X-12500000Y2000000D01*
X-12000000Y2500000D02*
X-13000000Y2500000D01*
X-12000000Y2500000D02*
G75*
G02*
X-13000000Y2500000I-500000J0D01*
G01*
X-13000000Y2500000D02*
G75*
G02*
X-12000000Y2500000I500000J0D01*
G01*
D10*
%TO.C,D3*%
X-1870000Y-6500000D02*
G75*
G02*
X-1930000Y-6500000I-30000J0D01*
G01*
X-1930000Y-6500000D02*
G75*
G02*
X-1870000Y-6500000I30000J0D01*
G01*
D13*
%TO.C,GS3*%
X-13000000Y-1250000D02*
X-12000000Y-1250000D01*
X-12500000Y-1750000D02*
X-12500000Y-750000D01*
X-12000000Y-1250000D02*
G75*
G02*
X-13000000Y-1250000I-500000J0D01*
G01*
X-13000000Y-1250000D02*
G75*
G02*
X-12000000Y-1250000I500000J0D01*
G01*
%TO.C,D6*%
D14*
X1212500Y-6425000D02*
G75*
G02*
X1137500Y-6425000I-37500J0D01*
G01*
X1137500Y-6425000D02*
G75*
G02*
X1212500Y-6425000I37500J0D01*
G01*
D13*
%TO.C,R6*%
X6787500Y6200000D02*
X7612500Y6200000D01*
X6787500Y4600000D02*
X6787500Y6200000D01*
X7612500Y6200000D02*
X7612500Y4600000D01*
X7612500Y4600000D02*
X6787500Y4600000D01*
D10*
%TO.C,D4*%
X-2470000Y6500000D02*
G75*
G02*
X-2530000Y6500000I-30000J0D01*
G01*
X-2530000Y6500000D02*
G75*
G02*
X-2470000Y6500000I30000J0D01*
G01*
D13*
%TO.C,R4*%
X8800000Y-4787500D02*
X10400000Y-4787500D01*
X8800000Y-5612500D02*
X8800000Y-4787500D01*
X10400000Y-4787500D02*
X10400000Y-5612500D01*
X10400000Y-5612500D02*
X8800000Y-5612500D01*
D10*
%TO.C,D5*%
X1930000Y6500000D02*
G75*
G02*
X1870000Y6500000I-30000J0D01*
G01*
X1870000Y6500000D02*
G75*
G02*
X1930000Y6500000I30000J0D01*
G01*
D13*
%TO.C,R5*%
X8800000Y5612500D02*
X10400000Y5612500D01*
X8800000Y4787500D02*
X8800000Y5612500D01*
X10400000Y5612500D02*
X10400000Y4787500D01*
X10400000Y4787500D02*
X8800000Y4787500D01*
%TO.C,D9*%
X-3450000Y900000D02*
X-2050000Y900000D01*
X-3450000Y-900000D02*
X-3450000Y900000D01*
X-3100000Y200000D02*
X-2400000Y200000D01*
X-3100000Y-300000D02*
X-2400000Y-300000D01*
X-2750000Y200000D02*
X-2750000Y450000D01*
X-2750000Y-300000D02*
X-3100000Y200000D01*
X-2750000Y-300000D02*
X-2750000Y-500000D01*
X-2400000Y200000D02*
X-2750000Y-300000D01*
X-2050000Y900000D02*
X-2050000Y-900000D01*
X-2050000Y-900000D02*
X-3450000Y-900000D01*
%TO.C,GS2*%
X-13000000Y-2500000D02*
X-12000000Y-2500000D01*
X-12500000Y-3000000D02*
X-12500000Y-2000000D01*
X-12000000Y-2500000D02*
G75*
G02*
X-13000000Y-2500000I-500000J0D01*
G01*
X-13000000Y-2500000D02*
G75*
G02*
X-12000000Y-2500000I500000J0D01*
G01*
D10*
%TO.C,D1*%
X3430000Y7450000D02*
G75*
G02*
X3370000Y7450000I-30000J0D01*
G01*
X3370000Y7450000D02*
G75*
G02*
X3430000Y7450000I30000J0D01*
G01*
D13*
%TO.C,R1*%
X-5600000Y2812500D02*
X-4000000Y2812500D01*
X-5600000Y1987500D02*
X-5600000Y2812500D01*
X-4000000Y2812500D02*
X-4000000Y1987500D01*
X-4000000Y1987500D02*
X-5600000Y1987500D01*
%TO.C,GS8*%
X12000000Y1250000D02*
X13000000Y1250000D01*
X12500000Y750000D02*
X12500000Y1750000D01*
X13000000Y1250000D02*
G75*
G02*
X12000000Y1250000I-500000J0D01*
G01*
X12000000Y1250000D02*
G75*
G02*
X13000000Y1250000I500000J0D01*
G01*
%TO.C,GS7*%
X12000000Y0D02*
X13000000Y0D01*
X12500000Y-500000D02*
X12500000Y500000D01*
X13000000Y0D02*
G75*
G02*
X12000000Y0I-500000J0D01*
G01*
X12000000Y0D02*
G75*
G02*
X13000000Y0I500000J0D01*
G01*
D10*
%TO.C,D2*%
X2530000Y-6500000D02*
G75*
G02*
X2470000Y-6500000I-30000J0D01*
G01*
X2470000Y-6500000D02*
G75*
G02*
X2530000Y-6500000I30000J0D01*
G01*
D13*
%TO.C,C3*%
X-9800000Y400000D02*
X-8200000Y400000D01*
X-9800000Y-400000D02*
X-9800000Y400000D01*
X-8200000Y400000D02*
X-8200000Y-400000D01*
X-8200000Y-400000D02*
X-9800000Y-400000D01*
%TO.C,R3*%
X4987500Y-4600000D02*
X5812500Y-4600000D01*
X4987500Y-6200000D02*
X4987500Y-4600000D01*
X5812500Y-4600000D02*
X5812500Y-6200000D01*
X5812500Y-6200000D02*
X4987500Y-6200000D01*
%TO.C,GS6*%
X12000000Y-1250000D02*
X13000000Y-1250000D01*
X12500000Y-1750000D02*
X12500000Y-750000D01*
X13000000Y-1250000D02*
G75*
G02*
X12000000Y-1250000I-500000J0D01*
G01*
X12000000Y-1250000D02*
G75*
G02*
X13000000Y-1250000I500000J0D01*
G01*
%TD*%
M02*
