%TF.GenerationSoftware,KiCad,Pcbnew,9.0.2*%
%TF.CreationDate,2026-02-09T05:43:33+00:00*%
%TF.ProjectId,kicad_rgb_module,6b696361-645f-4726-9762-5f6d6f64756c,0.1*%
%TF.SameCoordinates,PX518a060PY47868c0*%
%TF.FileFunction,Copper,L2,Bot*%
%TF.FilePolarity,Positive*%
%FSLAX46Y46*%
G04 Gerber Fmt 4.6, Leading zero omitted, Abs format (unit mm)*
G04 Created by KiCad (PCBNEW 9.0.2) date 2026-02-09 05:43:33*
%MOMM*%
%LPD*%
G01*
G04 APERTURE LIST*
G04 Aperture macros list*
%AMRoundRect*
0 Rectangle with rounded corners*
0 $1 Rounding radius*
0 $2 $3 $4 $5 $6 $7 $8 $9 X,Y pos of 4 corners*
0 Add a 4 corners polygon primitive as box body*
4,1,4,$2,$3,$4,$5,$6,$7,$8,$9,$2,$3,0*
0 Add four circle primitives for the rounded corners*
1,1,$1+$1,$2,$3*
1,1,$1+$1,$4,$5*
1,1,$1+$1,$6,$7*
1,1,$1+$1,$8,$9*
0 Add four rect primitives between the rounded corners*
20,1,$1+$1,$2,$3,$4,$5,0*
20,1,$1+$1,$4,$5,$6,$7,0*
20,1,$1+$1,$6,$7,$8,$9,0*
20,1,$1+$1,$8,$9,$2,$3,0*%
%AMHorizOval*
0 Thick line with rounded ends*
0 $1 width*
0 $2 $3 position (X,Y) of the first rounded end (center of the circle)*
0 $4 $5 position (X,Y) of the second rounded end (center of the circle)*
0 Add line between two ends*
20,1,$1,$2,$3,$4,$5,0*
0 Add two circle primitives to create the rounded ends*
1,1,$1,$2,$3*
1,1,$1,$4,$5*%
G04 Aperture macros list end*
%TA.AperFunction,FiducialPad,Local*%
%ADD10C,4.400000*%
%TD*%
%TA.AperFunction,ComponentPad*%
%ADD11RoundRect,0.172720X0.259080X-0.259080X0.259080X0.259080X-0.259080X0.259080X-0.259080X-0.259080X0*%
%TD*%
%TA.AperFunction,ComponentPad*%
%ADD12C,0.863600*%
%TD*%
%TA.AperFunction,ComponentPad*%
%ADD13C,4.400000*%
%TD*%
%TA.AperFunction,SMDPad,CuDef*%
%ADD14O,0.220000X1.287000*%
%TD*%
%TA.AperFunction,SMDPad,CuDef*%
%ADD15HorizOval,0.220000X0.266500X-0.266500X-0.266500X0.266500X0*%
%TD*%
%TA.AperFunction,SMDPad,CuDef*%
%ADD16HorizOval,0.220000X0.455000X0.455000X-0.455000X-0.455000X0*%
%TD*%
%TA.AperFunction,SMDPad,CuDef*%
%ADD17RoundRect,0.350100X-0.099900X-1.124900X0.099900X-1.124900X0.099900X1.124900X-0.099900X1.124900X0*%
%TD*%
%TA.AperFunction,SMDPad,CuDef*%
%ADD18O,2.212000X0.220000*%
%TD*%
%TA.AperFunction,SMDPad,CuDef*%
%ADD19HorizOval,0.220000X0.455023X0.455023X-0.455023X-0.455023X0*%
%TD*%
%TA.AperFunction,ComponentPad*%
%ADD20C,1.100000*%
%TD*%
%TA.AperFunction,ComponentPad*%
%ADD21C,0.600000*%
%TD*%
%TA.AperFunction,SMDPad,CuDef*%
%ADD22RoundRect,0.350100X-0.099900X-1.374900X0.099900X-1.374900X0.099900X1.374900X-0.099900X1.374900X0*%
%TD*%
%TA.AperFunction,SMDPad,CuDef*%
%ADD23HorizOval,0.290000X0.424971X0.424971X-0.424971X-0.424971X0*%
%TD*%
%TA.AperFunction,SMDPad,CuDef*%
%ADD24O,1.230000X0.290000*%
%TD*%
%TA.AperFunction,SMDPad,CuDef*%
%ADD25HorizOval,0.290000X0.375120X0.375120X-0.375120X-0.375120X0*%
%TD*%
%TA.AperFunction,SMDPad,CuDef*%
%ADD26HorizOval,0.220000X-0.266500X0.266500X0.266500X-0.266500X0*%
%TD*%
%TA.AperFunction,SMDPad,CuDef*%
%ADD27HorizOval,0.220000X-0.455000X-0.455000X0.455000X0.455000X0*%
%TD*%
%TA.AperFunction,SMDPad,CuDef*%
%ADD28RoundRect,0.350100X0.099900X1.124900X-0.099900X1.124900X-0.099900X-1.124900X0.099900X-1.124900X0*%
%TD*%
%TA.AperFunction,SMDPad,CuDef*%
%ADD29HorizOval,0.220000X-0.455023X-0.455023X0.455023X0.455023X0*%
%TD*%
%TA.AperFunction,SMDPad,CuDef*%
%ADD30RoundRect,0.350100X0.099900X1.374900X-0.099900X1.374900X-0.099900X-1.374900X0.099900X-1.374900X0*%
%TD*%
%TA.AperFunction,SMDPad,CuDef*%
%ADD31HorizOval,0.290000X-0.424971X-0.424971X0.424971X0.424971X0*%
%TD*%
%TA.AperFunction,SMDPad,CuDef*%
%ADD32HorizOval,0.290000X-0.375120X-0.375120X0.375120X0.375120X0*%
%TD*%
%TA.AperFunction,ViaPad*%
%ADD33C,0.600000*%
%TD*%
%TA.AperFunction,Conductor*%
%ADD34C,0.200000*%
%TD*%
G04 APERTURE END LIST*
D10*
%TO.P,MH1,MH1,MH1*%
%TO.N,/JD_DATA*%
X-10000000Y-10000000D03*
%TD*%
D11*
%TO.P,J1,1*%
%TO.N,+3V3*%
X-9523900Y4870000D03*
D12*
%TO.P,J1,2*%
%TO.N,/SWDIO*%
X-7949100Y4870000D03*
%TO.P,J1,3*%
%TO.N,GND*%
X-9523900Y3600000D03*
%TO.P,J1,4*%
%TO.N,/SWCLK*%
X-7949100Y3600000D03*
%TO.P,J1,5*%
%TO.N,/nRESET-SAFE*%
X-9523900Y2330000D03*
%TD*%
D13*
%TO.P,MH3,MH3,MH3*%
%TO.N,JD_PWR*%
X10000000Y-10000000D03*
%TD*%
D14*
%TO.P,EC2,1,JD_DATA*%
%TO.N,/JD_DATA*%
X-2180000Y8806500D03*
D15*
X-1913500Y8006500D03*
D16*
X-1725000Y9795000D03*
D17*
X-1270000Y11275000D03*
D18*
X-651000Y7740000D03*
D19*
X815000Y8195000D03*
D20*
X1270000Y8650000D03*
D21*
%TO.P,EC2,2,GND*%
%TO.N,GND*%
X0Y11525000D03*
D22*
X0Y11525000D03*
D20*
X0Y8650000D03*
%TO.P,EC2,3,JD_PWR*%
%TO.N,JD_PWR*%
X-1270000Y8650000D03*
D23*
X-845000Y9075000D03*
D24*
X50000Y9500000D03*
D25*
X895000Y9875000D03*
D22*
X1270000Y11525000D03*
%TD*%
D13*
%TO.P,MH4,MH4,MH4*%
%TO.N,GND*%
X10000000Y10000000D03*
%TD*%
%TO.P,MH2,MH2,MH2*%
%TO.N,GND*%
X-10000000Y10000000D03*
%TD*%
D14*
%TO.P,EC1,1,JD_DATA*%
%TO.N,/JD_DATA*%
X2180000Y-8806500D03*
D26*
X1913500Y-8006500D03*
D27*
X1725000Y-9795000D03*
D28*
X1270000Y-11275000D03*
D18*
X651000Y-7740000D03*
D29*
X-815000Y-8195000D03*
D20*
X-1270000Y-8650000D03*
D21*
%TO.P,EC1,2,GND*%
%TO.N,GND*%
X0Y-11525000D03*
D30*
X0Y-11525000D03*
D20*
X0Y-8650000D03*
%TO.P,EC1,3,JD_PWR*%
%TO.N,JD_PWR*%
X1270000Y-8650000D03*
D31*
X845000Y-9075000D03*
D24*
X-50000Y-9500000D03*
D32*
X-895000Y-9875000D03*
D30*
X-1270000Y-11525000D03*
%TD*%
D33*
%TO.N,+3V3*%
X10100000Y650000D03*
%TO.N,/SERIAL*%
X9300000Y4250000D03*
%TO.N,GND*%
X1600000Y7400000D03*
X-10750000Y0D03*
X-8791100Y1500000D03*
X-7250000Y1500000D03*
X2800000Y8000000D03*
X-7000000Y-6376000D03*
X-7000000Y-1750000D03*
%TO.N,+3V3*%
X-10800000Y-2600000D03*
X6100000Y-5400000D03*
X-10896950Y3496950D03*
%TO.N,/SWDIO*%
X11000000Y-250000D03*
X8629269Y1201000D03*
X6000000Y1200000D03*
%TO.N,/SWCLK*%
X-10875000Y5375000D03*
X-7250000Y6500000D03*
X5200000Y400000D03*
%TO.N,/nRESET*%
X-2000000Y1610451D03*
X7400000Y-1200000D03*
%TO.N,/SERIAL*%
X8813804Y-4225000D03*
%TO.N,JD_PWR*%
X-10800000Y-1000000D03*
X-7000000Y0D03*
X2460000Y-7460000D03*
%TO.N,/JD_DATA*%
X-10797802Y-5000000D03*
X-7200000Y-7200000D03*
X-3200000Y6800000D03*
%TO.N,/JD_DATA_MCU*%
X2400000Y4600000D03*
X4224265Y2624265D03*
%TO.N,Net-(D7-Pad1)*%
X4600000Y-5400000D03*
X-800000Y7000000D03*
%TO.N,/nRESET-SAFE*%
X-11500000Y1500000D03*
X-3852825Y1135875D03*
%TD*%
D34*
%TO.N,/JD_DATA_MCU*%
X4224265Y2624265D02*
X4224265Y2775735D01*
X4224265Y2775735D02*
X2400000Y4600000D01*
%TO.N,/SERIAL*%
X7900000Y2850000D02*
X9300000Y4250000D01*
X7900000Y1080326D02*
X7900000Y2850000D01*
X8813804Y-4225000D02*
X8800000Y-4211196D01*
X8800000Y-4211196D02*
X8800000Y180326D01*
X8800000Y180326D02*
X7900000Y1080326D01*
%TO.N,+3V3*%
X10300000Y-3800000D02*
X10300000Y450000D01*
X10300000Y450000D02*
X10100000Y650000D01*
X8700000Y-5400000D02*
X10300000Y-3800000D01*
X6100000Y-5400000D02*
X8700000Y-5400000D01*
%TO.N,Net-(D7-Pad1)*%
X1049943Y7000000D02*
X-800000Y7000000D01*
X8001000Y-1999000D02*
X8001000Y48943D01*
X8001000Y48943D02*
X1049943Y7000000D01*
X4600000Y-5400000D02*
X8001000Y-1999000D01*
%TO.N,/SWDIO*%
X11000000Y800000D02*
X11000000Y-250000D01*
X10300000Y1500000D02*
X11000000Y800000D01*
X8629269Y1201000D02*
X8631000Y1201000D01*
X8631000Y1201000D02*
X8930000Y1500000D01*
X8930000Y1500000D02*
X10300000Y1500000D01*
%TO.N,GND*%
X1600000Y7400000D02*
X2800000Y7400000D01*
X-7000000Y-1750000D02*
X-7000000Y-6250000D01*
X2800000Y8000000D02*
X2800000Y7400000D01*
X2800000Y7400000D02*
X7400000Y7400000D01*
X-8791100Y1500000D02*
X-7250000Y1500000D01*
X7400000Y7400000D02*
X10000000Y10000000D01*
%TO.N,+3V3*%
X-10800000Y1432900D02*
X-10800000Y3600000D01*
X-9999000Y631900D02*
X-10800000Y1432900D01*
X-9999000Y-1799000D02*
X-9999000Y631900D01*
X-10800000Y-2600000D02*
X-9999000Y-1799000D01*
%TO.N,/SWDIO*%
X4800000Y1200000D02*
X5600000Y1200000D01*
X1130000Y4870000D02*
X4800000Y1200000D01*
X-7949100Y4870000D02*
X1130000Y4870000D01*
X5600000Y1200000D02*
X6000000Y1200000D01*
%TO.N,/SWCLK*%
X2600000Y2000000D02*
X4200000Y400000D01*
X-7949100Y3600000D02*
X1000000Y3600000D01*
X-9750000Y6500000D02*
X-10875000Y5375000D01*
X-7250000Y6500000D02*
X-9750000Y6500000D01*
X4200000Y400000D02*
X5200000Y400000D01*
X1000000Y3600000D02*
X2600000Y2000000D01*
%TO.N,/nRESET*%
X-2000000Y1750000D02*
X-1420000Y2330000D01*
X870000Y2330000D02*
X4400000Y-1200000D01*
X-2000000Y1610451D02*
X-2000000Y1750000D01*
X-1420000Y2330000D02*
X870000Y2330000D01*
X4400000Y-1200000D02*
X7400000Y-1200000D01*
%TO.N,JD_PWR*%
X2460000Y-7460000D02*
X-5000000Y0D01*
X-5000000Y0D02*
X-7000000Y0D01*
%TO.N,/JD_DATA*%
X-9500000Y-4900000D02*
X-7200000Y-7200000D01*
X-4250000Y5750000D02*
X-9836788Y5750000D01*
X-10256700Y1456700D02*
X-9500000Y700000D01*
X-3200000Y6800000D02*
X-4250000Y5750000D01*
X-10797802Y-5000000D02*
X-10697802Y-4900000D01*
X-10256700Y5330088D02*
X-10256700Y1456700D01*
X-10697802Y-4900000D02*
X-9500000Y-4900000D01*
X-9836788Y5750000D02*
X-10256700Y5330088D01*
X-9500000Y700000D02*
X-9500000Y-4900000D01*
%TO.N,/nRESET-SAFE*%
X-3852825Y1135875D02*
X-4635875Y1135875D01*
X-4635875Y1135875D02*
X-5830000Y2330000D01*
X-5830000Y2330000D02*
X-9523900Y2330000D01*
%TD*%
M02*
